<?xml version="1.0" standalone="no"?>
<!DOCTYPE svg PUBLIC "-//W3C//DTD SVG 20010904//EN"
 "http://www.w3.org/TR/2001/REC-SVG-20010904/DTD/svg10.dtd">
<svg version="1.0" xmlns="http://www.w3.org/2000/svg"
 width="576.000000pt" height="576.000000pt" viewBox="0 0 576.000000 576.000000"
 preserveAspectRatio="xMidYMid meet">
<metadata>
Created by potrace 1.14, written by Peter Selinger 2001-2017
</metadata>
<g transform="translate(0.000000,576.000000) scale(0.100000,-0.100000)"
fill="#000000" stroke="none">
<path d="M3837 5144 c-1 -1 -19 -5 -40 -8 -84 -13 -166 -67 -184 -121 -5 -16
-24 -37 -42 -47 -18 -11 -39 -24 -45 -31 -26 -26 -66 -93 -66 -109 0 -19 15
-24 25 -8 3 6 26 10 51 10 39 0 44 -3 45 -22 0 -13 3 -43 6 -67 3 -23 2 -72
-2 -107 l-6 -63 -27 10 c-110 42 -489 116 -687 134 -38 4 -72 8 -75 10 -27 17
-602 26 -739 12 -663 -67 -1215 -398 -1456 -873 -37 -74 -85 -201 -87 -231 0
-5 -4 -17 -8 -29 -8 -21 -23 -155 -23 -209 0 -47 13 -146 25 -190 6 -22 11
-44 13 -50 8 -37 55 -139 87 -190 59 -93 130 -173 218 -244 25 -20 47 -39 50
-42 3 -3 41 -27 85 -54 100 -60 215 -114 322 -149 46 -15 83 -29 83 -31 0 -2
-23 -28 -52 -57 -108 -111 -169 -246 -184 -405 l-5 -53 291 0 291 0 -15 -28
c-16 -30 -53 -142 -61 -182 -3 -14 -8 -55 -11 -92 l-7 -68 522 0 c287 0 520
-4 517 -8 -13 -22 51 -187 100 -256 22 -32 18 -36 -46 -36 l-60 0 0 -250 0
-250 450 0 450 0 0 31 0 30 48 -8 c86 -15 330 -8 422 11 317 67 590 214 810
435 236 238 377 528 423 869 14 102 16 422 3 507 -3 22 -8 56 -10 75 -13 102
-20 143 -36 220 -44 204 -93 347 -176 517 -49 99 -179 308 -215 346 -8 8 -33
36 -55 63 -172 203 -410 385 -686 525 -51 25 -88 50 -88 59 0 21 70 89 85 83
22 -8 37 35 41 121 4 91 8 121 23 186 15 65 13 127 -5 166 -34 71 -153 142
-247 147 -21 2 -39 2 -40 1z"/>
</g>
</svg>
