<svg fill="none" xmlns="http://www.w3.org/2000/svg" viewBox="124.98 120.2 485.52 406.38"><path d="M333.45 141.05c-83.87-57.27-217.33 7.64-208 144.18 15.9 232.82 178.14 259.86 320 232.82 185.64-35.39 228.47-247.76 57.05-232.82-137.56 11.99-64.21-72.6-169.05-144.18z" fill="#FCDDD4"/><mask id="a" x="124" y="120" width="487" height="407" style="mask-type:alpha" maskUnits="userSpaceOnUse"><path d="M333.45 141.05c-83.87-57.27-217.33 7.63-208 144.18 15.9 232.82 178.14 259.86 320 232.82 185.64-35.39 228.47-247.75 57.05-232.82-137.56 11.99-64.21-72.6-169.05-144.18z" fill="#FCDDD4"/></mask><g mask="url(#a)"><path d="M100.52 156.14c27.63-12.13 92.8-29.61 132.47-2.49 49.58 33.9-103.79 77.74-56.6 103.54 47.2 25.8 135.39-82.6 169.48-63.96 34.09 18.63-86.73 68.34-51.58 94.36 35.15 26.02 138.25-87.84 180.92-66.22s-102 83.82-33.83 121.08" opacity=".7" stroke="url(#w)" stroke-width="2"/><path d="M270.45 545.05c0-27.61 22.39-50 50-50h267v110h-317v-60z" fill="#F58A6B"/></g><path d="M157.81 299.68c1.64 1.35 2.92 2.79 3.93 4.18l2.63-3.51c-1.25-1.32-2.46-2.53-3.92-3.67l-2.64 3z" clip-rule="evenodd" fill="#3E1A0B" fill-rule="evenodd"/><path d="M166.35 305.81c-1.48-2.67-4.78-3.56-7.42-1.97l-3.5 2.21c-2.63 1.6-3.47 5.14-2.11 7.84 1.48 2.67 4.78 3.56 7.42 1.97l3.5-2.21c2.63-1.6 3.62-5.05 2.11-7.84z" clip-rule="evenodd" fill="#F69E9F" fill-rule="evenodd"/><path d="M307.55 194.24l-61.83 10.19-3.3-19.91a3.375 3.375 0 00-3.78-2.69l-49.01 8.03c-1.7.33-2.93 1.93-2.69 3.78l3.3 19.91-58.28 9.62c-1.46.26-2.6 1.72-2.34 3.18l39.9 243.15c.26 1.46 1.72 2.6 3.18 2.34l175.62-28.82c1.46-.26 2.6-1.72 2.34-3.18l-40.01-243.12c-.06-1.64-1.6-2.63-3.1-2.49z" clip-rule="evenodd" fill="url(#l)" fill-rule="evenodd"/><path d="M298.97 225.05l-154.33 25.4c-1.34.23-2.28 1.5-2.04 2.84l34.56 210.4c.23 1.34 1.5 2.28 2.84 2.04l154.33-25.4c1.34-.23 2.28-1.5 2.04-2.84l-34.56-210.4c-.23-1.34-1.5-2.28-2.84-2.04z" clip-rule="evenodd" fill="#F36F49" fill-rule="evenodd"/><path d="M298.49 217.59l-150.58 24.66c-1.34.23-2.16 1.47-1.93 2.81l33.73 205.39c.23 1.34 1.47 2.16 2.81 1.93l150.66-24.8c1.34-.23 2.16-1.47 1.93-2.81l-33.73-205.39c-.32-1.19-1.56-2-2.9-1.77z" clip-rule="evenodd" fill="#FAFBFC" fill-rule="evenodd"/><path d="M292.96 226.47l-136.98 22.55c-.75.07-1.4.5-1.75 1.1s-.55 1.3-.47 2.04l31.13 189.5c.07.75.5 1.4 1.1 1.75.6.35 1.3.55 2.04.47l137.01-22.43c.75-.07 1.4-.5 1.75-1.1.35-.6.55-1.3.47-2.04L296.1 228.69c-.07-.75-.5-1.4-1.1-1.75-.6-.35-1.3-.55-2.04-.47zm33.2 192.01c.13.48-.01.9-.3 1.23-.3.33-.62.55-1.1.68L187.9 442.9c-.48.13-.9-.01-1.23-.3-.33-.3-.55-.62-.68-1.1l-31.16-189.62c-.13-.48.01-.9.3-1.23.3-.33.62-.55 1.1-.68l136.98-22.55c.48-.13.9.01 1.23.3.33.3.55.62.68 1.1l31.04 189.65z" fill="#F58A6B" opacity=".8"/><path d="M214.92 191.38c-2.92.53-4.88 3.22-4.35 6.14.53 2.92 3.22 4.88 6.14 4.35 2.92-.53 4.88-3.22 4.35-6.14-.5-2.8-3.22-4.88-6.14-4.35z" clip-rule="evenodd" fill="#FAFBFC" fill-rule="evenodd"/><path d="M256.04 199.63l-77 12.6c-1.7.33-2.93 1.93-2.69 3.78l3.59 21.49c.33 1.7 1.93 2.93 3.78 2.69l77-12.6c1.7-.33 2.93-1.93 2.69-3.78l-3.5-21.64c-.45-1.67-2.17-2.86-3.87-2.54z" clip-rule="evenodd" fill="#F58A6B" fill-rule="evenodd"/><path d="M214.6 209.71l-29.34 4.8c-1.34.23-2.28 1.5-2.04 2.84l2.79 16.6c.23 1.34 1.5 2.28 2.84 2.04l29.34-4.8c1.34-.23 2.28-1.5 2.04-2.84l-2.79-16.6c-.23-1.34-1.5-2.28-2.84-2.04z" clip-rule="evenodd" fill="#F36F49" fill-rule="evenodd" opacity=".8"/><path d="M210.51 264.02l.34 2.07 80.62-13.25-.34-2.07-80.62 13.25zm.85 5.23l.34 2.07 80.62-13.25-.34-2.07-80.62 13.25zm41.06-1.55l.34 2.07 40.37-6.64-.34-2.07-40.37 6.64zm-40.22 6.64l.34 2.07 37.82-6.22-.34-2.07-37.82 6.22zm3.87 23.86l.34 2.07 80.62-13.25-.34-2.07-80.62 13.25zm.85 5.24l.34 2.07 80.62-13.25-.34-2.07-80.62 13.25zm41.18-1.57l.34 2.07 40.37-6.64-.34-2.07-40.37 6.64zm-40.33 6.66l.34 2.07 37.82-6.22-.34-2.07-37.82 6.22zm3.35 20.33l.34 2.07 80.62-13.25-.34-2.07-80.62 13.25zm.86 5.24l.34 2.07 80.62-13.25-.34-2.07-80.62 13.25zm41.18-1.57l.34 2.07 40.37-6.64-.34-2.07-40.37 6.64zm-40.34 6.66l.34 2.07 37.82-6.22-.34-2.07-37.82 6.22zm3.48 21.25l.34 2.07 80.62-13.25-.34-2.07-80.62 13.25zm.87 5.36l.34 2.07 80.62-13.25-.34-2.07-80.62 13.25zm41.18-1.57l.34 2.07 40.37-6.64-.34-2.07-40.37 6.64zm-40.34 6.66l.34 2.07 37.82-6.22-.34-2.07-37.82 6.22zm3.38 20.93l.34 2.07 80.62-13.25-.34-2.07-80.62 13.25zm.85 5.23l.34 2.07 80.62-13.25-.34-2.07-80.62 13.25zm41.18-1.56l.34 2.07 40.37-6.64-.34-2.07-40.37 6.64zm-40.22 6.64l.34 2.07 37.82-6.22-.34-2.07-37.82 6.22zm-60.73-137.76l-.98.14.14.98 3.03 18.45.14.98.98-.14 19.8-3.26.98-.14-.14-.98-3.03-18.45-.14-.98-.98.14-19.8 3.26zm21.87 15.44l-17.98 2.9-2.79-16.6 17.86-2.87 2.9 16.57zm-16.24 19.4l-.98.14.26.95 3.03 18.45.14.98.98-.14 19.8-3.26.98-.14-.14-.98-3.03-18.45-.14-.98-.98.14-19.91 3.3zm21.87 15.44l-17.86 2.87-2.79-16.6 17.86-2.87 2.79 16.6zm-16.37 17.92l-.98.14.14.98 3.03 18.45.14.98.98-.14 19.8-3.26.98-.14-.14-.98-3.03-18.45-.14-.98-.98.14-19.8 3.26zm21.87 15.44l-17.86 2.87-2.79-16.6 17.86-2.87 2.79 16.6zm-16.32 18.15l-.98.14.14.98 3.06 18.57.14.98.98-.14 19.8-3.26.98-.14-.14-.98-3.03-18.45-.14-.98-.98.14-19.83 3.14zm21.87 15.44l-17.86 2.87-2.79-16.6 17.86-2.87 2.79 16.6zm-16.51 16.92l-.98.14.14.98 3.03 18.45.14.98.98-.14 19.8-3.26.98-.14-.14-.98-3.03-18.45-.14-.98-.98.14-19.8 3.26zm21.84 15.32l-17.86 2.87-2.79-16.6 17.86-2.87 2.79 16.6z" fill="#EE4D47" opacity=".2"/><path d="M184.78 273.19l-10.33-6.16-1.17 1.84 11.35 6.65.9.52.52-.9 13.97-22.62-1.81-1.04-13.45 21.72z" fill="#EE4D47"/><path d="M190.68 308.98l-10.33-6.16-1.17 1.84 11.35 6.65.87.4.56-.79 13.94-22.74-1.81-1.04-13.41 21.84zm11.27 68.29l-10.45-6.13-1.04 1.81 11.23 6.68.9.52.52-.9 14.09-22.65-1.84-1.16-13.41 21.84z" fill="#F58A6B"/><path d="M172.55 483.24a1.953 1.953 0 00-1.4 2.41 1.959 1.959 0 002.42 1.4c1.07-.29 1.68-1.34 1.4-2.41s-1.34-1.68-2.42-1.4z" clip-rule="evenodd" fill="#FAFBFC" fill-rule="evenodd"/><path d="M201.94 474.84c.74-.33 1.08-1.2.74-1.95s-1.21-1.08-1.96-.74-1.08 1.21-.74 1.96 1.21 1.08 1.96.74zm40.79-12.06c.6-.16.94-.77.79-1.36-.16-.6-.77-.94-1.36-.78-.6.16-.94.77-.78 1.36.16.6.77.94 1.36.78z" fill="#FAFBFC"/><path d="M263.94 458.62c-.95.26-1.48 1.16-1.22 2.11s1.16 1.48 2.11 1.22 1.48-1.16 1.22-2.11c-.22-.83-1.16-1.48-2.11-1.22zm32.26-7.24c-.36.1-.53.4-.44.76s.4.53.76.44c.36-.1.53-.4.43-.76.02-.39-.4-.53-.75-.44zm66.62-21.8c-.6.16-.82.73-.7 1.2.16.6.73.82 1.2.7.6-.16.82-.73.7-1.2 0-.5-.61-.86-1.2-.7z" clip-rule="evenodd" fill="#FAFBFC" fill-rule="evenodd"/><path d="M473.93 238.05c0-11.05-8.96-20-20-20h-75.48c-11.04 0-20 8.95-20 20v10.4c0 11.05 8.96 20 20 20h95.48v-30.4z" fill="#fff"/><circle transform="matrix(-1 0 0 1 447.77 243.57)" r="3.828" fill="#F4A984"/><circle transform="matrix(-1 0 0 1 431.82 243.57)" r="3.828" fill="#F4A984"/><circle transform="matrix(-1 0 0 1 415.87 243.57)" r="3.828" fill="#F4A984"/><circle transform="matrix(-1 0 0 1 399.92 243.57)" r="3.828" fill="#F4A984"/><circle transform="matrix(-1 0 0 1 383.97 243.57)" r="3.828" fill="#F4A984"/><path d="M324.45 405.55c-43.6 0-21.5-63-5-94.5 8.83-6.67 30.5-20.1 46.5-20.5s26 19.5 29 29.5c-1.83.17-3.7 7.8 3.5 37s3.67 44.5 1 48.5h-75z" fill="#402B2B"/><path d="M370.05 390.59c-4.11-7.19-1.03-18.32-1.03-18.32l-12.68 2.57-12.68-2.57s1.54 5.3 1.03 11.13c4.46 5.13 14.74 14.72 25.36 7.19z" fill="url(#h)"/><path d="M368.24 376.28c-2.77 1.67-6.28 3.22-10.2 4.4-4.92 1.49-9.62 2.14-13.3 2 .34-5.53-1.08-10.41-1.08-10.41l12.68 2.57 12.68-2.57s-.45 1.61-.77 4z" fill="url(#g)" style="mix-blend-mode:multiply"/><path d="M325.32 400.69c7.37 6.5 21.93 20.71 31.19 20.71s25.7-13.52 33.07-20.03c-3.6-1.37-14.56-5.65-17.14-7.87-.86-.86-1.71-1.88-2.23-2.91-10.62 7.53-20.9-2.05-25.36-7.36-.34 3.77-1.37 7.53-4.28 10.1-2.91 2.4-11.82 6-15.25 7.36z" fill="url(#f)"/><path d="M391.22 333.42c-1.2-2.23-3.08-2.57-4.28-2.23 0 0-3.43-10.96-5.83-19-8.05-3.77-15.6-7.02-24.68-7.7v-.17h-5.14c-5.66.17-11.31.34-16.8 1.37-1.37.34-2.74.69-4.11.69-1.71 9.07-4.63 25-5.83 24.82h-.17c-.17 0-.17 0-.34-.17-1.2-.34-2.57 0-3.77 2.05-2.06 3.77 0 11.3 2.74 13.52 1.37 1.03 2.57 1.88 3.43 2.4 1.37 6.85 3.77 13.35 7.37 17.29 9.42 10.1 18.16 12.32 20.56 12.67h1.03c1.71-.17 11.14-1.88 21.25-12.84 3.6-3.77 6.17-6.5 7.71-16.6 1.03-.51 2.06-1.37 3.77-2.74 3.08-2.05 5.14-9.59 3.08-13.35z" fill="url(#e)"/><path d="M356.18 343.05s.13 3.86-.91 5.13-3.02 2.5-3.19 3.45c-.2.77.64 2.12 2.08 2.45 1.45.33 1.68.85 1.68.85s-2.67.78-4.34-1c-1.67-1.77-.4-3.63.82-4.74s1.77-1.57 2.3-2.2c.67-.66 1.56-3.93 1.56-3.93zm10.33 17h-20.7c-.68 0-1.15.66-.88 1.27 1.46 3.33 5.04 8.23 11.02 8.23 5.95 0 9.78-4.85 11.43-8.19.3-.62-.17-1.31-.86-1.31z" fill="#D87C60"/><path d="M366.42 363.05h-20.6c-.35-.6-.65-1.18-.88-1.73-.27-.62.2-1.27.88-1.27h20.7c.7 0 1.17.7.86 1.31-.26.53-.58 1.1-.95 1.69z" clip-rule="evenodd" fill="#fff" fill-rule="evenodd"/><path d="M376.04 292c25.53 3.25 19.53 34.4 14.56 39.88l-3.66 6.17c-1.83-3.17-5.6-11.9-6-21.5-3.83 2.5-15.3 7.5-30.5 7.5-19 0-24.2 3.15-26 12-4.46-9.93-7.52-30.02 3.45-41.31 15.08-15.75 37.87-19.51 48.15-2.74z" fill="#402B2B"/><path d="M324.47 335.99l.86 7.36s-2.57-1.37-3.08-4.8c-.17-2.05.69-3.42 2.23-2.57zm62.2 0l-.86 7.36s2.57-1.37 3.08-4.8c.17-2.05-.51-3.42-2.23-2.57z" fill="#ED8A40"/><path d="M373.13 344.31c0 1.54-1.2 2.91-2.91 2.91-1.54 0-2.91-1.2-2.91-2.91 0-1.54 1.2-2.91 2.91-2.91 1.71 0 2.91 1.37 2.91 2.91zm-30.5 2.91c1.6 0 2.91-1.3 2.91-2.91s-1.3-2.91-2.91-2.91-2.91 1.3-2.91 2.91 1.3 2.91 2.91 2.91z" fill="#402B2B"/><path d="M334.99 338.91c1.25-1.36 4.9-4.09 9.54-4.09m23.5.12c1.85-.08 6.36.58 9.63 3.85" stroke="#402B2B" stroke-width="2"/><path d="M417.51 439.55c.69-18.49-4.97-29.44-13.54-34.06-8.57-4.62-28.79-10.44-29.47-10.61l-18.33 14.55-17.48-14.55c-.69.17-21.42 6-29.82 10.61-8.57 4.62-14.22 15.58-13.54 34.06.51 14.9-.51 38.34-.34 55.46h123.03c0-17.12-1.03-40.57-.51-55.46z" fill="url(#d)"/><path d="M366.28 401.2l-4.8-2.23-5.48 10.1-5.48-10.1-4.97 2.23 7.2 11.64V495h6.68v-82.67l6.85-11.13z" fill="#EE4D47" fill-opacity=".29" style="mix-blend-mode:multiply"/><path d="M344.69 383.23c-.17 4.96 6.85 17.8 6.85 17.8l-12.17 11.81-3.94-17.12s3.94-10.44 9.25-12.5zm23.3 0c.17 4.96-7.71 17.97-7.71 17.97l12.85 11.64 3.94-17.29s-3.77-10.27-9.08-12.32zm-9.94 32.52c0 1.03-.86 1.88-1.89 1.88s-1.89-.86-1.89-1.88.86-1.88 1.89-1.88 1.89.85 1.89 1.88zm0 17.46c0 1.03-.86 1.88-1.89 1.88s-1.89-.86-1.89-1.88.86-1.88 1.89-1.88 1.89.68 1.89 1.88zm0 17.12c0 1.03-.86 1.88-1.89 1.88s-1.89-.85-1.89-1.88.86-1.88 1.89-1.88 1.89.86 1.89 1.88zm0 19c0 1.03-.86 1.88-1.89 1.88s-1.89-.85-1.89-1.88c0-1.03.86-1.88 1.89-1.88s1.89.85 1.89 1.88z" fill="#fff"/><path d="M298.08 410.62s-18.16 48.78-19.53 56.83c-1.2 8.04 9.08 26.7 13.88 27.39 7.03 1.03 12.68-1.03 19.7-13 6.85-11.98 5.66-63.16 5.66-63.16l-19.7-8.04z" fill="url(#c)"/><path d="M317.96 413.87s-1.2 58.88-3.77 66.24c-4.11 11.81-14.56 15.06-14.56 15.06h11.65s9.08-6 9.94-23.96c.51-10.78-1.37-45.19-2.4-56.66-.34-3.08-.86-.68-.86-.68z" fill="#EE4D47" fill-opacity=".29" style="mix-blend-mode:multiply"/><path d="M321.98 408.32l-19.7-7.95-4.1 10.16 19.7 7.95 4.1-10.16z" fill="#fff"/><path d="M396.44 422.26s-7.03 33.38-7.54 47.07c-.51 13.7 0 25.5 0 25.5l4.97.34s1.2-59.9 2.57-72.92z" fill="#EE4D47" fill-opacity=".29" style="mix-blend-mode:multiply"/><path d="M336.8 376.04c-9.42 0-12.5-4.62-14.4-11.64-.86-3.77-1.2-13.87-1.2-14.2h2.74c0 .17.34 10.27 1.2 13.7 1.71 6.68 4.28 10.1 13.54 9.41l.17 2.74h-2.06zm19.37-93.11c-7.54-.69-24.85-.17-32.73 14.9 0 0 2.06 3.6 4.46 1.2 8.57-7.7 20.56-7.87 27.93-7.87 7.54 0 20.05 0 28.45 7.87 2.57 2.23 4.46-1.2 4.46-1.2-7.71-15.06-25.02-15.58-32.56-14.9z" fill="#fff"/><path d="M396.78 334.62s-.34-10.44-.51-13.35c-.34-5.65-1.2-14.9-3.08-19.86-6.17-16.95-26.22-20.2-36.67-20.2-10.62 0-31.02 3.25-37.18 20.03-1.71 4.8-2.57 13.35-3.08 19.17-.17 3.42-.34 14.04-.34 14.04h2.91s0-10.61.34-14.04c.34-4.45 1.2-10.96 3.43-17.12 5.14-14.55 24.16-16.09 33.41-16.09 9.43 0 28.79 1.54 33.93 16.09 2.4 6.85 3.26 13.87 3.6 18.32.17 2.91.34 13 .34 13h2.91z" fill="url(#b)"/><path d="M319.5 332.57h-3.77v16.09h3.77v-16.09z" fill="#fff"/><path d="M326.18 351.74h-4.28c-2.06 0-3.77-1.71-3.77-3.77v-14.72c0-2.05 1.71-3.77 3.77-3.77h4.28c.51 0 .86.34.86.86v20.37c0 .51-.34 1.03-.86 1.03z" fill="url(#a)"/><path d="M314.18 350.02h-.17c-.86 0-1.54-.68-1.54-1.54v-16.09c0-.86.69-1.54 1.54-1.54h.17c.86 0 1.54.69 1.54 1.54v16.09c0 .86-.69 1.54-1.54 1.54z" fill="url(#v)"/><path d="M392.62 348.93h3.77v-16.09h-3.77v16.09z" fill="#fff"/><path d="M386.15 352.08h4.28c2.06 0 3.77-1.71 3.77-3.77v-14.72c0-2.05-1.71-3.77-3.77-3.77h-4.28c-.51 0-.86.34-.86.86v20.37c-.17.51.34 1.03.86 1.03z" fill="url(#u)"/><path d="M397.98 350.37h.17c.86 0 1.54-.69 1.54-1.54v-16.09c0-.86-.69-1.54-1.54-1.54h-.17c-.86 0-1.54.68-1.54 1.54v16.09c0 .86.69 1.54 1.54 1.54z" fill="url(#t)"/><path d="M346.91 374.33c0 1.71-2.06 3.25-4.8 3.25-2.57 0-4.8-1.37-4.8-3.25s2.06-3.25 4.8-3.25c2.57 0 4.8 1.37 4.8 3.25z" fill="url(#s)"/><path d="M311.1 363.38c1.6-1.5 3.42-2.52 5.17-3.4 3.15-2.04 6.83-4.36 8.2-5 2.74-1.37 4.46 1.03.51 4.45-.85.74-1.85 1.53-2.88 2.32 2.14-.82 4.03-1.52 4.93-1.8 2.91-.85 4.28 1.88-.34 4.45-1.88 1.04-4.25 2.17-6.39 3.15l.73 2.33s2.06-1.88 2.74-2.4c4.28-2.91 6.51-.51 4.63 2.05-2.06 2.57-5.14 9.93-4.11 15.06.69 3.42.17 8.22-.69 11.98-.86 3.6-6.17 14.2-6.17 14.2l-13.7-4.8s3.08-3.25 2.57-11.13c-.15-2.58-1.18-5.3-2.2-8-1.28-3.39-2.56-6.76-2.08-9.8.86-4.8 7.88-12.5 9.08-13.7z" clip-rule="evenodd" fill="url(#r)" fill-rule="evenodd"/><path d="M323.44 383.92c.34-4.28 0-5.13-.34-7.19-.34-2.4.17-5.48-.86-7.7-1.2-2.4-3.08-3.77-6.34-3.08-4.28 1.03-6 3.25-6 3.25s3.43-1.37 5.14-1.88c2.57-.69 5.14-.51 6.17 2.57.51 1.88.86 4.45 1.2 6.33.17 1.37 1.2 7.36.34 7.53-.86 0-2.74-.51-3.6-3.6-.17.69-.34 5.3-.86 5.3-3.08-.34-3.43-2.74-3.6-5.3 0-1.2-.17-2.91-.51-5.13-1.2 1.88-4.11 3.6-5.31 4.45 1.37 1.2 3.94 4.1 4.97 5.3 1.89 2.23 3.6 5.65 3.94 9.24 4.63-4.45 2.06-9.07 1.89-10.61 1.2 1.37 3.6 2.4 3.77.51z" fill="#EB5046" opacity=".3"/><path d="M517.76 383.92c0-2.57-2.06-4.45-4.8-4.45H386.33c-2.57 0-4.8 2.05-4.8 4.45v78.74h136.06v-78.74h.17z" fill="url(#q)"/><path d="M386.5 477.55h126.63c2.57 0 4.8-2.05 4.8-4.45v-10.27H381.87v10.27c-.17 2.4 2.06 4.45 4.63 4.45z" fill="#CA3F3A"/><path d="M469.61 475.66h-33.93v16.09h33.93v-16.09z" fill="#CA3F3A"/><path d="M473.72 475.66h-33.93v16.09h33.93v-16.09z" fill="url(#p)"/><path d="M468.06 490.21h-41.98v4.62h41.98v-4.62z" fill="url(#o)"/><path d="M481.77 490.21h-41.98v4.62h41.98v-4.62z" fill="url(#n)"/><path d="M524.78 383.92c0-2.57-2.06-4.45-4.8-4.45H393.52c-2.57 0-4.8 2.05-4.8 4.45v78.74h136.06v-78.74z" fill="url(#m)"/><path d="M393.52 477.55h126.63c2.57 0 4.8-2.05 4.8-4.45v-10.27H388.89v10.27c-.17 2.4 1.89 4.45 4.63 4.45z" fill="url(#k)"/><path d="M469.09 413.87c0 6.85-5.48 12.32-12.34 12.32-6.86 0-12.34-5.48-12.34-12.32 0-6.85 5.48-12.32 12.34-12.32 6.85 0 12.34 5.48 12.34 12.32z" fill="#fff" opacity=".2"/><path d="M354.11 490.21h-29.3v4.45h29.3v-4.45z" fill="url(#j)"/><path d="M402.78 490.21h-61.52v4.45h61.52v-4.45z" fill="url(#i)"/><g clip-path="url(#y)"><path d="M593.45 461.02h-80v33.93h80v-33.93z" fill="#FCDDD4"/><path d="M553.89 452.18v.08c.64-1.77 1.9-4.58 4.04-8.79 4.24-8.04 8.98-14.22 8.98-14.22s-2.07 6.87-6.31 14.9c-3.75 7.2-5.8 10.1-6.7 10.54v.41c1.09-1.43 3.48-3.88 7.7-7.71 7-6.28 13.9-10.79 13.9-10.79s-4.44 5.79-11.44 12.16c-4.1 3.69-6.83 5.9-8.53 7.03 1.73-1.07 4.42-2.54 8.33-4.48 8.68-4.32 16.57-6.96 16.57-6.96s-6.12 4.41-14.8 8.73c-6.61 3.36-10.19 4.79-11.74 5.06v.3c1.4-.77 4.95-2 11.74-3.88 9.57-2.65 17.95-3.82 17.95-3.82s-7.3 3.24-16.87 5.88c-3.12.86-5.61 1.5-7.56 1.94 1.98-.33 4.53-.68 7.76-1.06 10.16-1.27 18.64-1.18 18.64-1.18s-7.99 2.16-18.15 3.33c-8.18 1.03-12.2 1.16-13.51.87v.2h-.99v-.14c-.18.05-.44.1-.79.14h-2.86c-2.17-.1-5.42-.3-9.96-.88-10.16-1.27-18.15-3.33-18.15-3.33s8.48-.1 18.64 1.18c3.05.35 5.5.68 7.43.98-1.9-.44-4.28-1.05-7.23-1.86-9.67-2.65-16.87-5.88-16.87-5.88s8.38 1.18 17.95 3.82c6.95 1.92 10.52 3.17 11.84 3.94v-.35c-1.5-.25-5.08-1.7-11.84-5.07-8.68-4.32-14.8-8.73-14.8-8.73s7.9 2.65 16.57 6.96c3.67 1.82 6.26 3.23 8 4.28-1.73-1.19-4.37-3.35-8.2-6.83-7-6.37-11.44-12.16-11.44-12.16s6.9 4.41 13.9 10.79c3.01 2.74 5.1 4.77 6.43 6.23-1.15-1.49-2.94-4.43-5.54-9.37-4.24-8.04-6.31-14.9-6.31-14.9s4.83 6.18 8.98 14.22c2.39 4.64 3.7 7.61 4.24 9.34v-.92c-.53-1.22-.89-4.73-.89-11.75 0-9.02 1.38-16.38 1.38-16.38s1.38 7.35 1.38 16.38c0 7.01-.36 10.53-.89 11.75zm-.99 2.87c-.15-.01-.34-.12-.58-.34.23.27.42.51.58.73v-.39zm0 1.86c-.24-.06-.55-.2-.94-.42.38.25.7.47.94.67v-.25zm.99-.02c.27-.2.6-.44 1-.7-.41.25-.75.4-1 .5v.2zm-.99 2.68c-.32.02-.77 0-1.36-.07.63.16 1.08.31 1.36.45v-.38zm.99.22c.37-.17.96-.36 1.8-.56-.8.12-1.4.17-1.8.15v.41z" clip-rule="evenodd" fill="#F37753" fill-rule="evenodd"/><path d="M548.07 460.73h-18.45c2.86-.2 6.31-.3 9.96-.3 3.55 0 6.41.1 8.48.3zm10.56 0h18.45c-2.86-.2-6.31-.4-9.96-.3-3.65.1-6.41.2-8.48.3z" fill="#F37753"/></g><path d="M426.45 299.05c0-11.05 8.96-20 20-20h112.62c11.05 0 20 8.95 20 20v26.61c0 11.05-8.95 20-20 20H426.45v-46.61z" fill="#F69477"/><circle cx="461.02" cy="312.78" r="5.059" fill="#fff" opacity=".5"/><circle cx="482.1" cy="312.78" r="5.059" fill="#fff" opacity=".5"/><circle cx="503.18" cy="312.78" r="5.059" fill="#fff" opacity=".5"/><circle cx="524.26" cy="312.78" r="5.059" fill="#fff" opacity=".5"/><circle cx="545.34" cy="312.78" r="5.059" fill="#fff" opacity=".5"/><defs><linearGradient id="w" x1="309.86" x2="227.4" y1="178.12" y2="328.96" gradientUnits="userSpaceOnUse"><stop stop-color="#F37753" offset="0"/><stop stop-color="#fff" stop-opacity="0" offset="1"/></linearGradient><linearGradient id="l" x1="222.97" x2="270.58" y1="144.04" y2="470.01" gradientUnits="userSpaceOnUse"><stop stop-color="#F7A58D" offset="0"/><stop stop-color="#F58A6B" offset="1"/></linearGradient><linearGradient id="h" x1="371.24" x2="368.18" y1="382.55" y2="348.76" gradientUnits="userSpaceOnUse"><stop stop-color="#FFB3B6" offset="0"/><stop stop-color="#FFC8C1" offset="1"/></linearGradient><linearGradient id="g" x1="343.83" x2="372.56" y1="378.59" y2="388.94" gradientUnits="userSpaceOnUse"><stop stop-color="#FFB3B6" stop-opacity=".31" offset="0"/><stop stop-color="#FFC8C1" offset="1"/></linearGradient><linearGradient id="f" x1="396.81" x2="390.68" y1="436.46" y2="373.26" gradientUnits="userSpaceOnUse"><stop stop-color="#FFB3B6" offset="0"/><stop stop-color="#fff" offset="1"/></linearGradient><linearGradient id="e" x1="395.32" x2="389.44" y1="369.91" y2="319.28" gradientUnits="userSpaceOnUse"><stop stop-color="#FFB3B6" offset="0"/><stop stop-color="#FFC8C1" offset="1"/></linearGradient><linearGradient id="d" x1="356.5" x2="356.5" y1="371.69" y2="497.75" gradientUnits="userSpaceOnUse"><stop stop-color="#F4A984" offset="0"/><stop stop-color="#EE4D47" offset="1"/></linearGradient><linearGradient id="c" x1="298.16" x2="298.16" y1="391.07" y2="497.38" gradientUnits="userSpaceOnUse"><stop stop-color="#F4A984" offset="0"/><stop stop-color="#EE4D47" offset="1"/></linearGradient><linearGradient id="b" x1="356.34" x2="356.34" y1="268.85" y2="336.08" gradientUnits="userSpaceOnUse"><stop stop-color="#F4A984" offset="0"/><stop stop-color="#EE4D47" offset="1"/></linearGradient><linearGradient id="a" x1="322.58" x2="322.58" y1="324.33" y2="352.35" gradientUnits="userSpaceOnUse"><stop stop-color="#F4A984" offset="0"/><stop stop-color="#EE4D47" offset="1"/></linearGradient><linearGradient id="v" x1="314.1" x2="314.1" y1="326.42" y2="350.55" gradientUnits="userSpaceOnUse"><stop stop-color="#F4A984" offset="0"/><stop stop-color="#EE4D47" offset="1"/></linearGradient><linearGradient id="u" x1="389.74" x2="389.74" y1="324.68" y2="352.69" gradientUnits="userSpaceOnUse"><stop stop-color="#F4A984" offset="0"/><stop stop-color="#EE4D47" offset="1"/></linearGradient><linearGradient id="t" x1="398.06" x2="398.06" y1="326.76" y2="350.89" gradientUnits="userSpaceOnUse"><stop stop-color="#F4A984" offset="0"/><stop stop-color="#EE4D47" offset="1"/></linearGradient><linearGradient id="s" x1="342.12" x2="342.12" y1="369.57" y2="377.76" gradientUnits="userSpaceOnUse"><stop stop-color="#F4A984" offset="0"/><stop stop-color="#EE4D47" offset="1"/></linearGradient><linearGradient id="r" x1="315.45" x2="337.95" y1="408.55" y2="324.55" gradientUnits="userSpaceOnUse"><stop stop-color="#FFB3B6" offset="0"/><stop stop-color="#FFC5C7" offset=".239"/><stop stop-color="#fff" offset="1"/></linearGradient><linearGradient id="q" x1="430.55" x2="430.55" y1="630.32" y2="145.24" gradientUnits="userSpaceOnUse"><stop stop-color="#FFEDBA" offset="0"/><stop stop-color="#F16D5E" offset=".423"/><stop stop-color="#EE4D47" offset=".652"/></linearGradient><linearGradient id="p" x1="452" x2="452" y1="524.18" y2="430.36" gradientUnits="userSpaceOnUse"><stop stop-color="#FFEDBA" offset="0"/><stop stop-color="#EE4D47" offset="1"/></linearGradient><linearGradient id="o" x1="441.19" x2="441.19" y1="512.32" y2="485.82" gradientUnits="userSpaceOnUse"><stop stop-color="#FFEDBA" offset="0"/><stop stop-color="#EE4D47" offset="1"/></linearGradient><linearGradient id="n" x1="454.9" x2="454.9" y1="504.15" y2="477.2" gradientUnits="userSpaceOnUse"><stop stop-color="#FFEDBA" offset="0"/><stop stop-color="#EE4D47" offset="1"/></linearGradient><linearGradient id="m" x1="437.69" x2="437.69" y1="517.09" y2="300.46" gradientUnits="userSpaceOnUse"><stop stop-color="#FFEDBA" offset="0"/><stop stop-color="#EE4D47" offset="1"/></linearGradient><linearGradient id="k" x1="437.85" x2="437.85" y1="507.22" y2="421.38" gradientUnits="userSpaceOnUse"><stop stop-color="#FFEDBA" offset="0"/><stop stop-color="#EE4D47" offset="1"/></linearGradient><linearGradient id="j" x1="335.35" x2="335.35" y1="511.5" y2="485.99" gradientUnits="userSpaceOnUse"><stop stop-color="#FFEDBA" offset="0"/><stop stop-color="#EE4D47" offset="1"/></linearGradient><linearGradient id="i" x1="363.4" x2="363.4" y1="490.18" y2="470.77" gradientUnits="userSpaceOnUse"><stop stop-color="#FFEDBA" offset="0"/><stop stop-color="#EE4D47" offset="1"/></linearGradient><clipPath id="y"><path transform="translate(513.45 424.05)" fill="#fff" d="M0 0h80v71H0z"/></clipPath></defs></svg>