<svg fill="none" viewBox="0 0 320 636" xmlns="http://www.w3.org/2000/svg"><g clip-path="url(#bg)"><path fill="#FEF8F5" d="M0 0h320v5200H0z"/><path d="M517-189H-681v759H417c55.229 0 100-44.772 100-100v-659z" fill="url(#ba)"/><path d="M128.16 636.33c71.826-71.858 71.826-188.36 0-260.22-71.827-71.858-188.28-71.858-260.11 0-71.827 71.858-71.827 188.36 0 260.22 71.827 71.858 188.28 71.859 260.11 0z" fill="url(#ar)" opacity=".2"/><mask id="a" x="-522" y="0" width="969" height="589" style="mask-type:alpha" maskUnits="userSpaceOnUse"><path d="M447 0h-969v589h869c55.228 0 100-44.772 100-100V0z" fill="url(#ag)"/></mask><g mask="url(#a)"><path d="M406.91 282.12h-6.512a2.441 2.441 0 00-2.441 2.442v146.81a3.358 3.358 0 01-6.715 0v-90.648c0-5.057-4.1-9.157-9.157-9.157h-.204a8.954 8.954 0 00-8.953 8.953 8.952 8.952 0 01-8.952 8.953h-36.729a4.579 4.579 0 00-4.578 4.579v2.543a2.035 2.035 0 01-2.035 2.035 2.034 2.034 0 00-2.034 2.034v32.658a4.985 4.985 0 01-4.986 4.985 4.985 4.985 0 00-4.985 4.986v21.466c0 3.484-2.824 6.308-6.308 6.308s-6.308 2.824-6.308 6.308v31.538a2.239 2.239 0 11-4.476 0v-184.55c0-1.011-.82-1.831-1.832-1.831a1.831 1.831 0 01-1.831-1.831v-16.177c0-1.741-1.412-3.154-3.154-3.154s-3.154-1.412-3.154-3.153v-15.668c0-1.18-.956-2.136-2.136-2.136s-2.137-.957-2.137-2.137v-8.821c0-5.523-4.477-10-10-10h-7.266c-5.523 0-10 4.477-10 10v8.821c0 1.18-.957 2.137-2.137 2.137s-2.136.956-2.136 2.136v15.668c0 1.741-1.412 3.153-3.154 3.153s-3.154 1.413-3.154 3.154v16.278c0 .843-.683 1.526-1.526 1.526s-1.526.684-1.526 1.526v125.75c0 1.967-1.594 3.561-3.561 3.561s-3.561 1.594-3.561 3.561v50.055a4.375 4.375 0 01-4.375 4.375h-3.968a.408.408 0 01-.407-.407.407.407 0 00-.407-.407h-1.322a.712.712 0 110-1.425h.712a1.017 1.017 0 100-2.034h-.611a.814.814 0 010-1.628h.611a1.017 1.017 0 000-2.035h-.712a.712.712 0 110-1.424h.712a1.017 1.017 0 000-2.035h-.712a.712.712 0 110-1.424h.712a1.017 1.017 0 000-2.035h-.712a.712.712 0 110-1.424h.712a1.017 1.017 0 000-2.035h-.712a.712.712 0 110-1.425h.712a1.017 1.017 0 100-2.034h-.712a.712.712 0 110-1.425h.712a1.017 1.017 0 100-2.034h-.712a.712.712 0 110-1.425h.712a1.017 1.017 0 100-2.034h-.712a.712.712 0 110-1.425h.712a1.017 1.017 0 100-2.035h-.712a.711.711 0 110-1.424h.712a1.017 1.017 0 100-2.035h-.204a1.22 1.22 0 01-1.22-1.221v-.406a1.22 1.22 0 011.22-1.221h.204a1.017 1.017 0 000-2.035h-.712a.712.712 0 110-1.424h.712a1.017 1.017 0 000-2.035h-.712a.712.712 0 110-1.424h.712a1.017 1.017 0 000-2.035h-.712a.712.712 0 110-1.425h.712a1.017 1.017 0 100-2.034h-.712a.712.712 0 110-1.425h.712a1.017 1.017 0 100-2.034h-.712a.712.712 0 110-1.425h.712a1.017 1.017 0 100-2.034h-.712a.712.712 0 110-1.425h.712a1.017 1.017 0 100-2.035h-.712a.711.711 0 110-1.424h.712a1.017 1.017 0 100-2.035h-.712a.711.711 0 110-1.424h.712a1.017 1.017 0 100-2.035h-.712a.712.712 0 110-1.424h.712a1.017 1.017 0 000-2.035h-.712a.712.712 0 110-1.424h.712a1.017 1.017 0 000-2.035h-.712a.712.712 0 110-1.424h.712a1.017 1.017 0 000-2.035h-.712a.712.712 0 110-1.424h.712a1.017 1.017 0 000-2.035h-.204a1.22 1.22 0 01-1.22-1.221v-.814a1.22 1.22 0 011.22-1.221h.204a1.017 1.017 0 100-2.034h-.712a.712.712 0 110-1.425h.712a1.017 1.017 0 100-2.034h-.712a.712.712 0 110-1.425h.712a1.017 1.017 0 100-2.035h-.712a.711.711 0 110-1.424h.712a1.017 1.017 0 100-2.035h-.204a1.22 1.22 0 01-1.22-1.221v-1.322c0-.506-.41-.916-.916-.916s-.916-.41-.916-.915v-1.323a2.238 2.238 0 00-2.238-2.238h-.204a2.441 2.441 0 01-2.441-2.442v-6.511c0-1.011-.82-1.831-1.832-1.831a1.832 1.832 0 01-1.831-1.832v-5.72a7.552 7.552 0 00-5.942-7.378l-5.249-1.145a3.412 3.412 0 01-2.646-3.325v-18.955a.712.712 0 10-1.424 0v19.171a1.833 1.833 0 01-2.238 1.787 1.831 1.831 0 00-2.238 1.786v14.085c0 .842-.684 1.526-1.527 1.526-.842 0-1.526.683-1.526 1.526v6.816a2.441 2.441 0 01-2.441 2.442h-.509a1.932 1.932 0 00-1.933 1.933v1.017c0 .506-.41.916-.916.916a.915.915 0 00-.915.915v.814a1.73 1.73 0 01-1.73 1.73H162.56c-5.523 0-10 4.477-10 10v2.586c0 5.523-4.477 10-10 10h-10.097a10.01 10.01 0 00-3.629.681l-17.58 6.847a1.619 1.619 0 00-1.018 1.503v7.043c0 .899.729 1.628 1.628 1.628h.407a1.221 1.221 0 010 2.442h-.814a1.22 1.22 0 100 2.442h.814a1.22 1.22 0 110 2.441h-.814a1.221 1.221 0 000 2.442h.814a1.22 1.22 0 110 2.442h-.814a1.22 1.22 0 100 2.441h.814a1.221 1.221 0 010 2.442h-.814a1.221 1.221 0 000 2.442h1.119a.916.916 0 110 1.831H95.034a7.396 7.396 0 01-6.935-4.825l-4.506-12.156c-.842-2.272-4.057-2.268-4.893.006-1.02 2.772-5.304 1.977-5.298-.978.004-2.019.004-4.038.004-6.057v-8.546c0-8.139 0-16.278-.203-24.417 0-3.459-.204-7.122-.204-10.581-.203-7.528-.407-15.057-.814-22.789-.203-3.663-.203-7.325-.407-10.988-.407-7.121-.61-14.04-1.017-21.161 0-.814-.204-1.628-.204-2.442-.407-6.308-.814-12.412-1.22-18.72-.814-11.394-1.832-22.789-2.85-34.183-.352-4.939-4.65-8.75-9.6-8.75H21.944c-2.917 0-5.514 2.17-5.514 5.087l-.61 7.325c-.204 2.035-.407 4.273-.61 6.308-.407 3.866-.611 7.732-1.018 11.598-.203 1.831-.203 3.459-.407 5.29-.203 3.256-.407 6.512-.814 9.767-.203 1.424-.203 2.849-.203 4.07-.204 4.273-.61 8.546-.814 12.615 0 1.424-.204 2.849-.204 4.273-.203 4.477-.407 8.75-.61 13.226 0 1.017-.204 1.831-.204 2.849-.203 4.069-.406 8.342-.61 12.412v2.441c-.203 4.68-.407 9.36-.407 14.04v2.849c-.203 4.883-.203 9.767-.407 14.447v.61c0 4.883-.203 9.767-.203 14.447v22.89c0 2.417-1.959 4.375-4.375 4.375S.56 420.821.56 423.237v48.834a5.189 5.189 0 01-5.189 5.189h-4.68a.509.509 0 010-1.018h.407c.506 0 .916-.41.916-.915v-.407a.916.916 0 00-.916-.916.916.916 0 01-.916-.915v-.814c0-.506.41-.916.916-.916s.916-.41.916-.916v-.407a.916.916 0 00-.916-.915.916.916 0 01-.916-.916v-1.017c0-.506.41-.916.916-.916s.916-.41.916-.916v-.406a.916.916 0 00-.916-.916.916.916 0 01-.916-.916v-1.017c0-.506.41-.916.916-.916s.916-.41.916-.915v-.407a.916.916 0 00-.916-.916.916.916 0 01-.916-.916v-1.017c0-.506.41-.916.916-.916s.916-.41.916-.915v-.407a.916.916 0 00-.916-.916.916.916 0 01-.916-.916v-1.017c0-.506.41-.915.916-.915s.916-.41.916-.916v-.407a.916.916 0 00-.916-.916.916.916 0 01-.916-.915v-1.018c0-.505.41-.915.916-.915s.916-.41.916-.916v-.407a.916.916 0 00-.916-.916.916.916 0 01-.916-.915v-1.018c0-.505.41-.915.916-.915s.916-.41.916-.916v-.407a.916.916 0 00-.916-.916.915.915 0 01-.916-.915v-1.017c0-.506.41-.916.916-.916s.916-.41.916-.916v-.407a.916.916 0 00-.916-.915.916.916 0 01-.916-.916v-1.017c0-.506.41-.916.916-.916s.916-.41.916-.916v-.407a.916.916 0 00-.916-.915.916.916 0 01-.916-.916v-1.017c0-.506.41-.916.916-.916s.916-.41.916-.916v-1.22a.916.916 0 00-.916-.916.916.916 0 01-.916-.916v-1.017c0-.506.41-.916.916-.916s.916-.41.916-.915v-.407a.916.916 0 00-.916-.916.916.916 0 01-.916-.916v-1.22c0-.506.41-.916.916-.916s.916-.41.916-.916v-.407a.916.916 0 00-.916-.915.916.916 0 01-.916-.916v-1.017c0-.506.41-.916.916-.916s.916-.41.916-.916v-.406a.916.916 0 00-.916-.916.916.916 0 01-.916-.916v-1.017c0-.506.41-.916.916-.916s.916-.41.916-.916v-.406a.916.916 0 00-.916-.916.916.916 0 01-.916-.916v-1.017c0-.506.41-.916.916-.916s.916-.41.916-.915v-.407a.916.916 0 00-.916-.916.916.916 0 01-.916-.916v-1.017c0-.506.41-.916.916-.916s.916-.41.916-.915v-.407a.916.916 0 00-.916-.916.916.916 0 01-.916-.915v-1.018c0-.506.41-.915.916-.915s.916-.41.916-.916v-.407a.916.916 0 00-.916-.916.916.916 0 01-.916-.915v-1.018c0-.505.41-.915.916-.915s.916-.41.916-.916v-.407a.916.916 0 00-.916-.916.916.916 0 01-.916-.915v-1.018c0-.505.41-.915.916-.915s.916-.41.916-.916v-1.221a.916.916 0 00-.916-.915.916.916 0 01-.916-.916v-1.017c0-.506.41-.916.916-.916s.916-.41.916-.916v-.407a.916.916 0 00-.916-.915.916.916 0 01-.916-.916v-1.017c0-.506.41-.916.916-.916s.916-.41.916-.916v-.406a.916.916 0 00-.916-.916.916.916 0 01-.916-.916v-1.017c0-.506.41-.916.916-.916s.916-.41.916-.915v-.407a.916.916 0 00-.916-.916.916.916 0 01-.916-.916v-3.255c0-.506.41-.916.916-.916s.916-.41.916-.916v-.61c0-.843-.683-1.526-1.526-1.526h-2.95a1.424 1.424 0 01-1.425-1.424v-.335c0-.602.488-1.09 1.09-1.09a1.09 1.09 0 00.874-1.739l-7.299-9.831a4.602 4.602 0 00-3.695-1.859h-.127a4.476 4.476 0 01-4.476-4.477c0-.449-.407-.974-.407-1.424v-11.7a.712.712 0 00-1.425 0v11.732c0 .432-.406.96-.406 1.392a4.476 4.476 0 01-4.477 4.477h-.126a4.602 4.602 0 00-3.696 1.859l-7.703 10.375a.749.749 0 00.602 1.195.75.75 0 01.749.749v.676c0 .786-.638 1.424-1.424 1.424h-2.95c-.844 0-1.527.683-1.527 1.526v.407c0 .618.501 1.119 1.12 1.119s1.118.501 1.118 1.119v2.849c0 .618-.5 1.119-1.119 1.119a1.118 1.118 0 100 2.238c.618 0 1.12.501 1.12 1.119v.611a1.12 1.12 0 01-1.12 1.119 1.12 1.12 0 100 2.238c.618 0 1.12.501 1.12 1.119v.611a1.12 1.12 0 01-1.12 1.119 1.12 1.12 0 100 2.238c.618 0 1.12.501 1.12 1.119v.61a1.12 1.12 0 01-1.12 1.12 1.12 1.12 0 100 2.238c.618 0 1.12.501 1.12 1.119v.61a1.12 1.12 0 01-1.12 1.12 1.12 1.12 0 100 2.238c.618 0 1.12.501 1.12 1.119v.61a1.12 1.12 0 01-1.12 1.119 1.12 1.12 0 000 2.239c.618 0 1.12.501 1.12 1.119v.61a1.12 1.12 0 01-1.12 1.119 1.12 1.12 0 100 2.239c.618 0 1.12.501 1.12 1.119v.61a1.12 1.12 0 01-1.12 1.119 1.12 1.12 0 100 2.238c.618 0 1.12.501 1.12 1.12v.61a1.12 1.12 0 01-1.12 1.119 1.12 1.12 0 100 2.238c.618 0 1.12.501 1.12 1.119v.611a1.12 1.12 0 01-1.12 1.119 1.12 1.12 0 100 2.238c.618 0 1.12.501 1.12 1.119v.611a1.12 1.12 0 01-1.12 1.119 1.12 1.12 0 100 2.238c.618 0 1.12.501 1.12 1.119v.611a1.12 1.12 0 01-1.12 1.119 1.12 1.12 0 100 2.238c.618 0 1.12.501 1.12 1.119v.61a1.12 1.12 0 01-1.12 1.12 1.12 1.12 0 100 2.238c.618 0 1.12.501 1.12 1.119v.61a1.12 1.12 0 01-1.12 1.119 1.12 1.12 0 000 2.239h.814a.305.305 0 110 .61H-59.06a2.645 2.645 0 01-2.645-2.645v-142.03l-.087-3.64a7.08 7.08 0 00-4.751-6.518l-5.362-1.865c-1.978-.688-4.044.781-4.044 2.875v.929a2.115 2.115 0 11-4.23-.043l.203-10.016a10.001 10.001 0 00-7.572-9.904l-5.19-1.297c-6.01-1.502-11.925 2.763-12.397 8.939l-1.539 20.133-.204 2.849-.203 2.238-.203 2.849-.204 2.238-.203 2.849-.204 2.238-.203 2.849-.204 2.238-.203 2.848-.204 2.239-.203 2.848-.204 2.238-.203 2.849-.204 2.238-.203 2.849-.204 2.238-.203 2.849-.204 2.238-.203 2.849-.204 2.238-.203 2.849-.204 2.238a6.362 6.362 0 01-2.467 4.59l-.924.711a5.952 5.952 0 00-2.306 4.262l-.203 2.238-.204 2.849-.203 2.238-.204 2.849-.203 2.238-.204 2.849-.203 2.238-.204 2.645c0 .562-.455 1.018-1.017 1.018h-12.79c-5.523 0-10 4.477-10 10v19.198c0 1.742-1.412 3.154-3.154 3.154s-3.154 1.412-3.154 3.154v62.569a4.273 4.273 0 11-8.546 0v-250.07c0-.899-.729-1.628-1.628-1.628s-1.628-.729-1.628-1.628v-18.283c0-5.523-4.477-10-10-10h-26.596c-5.523 0-10 4.477-10 10v18.486c0 .899-.729 1.628-1.628 1.628s-1.628.729-1.628 1.628V327.6a2.95 2.95 0 01-2.95 2.95h-2.34a.61.61 0 00-.61.611v.203c0 .225-.183.407-.408.407s-.407.182-.407.407v2.238c0 .225.182.407.407.407s.407.182.407.407v.204c0 .224-.182.406-.407.406s-.407.183-.407.407v2.239c0 .224.182.407.407.407s.407.182.407.407v.203c0 .225-.182.407-.407.407s-.407.182-.407.407v2.238c0 .225.182.407.407.407s.407.182.407.407v.204c0 .224-.182.406-.407.406s-.407.183-.407.407v2.239c0 .224.182.407.407.407s.407.182.407.407v.203c0 .225-.182.407-.407.407s-.407.182-.407.407v2.238c0 .225.182.407.407.407s.407.182.407.407v.204c0 .224-.182.406-.407.406s-.407.183-.407.407v2.239c0 .224.182.407.407.407s.407.182.407.407v.203c0 .225-.182.407-.407.407s-.407.182-.407.407v2.238c0 .225.182.407.407.407s.407.182.407.407v.204c0 .224-.182.407-.407.407s-.407.182-.407.406v2.239c0 .224.182.407.407.407s.407.182.407.407v.203c0 .225-.182.407-.407.407s-.407.182-.407.407v2.238c0 .225.182.407.407.407s.407.182.407.407v.204c0 .224-.182.407-.407.407s-.407.182-.407.406v2.239c0 .224.182.407.407.407s.407.182.407.407v.203c0 .225-.182.407-.407.407s-.407.182-.407.407v2.238c0 .225.182.407.407.407s.407.182.407.407v.204c0 .224-.182.407-.407.407s-.407.182-.407.406v2.239c0 .224.182.407.407.407s.407.182.407.407v.203c0 .225-.182.407-.407.407s-.407.182-.407.407v2.238c0 .225.182.407.407.407s.407.182.407.407v.204c0 .224-.182.407-.407.407s-.407.182-.407.406v2.239c0 .224.182.407.407.407s.407.182.407.407v.203c0 .225-.182.407-.407.407s-.407.182-.407.407v2.238c0 .225.182.407.407.407s.407.182.407.407v4.273c0 .225-.182.407-.407.407s-.407.182-.407.407v2.238c0 .225.182.407.407.407s.407.182.407.407v.204c0 .224-.182.407-.407.407s-.407.182-.407.407v.508c0 .506-.41.916-.916.916h-5.9a6.817 6.817 0 01-6.817-6.817V345.84c0-5.522-4.477-10-10-10h-15.813c-5.522 0-10 4.478-10 10v27.948a5.189 5.189 0 01-5.188 5.189h-3.968a1.22 1.22 0 01-1.22-1.221 1.22 1.22 0 00-1.222-1.22h-.916a2.136 2.136 0 01-2.136-2.137v-162.88c0-.899-.729-1.628-1.628-1.628s-1.628-.729-1.628-1.628v-40.258c0-5.523-4.477-10-10-10h-36.364c-5.523 0-10 4.477-10 10v40.258c0 .899-.728 1.628-1.627 1.628-.9 0-1.628.729-1.628 1.628v215.28a3.866 3.866 0 01-7.733 0v-76.405c0-3.765-3.05-6.816-6.816-6.816s-6.817-3.052-6.817-6.817v-29.606c0-1.236-1.002-2.238-2.238-2.238s-2.238-1.002-2.238-2.238v-6.511a8.75 8.75 0 00-8.75-8.75h-45.986a8.75 8.75 0 00-8.75 8.75v6.511c0 1.236-1.002 2.238-2.238 2.238s-2.238 1.002-2.238 2.238v131.04a7.326 7.326 0 01-14.65 0v-73.628c0-5.523-4.478-10-10-10h-33.923c-5.523 0-10 4.477-10 10v41.479c0 3.259-2.642 5.901-5.9 5.901s-5.902 2.642-5.902 5.901v46.392a3.459 3.459 0 11-6.918 0V304.31c0-.787-.638-1.425-1.425-1.425h-.814a.61.61 0 110-1.22h.814c.787 0 1.425-.638 1.425-1.425v-1.221c0-.786-.638-1.424-1.425-1.424h-.814a.61.61 0 110-1.221h.814c.787 0 1.425-.637 1.425-1.424v-1.221c0-.787-.638-1.424-1.425-1.424h-.814a.61.61 0 010-1.221h.814c.787 0 1.425-.638 1.425-1.424v-1.221c0-.787-.638-1.425-1.425-1.425h-1.017a.407.407 0 110-.814h1.12c.842 0 1.525-.683 1.525-1.526v-1.017c0-.843-.683-1.526-1.526-1.526h-.916a.61.61 0 110-1.221h.916c.843 0 1.526-.683 1.526-1.526v-1.017c0-.843-.683-1.526-1.526-1.526h-.916a.61.61 0 010-1.221h.916c.843 0 1.526-.684 1.526-1.526v-1.018c0-.842-.683-1.526-1.526-1.526h-.916a.61.61 0 110-1.221h.916c.843 0 1.526-.683 1.526-1.526v-8.687c0-3.288-1.665-6.32-4.004-8.631-5.9-5.831-13.128-16.689-13.292-31.211v-.915a1.73 1.73 0 00-1.729-1.73h-.61c-.619 0-1.12.501-1.12 1.119s-.5 1.12-1.119 1.12h-1.322a2.442 2.442 0 01-2.442-2.442v-32.048a.916.916 0 00-1.832 0v34.184a.508.508 0 11-1.017 0v-.61c0-.618-.5-1.119-1.119-1.119h-1.424c-.618 0-1.12.501-1.12 1.119s-.5 1.119-1.119 1.119h-4.273c-.618 0-1.119-.501-1.119-1.119s-.501-1.119-1.119-1.119h-.712c-1.012 0-1.832.82-1.832 1.831v.407c0 15.504-4.137 26.872-9.067 32.548-1.627 1.874-2.938 4.144-2.938 6.626v7.32c0 .056.046.102.102.102s.102.045.102.102v2.136c0 1.011.82 1.831 1.831 1.831h1.221a.61.61 0 010 1.221h-1.221c-1.011 0-1.831.82-1.831 1.832v.406c0 1.012.82 1.832 1.831 1.832h1.221a.61.61 0 110 1.221h-1.323a1.933 1.933 0 00-1.933 1.933v.203c0 1.068.866 1.933 1.933 1.933h1.526a.407.407 0 110 .814h-1.526a1.933 1.933 0 00-1.933 1.933v.203c0 1.068.866 1.933 1.933 1.933h1.323a.61.61 0 010 1.221h-1.323a1.934 1.934 0 00-1.933 1.933v.204c0 1.067.866 1.933 1.933 1.933h1.323a.61.61 0 110 1.221h-1.323a1.933 1.933 0 00-1.933 1.933v.203c0 1.068.866 1.933 1.933 1.933h1.323a.61.61 0 010 1.221h-1.323a1.934 1.934 0 00-1.933 1.933v.203c0 1.068.866 1.934 1.933 1.934h1.323a.61.61 0 110 1.22h-1.424a2.035 2.035 0 00-2.035 2.035v80.169a5.698 5.698 0 01-5.698 5.698 5.697 5.697 0 00-5.697 5.697v34.489c0 1.742-1.412 3.154-3.154 3.154s-3.154 1.412-3.154 3.154v31.752c0 1.294-1.46 1.973-2.753 1.925a1.893 1.893 0 01-.213-.019l-.221-.031a4.784 4.784 0 01-4.138-4.738v-73.215a6.443 6.443 0 00-3.848-5.896l-1.053-.463a.971.971 0 00-.39-.082h-.305a1.526 1.526 0 01-1.526-1.526v-.814a.712.712 0 10-1.424 0 .713.713 0 01-.713.712h-.086a.626.626 0 00-.626.626.626.626 0 01-.594.625l-2.324.116a1.097 1.097 0 01-1.15-1.096c0-.415-.236-.795-.608-.981l-.55-.275a2.09 2.09 0 00-.998-.22l-11.904.355a1.24 1.24 0 00-1.202 1.239 1.24 1.24 0 01-1.239 1.239h-.186c-.786 0-1.424.637-1.424 1.424v9.534c0 5.523-4.477 10-10 10h-2.586c-5.523 0-10-4.477-10-10v-91.127c0-1.461-1.185-2.646-2.646-2.646s-2.645-1.184-2.645-2.645v-14.345a9.258 9.258 0 00-9.258-9.258h-5.799c-1.91 0-3.459-1.549-3.459-3.459s-1.549-3.459-3.46-3.459h-2.34a5.595 5.595 0 01-5.595-5.596 5.596 5.596 0 00-5.596-5.595h-31.54c-5 0-9.054 4.054-9.054 9.054a9.055 9.055 0 01-9.055 9.055h-4.142c-5.523 0-10 4.477-10 10v171.09a6.308 6.308 0 01-6.308 6.308 6.308 6.308 0 00-6.308 6.308v5.493a5.901 5.901 0 01-11.8 0v-41.305c0-5.057-4.1-9.157-9.158-9.157s-9.157-4.099-9.157-9.156v-9.132a.368.368 0 00-.203-.33.367.367 0 01-.204-.329v-2.13c0-.846-.28-1.668-.798-2.336l-2.283-2.949a8.612 8.612 0 01-1.802-5.272v-2.704c0-.552-.22-1.082-.61-1.473a2.088 2.088 0 01-.61-1.474v-8.802a.306.306 0 00-.61 0v8.946c0 .461-.184.902-.51 1.228s-.509.768-.509 1.228v3.325a9.762 9.762 0 01-1.765 5.599l-1.859 2.656a3.591 3.591 0 00-.649 2.058v1.187c0 .458-.229.886-.61 1.141a1.369 1.369 0 00-.61 1.14v.522c0 .736-.387 1.418-1.018 1.797l-.25.15a1.58 1.58 0 00-.768 1.354c0 .578-.315 1.11-.822 1.386l-.297.162a2.146 2.146 0 00-1.119 1.885v18.647a3.903 3.903 0 01-4.273 3.885 3.663 3.663 0 01-3.663-3.663v-33.136c0-5.523-4.477-10-10-10h-5.028c-5.522 0-10 4.477-10 10v10.754c0 4.383-3.552 7.936-7.935 7.936s-7.936 3.553-7.936 7.935v10.276c0 1.067-.865 1.933-1.933 1.933s-1.933.865-1.933 1.933v22.789a1.526 1.526 0 11-3.052 0v-9.665c0-1.124-.91-2.035-2.035-2.035s-2.035-.911-2.035-2.035V352.56c0-5.523-4.477-10-10-10h-24.795c-25.435 0-45.986 17.906-45.986 43.34v12.005a8.343 8.343 0 01-8.343 8.343c-7.325 0-13.226 12.615-13.226 19.534v19.91c0 5.523-4.477 10-10 10h-1.569c-5.52 0-10-4.477-10-10v-17.367c0-3.989-3.23-7.223-7.22-7.223s-7.23 3.234-7.23 7.223v51.072c0 1.742-1.41 3.154-3.15 3.154s-3.15-1.412-3.15-3.154v-29.3c0-.955-.78-1.73-1.73-1.73-.96 0-1.73-.774-1.73-1.729v-19.127c0-3.54-2.87-6.409-6.41-6.409s-6.41-2.87-6.41-6.41v-16.96c0-5.523-4.48-10-10-10h-7.88c-5.52 0-10 4.477-10 10v113.28c0 5.523 4.48 10 10 10h1477c5.523 0 10-4.477 10-10v-218.88c0-5.523-4.477-10-10-10h-7.092zM178.2 397.39a.713.713 0 01-.713.712h-1.322a.204.204 0 01-.204-.204v-.508c0-.394.319-.712.712-.712h.814c.394 0 .713.318.713.712zm0-3.459a.713.713 0 01-.713.712h-.814a.712.712 0 010-1.424h.814c.394 0 .713.318.713.712zm0-3.663a.713.713 0 01-.713.712h-.814a.712.712 0 010-1.424h.814c.394 0 .713.319.713.712zm0-3.662a.713.713 0 01-.713.712h-.814a.712.712 0 010-1.425h.814c.394 0 .713.319.713.713zm0-3.663a.713.713 0 01-.713.712h-.814a.712.712 0 010-1.424h.814c.394 0 .713.319.713.712zm0-3.663a.713.713 0 01-.713.713h-.814a.713.713 0 010-1.425h.814c.394 0 .713.319.713.712zm0-3.459a.713.713 0 01-.713.713h-.814a.713.713 0 010-1.425h.814c.394 0 .713.319.713.712z" fill="url(#x)"/><path d="M263.33 366.66c-38.8 0-70.189 66.607-70.189 148.7h140.46c0-82.175-31.473-148.7-70.273-148.7z" fill="url(#a)"/><path d="M263.33 366.66c-38.8 0-70.189 66.607-70.189 148.7h140.46c0-82.175-31.473-148.7-70.273-148.7z" fill="url(#a)"/><mask id="b" x="193" y="366" width="141" height="150" style="mask-type:alpha" maskUnits="userSpaceOnUse"><path d="M263.33 366.66c-38.8 0-70.189 66.607-70.189 148.7h140.46c0-82.175-31.473-148.7-70.273-148.7z" fill="url(#a)"/></mask><g mask="url(#b)"><path d="M204.16 380.13c22.241-10.131 67.155-26.702 68.891-11.94 2.17 18.453-126.39 97.692-82.452 80.867s81.909-62.957 91.673-46.675c9.765 16.282-85.706 83.581-53.702 80.324 32.005-3.256 71.603-78.153 84.079-66.213 12.477 11.94-81.909 94.978-60.753 102.03 21.155 7.055 79.197-110.72 102.52-113.43" opacity=".2" stroke="url(#c)" stroke-width="2"/></g><path d="M324.5 515.36h9.104c0-82.175-31.473-148.7-70.272-148.7-1.529 0-3.046.104-4.551.308 36.679 4.962 65.719 69.456 65.719 148.39z" fill="#C9D983" opacity=".3"/><path d="M341.19 406.98c-28.392 0-51.373 48.742-51.373 108.82h102.75c-.084-60.073-23.064-108.82-51.373-108.82z" fill="url(#b)"/><mask id="d" x="289" y="406" width="104" height="110" style="mask-type:alpha" maskUnits="userSpaceOnUse"><path d="M341.19 406.98c-28.392 0-51.373 48.742-51.373 108.82h102.75c-.084-60.073-23.064-108.82-51.373-108.82z" fill="url(#b)"/></mask><g mask="url(#d)"><path d="M325.04 382.27c-20.154 32.831-52.444 91.757-20.367 64.814 40.097-33.678 78.285-22.875 62.373 0-15.911 22.876-62.373 10.803-57.917 34.949 3.564 19.317 55.371-9.32 80.83-26.053" opacity=".2" stroke="url(#az)" stroke-width="2"/></g><path d="M138.95 354.09c-45.002 0-81.503 71.819-81.503 160.4h163.01c-.084-88.585-36.502-160.4-81.503-160.4z" fill="url(#e)"/><mask id="e" x="57" y="354" width="164" height="161" style="mask-type:alpha" maskUnits="userSpaceOnUse"><path d="M138.95 354.09c-45.002 0-81.503 71.819-81.503 160.4h163.01c-.084-88.585-36.502-160.4-81.503-160.4z" fill="url(#e)"/></mask><g mask="url(#e)"><path d="M64.383 386.45c8.59-10.137 27.887-28.199 36.354-19.352 10.584 11.058-11.965 49.303 2.761 53.911 14.725 4.608 35.433-67.735 53.38-60.823s-77.309 118.88-44.177 123.03c33.133 4.147 48.319-95.843 62.584-88.931 14.266 6.911-32.212 60.823-16.106 76.49 16.106 15.666 24.389-58.059 37.274-49.765s3.682 49.765-8.743 77.872" opacity=".2" stroke="url(#ay)" stroke-width="2"/></g><path d="M202.24 514.49h18.208c-.084-88.585-36.501-160.4-81.503-160.4a42.5 42.5 0 00-9.104.99c40.709 8.912 72.321 76.887 72.399 159.41z" fill="#C9D983" opacity=".2"/><path d="M255.09 416.19h-1.505v97.509h1.505V416.19z" fill="#0C5E59"/><path d="M265.33 410.02c-3.237 0-6.247 2.334-8.354 4.443 1.43-2.033 3.386-4.518 4.892-4.97 2.634-.828 4.741-.452 4.741-.452s-2.408-3.388-6.021-1.807c-1.58.678-2.935 2.937-3.914 5.12.527-2.033.979-4.442.603-6.626-.904-5.572-7.075-6.024-7.075-6.024s3.462 4.819 4.064 10.467c.075.753.151 1.506.226 2.183-.527-3.238-1.807-7.153-4.968-9.261-7.827-5.196-12.719 3.915-12.719 3.915s4.44-2.786 10.311.151c4.666 2.334 6.623 7.304 7.225 9.337-.752-1.506-3.989-7.229-9.107-8.057-7.752-1.28-9.709 8.508-9.709 8.508s4.441-3.539 9.935-3.313c4.29.226 7.301 1.958 8.806 3.313-.828-.226-2.559-.602-4.666-.677-6.849-.076-8.279 9.11-8.279 9.11l13.02-7.981c-.602 1.054-1.731 3.313-2.333 4.819-.903 2.108-.301 6.852-.301 6.852s2.107-3.614 2.71-5.948c.602-2.259.451-4.593.376-5.723l8.806 9.563s2.182-5.798-4.516-8.584a68.917 68.917 0 00-2.258-.904c1.581.226 3.537.904 5.569 2.184 3.839 2.485 6.323 5.948 6.323 5.948s2.408-7.002-3.463-9.863c-1.956-.904-4.139-.829-6.021-.377 1.43-.828 3.312-1.431 5.495-1.129 5.343.677 6.849 4.442 6.849 4.442s1.505-8.659-6.247-8.659z" fill="url(#ax)"/><path d="M197.67 356.26h-2.408v159.25h2.408V356.26z" fill="#0C5E59"/><path d="M213.23 342.53c-5.879 0-11.422 4.213-15.285 8.089 2.604-3.707 6.215-8.173 8.986-9.1 4.703-1.517 8.651-.758 8.651-.758s-4.452-6.235-11.002-3.286c-2.94 1.263-5.375 5.392-7.139 9.352 1.008-3.707 1.68-8.089 1.092-12.133-1.596-10.111-12.934-10.954-12.934-10.954s6.299 8.763 7.475 19.127c.168 1.348.252 2.696.336 3.96-1.008-5.982-3.359-13.144-9.07-16.936-14.194-9.437-23.096 7.247-23.096 7.247s8.147-5.056 18.813.337c8.398 4.213 12.009 13.397 13.185 17.02-1.428-2.781-7.223-13.145-16.629-14.745-14.109-2.36-17.72 15.587-17.72 15.587s8.062-6.487 18.056-6.066c7.727.337 13.354 3.539 16.125 6.066-1.428-.421-4.703-1.179-8.482-1.179-12.514-.169-15.117 16.599-15.117 16.599l23.767-14.577c-1.008 1.938-3.107 5.982-4.283 8.847-1.596 3.876-.588 12.47-.588 12.47s3.863-6.572 4.955-10.869c1.092-4.129.84-8.426.672-10.448l16.125 17.442s3.947-10.617-8.147-15.757a150.076 150.076 0 00-4.115-1.685c2.939.421 6.467 1.601 10.078 3.96 7.055 4.55 11.506 10.785 11.506 10.785s4.367-12.891-6.383-17.947c-3.527-1.685-7.558-1.432-11.002-.674 2.604-1.517 5.963-2.612 10.078-2.106 9.742 1.179 12.43 8.173 12.43 8.173s2.771-15.925-11.338-15.841z" fill="url(#aw)"/><path d="M145.94 496.77a72.305 72.305 0 00-7.301-19.501 44.53 44.53 0 00-1.505-2.56c-3.838-6.401-8.58-12.123-14.074-17.093-.678-.677-1.43-1.28-2.183-1.882a72.834 72.834 0 00-19.794-11.746c-.903-.377-1.806-.678-2.71-.979-7.225-2.56-15.053-3.991-23.106-4.141h-2.86c-8.128.15-15.88 1.581-23.106 4.141-.903.301-1.806.678-2.71.979a72.83 72.83 0 00-19.793 11.746c-.753.602-1.505 1.28-2.183 1.882-5.494 4.97-10.31 10.692-14.074 17.093-.527.828-.978 1.731-1.505 2.56a72.324 72.324 0 00-7.3 19.501c-.226.979-.377 1.958-.603 2.937a73.133 73.133 0 00-1.129 12.876h147.59c0-4.368-.377-8.735-1.129-12.876-.15-.979-.3-1.958-.527-2.937z" fill="url(#av)"/><path d="M72.406 438.8v73.79h2.86V438.8h-2.86z" fill="url(#au)" opacity=".3"/><path d="M46.588 443.99l18.364 68.67h2.935l-18.665-69.649c-.828.301-1.73.602-2.634.979z" fill="url(#at)" opacity=".3"/><path d="M24.611 457.62l31.761 54.966h3.236l-32.815-56.849c-.752.603-1.505 1.28-2.182 1.883z" fill="url(#as)" opacity=".3"/><path d="M9.033 477.27l35.374 35.389h3.99L10.462 474.71c-.451.828-.978 1.732-1.43 2.56z" fill="url(#aq)" opacity=".3"/><path d="M1.13 499.71l22.354 12.876h5.72L1.733 496.698c-.226 1.055-.376 2.033-.602 3.012z" fill="url(#ap)" opacity=".3"/><path d="M79.707 512.66h2.935l18.365-68.67c-.904-.377-1.806-.678-2.71-.979l-18.59 69.649z" fill="url(#ao)" opacity=".3"/><path d="M87.984 512.66h3.312l31.76-54.966c-.677-.678-1.43-1.28-2.183-1.883l-32.89 56.849z" fill="url(#an)" opacity=".3"/><path d="M99.2 512.66h3.989l35.374-35.389a45.473 45.473 0 00-1.505-2.56L99.2 512.66z" fill="url(#am)" opacity=".3"/><path d="M118.46 512.66h5.72l22.353-12.875c-.15-.979-.376-1.958-.602-2.937L118.46 512.66z" fill="#084F15"/><path d="M201.18 502.57c-.979-4.368-2.559-8.584-4.667-12.424a33.059 33.059 0 01-.903-1.657c-2.408-4.066-5.419-7.68-8.956-10.843-.452-.376-.903-.828-1.43-1.204-3.763-3.087-7.978-5.648-12.569-7.455a11.74 11.74 0 00-1.731-.602c-4.591-1.657-9.559-2.56-14.677-2.635h-1.806c-5.118.075-10.085 1.054-14.676 2.635-.602.226-1.129.376-1.731.602-4.591 1.807-8.806 4.368-12.569 7.455-.452.376-.903.828-1.43 1.204-3.538 3.163-6.548 6.777-8.957 10.843a32.624 32.624 0 00-.903 1.657 46.5 46.5 0 00-4.666 12.424c-.151.602-.226 1.28-.376 1.882-.452 2.635-.753 5.421-.753 8.207h93.778c0-2.786-.226-5.572-.753-8.207.076-.678-.075-1.28-.225-1.882z" fill="url(#al)"/><path d="M154.44 465.75v46.909h1.807V465.75h-1.807z" fill="url(#ak)" opacity=".3"/><path d="M138.11 468.99l11.666 43.597h1.882l-11.817-44.274c-.602.301-1.204.451-1.731.677z" fill="url(#aj)" opacity=".3"/><path d="M124.11 477.72l20.171 34.937h2.107l-20.848-36.142c-.526.376-.978.753-1.43 1.205z" fill="url(#ai)" opacity=".3"/><path d="M114.18 490.15l22.504 22.438h2.558l-24.084-24.095c-.301.602-.677 1.13-.978 1.657z" fill="url(#ah)" opacity=".3"/><path d="M109.21 504.46l14.225 8.207h3.612l-17.461-10.089c-.15.602-.301 1.204-.376 1.882z" fill="url(#af)" opacity=".3"/><path d="M159.11 512.66h1.882l11.666-43.596a11.742 11.742 0 00-1.731-.603L159.11 512.66z" fill="url(#ae)" opacity=".3"/><path d="M164.38 512.66h2.107l20.171-34.937c-.452-.377-.903-.829-1.43-1.205L164.38 512.66z" fill="url(#ad)" opacity=".3"/><path d="M171.53 512.66h2.559l22.504-22.438a32.624 32.624 0 01-.903-1.657l-24.16 24.095z" fill="url(#ac)" opacity=".3"/><path d="M183.72 512.66h3.612l14.225-8.207a16.768 16.768 0 00-.376-1.883l-17.461 10.09z" fill="url(#ab)" opacity=".3"/><path d="M333 511h-812v59.885h812V511z" fill="url(#d)"/><mask id="c" x="-479" y="511" width="812" height="60" style="mask-type:alpha" maskUnits="userSpaceOnUse"><path d="M333 511h-812v59.885h812V511z" fill="url(#d)"/></mask><g mask="url(#c)"><path d="M-133.64 535.08c-5.399 5.686-11.002 9.673-17.058 9.398-1.495-.068-2.737-.377-3.688-.981-.981-.623-1.583-1.517-1.84-2.588-.249-1.038-.166-2.2.115-3.406.282-1.214.78-2.537 1.428-3.93 2.362-5.081 6.929-11.521 11.323-17.717l1.153-1.629c2.38-3.363 4.655-6.623 6.475-9.556 1.832-2.953 3.147-5.488 3.669-7.414.261-.963.295-1.674.176-2.169-.106-.441-.339-.752-.791-.974-.504-.247-1.326-.403-2.607-.33-1.267.073-2.898.364-4.954.925-4.012 1.094-8.509 3.626-13.404 7.275-4.884 3.64-10.105 8.347-15.561 13.724-7.691 7.58-15.799 16.44-24.053 25.459h-.001v.001c-3.467 3.788-6.959 7.604-10.457 11.366-11.798 12.685-23.655 24.74-34.684 32.796-10.959 8.005-21.452 12.323-30.36 8.814-4.375-1.723-6.691-4.251-6.966-7.524-.262-3.126 1.393-6.586 3.99-10.112 5.226-7.097 14.915-15.301 24.269-23.138l1.066-.893c4.332-3.628 8.567-7.175 12.268-10.517 4.011-3.624 7.341-6.962 9.467-9.857 1.062-1.448 1.79-2.74 2.163-3.865.372-1.119.371-1.999.087-2.702-.283-.699-.911-1.387-2.129-1.99-1.227-.608-2.989-1.096-5.405-1.405-7.654-.982-17.526 1.326-28.586 5.864-11.031 4.527-23.118 11.218-35.153 18.856-24.068 15.274-47.828 34.271-62.347 47.102l-1.324-1.499c14.577-12.882 38.421-31.947 62.599-47.292 12.088-7.672 24.285-14.429 35.466-19.017 11.151-4.576 21.419-7.047 29.599-5.998 2.531.324 4.536.852 6.039 1.596 1.512.749 2.576 1.75 3.095 3.034.517 1.279.425 2.674-.043 4.081-.465 1.401-1.323 2.884-2.449 4.418-2.252 3.068-5.709 6.518-9.739 10.158-3.729 3.369-7.993 6.939-12.317 10.56l-1.072.899c-9.423 7.895-18.892 15.931-23.944 22.791-2.541 3.451-3.804 6.398-3.607 8.759.186 2.215 1.708 4.255 5.706 5.83 7.84 3.089 17.52-.586 28.447-8.568 10.857-7.93 22.598-19.854 34.399-32.543 3.471-3.733 6.948-7.532 10.407-11.311 8.27-9.037 16.435-17.959 24.165-25.578 5.487-5.407 10.782-10.185 15.77-13.903 4.978-3.71 9.71-6.411 14.073-7.601 2.131-.581 3.909-.908 5.366-.992 1.444-.082 2.66.069 3.602.532.993.487 1.611 1.288 1.855 2.302.23.959.111 2.044-.191 3.159-.603 2.229-2.056 4.975-3.899 7.945-1.856 2.991-4.164 6.297-6.542 9.658l-1.122 1.583c-4.435 6.256-8.893 12.545-11.174 17.45-.613 1.32-1.053 2.507-1.293 3.54-.242 1.04-.268 1.863-.118 2.486.141.591.445 1.035.967 1.366.552.351 1.411.613 2.707.672 5.11.232 10.164-3.14 15.517-8.777 4.333-4.564 8.698-10.428 13.301-16.612 1.052-1.415 2.118-2.846 3.198-4.283 5.773-7.676 11.952-15.464 18.816-21.331 6.87-5.873 14.516-9.898 23.218-9.898v2c-8.045 0-15.244 3.714-21.918 9.418-6.68 5.71-12.745 13.338-18.517 21.013a965.5 965.5 0 00-3.161 4.233c-4.606 6.19-9.062 12.178-13.487 16.837zm240.84-33.454c-1.156-1.81-3.273-2.943-7.115-2.823-7.618.238-14.977 6.405-22.28 15.99-7.258 9.525-14.231 22.11-21.156 34.626l-.106.192c-6.866 12.409-13.691 24.744-20.642 33.732-3.496 4.519-7.065 8.248-10.737 10.722-3.683 2.481-7.528 3.735-11.521 3.184-3.91-.539-6.563-2.192-8.094-4.788-1.498-2.541-1.821-5.82-1.472-9.43.698-7.209 4.155-16.356 7.63-25.2l.835-2.123c3.221-8.173 6.286-15.95 7.244-21.842.523-3.213.375-5.638-.51-7.227-.824-1.477-2.427-2.46-5.497-2.46-2.986 0-5.923 1.318-8.884 3.781-2.964 2.466-5.884 6.026-8.81 10.368-4.906 7.281-9.727 16.598-14.752 26.312-.976 1.886-1.96 3.787-2.953 5.691-6.086 11.666-12.536 23.426-19.778 32.271-7.228 8.827-15.414 14.957-25.007 14.957-4.707 0-7.904-1.226-9.644-3.705-1.71-2.435-1.787-5.774-1.042-9.452.752-3.711 2.391-8.003 4.42-12.551 1.72-3.855 3.743-7.941 5.782-12.06v-.001l.001-.001.485-.98.624-1.263c4.845-9.817 9.445-19.549 10.372-27.053.46-3.73-.012-6.733-1.64-8.909-1.618-2.163-4.538-3.723-9.457-4.215-15.897-1.59-32.065 5.366-45.898 14.851-13.816 9.474-25.16 21.375-31.366 29.424l-1.584-1.221c6.314-8.19 17.806-20.244 31.82-29.852 13.993-9.596 30.644-16.851 47.227-15.192 5.231.523 8.782 2.23 10.86 5.007 2.066 2.764 2.514 6.375 2.023 10.352-.977 7.911-5.766 17.972-10.563 27.693-.37.75-.74 1.497-1.11 2.243l-.004.01c-2.04 4.121-4.042 8.166-5.745 11.982-2.015 4.515-3.58 8.644-4.286 12.133-.714 3.523-.506 6.163.718 7.906 1.194 1.7 3.58 2.854 8.007 2.854 8.678 0 16.351-5.543 23.46-14.224 7.094-8.665 13.458-20.25 19.552-31.929.985-1.886 1.962-3.775 2.934-5.654 5.024-9.712 9.909-19.156 14.886-26.541 2.973-4.412 6.016-8.148 9.19-10.789 3.177-2.643 6.552-4.243 10.163-4.243 3.528 0 5.953 1.173 7.243 3.486 1.227 2.203 1.278 5.202.738 8.522-.995 6.118-4.142 14.1-7.332 22.19l-.86 2.185c-3.504 8.918-6.835 17.787-7.5 24.662-.333 3.431.017 6.21 1.203 8.221 1.154 1.955 3.195 3.347 6.644 3.823 3.366.464 6.721-.565 10.131-2.862 3.42-2.304 6.838-5.846 10.273-10.287 6.858-8.867 13.622-21.093 20.533-33.583l.048-.086c6.904-12.478 13.95-25.205 21.315-34.87 7.32-9.605 15.185-16.506 23.808-16.776 4.278-.133 7.204 1.145 8.864 3.747 1.596 2.503 1.858 6 1.456 9.931-.406 3.966-1.512 8.582-2.866 13.477a487.961 487.961 0 01-2.18 7.558l-.033.119c-.745 2.534-1.5 5.102-2.216 7.671-1.456 5.221-2.743 10.414-3.451 15.269-.71 4.863-.829 9.322.006 13.094.83 3.748 2.593 6.795 5.657 8.925 3.086 2.145 7.603 3.439 14.079 3.439v2c-6.718 0-11.685-1.339-15.22-3.797-3.558-2.473-5.553-6-6.468-10.135-.91-4.109-.76-8.841-.033-13.815.727-4.982 2.04-10.271 3.503-15.517.72-2.584 1.479-5.164 2.223-7.695l.036-.122a495.542 495.542 0 002.169-7.527c1.35-4.879 2.417-9.359 2.804-13.147.39-3.825.066-6.743-1.152-8.653zm196.82 58.82c-1.19-3.964-3.676-8.274-6.952-12.727-3.284-4.462-7.401-9.121-11.905-13.784-7.507-7.772-16.141-15.61-23.868-22.625-1.542-1.4-3.049-2.767-4.502-4.095-4.378-3.996-8.275-7.626-11.277-10.715-3.039-3.126-5.042-5.582-5.768-7.248-.369-.847-.283-1.203-.215-1.321.064-.112.335-.396 1.376-.499 2.057-.205 5.913.418 12.143 2.198l.55-1.923c-6.203-1.772-10.404-2.513-12.891-2.265-1.23.122-2.353.518-2.913 1.494-.556.969-.323 2.107.117 3.116.892 2.046 3.155 4.743 6.167 7.842 3.048 3.136 6.985 6.802 11.362 10.798 1.458 1.332 2.966 2.701 4.508 4.1l.013.012c7.727 7.015 16.303 14.8 23.759 22.52 4.472 4.63 8.522 9.217 11.733 13.581 3.218 4.373 5.553 8.468 6.647 12.116.562 1.872.884 3.359 1.003 4.512.121 1.173.019 1.894-.16 2.306-.147.336-.346.482-.676.541-.411.074-1.056.006-1.994-.314-1.864-.636-4.418-2.1-7.58-4.204-3.142-2.09-6.803-4.757-10.865-7.74l-1.528-1.123c-7.786-5.723-16.89-12.415-26.391-18.241-10.12-6.205-20.768-11.479-30.835-13.544-4.955-1.016-8.474-1.454-10.751-1.331-1.123.06-2.096.262-2.79.725a2.303 2.303 0 00-.852.984 2.373 2.373 0 00-.17 1.263c.098.795.532 1.62 1.095 2.423.579.826 1.373 1.737 2.327 2.716 1.911 1.961 4.552 4.287 7.63 6.89 1.827 1.544 3.811 3.188 5.899 4.919l.007.006h.001c4.979 4.127 10.551 8.745 16.002 13.672 7.737 6.994 15.149 14.54 20.154 22.047 1.251 1.877 2.063 3.359 2.505 4.496.459 1.178.445 1.798.342 2.077-.059.157-.208.378-.887.465-.704.091-1.752-.007-3.17-.335-2.817-.653-6.731-2.124-11.499-4.162-4.755-2.033-10.299-4.603-16.36-7.427l-1.514-.706c-11.765-5.484-25.316-11.801-38.596-16.878-13.832-5.289-27.479-9.276-38.571-9.534-4.42-.103-7.77.334-10.151 1.281-2.418.961-3.917 2.488-4.402 4.539-.467 1.976.068 4.218 1.175 6.531 1.116 2.332 2.879 4.87 5.076 7.508 8.769 10.53 24.951 23.23 37.144 31.697l1.141-1.643c-12.168-8.449-28.161-21.023-36.748-31.334-2.143-2.573-3.793-4.968-4.809-7.092-1.026-2.143-1.346-3.881-1.032-5.208.296-1.253 1.21-2.351 3.194-3.14 2.019-.803 5.057-1.24 9.366-1.139 10.731.249 24.109 4.128 37.903 9.402 13.211 5.051 26.705 11.341 38.484 16.832l1.496.697c6.055 2.821 11.629 5.405 16.418 7.453 4.775 2.041 8.83 3.575 11.834 4.271 1.491.345 2.817.507 3.877.371 1.085-.14 2.09-.634 2.505-1.752.37-.996.15-2.21-.352-3.5-.518-1.331-1.419-2.95-2.705-4.879-5.145-7.717-12.704-15.396-20.477-22.422-5.484-4.957-11.115-9.623-16.106-13.76-2.081-1.725-4.051-3.357-5.853-4.881-3.075-2.599-5.651-4.872-7.488-6.757-.919-.943-1.63-1.767-2.122-2.469-.508-.724-.711-1.22-.748-1.519-.016-.131.004-.188.013-.207.007-.017.032-.064.133-.132.24-.16.771-.337 1.788-.392 2-.108 5.301.28 10.242 1.293 9.726 1.995 20.139 7.126 30.192 13.29 9.426 5.781 18.467 12.426 26.264 18.157l1.516 1.114c4.057 2.979 7.755 5.673 10.941 7.793 3.166 2.107 5.909 3.704 8.042 4.432 1.06.362 2.088.552 2.992.39.983-.176 1.74-.757 2.156-1.709.384-.877.452-2.006.318-3.312-.137-1.326-.497-2.947-1.077-4.882z" clip-rule="evenodd" fill="url(#aa)" fill-rule="evenodd" opacity=".7"/><path d="M-235.8 531.96c-83.475 0-97.491 27.726-244.72 27.726v43.682H333v-93.38c-178.62 0-155.63 38.974-309.49 38.974S-163.51 531.96-235.8 531.96z" fill="url(#z)" opacity=".1"/></g><path d="M809.98 1.793h-1285v800h1185c55.229 0 100-44.772 100-100v-700z" fill="url(#y)"/></g><path d="M550.02 483.21c79.532-79.567 79.532-208.57 0-288.14-79.532-79.567-208.48-79.567-288.01 0s-79.532 208.57 0 288.14 208.48 79.567 288.01 0z" fill="url(#w)" opacity=".56"/><path d="M241.62 420.14c-.127 3.18-.495 5.998-.876 8.911l-.062.477c-.402 3.084-1.072 6.168-1.743 9.252v.002c-1.341 6.17-3.084 12.205-5.497 18.241l-.938 2.28-.268.536-.134.269c0 .055-.023.088-.05.126-.038.054-.084.119-.084.276a5.861 5.861 0 01-1.341 2.012c-.536.67-1.34 1.207-2.145 1.743-.804.403-1.743.671-2.547.805-1.609.134-2.949-.134-4.022-.402-2.145-.671-3.62-1.61-5.094-2.683-1.475-.938-2.681-2.011-3.887-3.084h-.001c-4.734-4.342-8.565-8.941-12.125-13.925-2.679-.952-4.902-3.243-4.902-3.243l3.034-9.503-3.034 9.369-6.837-4.158 2.011-8.181 7.91 2.816v.001l5.362 8.449-.031 1.076.166-.137a288.223 288.223 0 003.284 3.018h.001a297.718 297.718 0 013.284 3.017c2.279 2.012 4.558 3.755 6.836 5.499h.001c.35.233.688.466 1.021.696l.001.001c.818.563 1.607 1.107 2.464 1.583.939.587 1.98.969 2.765 1.235l.184-.43.805-2.012c1.876-5.365 3.351-10.998 4.424-16.765.288-1.513.537-3.065.789-4.634v-.001c.218-1.352.437-2.717.685-4.083.402-2.816.805-5.901.939-8.583l9.652.134zm-16.943 36.533c.23.032.291-.052.185-.052a.63.63 0 00-.185.052z" clip-rule="evenodd" fill="url(#v)" fill-rule="evenodd"/><path d="M236.72 407.76c-4.022 1.073-6.971 17.838-6.971 17.838l11.261 7.645s10.725-16.899 7.642-21.459c-3.352-4.695-6.033-5.633-11.932-4.024z" fill="#FFEDBA"/><path d="M236.99 411.52l-3.084 16.9 6.301 4.292-3.217-21.192z" fill="#ED6B57" opacity=".3"/><path d="M260.11 620.14h-13.248l-.716-22.465h13.069l.895 22.465z" fill="#FFC3BD"/><path d="M246.72 618.93h13.382c.483 0 .806.333.967.831l1.451 10.973c.161 1.163-.806 2.161-1.935 2.161-4.675 0-6.932-.333-12.737-.333-3.546 0-11.124.333-16.122.333-4.837 0-5.321-5.154-3.225-5.486 9.351-1.995 13.06-4.988 16.123-7.648.645-.498 1.451-.831 2.096-.831z" fill="#14365B"/><path d="M246.14 598.29l.351 8.5h13.006l-.527-8.5h-12.83z" fill="#F29994"/><path d="M244.93 603.31s-7.83-69.341-8.5-100.72c-.217-10.167 1.152-24.285 2.429-33.924h21.25l-1.399 33.924c-1.207 30.848 1.399 100.72 1.399 100.72H244.93z" fill="url(#u)"/><path d="M239.48 407.48s-1.708 5.415-2.125 10.161c-.459 5.232-5.478 14.597-2.567 20.061 6.803 8.803 3.413 22.261 4.692 30.193h40.219c-.671-16.363-.671-26.422 7.105-60.086 0 0-8.446-1.878-17.026-2.28-6.703-.269-12.334-.537-18.232 0-7.91.67-12.066 1.951-12.066 1.951z" fill="#FFEDBA"/><path d="M267.9 384.87c-1.207 5.901-2.279 16.631 1.742 20.52 0 0-1.608 5.902-12.467 5.902-12.066 0-5.765-5.902-5.765-5.902 6.569-1.609 6.435-6.437 5.228-10.998l11.262-9.522z" fill="url(#t)"/><path d="M263.34 388.76l-6.569 5.633c.269 1.073.537 2.146.537 3.219 2.547-.402 5.898-3.084 6.167-5.767.134-1.207.134-2.414-.135-3.085z" fill="#F29994"/><path d="M247.46 380.03c-4.302-6.453-2.945-12.42 0-15.749h11.524c.384 5.122 1.152 15.903 1.152 18.054s11.012-1.537 9.987.768c-2.56-.512-18.361 3.381-22.663-3.073z" fill="#0F264C"/><path d="M274.07 374.14c-2.279 9.523-3.083 13.681-8.848 17.704-8.714 6.17-19.841 1.207-20.511-8.852-.537-8.986 3.351-23.203 13.406-25.349 10.189-2.011 18.366 6.975 15.953 16.497z" fill="url(#s)"/><path d="M262.33 604.36h-18.979l-1.46-6.043 21.25-.636-.811 6.679z" fill="#4B2A2A"/><path d="M256.77 486.8c-4.457 8.917-2.852 22.985-2.13 34.986.886 14.713 1.685 27.236 3.604 34.622 1.743-20.252 4.827-45.064 7.106-63.17-1.341-10.328-4.022-15.558-8.58-6.438z" fill="#EE4D47" fill-opacity=".29" style="mix-blend-mode:multiply"/><path d="M297.45 601.93l-12.75-51.607v-50.697l-3.758-30.661h-22.768c-2.671 17 3.252 63.548 8.008 87.733l14.76 45.232h16.508z" fill="url(#r)"/><path d="M288.04 620.45l-3.642-14.572h12.75l2.125 14.572H288.04z" fill="#FFC3BD"/><path d="M283.21 626.76l4.384-6.614h11.586c1.192.714 1.842 4.548 2.271 7.891.322 2.506-1.277 4.915-3.706 5.612l-7.959 2.283h-14.229a2.054 2.054 0 01-2.054-2.094c0-4.107 6.769-6.736 9.707-7.078z" fill="#14365B"/><path d="M297.45 608l-.31-2.125h-12.75l.531 2.125h12.529z" clip-rule="evenodd" fill="#F29994" fill-rule="evenodd"/><path d="M299.98 606.18h-18.979l-1.46-6.042 21.25-.636-.811 6.678z" fill="#4B2A2A"/><circle transform="matrix(1 0 0 -1 279.73 371.58)" r="11.524" fill="#0F264C"/><path d="M258.94 374.13c.142-.802-.156-1.526-.667-1.616-.51-.09-1.039.487-1.181 1.289s.157 1.526.667 1.616c.51.091 1.039-.486 1.181-1.289zm-8.87-1.47c-.134.805-.67 1.341-1.206 1.207-.537-.134-.805-.805-.671-1.609.134-.805.671-1.342 1.207-1.207.536.134.804.804.67 1.609z" fill="#0F264C"/><path d="M249.67 371.19l-1.744-.939c-.134 0 .67 1.61 1.744.939z" fill="#0F264C"/><path d="M252.22 374.41s-1.877 3.085-3.754 4.561c.804 1.207 2.681 1.073 2.681 1.073l1.073-5.634z" fill="#ED847E"/><path d="M255.68 384.57c-.592 0-1.184 0-1.973-.193-.197 0-.395-.193-.198-.386 0-.192.198-.385.395-.192 5.129.963 8.088-2.121 8.088-2.121.198-.192.395-.192.395 0 .197.193.197.386 0 .386 0 0-2.367 2.506-6.707 2.506z" fill="#0F264C"/><path d="M279.3 365.62c4.468 10.65-4.709 16.097-9.857 17.489l4.929-9.658-.986-5.221c-4.49-2.785-12.288-8.458-7.557-8.875 5.914-.523 11.828 2.349 13.471 6.265z" fill="#D3D86C"/><path d="M258.65 356.97c-4.424 2.548 6.435 26.556 14.479 23.203 8.043-3.353 5.362-16.765 1.474-20.118-4.021-3.487-9.786-6.706-15.953-3.085z" fill="#0F264C"/><path d="M277.8 365.44c5.224 15.673-5.506 23.688-11.524 25.737l5.762-14.213-1.152-7.682c-5.25-4.098-14.366-12.446-8.835-13.061 6.914-.768 13.829 3.457 15.749 9.219z" fill="#0F264C"/><path d="M256.1 355.76s-5.362.804-8.848 7.376c-3.619 6.706 16.892-6.437 13.943-7.376-2.816-.939-5.095 0-5.095 0z" fill="#0F264C"/><path d="M274.47 381.38c-.804 1.878-2.279 3.219-3.887 3.889-2.279.939-3.754-1.073-3.352-3.487.402-2.146 2.011-5.096 4.558-5.096 2.413 0 3.62 2.414 2.681 4.694z" fill="url(#q)"/><path d="M291.09 418.26c2.279 5.365 4.022 10.73 5.631 16.229s2.949 11.132 3.62 17.033c.134 1.475.268 2.951.402 4.56v1.207c0 .019.002.058.006.112.024.329.089 1.249-.14 2.168-.134.537-.403 1.207-.805 1.744a5.717 5.717 0 01-1.474 1.609 7.591 7.591 0 01-3.084 1.207c-.555.093-1.047.058-1.475.027a7.538 7.538 0 00-.536-.027 6.445 6.445 0 00-.74-.127c-.269-.036-.521-.07-.734-.141a25.053 25.053 0 01-2.414-.805c-1.474-.67-2.815-1.341-4.155-2.011-5.095-2.951-9.653-6.304-13.943-10.059l.068-.101c-1.822-.927-3.262-2.66-4.063-3.787l-6.193-6.842 4.021-7.511 6.838 4.694 3.272 9.954.683.343c4.25 2.133 8.578 4.305 12.802 6.066.843.375 1.685.684 2.482.928-.077-.498-.15-.992-.203-1.464-.402-2.548-1.072-5.096-1.742-7.643v-.001l-.001-.001a228.546 228.546 0 00-1.072-3.89 235.517 235.517 0 01-1.073-3.889c-1.608-5.097-3.485-10.328-5.362-15.29l9.384-4.292z" clip-rule="evenodd" fill="#FFC3BD" fill-rule="evenodd"/><path d="M261.46 369.04c-.134 0-.269 0-.403-.134-1.474-1.476-3.083-1.207-3.217-1.207-.268 0-.536-.135-.536-.403s.134-.536.402-.536c.134 0 2.279-.403 4.022 1.475.134.134.134.536 0 .671-.134.134-.134.134-.268.134zm-14.61-1.2c-.134 0-.268 0-.268-.135-.134-.134-.134-.536 0-.67 1.743-1.878 3.888-1.476 4.022-1.476.268 0 .402.269.402.537s-.268.402-.536.402c-.134 0-1.743-.268-3.218 1.207-.134.135-.268.135-.402.135z" fill="#0F264C"/><path d="M286.8 407.67c4.021 1.207 8.848 15.155 8.848 15.155l-15.686 11.132s-5.764-11.534-4.022-16.765c1.877-5.365 6.301-10.864 10.86-9.522z" fill="#FFEDBA"/><path d="M240.2 620.14c-1.663 0-3.326-.243-4.276-1.214-.476-.485-.713-1.213-.713-2.184 0-.485.237-.971.713-1.213 2.138-1.214 9.028 2.426 9.978 2.912.238 0 .237.242.237.485s-.237.243-.237.243c-1.663.728-3.801.971-5.702.971zm-3.089-3.641c-.237 0-.475 0-.712.243-.238 0-.238.243-.238.485 0 .486 0 .971.475 1.456.951.971 4.039 1.214 7.84.486-2.613-1.456-5.701-2.67-7.365-2.67z" fill="#9FC6FF"/><path d="M245.67 619.54c-2.382-.883-6.43-4.415-6.192-6.181 0-.442.476-.884 1.667-1.104.953 0 1.667.22 2.382.662 2.143 1.766 2.62 6.182 2.62 6.182 0 .22 0 .22-.239.441h-.238zm-4.287-6.623h-.238c-.714 0-.715.442-.715.442-.238 1.103 2.62 3.973 4.764 5.077-.238-1.324-.715-3.974-2.144-5.077-.476-.221-.952-.442-1.667-.442zm43.517 8.993c-1.303-.957-2.467-2.105-2.653-3.413-.093-.654.14-1.362.699-2.123.28-.38.746-.623 1.258-.54 2.374.28 5.678 7.101 6.143 8.029.186.136.046.327-.093.517-.14.19-.326.053-.326.053-1.723-.387-3.539-1.428-5.028-2.523zm-.324-4.631c-.186-.137-.373-.274-.699-.22-.186-.137-.326.053-.465.243-.28.38-.559.761-.466 1.415.185 1.308 2.466 3.277 5.864 4.895-1.209-2.646-2.931-5.375-4.234-6.333z" fill="#9FC6FF"/><path d="M289.53 624.58c-1.358-2.064-2.496-7.164-1.293-8.411.255-.346.882-.418 1.943.095.746.549 1.179 1.133 1.485 1.891.662 2.618-1.507 6.353-1.507 6.353-.127.173-.127.173-.441.209l-.187-.137zm.455-7.66l-.187-.137c-.56-.411-.814-.065-.814-.065-.822.728-.236 4.623.809 6.722.576-1.175 1.728-3.526 1.244-5.214-.246-.447-.492-.894-1.052-1.306z" fill="#9FC6FF"/><path d="M280.23 465.48l1.073 3.621c.134.268-.134.536-.671.536h-41.425c-.402 0-.67-.134-.67-.402l-.402-3.621c0-.269.268-.403.67-.403h40.755c.402-.134.67 0 .67.269z" fill="#F18069"/><path d="M274.87 470.04h1.073c.268 0 .402-.134.402-.269l-.537-4.694c0-.134-.268-.268-.402-.268h-1.072c-.268 0-.402.134-.402.268l.536 4.694c0 .135.134.269.402.269zm-32.57 0h1.072c.269 0 .403-.134.403-.269l-.537-4.694c0-.134-.268-.268-.402-.268h-1.072c-.269 0-.403.134-.403.268l.537 4.694c0 .135.268.269.402.269zm16.22 0h1.072c.268 0 .402-.134.402-.269l-.536-4.694c0-.134-.268-.268-.402-.268h-1.073c-.268 0-.402.134-.402.268l.536 4.694c0 .135.269.269.403.269z" fill="#6A2828"/><path d="M258.52 372.66l-1.744-.94c0 .134.671 1.745 1.744.94z" fill="#0F264C"/><path d="M164.72 371.63h-10.119l-1.371-6.116s4.006 2.32 4.954.738c.949-1.582.738-.949 1.687-.738s.949-1.054 2.108-.316c1.265.843 3.162 4.85 2.741 6.432z" fill="#6B1912"/><path d="M154.29 622.92l12.437-1.055-.632-15.396-12.543 1.16.738 15.291z" fill="#D88D6C"/><path d="M177.48 620.81s-8.222-3.796-9.592-6.538c0 0-2.424-8.858-6.114-4.218 0 0-3.794 3.058-9.17.633l-.632 16.766 37.208-.105c-.949-2.531-1.792-5.378-11.7-6.538z" fill="url(#p)"/><path d="M151.97 627.56l-.211 2.636 37.524-.105c0-1.055.316-1.582-.211-2.637l-37.102.106z" fill="#C73E39"/><path d="M99.794 620.81l12.438 2.109 3.267-14.974-12.332-2.109-3.373 14.974z" fill="#D88D6C"/><path d="M123.72 620.81s-8.221-3.796-9.592-6.538c0 0 1.898-6.96-2.529-3.48 0 0-7.59 2.847-10.752-.633l-2.53 17.4 37.21-.106c-1.16-2.636-2.004-5.483-11.807-6.643z" fill="url(#o)"/><path d="M98.211 627.56l-.21 2.636 37.523-.105c0-1.055.317-1.582-.21-2.637l-37.103.106z" fill="#C73E39"/><path d="M168.83 477.82s2.213 63.377.211 135.4c0 0-6.009 5.695-17.392 1.898 0 0 .105-80.143-2.952-111.99 0 0-14.335 60.529-32.465 112.94 0 0-12.121 2.32-16.443-4.534 0 0 24.454-84.889 28.038-133.71h41.003z" fill="url(#n)"/><path d="M168.83 477.82h-41.003c-.316 3.691-.632 7.593-1.159 11.6 24.454.105 37.419-6.116 42.268-8.964 0-1.792-.106-2.636-.106-2.636z" fill="#402B2B" fill-opacity=".45" style="mix-blend-mode:multiply"/><path d="M191.18 433.74c-11.278-19.93-20.132-26.679-20.132-26.679-4.849 2.742-1.16 21.512-1.16 21.512 3.057 6.011 5.165 11.389 9.698 16.662l11.594-11.495z" fill="#D1402C"/><path d="M171.05 407.06s-.527 12.127-2.108 70.442c0 0-14.335 7.276-42.9 2.214 0 0-.106-17.505-4.006-33.006 0 0-7.273-29.21-3.584-37.752 0 0 23.295-14.447 52.598-1.898z" fill="url(#m)"/><path d="M148.91 395.5l.211 7.551s-1.792 2.636-6.113 2.952c-4.322.211-6.43-2.214-6.43-2.214l-.422-11.241c5.376 2.32 10.646 3.269 12.754 2.952z" fill="url(#l)"/><path d="M148.49 392.4l.421 8.331c-2.108.316-7.378-.633-12.648-2.953l-.317-5.378h12.544z" fill="url(#k)" style="mix-blend-mode:multiply"/><path d="M119.92 425.41s6.219 14.025 8.432 20.352c2.214 6.222 2.214 31.003 13.808 35.748 0 0-12.332-.738-16.232-1.793 0 0-.211-18.665-4.006-33.006 0 0-2.635-15.08-3.689-21.934l1.687.633z" fill="#EE4D47" fill-opacity=".29" style="mix-blend-mode:multiply"/><path d="M128.15 374.05c.211.105.422 3.48.422 3.48l.843 7.065 3.9 3.058 2.214.949s3.268-1.371 2.846-2.636c-.422-1.16-2.53-17.822-2.951-17.822-.422 0-3.795 2.426-3.795 2.426l-3.479 3.48zm30.88-6.33c.949 0-.527 11.599-.527 11.599l-1.686-4.64-1.16-5.589 3.373-1.37z" fill="#402B2B"/><path d="M157.45 370.04l1.792 14.869s.632 12.549-9.698 13.287c-10.329.633-17.392-9.596-17.392-9.596s-1.264 1.476-2.635-1.055c-1.265-2.53-.421-5.905 1.371-6.221 1.897-.211 2.74.843 2.951 2.425s.422 2.742.422 2.742l1.581-.211-1.16-12.232s2.424-4.746 5.165-5.695 5.165 2.847 5.165 2.847 2.53.528 4.954 0c2.424-.527 4.005-1.16 4.005-1.16s1.476.422 3.479 0z" fill="url(#j)"/><path d="M149.96 392.51c-3.478.211-4.005-3.797-4.005-3.797s8.011-.949 8.222-1.054c0 0 .632 4.534-4.217 4.851z" fill="#893D43"/><path d="M146.28 389.98c-.316-.738-.422-1.266-.422-1.266s8.011-.949 8.222-1.054c0 0 .105.527 0 1.371l-7.8.949z" fill="#FFFEFF"/><path d="M146.59 366.25v-10.756c-6.429.316-13.07 1.582-16.337 5.589-3.901 4.745-1.687 15.712-1.687 15.712s4.743-.527 5.587-2.109c.843-1.582 8.854-3.796 14.967-3.48 6.114.317 9.065-.316 12.122-2.952.632-.528 1.159-1.266 1.581-2.109H146.59v.105z" fill="#402B2B"/><path d="M127.83 372.79s4.533-1.476 12.122-2.109c12.754-5.378 18.235-4.429 18.235-4.429s-.105-4.112-1.265-6.96c-1.159-2.847-8.959-6.854-15.494-6.221-6.536.632-13.282 5.483-14.336 10.123-.843 3.585.738 9.596.738 9.596z" fill="url(#i)"/><path d="M135.52 371.2c1.371-6.538 11.173-9.807 18.13-9.701 6.852.105 11.7 5.8 12.438 9.701.316 1.582-.949 1.793-1.37.422-.316-.949-.949-5.483-7.273-4.956-6.325.527-6.008 6.222-9.17 6.749-2.952.527-6.325-1.582-12.755-2.215z" fill="url(#h)"/><path d="M156.71 372.68v-.738c-.316 0-2.74-.317-5.691.316l.105 1.16c2.424-.738 5.586-.738 5.586-.738zm-17.81 2.64c1.897-1.054 5.481-1.581 5.481-1.687l-.421-1.054c-.106 0-3.373.632-5.481 2.003l.421.738z" fill="#402B2B"/><path d="M149.44 378.9s.316 2.215 1.159 2.848c.843.632 2.319 1.16 2.53 1.687.211.422-.211 1.265-1.16 1.582-.948.316-1.054.632-1.054.632s1.898.211 2.846-.949c.949-1.16-.105-2.109-1.054-2.636s-1.37-.738-1.792-1.054c-.527-.317-1.475-2.11-1.475-2.11z" fill="#D87C60"/><path d="M144.9 380.06c0 1.055-.738 2.004-1.686 2.004-.949 0-1.687-.844-1.687-2.004 0-1.054.738-2.003 1.687-2.003.948 0 1.686.843 1.686 2.003zm11.6-1.37c0 1.055-.738 2.004-1.687 2.004-.948 0-1.686-.844-1.686-2.004 0-1.054.738-2.003 1.686-2.003.949.105 1.687.949 1.687 2.003z" fill="#402B2B"/><path d="M208.15 406.95h-65.14v50.3h65.14v-50.3z" fill="#8C5E5E"/><path d="M208.25 406.95h-23.716v50.3h23.716v-50.3z" fill="#694646"/><path d="M200.14 406.95h-6.114v6.959h6.114v-6.959zm-35 0h-6.114v6.959h6.114v-6.959z" fill="#A3774A"/><path d="M208.26 443.97s-3.373 2.215-4.321 3.164c-.949.949-2.635 10.018-.949 10.967 1.687.949 4.954 0 6.008.211 1.16.21 4.533-1.899 4.533-3.586s-2.108-12.865-2.636-13.076c-.527-.211-2.635-1.582-2.635-1.582v3.902z" fill="#F4A984"/><path d="M165.88 443.23h-20.343v9.912h20.343v-9.912z" fill="#fff"/><path d="M125.51 456.09c-7.694-11.178-8.748-45.028-8.748-45.028 10.54 1.371 17.602 15.502 17.602 15.607l1.582 20.247 26.899 4.31 1.454-1.358s6.219-3.164 11.279-2.637c0 0 2.319.422 1.792 1.793-.211.738.211 1.213.632 1.687.422.475.843.949.633 1.688-.178.622-.018 1.095.139 1.56.215.637.426 1.26-.245 2.236 0 0 .843 1.265-.105 2.425l-.136.167c-1.001 1.226-2.954 3.62-3.659 3.418-.265-.075-.882-.178-1.575-.293-1.238-.207-2.717-.453-2.852-.656-.211-.316-.421-.949.633-1.581 0 0-1.16.316-2.636.105-1.475-.105-3.583-1.265-3.583-1.265l-.391-.326c-29.566 2.426-38.715-2.099-38.715-2.099z" clip-rule="evenodd" fill="url(#g)" fill-rule="evenodd"/><path d="M137.32 442.07l-2.951-15.501s-5.376-16.24-15.916-17.611c0 0-7.59 4.745 1.791 37.014l17.076-3.902z" fill="url(#f)"/><rect x="15" y="267" width="141" height="38.454" rx="5" fill="#EE4D47"/><path d="M34.613 290.56c-.96 0-1.71-.233-2.25-.7-.54-.473-.827-1.143-.86-2.01-.007-.193-.01-.5-.01-.92s.003-.727.01-.92c.033-.847.323-1.5.87-1.96.553-.46 1.3-.69 2.24-.69.633 0 1.183.103 1.65.31.473.207.833.47 1.08.79.253.32.387.65.4.99a.19.19 0 01-.07.15c-.04.04-.09.06-.15.06h-1.46c-.067 0-.12-.01-.16-.03s-.073-.057-.1-.11a1.275 1.275 0 00-.41-.5c-.187-.147-.447-.22-.78-.22-.793 0-1.21.42-1.25 1.26-.007.187-.01.477-.01.87 0 .387.003.677.01.87.04.88.467 1.32 1.28 1.32.393 0 .707-.1.94-.3.24-.207.36-.52.36-.94v-.19h-.94a.242.242 0 01-.18-.07.28.28 0 01-.07-.19v-.74c0-.073.023-.133.07-.18a.23.23 0 01.18-.08h2.52a.23.23 0 01.18.08c.047.047.07.107.07.18v1.14c0 .567-.13 1.057-.39 1.47-.26.407-.63.72-1.11.94-.473.213-1.027.32-1.66.32zm5.057-.1a.265.265 0 01-.18-.07.265.265 0 01-.07-.18v-6.5c0-.073.024-.133.07-.18a.265.265 0 01.18-.07h4.67c.074 0 .134.023.18.07s.07.107.07.18v.94a.265.265 0 01-.07.18.242.242 0 01-.18.07h-3.19v1.35h2.97a.23.23 0 01.18.08c.047.047.07.107.07.18v.87a.265.265 0 01-.07.18.242.242 0 01-.18.07h-2.97v1.39h3.27c.074 0 .134.023.18.07s.07.107.07.18v.94a.265.265 0 01-.07.18.242.242 0 01-.18.07h-4.75zm8.427 0a.265.265 0 01-.18-.07.265.265 0 01-.07-.18v-5.18h-1.78a.265.265 0 01-.18-.07.265.265 0 01-.07-.18v-1.07c0-.073.023-.133.07-.18a.265.265 0 01.18-.07h5.38c.073 0 .133.023.18.07.047.047.07.107.07.18v1.07a.245.245 0 01-.07.18.242.242 0 01-.18.07h-1.78v5.18a.265.265 0 01-.07.18.242.242 0 01-.18.07h-1.32zm10.013.1c-.633 0-1.177-.093-1.63-.28-.453-.187-.797-.43-1.03-.73a1.762 1.762 0 01-.36-1c0-.053.02-.1.06-.14a.22.22 0 01.16-.07h1.26c.08 0 .143.017.19.05.053.027.107.07.16.13.087.173.227.317.42.43.193.113.45.17.77.17.38 0 .67-.06.87-.18s.3-.283.3-.49a.456.456 0 00-.16-.36c-.1-.093-.26-.177-.48-.25s-.547-.157-.98-.25c-.8-.167-1.4-.41-1.8-.73-.393-.327-.59-.79-.59-1.39 0-.407.113-.77.34-1.09.227-.32.55-.57.97-.75s.91-.27 1.47-.27c.58 0 1.083.1 1.51.3.427.2.75.453.97.76.227.3.347.597.36.89a.204.204 0 01-.21.21h-1.32a.44.44 0 01-.2-.04.404.404 0 01-.13-.13c-.04-.153-.15-.283-.33-.39-.173-.107-.39-.16-.65-.16-.3 0-.53.053-.69.16s-.24.263-.24.47c0 .14.043.257.13.35.093.093.24.18.44.26.207.073.5.15.88.23.62.113 1.113.257 1.48.43.373.167.647.387.82.66.173.267.26.603.26 1.01 0 .447-.13.837-.39 1.17-.253.327-.61.58-1.07.76-.453.173-.973.26-1.56.26zm6.242-.1a.265.265 0 01-.18-.07.265.265 0 01-.07-.18v-5.18h-1.78a.265.265 0 01-.18-.07.265.265 0 01-.07-.18v-1.07c0-.073.024-.133.07-.18a.265.265 0 01.18-.07h5.38a.24.24 0 01.25.25v1.07a.245.245 0 01-.07.18.242.242 0 01-.18.07h-1.78v5.18a.265.265 0 01-.07.18.242.242 0 01-.18.07h-1.32zm3.896 0a.227.227 0 01-.15-.06.228.228 0 01-.06-.15c0-.04.004-.07.01-.09l2.35-6.42a.363.363 0 01.13-.2.406.406 0 01.26-.08h1.48c.107 0 .194.027.26.08a.36.36 0 01.13.2l2.34 6.42.02.09a.211.211 0 01-.07.15c-.04.04-.09.06-.15.06h-1.23c-.16 0-.266-.07-.32-.21l-.39-1.02h-2.67l-.38 1.02c-.053.14-.163.21-.33.21h-1.23zm4.21-2.67l-.93-2.64-.93 2.64h1.86zm4.099 2.67a.265.265 0 01-.18-.07.265.265 0 01-.07-.18v-6.5c0-.073.023-.133.07-.18a.265.265 0 01.18-.07h2.72c.873 0 1.553.2 2.04.6.493.393.74.953.74 1.68 0 .467-.11.863-.33 1.19s-.524.577-.91.75l1.37 2.46c.02.04.03.077.03.11a.211.211 0 01-.07.15.192.192 0 01-.14.06h-1.33a.418.418 0 01-.41-.27l-1.14-2.2h-1.02v2.22a.229.229 0 01-.08.18.242.242 0 01-.18.07h-1.29zm2.7-3.89c.306 0 .54-.073.7-.22.16-.153.24-.363.24-.63s-.08-.477-.24-.63c-.154-.16-.387-.24-.7-.24h-1.15v1.72h1.15zm6.185 3.89a.265.265 0 01-.18-.07.265.265 0 01-.07-.18v-5.18h-1.78a.265.265 0 01-.18-.07.265.265 0 01-.07-.18v-1.07c0-.073.024-.133.07-.18a.265.265 0 01.18-.07h5.38a.24.24 0 01.25.25v1.07a.245.245 0 01-.07.18.242.242 0 01-.18.07h-1.78v5.18a.265.265 0 01-.07.18.242.242 0 01-.18.07h-1.32zm5.26 0a.265.265 0 01-.18-.07.265.265 0 01-.07-.18v-6.5a.24.24 0 01.07-.18.265.265 0 01.18-.07h4.67c.072 0 .132.023.18.07.046.047.07.107.07.18v.94a.265.265 0 01-.07.18.242.242 0 01-.18.07h-3.19v1.35h2.97a.23.23 0 01.18.08c.046.047.07.107.07.18v.87a.265.265 0 01-.07.18.242.242 0 01-.18.07h-2.97v1.39h3.27c.072 0 .132.023.18.07.046.047.07.107.07.18v.94a.265.265 0 01-.07.18.242.242 0 01-.18.07h-4.75zm6.886 0a.265.265 0 01-.18-.07.265.265 0 01-.07-.18v-6.5c0-.073.023-.133.07-.18a.265.265 0 01.18-.07h2.6c.98 0 1.74.233 2.28.7s.823 1.143.85 2.03c.006.193.01.45.01.77s-.004.573-.01.76c-.034.927-.31 1.617-.83 2.07-.514.447-1.264.67-2.25.67h-2.65zm2.6-1.44c.44 0 .763-.103.97-.31.206-.213.316-.55.33-1.01.013-.193.02-.443.02-.75s-.007-.553-.02-.74c-.014-.447-.134-.777-.36-.99-.22-.213-.55-.32-.99-.32h-1v4.12h1.05zm36.512 1.28l3.596-3.959-.64-.706v-.046h-.043l-2.913-3.207-.949.863 2.13 2.344H121.39v1.282h16.693l-2.332 2.566.949.863zM22.095 120v-.43l1.29-.344c1.003-.287 1.505-1.003 1.505-2.15v-8.17l-7.095-14.448c-.258-.573-.502-1.003-.731-1.29-.2-.287-.516-.53-.946-.731l-.774-.387v-.43h11.524v.43l-.774.301c-.63.258-.975.616-1.032 1.075-.057.43.057.975.344 1.634l5.074 11.266 5.676-11.696c.23-.459.315-.932.258-1.419-.029-.487-.33-.803-.903-.946l-.602-.215v-.43h5.16v.43l-.817.301c-.545.2-.946.487-1.204.86a7.822 7.822 0 00-.774 1.333l-5.891 12.384v10.148c0 .573.1 1.046.301 1.419.23.344.616.588 1.161.731l1.333.344v.43H22.095zm25.766.645c-2.179 0-4.07-.444-5.676-1.333-1.605-.917-2.852-2.207-3.741-3.87-.86-1.663-1.29-3.612-1.29-5.848s.459-4.171 1.376-5.805c.946-1.634 2.222-2.895 3.827-3.784 1.634-.889 3.469-1.333 5.504-1.333 2.035 0 3.856.444 5.461 1.333 1.605.86 2.867 2.107 3.784 3.741.946 1.634 1.419 3.583 1.419 5.848s-.444 4.228-1.333 5.891a9.322 9.322 0 01-3.698 3.827c-1.577.889-3.454 1.333-5.633 1.333zm0-.86c1.003 0 1.806-.287 2.408-.86s1.032-1.591 1.29-3.053c.287-1.462.43-3.526.43-6.192 0-2.695-.143-4.773-.43-6.235-.258-1.462-.688-2.48-1.29-3.053-.602-.573-1.405-.86-2.408-.86s-1.82.287-2.451.86c-.602.573-1.046 1.591-1.333 3.053-.258 1.462-.387 3.54-.387 6.235 0 2.666.129 4.73.387 6.192.287 1.462.731 2.48 1.333 3.053.63.573 1.448.86 2.451.86zm20.168.86c-1.118 0-2.15-.215-3.096-.645-.917-.43-1.648-1.118-2.193-2.064-.516-.975-.76-2.25-.731-3.827l.129-11.051c0-.659-.115-1.132-.344-1.419-.23-.287-.588-.487-1.075-.602l-.516-.172v-.43L67.9 98.93l.43.43-.215 6.106v10.363c0 .917.258 1.591.774 2.021.545.43 1.218.645 2.021.645.803 0 1.52-.115 2.15-.344a7.693 7.693 0 001.892-1.032l.172-14.018c0-.659-.1-1.118-.301-1.376-.2-.287-.573-.487-1.118-.602l-.43-.129v-.43L80.8 98.93l.43.43-.129 6.106v11.653c0 .631.086 1.118.258 1.462s.545.631 1.118.86l.43.129v.43l-7.525.43-.387-2.537a15.808 15.808 0 01-3.096 1.978c-1.09.516-2.38.774-3.87.774zM84.643 120v-.43l.645-.172c.573-.172.96-.43 1.161-.774.23-.344.344-.788.344-1.333v-13.459c0-.631-.115-1.089-.344-1.376-.2-.315-.588-.53-1.161-.645l-.645-.172v-.43l7.396-2.494.43.43.387 3.698v.344a8.931 8.931 0 011.548-2.193 9.094 9.094 0 012.15-1.677c.803-.43 1.591-.645 2.365-.645 1.09 0 1.92.301 2.494.903.574.602.86 1.362.86 2.279 0 .975-.286 1.734-.86 2.279-.544.516-1.204.774-1.978.774-1.204 0-2.265-.602-3.182-1.806l-.086-.086c-.287-.401-.616-.616-.989-.645-.373-.057-.717.115-1.032.516-.287.258-.53.573-.731.946-.172.344-.344.745-.516 1.204v11.997c0 1.147.502 1.863 1.505 2.15l1.376.387v.43H84.643zm34.623.645c-1.663 0-3.067-.473-4.214-1.419-1.118-.946-1.677-2.308-1.677-4.085 0-1.347.688-2.58 2.064-3.698 1.376-1.147 3.54-2.007 6.493-2.58.459-.086.975-.172 1.548-.258.573-.115 1.175-.229 1.806-.344v-3.397c0-1.949-.244-3.311-.731-4.085-.459-.803-1.19-1.204-2.193-1.204-.688 0-1.233.23-1.634.688-.401.43-.659 1.19-.774 2.279l-.086.473c-.057 1.233-.358 2.136-.903 2.709s-1.218.86-2.021.86c-.745 0-1.362-.229-1.849-.688s-.731-1.075-.731-1.849c0-1.175.401-2.164 1.204-2.967.831-.803 1.921-1.405 3.268-1.806s2.809-.602 4.386-.602c2.551 0 4.515.63 5.891 1.892 1.405 1.233 2.107 3.254 2.107 6.063v9.503c0 1.29.602 1.935 1.806 1.935h.946l.387.344c-.545.688-1.147 1.218-1.806 1.591-.631.373-1.534.559-2.709.559-1.261 0-2.265-.287-3.01-.86-.717-.602-1.19-1.39-1.419-2.365a18.37 18.37 0 01-2.666 2.365c-.889.631-2.05.946-3.483.946zm2.623-2.623c.573 0 1.104-.129 1.591-.387.516-.287 1.118-.717 1.806-1.29v-7.224l-.86.172c-.287.057-.616.115-.989.172-1.319.344-2.379.932-3.182 1.763-.774.803-1.161 1.892-1.161 3.268 0 1.175.272 2.064.817 2.666.545.573 1.204.86 1.978.86zm21.33 2.107l-6.622-18.189c-.315-.917-.946-1.562-1.892-1.935l-.731-.258v-.43h10.535v.43l-.645.172c-1.118.344-1.491 1.032-1.118 2.064l3.999 12.169 3.569-9.46-.817-2.451c-.201-.631-.416-1.104-.645-1.419a1.68 1.68 0 00-.817-.731l-.731-.344v-.43h8.901v.43l-.602.258c-.43.172-.688.401-.774.688s-.029.717.172 1.29l3.956 11.954 4.085-11.868c.401-1.089.186-1.777-.645-2.064l-.946-.258v-.43h5.16v.43l-1.032.301c-.487.143-.846.373-1.075.688-.201.287-.387.688-.559 1.204l-6.192 18.189h-2.193l-4.773-14.061-5.074 14.061h-2.494zm34.438-21.457c1.863 0 3.454.387 4.773 1.161a7.45 7.45 0 013.01 3.096c.717 1.29 1.075 2.766 1.075 4.429 0 .315-.014.645-.043.989a3.83 3.83 0 01-.172.86h-12.814c.029 3.096.573 5.332 1.634 6.708 1.089 1.347 2.695 2.021 4.816 2.021 1.433 0 2.594-.229 3.483-.688s1.72-1.132 2.494-2.021l.43.387c-.889 1.577-2.078 2.809-3.569 3.698-1.462.889-3.225 1.333-5.289 1.333-2.035 0-3.841-.43-5.418-1.29-1.577-.889-2.809-2.15-3.698-3.784s-1.333-3.583-1.333-5.848c0-2.351.516-4.343 1.548-5.977 1.032-1.663 2.351-2.924 3.956-3.784 1.634-.86 3.34-1.29 5.117-1.29zm-.129.86c-.831 0-1.548.258-2.15.774-.573.487-1.032 1.376-1.376 2.666-.315 1.261-.487 3.053-.516 5.375h7.353c.287-3.125.172-5.375-.344-6.751s-1.505-2.064-2.967-2.064zm18.569 21.113c-1.405 0-2.666-.172-3.784-.516a16.554 16.554 0 01-3.096-1.204l.043-5.117h.43l1.462 2.58c.631 1.147 1.319 2.007 2.064 2.58.774.545 1.749.817 2.924.817 1.376 0 2.48-.301 3.311-.903.86-.631 1.29-1.462 1.29-2.494 0-.946-.301-1.72-.903-2.322s-1.72-1.147-3.354-1.634l-1.806-.559c-1.749-.516-3.125-1.319-4.128-2.408s-1.505-2.422-1.505-3.999c0-1.892.745-3.497 2.236-4.816s3.626-1.978 6.407-1.978c1.118 0 2.164.129 3.139.387 1.003.23 1.964.588 2.881 1.075l-.258 4.644h-.43l-1.505-2.666c-.545-.946-1.089-1.605-1.634-1.978-.516-.401-1.304-.602-2.365-.602-.975 0-1.892.272-2.752.817-.86.545-1.29 1.319-1.29 2.322 0 .975.358 1.749 1.075 2.322.745.573 1.835 1.104 3.268 1.591l1.935.559c2.064.631 3.54 1.505 4.429 2.623.889 1.089 1.333 2.408 1.333 3.956 0 2.093-.831 3.77-2.494 5.031-1.634 1.261-3.942 1.892-6.923 1.892zm22.168 0c-2.178 0-4.07-.444-5.676-1.333-1.605-.917-2.852-2.207-3.741-3.87-.86-1.663-1.29-3.612-1.29-5.848s.459-4.171 1.376-5.805c.946-1.634 2.222-2.895 3.827-3.784 1.634-.889 3.469-1.333 5.504-1.333 2.036 0 3.856.444 5.461 1.333 1.606.86 2.867 2.107 3.784 3.741.946 1.634 1.419 3.583 1.419 5.848s-.444 4.228-1.333 5.891a9.318 9.318 0 01-3.698 3.827c-1.576.889-3.454 1.333-5.633 1.333zm0-.86c1.004 0 1.806-.287 2.408-.86s1.032-1.591 1.29-3.053c.287-1.462.43-3.526.43-6.192 0-2.695-.143-4.773-.43-6.235-.258-1.462-.688-2.48-1.29-3.053-.602-.573-1.404-.86-2.408-.86-1.003 0-1.82.287-2.451.86-.602.573-1.046 1.591-1.333 3.053-.258 1.462-.387 3.54-.387 6.235 0 2.666.129 4.73.387 6.192.287 1.462.731 2.48 1.333 3.053.631.573 1.448.86 2.451.86zm12.553.215v-.43l.602-.172c.545-.143.917-.387 1.118-.731.229-.344.358-.803.387-1.376v-13.459c0-.631-.1-1.089-.301-1.376-.201-.315-.588-.53-1.161-.645l-.645-.172v-.43l7.353-2.494.43.43.344 2.924a14.121 14.121 0 013.225-2.408c1.233-.66 2.508-.989 3.827-.989 1.376 0 2.48.287 3.311.86.831.545 1.462 1.405 1.892 2.58 1.118-1.061 2.322-1.892 3.612-2.494 1.319-.63 2.594-.946 3.827-.946 2.035 0 3.526.487 4.472 1.462.975.975 1.462 2.508 1.462 4.601v12.599c0 1.118.516 1.82 1.548 2.107l.473.129v.43h-9.933v-.43l.43-.129c.545-.172.917-.43 1.118-.774.229-.344.344-.803.344-1.376v-13.158c0-1.204-.215-2.021-.645-2.451-.43-.459-1.118-.688-2.064-.688a5.02 5.02 0 00-2.193.516c-.688.315-1.419.803-2.193 1.462.143.459.229.96.258 1.505.057.545.086 1.118.086 1.72v11.137c.029 1.118.545 1.82 1.548 2.107l.387.129v.43h-9.976v-.43l.602-.172c.545-.172.917-.416 1.118-.731.229-.344.344-.803.344-1.376v-13.115c0-1.147-.215-1.964-.645-2.451-.401-.487-1.104-.731-2.107-.731-.659 0-1.319.172-1.978.516-.659.315-1.347.788-2.064 1.419v14.405c0 1.118.502 1.82 1.505 2.107l.387.129v.43h-10.105zm48.25-21.328c1.863 0 3.454.387 4.773 1.161a7.45 7.45 0 013.01 3.096c.717 1.29 1.075 2.766 1.075 4.429 0 .315-.014.645-.043.989a3.83 3.83 0 01-.172.86h-12.814c.029 3.096.573 5.332 1.634 6.708 1.089 1.347 2.695 2.021 4.816 2.021 1.433 0 2.594-.229 3.483-.688s1.72-1.132 2.494-2.021l.43.387c-.889 1.577-2.078 2.809-3.569 3.698-1.462.889-3.225 1.333-5.289 1.333-2.035 0-3.841-.43-5.418-1.29-1.577-.889-2.809-2.15-3.698-3.784s-1.333-3.583-1.333-5.848c0-2.351.516-4.343 1.548-5.977 1.032-1.663 2.351-2.924 3.956-3.784 1.634-.86 3.34-1.29 5.117-1.29zm-.129.86c-.831 0-1.548.258-2.15.774-.573.487-1.032 1.376-1.376 2.666-.315 1.261-.487 3.053-.516 5.375h7.353c.287-3.125.172-5.375-.344-6.751s-1.505-2.064-2.967-2.064zm-254.91 74.113c-1.835 0-3.268-.459-4.3-1.376-1.003-.917-1.505-2.379-1.505-4.386v-14.706h-2.967v-.43l1.032-.172c.889-.201 1.648-.487 2.279-.86.66-.373 1.304-.874 1.935-1.505l3.526-3.913h.43l-.129 6.02h4.816v.86h-4.859v15.48c0 1.003.215 1.763.645 2.279a2.206 2.206 0 001.72.774c.602 0 1.132-.143 1.591-.43a7.723 7.723 0 001.376-1.247l.43.43c-.573.975-1.362 1.749-2.365 2.322s-2.222.86-3.655.86zm7.367-.645v-.43l.645-.172c.573-.172.96-.43 1.161-.774.23-.344.344-.788.344-1.333v-13.459c0-.631-.115-1.089-.344-1.376-.2-.315-.588-.53-1.16-.645l-.646-.172v-.43l7.396-2.494.43.43.387 3.698v.344a8.931 8.931 0 011.548-2.193 9.094 9.094 0 012.15-1.677c.803-.43 1.591-.645 2.365-.645 1.09 0 1.92.301 2.494.903s.86 1.362.86 2.279c0 .975-.287 1.734-.86 2.279-.545.516-1.204.774-1.978.774-1.204 0-2.265-.602-3.182-1.806l-.086-.086c-.287-.401-.616-.616-.989-.645-.373-.057-.717.115-1.032.516-.287.258-.53.573-.73.946-.173.344-.345.745-.517 1.204v11.997c0 1.147.502 1.863 1.505 2.15l1.376.387v.43H31.396zm24.335.645c-1.663 0-3.067-.473-4.214-1.419-1.118-.946-1.677-2.308-1.677-4.085 0-1.347.688-2.58 2.064-3.698 1.376-1.147 3.54-2.007 6.493-2.58.459-.086.975-.172 1.548-.258.573-.115 1.175-.229 1.806-.344v-3.397c0-1.949-.244-3.311-.73-4.085-.46-.803-1.19-1.204-2.194-1.204-.688 0-1.233.229-1.634.688-.401.43-.66 1.19-.774 2.279l-.086.473c-.057 1.233-.358 2.136-.903 2.709s-1.218.86-2.02.86c-.746 0-1.363-.229-1.85-.688-.487-.459-.73-1.075-.73-1.849 0-1.175.4-2.164 1.203-2.967.831-.803 1.92-1.405 3.268-1.806 1.347-.401 2.81-.602 4.386-.602 2.551 0 4.515.631 5.891 1.892 1.405 1.233 2.107 3.254 2.107 6.063v9.503c0 1.29.602 1.935 1.806 1.935h.946l.387.344c-.545.688-1.147 1.218-1.806 1.591-.63.373-1.534.559-2.709.559-1.261 0-2.265-.287-3.01-.86-.717-.602-1.19-1.39-1.419-2.365a18.355 18.355 0 01-2.666 2.365c-.889.631-2.05.946-3.483.946zm2.623-2.623c.573 0 1.104-.129 1.591-.387.516-.287 1.118-.717 1.806-1.29v-7.224l-.86.172c-.287.057-.616.115-.989.172-1.319.344-2.38.932-3.182 1.763-.774.803-1.16 1.892-1.16 3.268 0 1.175.271 2.064.816 2.666.545.573 1.204.86 1.978.86zM71.795 173v-.43l.56-.129c.544-.172.974-.43 1.29-.774s.472-.803.472-1.376v-3.139c.029-1.061.043-2.121.043-3.182v-10.793h-2.408v-.473l.946-.172c.602-.086 1.018-.287 1.247-.602.23-.344.416-.817.56-1.419.286-1.118.701-2.093 1.246-2.924a15.481 15.481 0 011.935-2.365c1.09-1.032 2.236-1.749 3.44-2.15 1.233-.43 2.437-.645 3.612-.645.745 0 1.462.115 2.15.344.717.201 1.29.53 1.72.989.459.43.688 1.003.688 1.72 0 .774-.23 1.39-.688 1.849-.43.43-1.075.645-1.935.645-.688 0-1.319-.186-1.892-.559s-1.132-1.032-1.677-1.978l-.602-.731c-.315-.43-.645-.631-.989-.602-.315.029-.53.272-.645.731a34.006 34.006 0 00-.473 3.569 60.126 60.126 0 00-.129 3.913h7.181c.602 0 1.018-.158 1.247-.473.23-.344.416-.788.56-1.333.286-1.118.701-2.093 1.246-2.924a15.481 15.481 0 011.935-2.365c1.09-1.032 2.236-1.749 3.44-2.15 1.233-.43 2.437-.645 3.612-.645a6.9 6.9 0 012.193.344c.688.201 1.261.53 1.72.989.458.43.688 1.003.688 1.72 0 .774-.23 1.39-.688 1.849-.459.43-1.118.645-1.978.645a3.4 3.4 0 01-1.892-.559c-.573-.373-1.132-1.032-1.677-1.978l-.602-.731c-.315-.43-.63-.631-.946-.602s-.545.272-.688.731a34.006 34.006 0 00-.473 3.569 60.126 60.126 0 00-.129 3.913h4.816v.86h-4.816v17.028c.029 1.089.616 1.792 1.763 2.107l1.075.258v.43H86.544v-.43l.56-.129c.544-.172.974-.43 1.29-.774s.486-.803.515-1.376v-17.114h-8.643v17.028c.029 1.089.602 1.792 1.72 2.107l1.075.258v.43H71.795zm36.358-23.564c-.975 0-1.806-.301-2.494-.903-.66-.631-.989-1.419-.989-2.365 0-.975.33-1.763.99-2.365.687-.602 1.518-.903 2.493-.903.974 0 1.791.301 2.451.903.66.602.99 1.39.99 2.365 0 .946-.33 1.734-.99 2.365-.66.602-1.477.903-2.45.903zM103.08 173v-.43l.602-.172c.573-.172.96-.43 1.161-.774.23-.344.344-.803.344-1.376v-13.459c0-.602-.115-1.046-.344-1.333-.2-.315-.588-.53-1.16-.645l-.603-.129v-.43l7.87-2.537.43.43-.13 6.106v12.04c0 .573.1 1.032.301 1.376.23.344.616.602 1.161.774l.43.129v.43H103.08zm22.63.645c-1.95 0-3.727-.416-5.332-1.247-1.577-.86-2.838-2.093-3.784-3.698-.918-1.634-1.376-3.626-1.376-5.977 0-2.322.501-4.3 1.505-5.934 1.032-1.663 2.393-2.924 4.085-3.784 1.72-.889 3.597-1.333 5.633-1.333 1.662 0 3.067.272 4.214.817 1.146.545 2.021 1.261 2.623 2.15.602.86.903 1.763.903 2.709 0 .803-.244 1.433-.73 1.892-.489.43-1.119.645-1.893.645-.832 0-1.505-.301-2.02-.903s-.818-1.39-.904-2.365c-.029-.631-.015-1.161.043-1.591a5.558 5.558 0 000-1.376c-.115-.487-.3-.803-.559-.946-.23-.172-.559-.258-.989-.258-1.749 0-3.11.76-4.085 2.279-.946 1.519-1.419 3.942-1.419 7.267 0 2.895.53 5.117 1.591 6.665 1.09 1.519 2.752 2.279 4.988 2.279 1.347 0 2.436-.244 3.268-.731.831-.487 1.634-1.218 2.408-2.193l.43.344c-.717 1.691-1.82 2.996-3.31 3.913-1.492.917-3.255 1.376-5.29 1.376zm19.948 9.245v-.43l.516-.172c1.061-.287 1.591-.975 1.591-2.064v-23.392c0-.631-.115-1.104-.344-1.419-.2-.315-.588-.53-1.16-.645l-.603-.129v-.43l7.31-2.494.43.43.387 1.333a12.322 12.322 0 013.14-1.333 13.889 13.889 0 013.611-.473c2.465 0 4.415.946 5.848 2.838 1.462 1.863 2.193 4.544 2.193 8.041 0 3.44-.803 6.149-2.408 8.127-1.577 1.978-3.813 2.967-6.708 2.967-2.265 0-4.17-.33-5.719-.989v7.439c0 1.147.516 1.863 1.548 2.15l.817.215v.43h-10.449zm11.74-10.492c1.432 0 2.565-.745 3.396-2.236.86-1.491 1.29-3.97 1.29-7.439s-.4-5.891-1.204-7.267c-.803-1.405-1.964-2.107-3.483-2.107-1.06 0-2.236.344-3.526 1.032v17.329c1.09.459 2.265.688 3.526.688zm24.164-20.726c1.864 0 3.455.387 4.773 1.161a7.45 7.45 0 013.01 3.096c.717 1.29 1.075 2.766 1.075 4.429 0 .315-.014.645-.043.989a3.775 3.775 0 01-.172.86H177.39c.03 3.096.574 5.332 1.634 6.708 1.09 1.347 2.695 2.021 4.816 2.021 1.434 0 2.595-.229 3.483-.688.89-.459 1.72-1.132 2.494-2.021l.43.387c-.888 1.577-2.078 2.809-3.569 3.698-1.462.889-3.225 1.333-5.289 1.333-2.035 0-3.84-.43-5.418-1.29-1.576-.889-2.809-2.15-3.698-3.784-.888-1.634-1.333-3.583-1.333-5.848 0-2.351.516-4.343 1.548-5.977 1.032-1.663 2.351-2.924 3.956-3.784 1.634-.86 3.34-1.29 5.117-1.29zm-.129.86c-.83 0-1.548.258-2.15.774-.573.487-1.032 1.376-1.376 2.666-.315 1.261-.487 3.053-.516 5.375h7.353c.287-3.125.172-5.375-.344-6.751s-1.505-2.064-2.967-2.064zM192.562 173v-.43l.645-.172c.573-.172.96-.43 1.161-.774.23-.344.344-.788.344-1.333v-13.459c0-.631-.115-1.089-.344-1.376-.2-.315-.588-.53-1.16-.645l-.646-.172v-.43l7.396-2.494.43.43.387 3.698v.344a8.915 8.915 0 011.548-2.193 9.088 9.088 0 012.15-1.677c.803-.43 1.591-.645 2.365-.645 1.09 0 1.921.301 2.494.903s.86 1.362.86 2.279c0 .975-.287 1.734-.86 2.279-.545.516-1.204.774-1.978.774-1.204 0-2.265-.602-3.182-1.806l-.086-.086c-.287-.401-.616-.616-.989-.645-.373-.057-.717.115-1.032.516-.287.258-.53.573-.73.946-.173.344-.345.745-.517 1.204v11.997c0 1.147.502 1.863 1.505 2.15l1.376.387v.43h-11.137zm18.981 0v-.43l.602-.172c.544-.143.917-.387 1.118-.731.23-.344.358-.803.387-1.376v-13.459c0-.631-.1-1.089-.3-1.376-.202-.315-.589-.53-1.162-.645l-.645-.172v-.43l7.353-2.494.43.43.344 2.924a14.121 14.121 0 013.225-2.408c1.232-.659 2.508-.989 3.827-.989 1.376 0 2.48.287 3.311.86.831.545 1.462 1.405 1.892 2.58 1.118-1.061 2.322-1.892 3.612-2.494 1.318-.631 2.594-.946 3.827-.946 2.035 0 3.526.487 4.472 1.462.974.975 1.462 2.508 1.462 4.601v12.599c0 1.118.516 1.82 1.548 2.107l.473.129v.43h-9.933v-.43l.43-.129c.544-.172.917-.43 1.118-.774.23-.344.344-.803.344-1.376v-13.158c0-1.204-.215-2.021-.645-2.451-.43-.459-1.118-.688-2.064-.688-.746 0-1.477.172-2.193.516-.688.315-1.419.803-2.193 1.462.143.459.23.96.258 1.505.057.545.086 1.118.086 1.72v11.137c.028 1.118.544 1.82 1.548 2.107l.387.129v.43h-9.976v-.43l.602-.172c.544-.172.917-.416 1.118-.731.23-.344.344-.803.344-1.376v-13.115c0-1.147-.215-1.964-.645-2.451-.402-.487-1.104-.731-2.107-.731-.66 0-1.319.172-1.978.516-.66.315-1.348.788-2.064 1.419v14.405c0 1.118.501 1.82 1.505 2.107l.387.129v.43h-10.105zm42.617-23.564c-.975 0-1.806-.301-2.494-.903-.66-.631-.989-1.419-.989-2.365 0-.975.33-1.763.99-2.365.687-.602 1.518-.903 2.493-.903.974 0 1.791.301 2.451.903.66.602.99 1.39.99 2.365 0 .946-.33 1.734-.99 2.365-.66.602-1.477.903-2.45.903zM249.086 173v-.43l.602-.172c.573-.172.96-.43 1.161-.774.23-.344.344-.803.344-1.376v-13.459c0-.602-.115-1.046-.344-1.333-.2-.315-.588-.53-1.16-.645l-.603-.129v-.43l7.87-2.537.43.43-.13 6.106v12.04c0 .573.1 1.032.301 1.376.23.344.616.602 1.161.774l.43.129v.43h-10.062zm20.135.645c-1.834 0-3.268-.459-4.3-1.376-1.003-.917-1.505-2.379-1.505-4.386v-14.706h-2.967v-.43l1.032-.172c.89-.201 1.65-.487 2.28-.86.66-.373 1.304-.874 1.934-1.505l3.526-3.913h.43l-.129 6.02h4.816v.86h-4.859v15.48c0 1.003.215 1.763.645 2.279a2.206 2.206 0 001.72.774c.602 0 1.133-.143 1.591-.43a7.689 7.689 0 001.376-1.247l.43.43a6.329 6.329 0 01-2.365 2.322c-1.003.573-2.22.86-3.655.86zm-242.7 53c-1.95 0-3.727-.416-5.332-1.247-1.577-.86-2.838-2.093-3.784-3.698-.917-1.634-1.376-3.626-1.376-5.977 0-2.322.502-4.3 1.505-5.934 1.032-1.663 2.394-2.924 4.085-3.784 1.72-.889 3.598-1.333 5.633-1.333 1.663 0 3.067.272 4.214.817s2.021 1.261 2.623 2.15c.602.86.903 1.763.903 2.709 0 .803-.244 1.433-.73 1.892-.488.43-1.119.645-1.893.645-.831 0-1.505-.301-2.02-.903s-.818-1.39-.904-2.365a9.175 9.175 0 01.043-1.591 5.529 5.529 0 000-1.376c-.115-.487-.3-.803-.559-.946-.23-.172-.559-.258-.989-.258-1.749 0-3.11.76-4.085 2.279-.946 1.519-1.419 3.942-1.419 7.267 0 2.895.53 5.117 1.591 6.665 1.09 1.519 2.752 2.279 4.988 2.279 1.347 0 2.437-.244 3.268-.731s1.634-1.218 2.408-2.193l.43.344c-.717 1.691-1.82 2.996-3.31 3.913s-3.255 1.376-5.29 1.376zm21.211 0c-2.179 0-4.07-.444-5.676-1.333-1.605-.917-2.852-2.207-3.74-3.87-.86-1.663-1.29-3.612-1.29-5.848s.458-4.171 1.375-5.805c.946-1.634 2.222-2.895 3.827-3.784 1.634-.889 3.469-1.333 5.504-1.333s3.856.444 5.461 1.333c1.605.86 2.867 2.107 3.784 3.741.946 1.634 1.42 3.583 1.42 5.848s-.445 4.228-1.334 5.891a9.322 9.322 0 01-3.698 3.827c-1.577.889-3.454 1.333-5.633 1.333zm0-.86c1.003 0 1.806-.287 2.408-.86s1.032-1.591 1.29-3.053c.287-1.462.43-3.526.43-6.192 0-2.695-.143-4.773-.43-6.235-.258-1.462-.688-2.48-1.29-3.053s-1.405-.86-2.408-.86-1.82.287-2.45.86c-.603.573-1.047 1.591-1.334 3.053-.258 1.462-.387 3.54-.387 6.235 0 2.666.13 4.73.387 6.192.287 1.462.731 2.48 1.333 3.053.63.573 1.448.86 2.451.86zm12.553.215v-.43l.602-.172c1.003-.287 1.505-.989 1.505-2.107v-13.459c0-.631-.1-1.089-.3-1.376-.202-.315-.589-.53-1.162-.645l-.645-.172v-.43l7.353-2.494.43.43.344 2.58a13.519 13.519 0 013.397-2.193c1.261-.573 2.508-.86 3.741-.86 1.892 0 3.34.516 4.343 1.548 1.032 1.032 1.548 2.609 1.548 4.73v12.384c0 1.118.545 1.82 1.634 2.107l.387.129v.43H73.314v-.43l.56-.172c1.002-.315 1.504-1.018 1.504-2.107v-13.717c0-1.835-.917-2.752-2.752-2.752-1.261 0-2.637.631-4.128 1.892v14.62c0 1.118.502 1.82 1.505 2.107l.387.129v.43H60.285zm32.298.645c-1.405 0-2.666-.172-3.784-.516a16.554 16.554 0 01-3.096-1.204l.043-5.117h.43l1.462 2.58c.63 1.147 1.319 2.007 2.064 2.58.774.545 1.749.817 2.924.817 1.376 0 2.48-.301 3.311-.903.86-.631 1.29-1.462 1.29-2.494 0-.946-.3-1.72-.903-2.322s-1.72-1.147-3.354-1.634l-1.806-.559c-1.749-.516-3.125-1.319-4.128-2.408s-1.505-2.422-1.505-3.999c0-1.892.745-3.497 2.236-4.816s3.626-1.978 6.407-1.978c1.118 0 2.164.129 3.14.387 1.002.229 1.963.588 2.88 1.075l-.258 4.644h-.43l-1.505-2.666c-.545-.946-1.09-1.605-1.634-1.978-.516-.401-1.304-.602-2.365-.602-.975 0-1.892.272-2.752.817s-1.29 1.319-1.29 2.322c0 .975.358 1.749 1.075 2.322.745.573 1.835 1.104 3.268 1.591l1.935.559c2.064.631 3.54 1.505 4.429 2.623.889 1.089 1.333 2.408 1.333 3.956 0 2.093-.831 3.77-2.494 5.031-1.634 1.261-3.942 1.892-6.923 1.892zm18.821 0c-1.118 0-2.15-.215-3.096-.645-.918-.43-1.649-1.118-2.193-2.064-.516-.975-.76-2.25-.73-3.827l.128-11.051c0-.659-.115-1.132-.344-1.419-.23-.287-.588-.487-1.075-.602l-.516-.172v-.43l7.697-1.505.43.43-.215 6.106v10.363c0 .917.258 1.591.774 2.021.544.43 1.218.645 2.021.645.802 0 1.52-.115 2.15-.344a7.712 7.712 0 001.892-1.032l.172-14.018c0-.659-.1-1.118-.3-1.376-.202-.287-.575-.487-1.119-.602l-.43-.129v-.43l7.525-1.634.43.43-.129 6.106v11.653c0 .631.086 1.118.258 1.462s.544.631 1.118.86l.43.129v.43l-7.525.43-.387-2.537a15.808 15.808 0 01-3.096 1.978c-1.09.516-2.38.774-3.87.774zm16.743-.645v-.43l.516-.172c1.032-.344 1.548-1.061 1.548-2.15v-23.005c0-.573-.115-1.003-.344-1.29-.229-.315-.63-.545-1.204-.688l-.559-.129v-.43l7.87-1.849.515.387-.172 6.02v17.888c.03 1.032.043 2.064.043 3.096 0 .573.115 1.046.344 1.419.23.344.616.602 1.161.774l.56.129v.43h-10.278zm20.345.645c-1.835 0-3.268-.459-4.3-1.376-1.003-.917-1.505-2.379-1.505-4.386v-14.706h-2.967v-.43l1.032-.172c.89-.201 1.648-.487 2.28-.86.658-.373 1.303-.874 1.934-1.505l3.526-3.913h.43l-.129 6.02h4.816v.86h-4.859v15.48c0 1.003.215 1.763.645 2.279a2.206 2.206 0 001.72.774c.602 0 1.132-.143 1.591-.43a7.723 7.723 0 001.376-1.247l.43.43c-.573.975-1.362 1.749-2.365 2.322s-2.222.86-3.655.86zm13.645 0c-1.663 0-3.067-.473-4.214-1.419-1.118-.946-1.677-2.308-1.677-4.085 0-1.347.688-2.58 2.064-3.698 1.376-1.147 3.54-2.007 6.493-2.58.46-.086.975-.172 1.548-.258.573-.115 1.175-.229 1.806-.344v-3.397c0-1.949-.244-3.311-.73-4.085-.46-.803-1.19-1.204-2.194-1.204-.688 0-1.233.229-1.634.688-.4.43-.659 1.19-.774 2.279l-.086.473c-.057 1.233-.358 2.136-.903 2.709s-1.218.86-2.02.86c-.746 0-1.363-.229-1.85-.688s-.73-1.075-.73-1.849c0-1.175.4-2.164 1.203-2.967.831-.803 1.921-1.405 3.268-1.806s2.81-.602 4.386-.602c2.551 0 4.515.631 5.891 1.892 1.405 1.233 2.107 3.254 2.107 6.063v9.503c0 1.29.602 1.935 1.806 1.935h.946l.387.344c-.545.688-1.147 1.218-1.806 1.591-.63.373-1.534.559-2.709.559-1.26 0-2.265-.287-3.01-.86-.717-.602-1.19-1.39-1.419-2.365a18.37 18.37 0 01-2.666 2.365c-.889.631-2.05.946-3.483.946zm2.623-2.623c.573 0 1.104-.129 1.591-.387.516-.287 1.118-.717 1.806-1.29v-7.224l-.86.172c-.287.057-.616.115-.989.172-1.319.344-2.379.932-3.182 1.763-.774.803-1.16 1.892-1.16 3.268 0 1.175.271 2.064.816 2.666.545.573 1.204.86 1.978.86zM178.031 226v-.43l.602-.172c1.003-.287 1.505-.989 1.505-2.107v-13.459c0-.631-.1-1.089-.3-1.376-.202-.315-.589-.53-1.162-.645l-.645-.172v-.43l7.353-2.494.43.43.344 2.58a13.5 13.5 0 013.397-2.193c1.261-.573 2.508-.86 3.741-.86 1.892 0 3.34.516 4.343 1.548 1.032 1.032 1.548 2.609 1.548 4.73v12.384c0 1.118.544 1.82 1.634 2.107l.387.129v.43H191.06v-.43l.56-.172c1.002-.315 1.504-1.018 1.504-2.107v-13.717c0-1.835-.918-2.752-2.752-2.752-1.262 0-2.638.631-4.128 1.892v14.62c0 1.118.501 1.82 1.505 2.107l.387.129v.43h-10.105zm32.82.645c-1.835 0-3.269-.459-4.3-1.376-1.004-.917-1.506-2.379-1.506-4.386v-14.706h-2.967v-.43l1.032-.172c.89-.201 1.65-.487 2.28-.86.66-.373 1.304-.874 1.934-1.505l3.526-3.913h.43l-.129 6.02h4.816v.86h-4.859v15.48c0 1.003.215 1.763.645 2.279a2.206 2.206 0 001.72.774c.602 0 1.133-.143 1.591-.43a7.689 7.689 0 001.376-1.247l.43.43a6.329 6.329 0 01-2.365 2.322c-1.003.573-2.22.86-3.655.86zm12.956 0c-1.032 0-1.906-.358-2.623-1.075-.716-.717-1.075-1.577-1.075-2.58s.36-1.878 1.075-2.623c.717-.745 1.591-1.118 2.623-1.118s1.907.373 2.623 1.118c.717.745 1.075 1.62 1.075 2.623s-.358 1.863-1.075 2.58c-.716.717-1.59 1.075-2.623 1.075zM280.01 24a1.002 1.002 0 00-.716 1.712.995.995 0 00.716.288h24a.998.998 0 001.014-1 1.003 1.003 0 00-.627-.928.998.998 0 00-.387-.072h-24zm0 7a1.002 1.002 0 00-.716 1.712.995.995 0 00.716.288h24a.998.998 0 001.014-1 1.003 1.003 0 00-.627-.928.998.998 0 00-.387-.072h-24zm0 7a1.002 1.002 0 00-.716 1.712.995.995 0 00.716.288h24a.998.998 0 001.014-1 1.003 1.003 0 00-.627-.928.998.998 0 00-.387-.072h-24zm-226.38.286v-.18l.738-.18c.492-.108.738-.408.738-.9v-10.26h-1.53c-.444 0-.762.12-.954.36a5.51 5.51 0 00-.612.954l-.648 1.26h-.18l.09-2.934h10.386l.072 2.934h-.18l-.648-1.26c-.204-.408-.402-.726-.594-.954-.192-.24-.51-.36-.954-.36h-1.53v10.26c0 .492.246.792.738.9l.738.18v.18h-5.67zm8.873 0v-.18l.378-.126c.24-.084.396-.192.468-.324.072-.144.108-.342.108-.594v-9.414c0-.24-.036-.426-.108-.558-.06-.144-.204-.258-.432-.342l-.414-.162v-.18h5.148c1.416 0 2.502.27 3.258.81.756.528 1.134 1.266 1.134 2.214 0 .528-.198 1.056-.594 1.584s-1.02.936-1.872 1.224l2.502 4.968c.108.204.228.372.36.504.144.12.33.228.558.324l.234.09v.162H70.01l-2.664-5.67h-1.224v4.446c0 .228.036.414.108.558s.222.252.45.324l.432.162v.18h-4.608zm3.618-6.03h.864c.864 0 1.488-.228 1.872-.684.384-.468.576-1.158.576-2.07 0-.924-.18-1.608-.54-2.052-.36-.456-.966-.684-1.818-.684h-.954v5.49zm7.609 6.03v-.18l.45-.162c.24-.096.426-.21.558-.342.132-.144.24-.342.324-.594L78.77 26.37h1.53l3.654 10.71c.096.264.204.468.324.612.12.132.306.246.558.342l.216.072v.18H80.48v-.18l.27-.09c.252-.096.402-.228.45-.396.06-.18.054-.39-.018-.63l-.846-2.592H76.34l-.864 2.538c-.084.264-.114.474-.09.63.036.156.18.282.432.378l.396.162v.18H73.73zm2.736-4.248h3.762L78.41 28.44l-1.944 5.598zm9.152 4.248v-.18l.324-.108c.24-.084.402-.198.486-.342s.126-.336.126-.576c.012-.72.018-1.446.018-2.178v-5.076c0-.732-.006-1.458-.018-2.178 0-.24-.036-.432-.108-.576-.06-.144-.204-.258-.432-.342l-.396-.144v-.18h8.712l.126 2.988h-.18l-1.026-1.89c-.12-.228-.258-.408-.414-.54s-.372-.198-.648-.198H89.29c-.012.852-.018 1.722-.018 2.61v2.646h1.872c.276 0 .48-.06.612-.18s.258-.294.378-.522l.378-.684h.18v3.15h-.18l-.396-.684a2.347 2.347 0 00-.378-.522c-.12-.132-.318-.198-.594-.198h-1.872v2.412c0 .756.006 1.5.018 2.232 0 .468.228.774.684.918l.54.162v.18h-4.896zm9.563 0v-.18l.36-.144c.24-.084.396-.198.468-.342.084-.144.126-.336.126-.576v-9.396c0-.24-.036-.432-.108-.576s-.234-.258-.486-.342l-.36-.144v-.18h4.626v.18l-.36.144c-.24.084-.402.198-.486.342-.072.144-.108.336-.108.576v9.396c0 .24.036.432.108.576.084.132.246.246.486.342l.36.144v.18H95.18zm11.307.324c-1.164 0-2.22-.234-3.168-.702-.936-.48-1.68-1.188-2.232-2.124s-.828-2.082-.828-3.438c0-1.032.168-1.938.504-2.718s.792-1.434 1.368-1.962a5.895 5.895 0 012.016-1.188 7.423 7.423 0 012.43-.396c.684 0 1.314.078 1.89.234s1.116.372 1.62.648l.072 2.214h-.18l-.9-1.44a3.837 3.837 0 00-.396-.612 1.352 1.352 0 00-.54-.432 2.38 2.38 0 00-.54-.18 2.415 2.415 0 00-.648-.072c-.696 0-1.332.186-1.908.558-.564.372-1.02.99-1.368 1.854-.336.852-.504 2.022-.504 3.51 0 1.476.162 2.646.486 3.51.324.852.762 1.464 1.314 1.836a3.44 3.44 0 001.89.54c.384 0 .69-.024.918-.072a3.94 3.94 0 00.684-.252c.228-.096.402-.234.522-.414.12-.192.228-.396.324-.612l.792-1.764h.18l-.054 2.574c-.504.264-1.068.48-1.692.648s-1.308.252-2.052.252zm10.183 0a5.85 5.85 0 01-2.124-.396 5.551 5.551 0 01-1.818-1.17c-.528-.528-.948-1.182-1.26-1.962S111 33.39 111 32.346c0-1.032.156-1.938.468-2.718s.738-1.428 1.278-1.944a5.416 5.416 0 011.818-1.188 5.58 5.58 0 012.106-.414c.732 0 1.434.132 2.106.396.684.252 1.29.642 1.818 1.17.54.516.966 1.17 1.278 1.962.312.78.468 1.692.468 2.736 0 1.02-.156 1.926-.468 2.718-.312.78-.738 1.434-1.278 1.962a5.546 5.546 0 01-1.818 1.188 5.709 5.709 0 01-2.106.396zm0-.378c.66 0 1.194-.174 1.602-.522.408-.36.702-.966.882-1.818.192-.864.288-2.046.288-3.546 0-1.512-.096-2.694-.288-3.546-.18-.864-.474-1.47-.882-1.818-.408-.36-.942-.54-1.602-.54-.648 0-1.176.18-1.584.54-.408.348-.708.954-.9 1.818-.18.852-.27 2.034-.27 3.546 0 1.5.09 2.682.27 3.546.192.852.492 1.458.9 1.818.408.348.936.522 1.584.522zm8.113.324c-.432 0-.798-.15-1.098-.45s-.45-.66-.45-1.08.15-.786.45-1.098.666-.468 1.098-.468.798.156 1.098.468.45.678.45 1.098-.15.78-.45 1.08-.666.45-1.098.45z" fill="#fff"/><path d="M15 27.667h10.349V17L15 27.667z" fill="#fff" opacity=".4"/><path d="M46.046 27.667H25.349V49l20.697-21.333z" fill="#fff"/></g><defs><linearGradient id="ba" x1="150.86" x2="-781.13" y1="872.72" y2="117.57" gradientUnits="userSpaceOnUse"><stop stop-color="#FFEDBA" offset="0"/><stop stop-color="#EE4D47" offset="1"/></linearGradient><linearGradient id="ar" x1="-131.95" x2="-131.85" y1="314.38" y2="538.4" gradientUnits="userSpaceOnUse"><stop stop-color="#fff" offset="0"/><stop stop-color="#fff" stop-opacity="0" offset="1"/></linearGradient><linearGradient id="ag" x1="75.99" x2="-556.82" y1="728.89" y2="175.61" gradientUnits="userSpaceOnUse"><stop stop-color="#FFEDBA" offset="0"/><stop stop-color="#EE4D47" offset="1"/></linearGradient><linearGradient id="x" x1="130.01" x2="130.01" y1="-52.348" y2="611.15" gradientUnits="userSpaceOnUse"><stop stop-color="#F4A984" offset="0"/><stop stop-color="#F4A984" stop-opacity="0" offset="1"/></linearGradient><linearGradient id="a" x1="263.37" x2="263.37" y1="335.01" y2="519.7" gradientUnits="userSpaceOnUse"><stop stop-color="#2CA77F" offset=".241"/><stop stop-color="#1B8877" offset="1"/></linearGradient><linearGradient id="e" x1="267.93" x2="267.93" y1="342.38" y2="510.16" gradientUnits="userSpaceOnUse"><stop stop-color="#fff" offset="0"/><stop stop-color="#fff" stop-opacity="0" offset="1"/></linearGradient><linearGradient id="b" x1="341.19" x2="341.19" y1="387.9" y2="515.79" gradientUnits="userSpaceOnUse"><stop stop-color="#2CA77F" offset=".422"/><stop stop-color="#1B8877" offset="1"/></linearGradient><linearGradient id="az" x1="340.54" x2="340.54" y1="407.41" y2="511.89" gradientUnits="userSpaceOnUse"><stop stop-color="#fff" offset="0"/><stop stop-color="#fff" stop-opacity="0" offset="1"/></linearGradient><linearGradient id="d" x1="138.95" x2="138.95" y1="354.09" y2="547.08" gradientUnits="userSpaceOnUse"><stop stop-color="#2CA77F" offset=".422"/><stop stop-color="#1B8877" offset="1"/></linearGradient><linearGradient id="ay" x1="133.53" x2="133.53" y1="392.67" y2="529.56" gradientUnits="userSpaceOnUse"><stop stop-color="#fff" offset="0"/><stop stop-color="#fff" stop-opacity="0" offset="1"/></linearGradient><linearGradient id="ax" x1="253.61" x2="253.61" y1="390.1" y2="429.06" gradientUnits="userSpaceOnUse"><stop stop-color="#D3D86C" offset="0"/><stop stop-color="#82A637" offset="1"/></linearGradient><linearGradient id="aw" x1="191.84" x2="191.84" y1="306.17" y2="377.5" gradientUnits="userSpaceOnUse"><stop stop-color="#D3D86C" offset="0"/><stop stop-color="#82A637" offset="1"/></linearGradient><linearGradient id="av" x1="73.796" x2="73.796" y1="414.78" y2="512.59" gradientUnits="userSpaceOnUse"><stop stop-color="#D3D86C" offset="0"/><stop stop-color="#82A637" offset="1"/></linearGradient><linearGradient id="au" x1="73.836" x2="73.836" y1="438.8" y2="512.59" gradientUnits="userSpaceOnUse"><stop stop-color="#084F15" stop-opacity="0" offset="0"/><stop stop-color="#084F15" offset="1"/></linearGradient><linearGradient id="at" x1="57.238" x2="57.238" y1="443.01" y2="512.66" gradientUnits="userSpaceOnUse"><stop stop-color="#084F15" stop-opacity="0" offset="0"/><stop stop-color="#084F15" offset="1"/></linearGradient><linearGradient id="as" x1="42.11" x2="42.11" y1="455.74" y2="512.59" gradientUnits="userSpaceOnUse"><stop stop-color="#084F15" stop-opacity="0" offset="0"/><stop stop-color="#084F15" offset="1"/></linearGradient><linearGradient id="aq" x1="28.715" x2="28.715" y1="474.71" y2="512.66" gradientUnits="userSpaceOnUse"><stop stop-color="#084F15" stop-opacity="0" offset="0"/><stop stop-color="#084F15" offset="1"/></linearGradient><linearGradient id="ap" x1="15.168" x2="15.168" y1="496.7" y2="512.59" gradientUnits="userSpaceOnUse"><stop stop-color="#084F15" stop-opacity="0" offset="0"/><stop stop-color="#084F15" offset="1"/></linearGradient><linearGradient id="ao" x1="90.357" x2="90.357" y1="443.01" y2="512.66" gradientUnits="userSpaceOnUse"><stop stop-color="#084F15" stop-opacity="0" offset="0"/><stop stop-color="#084F15" offset="1"/></linearGradient><linearGradient id="an" x1="105.52" x2="105.52" y1="455.81" y2="512.66" gradientUnits="userSpaceOnUse"><stop stop-color="#084F15" stop-opacity="0" offset="0"/><stop stop-color="#084F15" offset="1"/></linearGradient><linearGradient id="am" x1="118.88" x2="118.88" y1="474.71" y2="512.66" gradientUnits="userSpaceOnUse"><stop stop-color="#084F15" stop-opacity="0" offset="0"/><stop stop-color="#084F15" offset="1"/></linearGradient><linearGradient id="al" x1="155.27" x2="155.27" y1="450.42" y2="512.66" gradientUnits="userSpaceOnUse"><stop stop-color="#D3D86C" offset="0"/><stop stop-color="#82A637" offset="1"/></linearGradient><linearGradient id="ak" x1="155.35" x2="155.35" y1="465.75" y2="512.66" gradientUnits="userSpaceOnUse"><stop stop-color="#084F15" stop-opacity="0" offset="0"/><stop stop-color="#084F15" offset="1"/></linearGradient><linearGradient id="aj" x1="144.88" x2="144.88" y1="468.31" y2="512.59" gradientUnits="userSpaceOnUse"><stop stop-color="#084F15" stop-opacity="0" offset="0"/><stop stop-color="#084F15" offset="1"/></linearGradient><linearGradient id="ai" x1="135.25" x2="135.25" y1="476.52" y2="512.66" gradientUnits="userSpaceOnUse"><stop stop-color="#084F15" stop-opacity="0" offset="0"/><stop stop-color="#084F15" offset="1"/></linearGradient><linearGradient id="ah" x1="126.71" x2="126.71" y1="488.49" y2="512.59" gradientUnits="userSpaceOnUse"><stop stop-color="#084F15" stop-opacity="0" offset="0"/><stop stop-color="#084F15" offset="1"/></linearGradient><linearGradient id="af" x1="118.13" x2="118.13" y1="502.57" y2="512.66" gradientUnits="userSpaceOnUse"><stop stop-color="#084F15" stop-opacity="0" offset="0"/><stop stop-color="#084F15" offset="1"/></linearGradient><linearGradient id="ae" x1="165.88" x2="165.88" y1="468.46" y2="512.66" gradientUnits="userSpaceOnUse"><stop stop-color="#084F15" stop-opacity="0" offset="0"/><stop stop-color="#084F15" offset="1"/></linearGradient><linearGradient id="ad" x1="175.52" x2="175.52" y1="476.52" y2="512.66" gradientUnits="userSpaceOnUse"><stop stop-color="#084F15" stop-opacity="0" offset="0"/><stop stop-color="#084F15" offset="1"/></linearGradient><linearGradient id="ac" x1="184.06" x2="184.06" y1="488.57" y2="512.66" gradientUnits="userSpaceOnUse"><stop stop-color="#084F15" stop-opacity="0" offset="0"/><stop stop-color="#084F15" offset="1"/></linearGradient><linearGradient id="ab" x1="192.64" x2="192.64" y1="502.57" y2="512.66" gradientUnits="userSpaceOnUse"><stop stop-color="#084F15" stop-opacity="0" offset="0"/><stop stop-color="#084F15" offset="1"/></linearGradient><linearGradient id="c" x1="-274.83" x2="-274.83" y1="335.43" y2="629.24" gradientUnits="userSpaceOnUse"><stop stop-color="#EEEF99" offset=".278"/><stop stop-color="#B9D079" offset=".77"/></linearGradient><linearGradient id="aa" x1="-26.098" x2="-26.098" y1="513.77" y2="647.53" gradientUnits="userSpaceOnUse"><stop stop-color="#fff" offset="0"/><stop stop-color="#fff" stop-opacity="0" offset="1"/></linearGradient><linearGradient id="z" x1="-73.762" x2="-73.762" y1="474.52" y2="606.23" gradientUnits="userSpaceOnUse"><stop stop-color="#82A637" offset=".164"/><stop stop-color="#1B8877" offset=".891"/></linearGradient><linearGradient id="y" x1="417.26" x2="417.26" y1="465.79" y2="-226.21" gradientUnits="userSpaceOnUse"><stop stop-color="#FFEDBA" stop-opacity="0" offset="0"/><stop stop-color="#EB2A24" offset="1"/></linearGradient><linearGradient id="w" x1="262.01" x2="262.11" y1="126.71" y2="374.76" gradientUnits="userSpaceOnUse"><stop stop-color="#fff" offset="0"/><stop stop-color="#fff" stop-opacity="0" offset="1"/></linearGradient><linearGradient id="v" x1="243.99" x2="241.01" y1="459.64" y2="428.92" gradientUnits="userSpaceOnUse"><stop stop-color="#FFB3B6" offset="0"/><stop stop-color="#FFC8C1" offset="1"/></linearGradient><linearGradient id="u" x1="247.07" x2="247.07" y1="439.36" y2="606.96" gradientUnits="userSpaceOnUse"><stop stop-color="#F4A984" offset="0"/><stop stop-color="#EE4D47" offset="1"/></linearGradient><linearGradient id="t" x1="261.32" x2="261.45" y1="407.95" y2="372.41" gradientUnits="userSpaceOnUse"><stop stop-color="#FFB3B6" offset="0"/><stop stop-color="#FFC8C1" offset="1"/></linearGradient><linearGradient id="s" x1="275.84" x2="272.3" y1="390.04" y2="364.97" gradientUnits="userSpaceOnUse"><stop stop-color="#FFB3B6" offset="0"/><stop stop-color="#FFC8C1" offset="1"/></linearGradient><linearGradient id="r" x1="278.11" x2="278.11" y1="440.36" y2="603.97" gradientUnits="userSpaceOnUse"><stop stop-color="#F4A984" offset="0"/><stop stop-color="#EE4D47" offset="1"/></linearGradient><linearGradient id="q" x1="275.13" x2="274.35" y1="384.44" y2="378.48" gradientUnits="userSpaceOnUse"><stop stop-color="#FFB3B6" offset="0"/><stop stop-color="#FFC8C1" offset="1"/></linearGradient><linearGradient id="p" x1="170.57" x2="170.57" y1="611.95" y2="627.97" gradientUnits="userSpaceOnUse"><stop stop-color="#F4A984" offset="0"/><stop stop-color="#EE4D47" offset="1"/></linearGradient><linearGradient id="o" x1="116.92" x2="116.92" y1="606.18" y2="628.04" gradientUnits="userSpaceOnUse"><stop stop-color="#F4A984" offset="0"/><stop stop-color="#EE4D47" offset="1"/></linearGradient><linearGradient id="n" x1="134.84" x2="134.84" y1="438.61" y2="616.44" gradientUnits="userSpaceOnUse"><stop stop-color="#822626" offset="0"/><stop stop-color="#402B2B" offset=".944"/></linearGradient><linearGradient id="m" x1="144.22" x2="144.22" y1="383.52" y2="483.68" gradientUnits="userSpaceOnUse"><stop stop-color="#F4A984" offset="0"/><stop stop-color="#EE4D47" offset="1"/></linearGradient><linearGradient id="l" x1="138.32" x2="148.98" y1="402.51" y2="407.11" gradientUnits="userSpaceOnUse"><stop stop-color="#FFB3B6" offset="0"/><stop stop-color="#FFC8C1" offset="1"/></linearGradient><linearGradient id="k" x1="138.11" x2="148.84" y1="397.22" y2="401.76" gradientUnits="userSpaceOnUse"><stop stop-color="#FFB3B6" stop-opacity=".31" offset="0"/><stop stop-color="#FFC8C1" offset="1"/></linearGradient><linearGradient id="j" x1="160.61" x2="158.33" y1="394.59" y2="374.2" gradientUnits="userSpaceOnUse"><stop stop-color="#FFB3B6" offset="0"/><stop stop-color="#FFC8C1" offset="1"/></linearGradient><linearGradient id="i" x1="142.52" x2="142.52" y1="342.38" y2="373.04" gradientUnits="userSpaceOnUse"><stop stop-color="#F4A984" offset="0"/><stop stop-color="#EE4D47" offset="1"/></linearGradient><linearGradient id="h" x1="141.71" x2="141.71" y1="358.46" y2="390.34" gradientUnits="userSpaceOnUse"><stop stop-color="#F4A984" offset="0"/><stop stop-color="#EE4D47" offset="1"/></linearGradient><linearGradient id="g" x1="127.14" x2="181.79" y1="440.43" y2="458.64" gradientUnits="userSpaceOnUse"><stop stop-color="#FFB3B6" offset="0"/><stop stop-color="#FFC8C1" offset="1"/></linearGradient><linearGradient id="f" x1="126.43" x2="126.43" y1="398.23" y2="436.18" gradientUnits="userSpaceOnUse"><stop stop-color="#F4A984" offset="0"/><stop stop-color="#EE4D47" offset="1"/></linearGradient><clipPath id="bg"><path fill="#fff" d="M0 0h320v5200H0z"/></clipPath></defs></svg>