<svg width="320" height="636" fill="none" xmlns="http://www.w3.org/2000/svg"><g clip-path="url(#clip0_2637:288)"><path d="M552-211H-681v781H452c55.229 0 100-44.772 100-100v-681z" fill="url(#paint0_linear_2637:288)"/><path opacity=".2" d="M128.162 636.332c71.826-71.858 71.826-188.363 0-260.221-71.827-71.858-188.281-71.858-260.108 0s-71.827 188.363 0 260.221 188.28 71.859 260.108 0z" fill="url(#paint1_linear_2637:288)"/><mask id="a" style="mask-type:alpha" maskUnits="userSpaceOnUse" x="-522" y="-2" width="969" height="591"><path d="M447-2h-969v591h869c55.228 0 100-44.771 100-100V-2z" fill="url(#paint2_linear_2637:288)"/></mask><g mask="url(#a)"><path d="M406.908 282.12h-6.512a2.441 2.441 0 00-2.441 2.442v146.807a3.357 3.357 0 01-6.715 0v-90.648c0-5.057-4.1-9.157-9.157-9.157h-.204a8.954 8.954 0 00-8.953 8.953 8.952 8.952 0 01-8.952 8.953h-36.729a4.579 4.579 0 00-4.578 4.579v2.543a2.035 2.035 0 01-2.035 2.035 2.034 2.034 0 00-2.034 2.034v32.658a4.985 4.985 0 01-4.986 4.985 4.985 4.985 0 00-4.985 4.986v21.466a6.308 6.308 0 01-6.308 6.308 6.308 6.308 0 00-6.308 6.308v31.538a2.239 2.239 0 11-4.476 0V284.358c0-1.011-.82-1.831-1.832-1.831a1.831 1.831 0 01-1.831-1.831v-16.177a3.155 3.155 0 00-3.154-3.154 3.154 3.154 0 01-3.154-3.153v-15.668c0-1.18-.956-2.136-2.136-2.136a2.137 2.137 0 01-2.137-2.137v-8.821c0-5.523-4.477-10-10-10h-7.266c-5.523 0-10 4.477-10 10v8.821c0 1.18-.957 2.137-2.137 2.137-1.18 0-2.136.956-2.136 2.136v15.668a3.154 3.154 0 01-3.154 3.153 3.155 3.155 0 00-3.154 3.154v16.278c0 .843-.683 1.526-1.526 1.526s-1.526.684-1.526 1.526v125.748a3.56 3.56 0 01-3.561 3.561 3.56 3.56 0 00-3.561 3.561v50.055a4.375 4.375 0 01-4.375 4.375h-3.968a.408.408 0 01-.407-.407.407.407 0 00-.407-.407h-1.322a.712.712 0 110-1.425h.712a1.017 1.017 0 100-2.034h-.611a.813.813 0 010-1.628h.611a1.017 1.017 0 000-2.035h-.712a.712.712 0 110-1.424h.712a1.017 1.017 0 100-2.035h-.712a.711.711 0 110-1.424h.712a1.017 1.017 0 100-2.035h-.712a.711.711 0 110-1.424h.712a1.017 1.017 0 100-2.035h-.712a.712.712 0 110-1.425h.712a1.017 1.017 0 100-2.034h-.712a.712.712 0 110-1.425h.712a1.017 1.017 0 100-2.034h-.712a.712.712 0 110-1.425h.712a1.017 1.017 0 100-2.034h-.712a.712.712 0 110-1.425h.712a1.017 1.017 0 000-2.035h-.712a.712.712 0 110-1.424h.712a1.017 1.017 0 000-2.035h-.204a1.22 1.22 0 01-1.22-1.221v-.406a1.22 1.22 0 011.22-1.221h.204a1.017 1.017 0 100-2.035h-.712a.712.712 0 110-1.424h.712a1.017 1.017 0 100-2.035h-.712a.711.711 0 110-1.424h.712a1.017 1.017 0 100-2.035h-.712a.712.712 0 110-1.425h.712a1.017 1.017 0 100-2.034h-.712a.712.712 0 110-1.425h.712a1.017 1.017 0 100-2.034h-.712a.712.712 0 110-1.425h.712a1.017 1.017 0 100-2.034h-.712a.712.712 0 110-1.425h.712a1.017 1.017 0 000-2.035h-.712a.712.712 0 110-1.424h.712a1.017 1.017 0 000-2.035h-.712a.712.712 0 110-1.424h.712a1.017 1.017 0 000-2.035h-.712a.712.712 0 110-1.424h.712a1.017 1.017 0 000-2.035h-.712a.712.712 0 110-1.424h.712a1.017 1.017 0 000-2.035h-.712a.712.712 0 110-1.424h.712a1.017 1.017 0 000-2.035h-.712a.712.712 0 110-1.424h.712a1.017 1.017 0 000-2.035h-.204a1.22 1.22 0 01-1.22-1.221v-.814a1.22 1.22 0 011.22-1.221h.204a1.017 1.017 0 100-2.034h-.712a.712.712 0 110-1.425h.712a1.017 1.017 0 100-2.034h-.712a.712.712 0 110-1.425h.712a1.017 1.017 0 000-2.035h-.712a.712.712 0 110-1.424h.712a1.017 1.017 0 000-2.035h-.204a1.22 1.22 0 01-1.22-1.221v-1.322a.916.916 0 00-.916-.916.916.916 0 01-.916-.915v-1.323a2.238 2.238 0 00-2.238-2.238h-.204a2.441 2.441 0 01-2.441-2.442v-6.511c0-1.011-.82-1.831-1.832-1.831a1.832 1.832 0 01-1.831-1.832v-5.72a7.552 7.552 0 00-5.942-7.378l-5.249-1.145a3.412 3.412 0 01-2.646-3.325v-18.955a.713.713 0 10-1.424 0v19.171a1.833 1.833 0 01-2.238 1.787 1.831 1.831 0 00-2.238 1.786v14.085c0 .842-.684 1.526-1.527 1.526-.842 0-1.526.683-1.526 1.526v6.816a2.441 2.441 0 01-2.441 2.442h-.509a1.932 1.932 0 00-1.933 1.933v1.017c0 .506-.41.916-.916.916a.915.915 0 00-.915.915v.814a1.73 1.73 0 01-1.73 1.73h-13.909c-5.523 0-10 4.477-10 10v2.586c0 5.523-4.477 10-10 10h-10.097a10.01 10.01 0 00-3.629.681l-17.58 6.847a1.619 1.619 0 00-1.018 1.503v7.043c0 .899.729 1.628 1.628 1.628h.407a1.221 1.221 0 010 2.442h-.814a1.221 1.221 0 000 2.442h.814a1.22 1.22 0 110 2.441h-.814a1.221 1.221 0 000 2.442h.814a1.221 1.221 0 010 2.442h-.814a1.22 1.22 0 100 2.441h.814a1.221 1.221 0 010 2.442h-.814a1.221 1.221 0 000 2.442h1.119a.916.916 0 110 1.831H95.033a7.396 7.396 0 01-6.935-4.825l-4.507-12.156c-.842-2.272-4.056-2.268-4.893.006-1.02 2.772-5.304 1.977-5.298-.978.004-2.019.004-4.038.004-6.057v-8.546c0-8.139 0-16.278-.203-24.417 0-3.459-.203-7.122-.203-10.581-.204-7.528-.407-15.057-.814-22.789-.204-3.663-.204-7.325-.407-10.988-.407-7.121-.61-14.04-1.018-21.161 0-.814-.203-1.628-.203-2.442-.407-6.308-.814-12.412-1.221-18.72-.814-11.394-1.831-22.789-2.849-34.183-.353-4.939-4.65-8.75-9.601-8.75H21.944c-2.918 0-5.514 2.17-5.514 5.087l-.61 7.325c-.204 2.035-.407 4.273-.61 6.308-.408 3.866-.611 7.732-1.018 11.598-.204 1.831-.204 3.459-.407 5.29-.204 3.256-.407 6.512-.814 9.767-.203 1.424-.204 2.849-.204 4.07-.203 4.273-.61 8.546-.813 12.615 0 1.424-.204 2.849-.204 4.273-.203 4.477-.407 8.75-.61 13.226 0 1.017-.204 1.831-.204 2.849-.203 4.069-.407 8.342-.61 12.412v2.441c-.204 4.68-.407 9.36-.407 14.04v2.849c-.204 4.883-.204 9.767-.407 14.447v.61c0 4.883-.204 9.767-.204 14.447v22.89a4.374 4.374 0 01-4.374 4.375 4.375 4.375 0 00-4.375 4.375v48.834a5.189 5.189 0 01-5.189 5.189h-4.68a.509.509 0 010-1.018h.407c.506 0 .916-.41.916-.915v-.407a.916.916 0 00-.916-.916.916.916 0 01-.916-.915v-.814c0-.506.41-.916.916-.916s.916-.41.916-.916v-.407a.916.916 0 00-.916-.915.916.916 0 01-.916-.916v-1.017c0-.506.41-.916.916-.916s.916-.41.916-.916v-.406a.916.916 0 00-.916-.916.916.916 0 01-.916-.916v-1.017c0-.506.41-.916.916-.916s.916-.41.916-.915v-.407a.916.916 0 00-.916-.916.916.916 0 01-.916-.916v-1.017c0-.506.41-.916.916-.916s.916-.41.916-.915v-.407a.916.916 0 00-.916-.916.916.916 0 01-.916-.916v-1.017c0-.506.41-.915.916-.915s.916-.41.916-.916v-.407a.916.916 0 00-.916-.916.916.916 0 01-.916-.915v-1.018c0-.505.41-.915.916-.915s.916-.41.916-.916v-.407a.916.916 0 00-.916-.916.916.916 0 01-.916-.915v-1.018c0-.505.41-.915.916-.915s.916-.41.916-.916v-.407a.916.916 0 00-.916-.916.915.915 0 01-.916-.915v-1.017c0-.506.41-.916.916-.916s.916-.41.916-.916v-.407a.916.916 0 00-.916-.915.916.916 0 01-.916-.916v-1.017c0-.506.41-.916.916-.916s.916-.41.916-.916v-.407a.916.916 0 00-.916-.915.916.916 0 01-.916-.916v-1.017c0-.506.41-.916.916-.916s.916-.41.916-.916v-1.22a.916.916 0 00-.916-.916.916.916 0 01-.916-.916v-1.017c0-.506.41-.916.916-.916s.916-.41.916-.915v-.407a.916.916 0 00-.916-.916.916.916 0 01-.916-.916v-1.22c0-.506.41-.916.916-.916s.916-.41.916-.916v-.407a.916.916 0 00-.916-.915.916.916 0 01-.916-.916v-1.017c0-.506.41-.916.916-.916s.916-.41.916-.916v-.406a.916.916 0 00-.916-.916.916.916 0 01-.916-.916v-1.017c0-.506.41-.916.916-.916s.916-.41.916-.916v-.406a.916.916 0 00-.916-.916.916.916 0 01-.916-.916v-1.017c0-.506.41-.916.916-.916s.916-.41.916-.915v-.407a.916.916 0 00-.916-.916.916.916 0 01-.916-.916v-1.017c0-.506.41-.916.916-.916s.916-.41.916-.915v-.407a.916.916 0 00-.916-.916.916.916 0 01-.916-.915v-1.018c0-.506.41-.915.916-.915s.916-.41.916-.916v-.407a.916.916 0 00-.916-.916.916.916 0 01-.916-.915v-1.018c0-.505.41-.915.916-.915s.916-.41.916-.916v-.407a.916.916 0 00-.916-.916.916.916 0 01-.916-.915v-1.018c0-.505.41-.915.916-.915s.916-.41.916-.916v-1.221a.916.916 0 00-.916-.915.916.916 0 01-.916-.916v-1.017c0-.506.41-.916.916-.916s.916-.41.916-.916v-.407a.916.916 0 00-.916-.915.916.916 0 01-.916-.916v-1.017c0-.506.41-.916.916-.916s.916-.41.916-.916v-.406a.916.916 0 00-.916-.916.916.916 0 01-.916-.916v-1.017c0-.506.41-.916.916-.916s.916-.41.916-.915v-.407a.916.916 0 00-.916-.916.916.916 0 01-.916-.916v-3.255c0-.506.41-.916.916-.916s.916-.41.916-.916v-.61c0-.843-.684-1.526-1.526-1.526h-2.95a1.424 1.424 0 01-1.425-1.424v-.335c0-.602.488-1.09 1.09-1.09a1.09 1.09 0 00.874-1.739l-7.299-9.831a4.602 4.602 0 00-3.696-1.859h-.126a4.476 4.476 0 01-4.476-4.477c0-.449-.407-.974-.407-1.424v-11.7a.712.712 0 00-1.424 0v11.732c0 .432-.408.96-.408 1.392a4.476 4.476 0 01-4.476 4.477h-.127a4.602 4.602 0 00-3.695 1.859l-7.703 10.375a.749.749 0 00.602 1.195.75.75 0 01.749.749v.676c0 .786-.638 1.424-1.425 1.424h-2.95c-.843 0-1.526.683-1.526 1.526v.407c0 .618.5 1.119 1.119 1.119.618 0 1.12.501 1.12 1.119v2.849a1.12 1.12 0 01-1.12 1.119 1.119 1.119 0 100 2.238c.618 0 1.12.501 1.12 1.119v.611a1.12 1.12 0 01-1.12 1.119 1.119 1.119 0 100 2.238c.618 0 1.12.501 1.12 1.119v.611a1.12 1.12 0 01-1.12 1.119 1.119 1.119 0 100 2.238c.618 0 1.12.501 1.12 1.119v.61a1.12 1.12 0 01-1.12 1.12 1.119 1.119 0 100 2.238c.618 0 1.12.501 1.12 1.119v.61a1.12 1.12 0 01-1.12 1.12 1.119 1.119 0 100 2.238c.618 0 1.12.501 1.12 1.119v.61a1.12 1.12 0 01-1.12 1.119 1.119 1.119 0 100 2.239c.618 0 1.12.501 1.12 1.119v.61a1.12 1.12 0 01-1.12 1.119 1.12 1.12 0 000 2.239c.618 0 1.12.501 1.12 1.119v.61a1.12 1.12 0 01-1.12 1.119 1.119 1.119 0 100 2.238c.618 0 1.12.501 1.12 1.12v.61a1.12 1.12 0 01-1.12 1.119 1.119 1.119 0 100 2.238c.618 0 1.12.501 1.12 1.119v.611a1.12 1.12 0 01-1.12 1.119 1.119 1.119 0 100 2.238c.618 0 1.12.501 1.12 1.119v.611a1.12 1.12 0 01-1.12 1.119 1.119 1.119 0 100 2.238c.618 0 1.12.501 1.12 1.119v.611a1.12 1.12 0 01-1.12 1.119 1.119 1.119 0 100 2.238c.618 0 1.12.501 1.12 1.119v.61a1.12 1.12 0 01-1.12 1.12 1.119 1.119 0 100 2.238c.618 0 1.12.501 1.12 1.119v.61a1.12 1.12 0 01-1.12 1.119 1.119 1.119 0 100 2.239h.814a.305.305 0 010 .61h-10.683a2.645 2.645 0 01-2.645-2.645V284.765l-.087-3.64a7.08 7.08 0 00-4.751-6.518l-5.362-1.865c-1.978-.688-4.044.781-4.044 2.875v.929a2.115 2.115 0 11-4.23-.043l.203-10.016a10.001 10.001 0 00-7.572-9.904l-5.19-1.297c-6.01-1.502-11.925 2.763-12.397 8.939l-1.539 20.133-.204 2.849-.203 2.238-.203 2.849-.204 2.238-.203 2.849-.204 2.238-.203 2.849-.204 2.238-.203 2.848-.204 2.239-.203 2.848-.204 2.238-.203 2.849-.204 2.238-.203 2.849-.204 2.238-.203 2.849-.204 2.238-.203 2.849-.204 2.238-.203 2.849-.204 2.238a6.362 6.362 0 01-2.467 4.59l-.924.711a5.952 5.952 0 00-2.306 4.262l-.203 2.238-.204 2.849-.203 2.238-.204 2.849-.203 2.238-.204 2.849-.203 2.238-.204 2.645c0 .562-.455 1.018-1.017 1.018h-12.79c-5.523 0-10 4.477-10 10v19.198a3.154 3.154 0 01-3.154 3.154 3.154 3.154 0 00-3.154 3.154v62.569a4.273 4.273 0 11-8.546 0V219.043c0-.899-.729-1.628-1.628-1.628a1.628 1.628 0 01-1.628-1.628v-18.283c0-5.523-4.477-10-10-10h-26.596c-5.523 0-10 4.477-10 10v18.486c0 .899-.729 1.628-1.628 1.628-.899 0-1.628.729-1.628 1.628v108.351a2.95 2.95 0 01-2.951 2.95h-2.34a.61.61 0 00-.61.611v.203a.407.407 0 01-.407.407.407.407 0 00-.407.407v2.238c0 .225.182.407.407.407.225 0 .407.182.407.407v.204a.407.407 0 01-.407.406.407.407 0 00-.407.407v2.239c0 .224.182.407.407.407.225 0 .407.182.407.407v.203a.407.407 0 01-.407.407.407.407 0 00-.407.407v2.238c0 .225.182.407.407.407.225 0 .407.182.407.407v.204a.407.407 0 01-.407.406.407.407 0 00-.407.407v2.239c0 .224.182.407.407.407.225 0 .407.182.407.407v.203a.407.407 0 01-.407.407.407.407 0 00-.407.407v2.238c0 .225.182.407.407.407.225 0 .407.182.407.407v.204a.407.407 0 01-.407.406.407.407 0 00-.407.407v2.239c0 .224.182.407.407.407.225 0 .407.182.407.407v.203a.407.407 0 01-.407.407.407.407 0 00-.407.407v2.238c0 .225.182.407.407.407.225 0 .407.182.407.407v.204a.407.407 0 01-.407.407.407.407 0 00-.407.406v2.239c0 .224.182.407.407.407.225 0 .407.182.407.407v.203a.407.407 0 01-.407.407.407.407 0 00-.407.407v2.238c0 .225.182.407.407.407.225 0 .407.182.407.407v.204a.407.407 0 01-.407.407.407.407 0 00-.407.406v2.239c0 .224.182.407.407.407.225 0 .407.182.407.407v.203a.407.407 0 01-.407.407.407.407 0 00-.407.407v2.238c0 .225.182.407.407.407.225 0 .407.182.407.407v.204a.407.407 0 01-.407.407.407.407 0 00-.407.406v2.239c0 .224.182.407.407.407.225 0 .407.182.407.407v.203a.407.407 0 01-.407.407.407.407 0 00-.407.407v2.238c0 .225.182.407.407.407.225 0 .407.182.407.407v.204a.407.407 0 01-.407.407.407.407 0 00-.407.406v2.239c0 .224.182.407.407.407.225 0 .407.182.407.407v.203a.407.407 0 01-.407.407.407.407 0 00-.407.407v2.238c0 .225.182.407.407.407.225 0 .407.182.407.407v4.273a.407.407 0 01-.407.407.407.407 0 00-.407.407v2.238c0 .225.182.407.407.407.225 0 .407.182.407.407v.204a.407.407 0 01-.407.407.407.407 0 00-.407.407v.508c0 .506-.41.916-.916.916h-5.901a6.817 6.817 0 01-6.816-6.817v-50.127c0-5.522-4.477-10-10-10h-15.813c-5.522 0-10 4.478-10 10v27.948a5.189 5.189 0 01-5.188 5.189h-3.968a1.22 1.22 0 01-1.221-1.221 1.22 1.22 0 00-1.221-1.22h-.916a2.136 2.136 0 01-2.136-2.137V211.514c0-.899-.729-1.628-1.628-1.628a1.628 1.628 0 01-1.628-1.628V168c0-5.523-4.477-10-10-10h-36.364c-5.523 0-10 4.477-10 10v40.258c0 .899-.728 1.628-1.627 1.628-.9 0-1.628.729-1.628 1.628v215.277a3.866 3.866 0 01-7.733 0v-76.405a6.815 6.815 0 00-6.816-6.816 6.817 6.817 0 01-6.817-6.817v-29.606a2.238 2.238 0 00-2.238-2.238 2.238 2.238 0 01-2.238-2.238v-6.511a8.75 8.75 0 00-8.75-8.75h-45.986a8.75 8.75 0 00-8.75 8.75v6.511a2.238 2.238 0 01-2.238 2.238 2.238 2.238 0 00-2.238 2.238v131.038a7.326 7.326 0 11-14.651 0v-73.628c0-5.523-4.477-10-10-10h-33.922c-5.523 0-10 4.477-10 10v41.479a5.901 5.901 0 01-5.901 5.901 5.901 5.901 0 00-5.901 5.901v46.392a3.458 3.458 0 11-6.918 0V304.299c0-.787-.638-1.425-1.425-1.425h-.814a.61.61 0 110-1.22h.814c.787 0 1.425-.638 1.425-1.425v-1.221c0-.786-.638-1.424-1.425-1.424h-.814a.61.61 0 010-1.221h.814c.787 0 1.425-.637 1.425-1.424v-1.221c0-.787-.638-1.424-1.425-1.424h-.814a.61.61 0 110-1.221h.814c.787 0 1.425-.638 1.425-1.424v-1.221c0-.787-.638-1.425-1.425-1.425h-1.017a.407.407 0 010-.814h1.119c.843 0 1.526-.683 1.526-1.526v-1.017c0-.843-.683-1.526-1.526-1.526h-.916a.61.61 0 010-1.221h.916c.843 0 1.526-.683 1.526-1.526v-1.017c0-.843-.683-1.526-1.526-1.526h-.916a.61.61 0 110-1.221h.916c.843 0 1.526-.684 1.526-1.526v-1.018c0-.842-.683-1.526-1.526-1.526h-.916a.61.61 0 010-1.221h.916c.843 0 1.526-.683 1.526-1.526v-8.687c0-3.288-1.665-6.32-4.004-8.631-5.9-5.831-13.128-16.689-13.292-31.211v-.915a1.73 1.73 0 00-1.729-1.73h-.611c-.618 0-1.119.501-1.119 1.119a1.12 1.12 0 01-1.119 1.12h-1.322a2.442 2.442 0 01-2.442-2.442v-32.048a.916.916 0 00-1.832 0v34.184a.51.51 0 01-1.017 0v-.61c0-.618-.501-1.119-1.119-1.119h-1.424a1.12 1.12 0 00-1.12 1.119c0 .618-.501 1.119-1.119 1.119h-4.273a1.119 1.119 0 01-1.119-1.119c0-.618-.501-1.119-1.119-1.119h-.712c-1.012 0-1.832.82-1.832 1.831v.407c0 15.504-4.137 26.872-9.067 32.548-1.627 1.874-2.938 4.144-2.938 6.626v7.32c0 .056.046.102.102.102.056 0 .102.045.102.102v2.136c0 1.011.82 1.831 1.831 1.831h1.221a.61.61 0 110 1.221h-1.221c-1.011 0-1.831.82-1.831 1.832v.406c0 1.012.82 1.832 1.831 1.832h1.221a.61.61 0 010 1.221h-1.323a1.933 1.933 0 00-1.933 1.933v.203c0 1.068.866 1.933 1.933 1.933h1.526a.407.407 0 110 .814h-1.526a1.933 1.933 0 00-1.933 1.933v.203c0 1.068.866 1.933 1.933 1.933h1.323a.61.61 0 110 1.221h-1.323a1.934 1.934 0 00-1.933 1.933v.204c0 1.067.866 1.933 1.933 1.933h1.323a.61.61 0 010 1.221h-1.323a1.933 1.933 0 00-1.933 1.933v.203c0 1.068.866 1.933 1.933 1.933h1.323a.61.61 0 110 1.221h-1.323a1.934 1.934 0 00-1.933 1.933v.203c0 1.068.866 1.934 1.933 1.934h1.323a.61.61 0 110 1.22h-1.424a2.035 2.035 0 00-2.035 2.035v80.169a5.698 5.698 0 01-5.698 5.698 5.697 5.697 0 00-5.697 5.697v34.489a3.154 3.154 0 01-3.154 3.154 3.154 3.154 0 00-3.154 3.154v31.752c0 1.294-1.46 1.973-2.753 1.925a1.893 1.893 0 01-.213-.019l-.221-.031a4.784 4.784 0 01-4.138-4.738v-73.215a6.443 6.443 0 00-3.848-5.896l-1.053-.463a.971.971 0 00-.39-.082h-.305a1.526 1.526 0 01-1.526-1.526v-.814a.711.711 0 10-1.424 0 .713.713 0 01-.713.712h-.086a.626.626 0 00-.626.626.626.626 0 01-.594.625l-2.324.116a1.097 1.097 0 01-1.151-1.096c0-.415-.235-.795-.607-.981l-.55-.275a2.09 2.09 0 00-.998-.22l-11.904.355a1.24 1.24 0 00-1.202 1.239 1.24 1.24 0 01-1.239 1.239h-.186c-.786 0-1.424.637-1.424 1.424v9.534c0 5.523-4.477 10-10 10h-2.586c-5.523 0-10-4.477-10-10v-91.127a2.646 2.646 0 00-2.646-2.646 2.645 2.645 0 01-2.645-2.645v-14.345a9.258 9.258 0 00-9.258-9.258h-5.799a3.459 3.459 0 01-3.459-3.459 3.46 3.46 0 00-3.46-3.459h-2.34a5.595 5.595 0 01-5.595-5.596 5.596 5.596 0 00-5.596-5.595h-31.54c-5 0-9.054 4.054-9.054 9.054a9.055 9.055 0 01-9.055 9.055h-4.142c-5.523 0-10 4.477-10 10V458.94a6.308 6.308 0 01-6.308 6.308 6.308 6.308 0 00-6.308 6.308v5.493a5.9 5.9 0 11-11.801 0v-41.305c0-5.057-4.1-9.157-9.157-9.157a9.156 9.156 0 01-9.157-9.156v-9.132a.368.368 0 00-.203-.33.367.367 0 01-.204-.329v-2.13c0-.846-.28-1.668-.798-2.336l-2.283-2.949a8.612 8.612 0 01-1.802-5.272v-2.704c0-.552-.22-1.082-.611-1.473a2.088 2.088 0 01-.61-1.474V380.5a.305.305 0 10-.61 0v8.946c0 .461-.183.902-.509 1.228a1.737 1.737 0 00-.509 1.228v3.325a9.762 9.762 0 01-1.765 5.599l-1.859 2.656a3.591 3.591 0 00-.649 2.058v1.187c0 .458-.229.886-.61 1.141a1.369 1.369 0 00-.611 1.14v.522c0 .736-.386 1.418-1.017 1.797l-.251.15a1.58 1.58 0 00-.767 1.354c0 .578-.315 1.11-.822 1.386l-.297.162a2.146 2.146 0 00-1.119 1.885v18.647a3.903 3.903 0 01-4.273 3.885 3.663 3.663 0 01-3.663-3.663v-33.136c0-5.523-4.477-10-10-10h-5.028c-5.522 0-10 4.477-10 10v10.754a7.935 7.935 0 01-7.935 7.936 7.936 7.936 0 00-7.936 7.935v10.276a1.933 1.933 0 01-1.933 1.933 1.932 1.932 0 00-1.933 1.933v22.789a1.526 1.526 0 11-3.052 0v-9.665a2.035 2.035 0 00-2.035-2.035 2.035 2.035 0 01-2.035-2.035v-99.266c0-5.523-4.477-10-10-10h-24.795c-25.435 0-45.986 17.906-45.986 43.34v12.005a8.343 8.343 0 01-8.343 8.343c-7.325 0-13.226 12.615-13.226 19.534v19.91c0 5.523-4.477 10-10 10h-1.569c-5.52 0-10-4.477-10-10v-17.367a7.22 7.22 0 00-7.22-7.223c-3.99 0-7.23 3.234-7.23 7.223v51.072a3.152 3.152 0 01-3.15 3.154 3.152 3.152 0 01-3.15-3.154v-29.3c0-.955-.78-1.73-1.73-1.73-.96 0-1.73-.774-1.73-1.729v-19.127a6.41 6.41 0 00-6.41-6.409 6.41 6.41 0 01-6.41-6.41v-16.96c0-5.523-4.48-10-10-10h-7.88c-5.52 0-10 4.477-10 10V511c0 5.523 4.48 10 10 10H414c5.523 0 10-4.477 10-10V292.12c0-5.523-4.477-10-10-10h-7.092zM178.197 397.389a.713.713 0 01-.713.712h-1.322a.204.204 0 01-.204-.204v-.508c0-.394.319-.712.712-.712h.814c.394 0 .713.318.713.712zm0-3.459a.713.713 0 01-.713.712h-.814a.712.712 0 110-1.424h.814c.394 0 .713.318.713.712zm0-3.663a.713.713 0 01-.713.712h-.814a.712.712 0 010-1.424h.814c.394 0 .713.319.713.712zm0-3.662a.713.713 0 01-.713.712h-.814a.713.713 0 010-1.425h.814c.394 0 .713.319.713.713zm0-3.663a.713.713 0 01-.713.712h-.814a.712.712 0 010-1.424h.814c.394 0 .713.319.713.712zm0-3.663a.713.713 0 01-.713.713h-.814a.712.712 0 010-1.425h.814c.394 0 .713.319.713.712zm0-3.459a.713.713 0 01-.713.713h-.814a.712.712 0 010-1.425h.814c.394 0 .713.319.713.712z" fill="url(#paint3_linear_2637:288)"/><path d="M263.33 366.66c-38.8 0-70.189 66.607-70.189 148.699h140.462c0-82.175-31.473-148.699-70.273-148.699z" fill="url(#paint4_linear_2637:288)"/><path d="M263.33 366.66c-38.8 0-70.189 66.607-70.189 148.699h140.462c0-82.175-31.473-148.699-70.273-148.699z" fill="url(#paint5_linear_2637:288)"/><mask id="b" style="mask-type:alpha" maskUnits="userSpaceOnUse" x="193" y="366" width="141" height="150"><path d="M263.33 366.66c-38.8 0-70.189 66.607-70.189 148.699h140.462c0-82.175-31.473-148.699-70.273-148.699z" fill="url(#paint6_linear_2637:288)"/></mask><g mask="url(#b)"><path opacity=".2" d="M204.157 380.126c22.241-10.131 67.155-26.702 68.891-11.94 2.17 18.453-126.39 97.692-82.452 80.867 43.938-16.825 81.909-62.957 91.673-46.675 9.765 16.282-85.706 83.581-53.702 80.324 32.005-3.256 71.603-78.153 84.079-66.213 12.477 11.94-81.909 94.978-60.753 102.034 21.155 7.055 79.197-110.717 102.522-113.431" stroke="url(#paint7_linear_2637:288)" stroke-width="2"/></g><path opacity=".3" d="M324.501 515.359h9.104c0-82.175-31.473-148.699-70.272-148.699-1.529 0-3.046.104-4.551.308 36.679 4.962 65.719 69.456 65.719 148.391z" fill="#C9D983"/><path d="M341.191 406.978c-28.392 0-51.373 48.742-51.373 108.815h102.746c-.084-60.073-23.064-108.815-51.373-108.815z" fill="url(#paint8_linear_2637:288)"/><mask id="c" style="mask-type:alpha" maskUnits="userSpaceOnUse" x="289" y="406" width="104" height="110"><path d="M341.191 406.978c-28.392 0-51.373 48.742-51.373 108.815h102.746c-.084-60.073-23.064-108.815-51.373-108.815z" fill="url(#paint9_linear_2637:288)"/></mask><g mask="url(#c)"><path opacity=".2" d="M325.045 382.267c-20.154 32.831-52.444 91.757-20.367 64.814 40.097-33.678 78.285-22.875 62.373 0-15.911 22.876-62.373 10.803-57.917 34.949 3.564 19.317 55.371-9.32 80.83-26.053" stroke="url(#paint10_linear_2637:288)" stroke-width="2"/></g><path d="M138.95 354.088c-45.001 0-81.503 71.819-81.503 160.404h163.006c-.084-88.585-36.502-160.404-81.503-160.404z" fill="url(#paint11_linear_2637:288)"/><mask id="d" style="mask-type:alpha" maskUnits="userSpaceOnUse" x="57" y="354" width="164" height="161"><path d="M138.95 354.088c-45.001 0-81.503 71.819-81.503 160.404h163.006c-.084-88.585-36.502-160.404-81.503-160.404z" fill="url(#paint12_linear_2637:288)"/></mask><g mask="url(#d)"><path opacity=".2" d="M64.383 386.454c8.59-10.137 27.886-28.199 36.354-19.352 10.584 11.058-11.965 49.303 2.761 53.911 14.725 4.608 35.433-67.735 53.38-60.823 17.947 6.912-77.31 118.882-44.177 123.029 33.133 4.147 48.319-95.843 62.584-88.931 14.266 6.911-32.212 60.823-16.106 76.49 16.106 15.666 24.389-58.059 37.274-49.765 12.885 8.294 3.682 49.765-8.743 77.872" stroke="url(#paint13_linear_2637:288)" stroke-width="2"/></g><path opacity=".2" d="M202.243 514.492h18.208c-.084-88.585-36.501-160.404-81.503-160.404a42.5 42.5 0 00-9.104.99c40.709 8.912 72.321 76.887 72.399 159.414z" fill="#C9D983"/><path d="M255.088 416.189h-1.505v97.509h1.505v-97.509z" fill="#0C5E59"/><path d="M265.327 410.015c-3.237 0-6.247 2.334-8.354 4.443 1.43-2.033 3.386-4.518 4.892-4.97 2.634-.828 4.741-.452 4.741-.452s-2.408-3.388-6.021-1.807c-1.58.678-2.935 2.937-3.914 5.12.527-2.033.979-4.442.603-6.626-.904-5.572-7.075-6.024-7.075-6.024s3.462 4.819 4.064 10.467c.075.753.151 1.506.226 2.183-.527-3.238-1.807-7.153-4.968-9.261-7.827-5.196-12.719 3.915-12.719 3.915s4.44-2.786 10.311.151c4.666 2.334 6.623 7.304 7.225 9.337-.752-1.506-3.989-7.229-9.107-8.057-7.752-1.28-9.709 8.508-9.709 8.508s4.441-3.539 9.935-3.313c4.29.226 7.301 1.958 8.806 3.313-.828-.226-2.559-.602-4.666-.677-6.849-.076-8.279 9.11-8.279 9.11l13.02-7.981c-.602 1.054-1.731 3.313-2.333 4.819-.903 2.108-.301 6.852-.301 6.852s2.107-3.614 2.71-5.948c.602-2.259.451-4.593.376-5.723l8.806 9.563s2.182-5.798-4.516-8.584a68.917 68.917 0 00-2.258-.904c1.581.226 3.537.904 5.569 2.184 3.839 2.485 6.323 5.948 6.323 5.948s2.408-7.002-3.463-9.863c-1.956-.904-4.139-.829-6.021-.377 1.43-.828 3.312-1.431 5.495-1.129 5.343.677 6.849 4.442 6.849 4.442s1.505-8.659-6.247-8.659z" fill="url(#paint14_linear_2637:288)"/><path d="M197.666 356.258h-2.408V515.51h2.408V356.258z" fill="#0C5E59"/><path d="M213.229 342.531c-5.879 0-11.422 4.213-15.285 8.089 2.604-3.707 6.215-8.173 8.986-9.1 4.703-1.517 8.651-.758 8.651-.758s-4.452-6.235-11.002-3.286c-2.94 1.263-5.375 5.392-7.139 9.352 1.008-3.707 1.68-8.089 1.092-12.133-1.596-10.111-12.934-10.954-12.934-10.954s6.299 8.763 7.475 19.127c.168 1.348.252 2.696.336 3.96-1.008-5.982-3.359-13.144-9.07-16.936-14.194-9.437-23.096 7.247-23.096 7.247s8.147-5.056 18.813.337c8.398 4.213 12.009 13.397 13.185 17.02-1.428-2.781-7.223-13.145-16.629-14.745-14.109-2.36-17.72 15.587-17.72 15.587s8.062-6.487 18.056-6.066c7.727.337 13.354 3.539 16.125 6.066-1.428-.421-4.703-1.179-8.482-1.179-12.514-.169-15.117 16.599-15.117 16.599l23.767-14.577c-1.008 1.938-3.107 5.982-4.283 8.847-1.596 3.876-.588 12.47-.588 12.47s3.863-6.572 4.955-10.869c1.092-4.129.84-8.426.672-10.448l16.125 17.442s3.947-10.617-8.147-15.757a150.076 150.076 0 00-4.115-1.685c2.939.421 6.467 1.601 10.078 3.96 7.055 4.55 11.506 10.785 11.506 10.785s4.367-12.891-6.383-17.947c-3.527-1.685-7.558-1.432-11.002-.674 2.604-1.517 5.963-2.612 10.078-2.106 9.742 1.179 12.43 8.173 12.43 8.173s2.771-15.925-11.338-15.841z" fill="url(#paint15_linear_2637:288)"/><path d="M145.936 496.774a72.305 72.305 0 00-7.301-19.501 44.53 44.53 0 00-1.505-2.56c-3.838-6.401-8.58-12.123-14.074-17.093-.678-.677-1.43-1.28-2.183-1.882a72.834 72.834 0 00-19.794-11.746c-.903-.377-1.806-.678-2.71-.979-7.225-2.56-15.052-3.991-23.106-4.141h-2.86c-8.128.15-15.88 1.581-23.105 4.141-.904.301-1.807.678-2.71.979a72.839 72.839 0 00-19.794 11.746c-.753.602-1.506 1.28-2.183 1.882-5.494 4.97-10.31 10.692-14.074 17.093-.527.828-.979 1.731-1.505 2.56a72.327 72.327 0 00-7.3 19.501c-.227.979-.377 1.958-.603 2.937A73.133 73.133 0 000 512.587h147.592c0-4.368-.377-8.735-1.129-12.876-.151-.979-.301-1.958-.527-2.937z" fill="url(#paint16_linear_2637:288)"/><path opacity=".3" d="M72.406 438.797v73.79h2.86v-73.79h-2.86z" fill="url(#paint17_linear_2637:288)"/><path opacity=".3" d="M46.588 443.992l18.364 68.67h2.935l-18.665-69.649c-.828.301-1.73.602-2.634.979z" fill="url(#paint18_linear_2637:288)"/><path opacity=".3" d="M24.611 457.621l31.762 54.966h3.236l-32.815-56.849c-.753.603-1.505 1.28-2.183 1.883z" fill="url(#paint19_linear_2637:288)"/><path opacity=".3" d="M9.033 477.273l35.374 35.389h3.99l-37.934-37.949c-.451.828-.978 1.732-1.43 2.56z" fill="url(#paint20_linear_2637:288)"/><path opacity=".3" d="M1.13 499.711l22.354 12.876h5.72L1.733 496.699c-.226 1.055-.376 2.033-.602 3.012z" fill="url(#paint21_linear_2637:288)"/><path opacity=".3" d="M79.707 512.662h2.935l18.365-68.67c-.904-.377-1.807-.678-2.71-.979l-18.59 69.649z" fill="url(#paint22_linear_2637:288)"/><path opacity=".3" d="M87.984 512.662h3.312l31.761-54.966c-.677-.678-1.43-1.28-2.183-1.883l-32.89 56.849z" fill="url(#paint23_linear_2637:288)"/><path d="M99.2 512.662h3.989l35.374-35.389a45.473 45.473 0 00-1.505-2.56L99.2 512.662z" fill="url(#paint24_linear_2637:288)" opacity=".3"/><path d="M118.463 512.662h5.72l22.353-12.875c-.15-.979-.376-1.958-.602-2.937l-27.471 15.812z" fill="#084F15"/><path d="M201.18 502.573c-.979-4.368-2.559-8.584-4.667-12.424a33.059 33.059 0 01-.903-1.657c-2.408-4.066-5.419-7.68-8.956-10.843-.452-.376-.903-.828-1.43-1.204-3.763-3.087-7.978-5.648-12.569-7.455a11.74 11.74 0 00-1.731-.602c-4.591-1.657-9.559-2.56-14.677-2.635h-1.806c-5.118.075-10.085 1.054-14.676 2.635-.602.226-1.129.376-1.731.602-4.591 1.807-8.806 4.368-12.569 7.455-.452.376-.903.828-1.43 1.204-3.538 3.163-6.548 6.777-8.957 10.843a32.624 32.624 0 00-.903 1.657 46.5 46.5 0 00-4.666 12.424c-.151.602-.226 1.28-.376 1.882-.452 2.635-.753 5.421-.753 8.207h93.778c0-2.786-.226-5.572-.753-8.207.076-.678-.075-1.28-.225-1.882z" fill="url(#paint25_linear_2637:288)"/><path opacity=".3" d="M154.442 465.753v46.909h1.807v-46.909h-1.807z" fill="url(#paint26_linear_2637:288)"/><path opacity=".3" d="M138.108 468.99l11.666 43.597h1.882l-11.817-44.274c-.602.301-1.204.451-1.731.677z" fill="url(#paint27_linear_2637:288)"/><path opacity=".3" d="M124.109 477.725l20.171 34.937h2.107l-20.848-36.142c-.526.376-.978.753-1.43 1.205z" fill="url(#paint28_linear_2637:288)"/><path opacity=".3" d="M114.178 490.149l22.504 22.438h2.558l-24.084-24.095c-.301.602-.677 1.13-.978 1.657z" fill="url(#paint29_linear_2637:288)"/><path opacity=".3" d="M109.209 504.455l14.225 8.207h3.612l-17.461-10.089c-.15.602-.301 1.204-.376 1.882z" fill="url(#paint30_linear_2637:288)"/><path opacity=".3" d="M159.107 512.662h1.882l11.666-43.596a11.742 11.742 0 00-1.731-.603l-11.817 44.199z" fill="url(#paint31_linear_2637:288)"/><path opacity=".3" d="M164.378 512.662h2.107l20.171-34.937c-.452-.377-.903-.829-1.43-1.205l-20.848 36.142z" fill="url(#paint32_linear_2637:288)"/><path opacity=".3" d="M171.526 512.662h2.559l22.504-22.438a32.624 32.624 0 01-.903-1.657l-24.16 24.095z" fill="url(#paint33_linear_2637:288)"/><path opacity=".3" d="M183.722 512.662h3.612l14.225-8.207a16.768 16.768 0 00-.376-1.883l-17.461 10.09z" fill="url(#paint34_linear_2637:288)"/><path d="M333 511h-812v59.885h812V511z" fill="url(#paint35_linear_2637:288)"/><mask id="e" style="mask-type:alpha" maskUnits="userSpaceOnUse" x="-479" y="511" width="812" height="60"><path d="M333 511h-812v59.885h812V511z" fill="url(#paint36_linear_2637:288)"/></mask><g mask="url(#e)"><path opacity=".7" fill-rule="evenodd" clip-rule="evenodd" d="M-133.635 535.081c-5.399 5.686-11.002 9.673-17.058 9.398-1.495-.068-2.737-.377-3.688-.981-.981-.623-1.583-1.517-1.84-2.588-.249-1.038-.166-2.2.115-3.406.282-1.214.78-2.537 1.428-3.93 2.362-5.081 6.929-11.521 11.323-17.717l1.153-1.629c2.38-3.363 4.655-6.623 6.475-9.556 1.832-2.953 3.147-5.488 3.669-7.414.261-.963.295-1.674.176-2.169-.106-.441-.339-.752-.791-.974-.504-.247-1.326-.403-2.607-.33-1.267.073-2.898.364-4.954.925-4.012 1.094-8.509 3.626-13.404 7.275-4.884 3.64-10.105 8.347-15.561 13.724-7.691 7.58-15.799 16.44-24.053 25.459h-.001v.001c-3.467 3.788-6.959 7.604-10.457 11.366-11.798 12.685-23.655 24.74-34.684 32.796-10.959 8.005-21.452 12.323-30.36 8.814-4.375-1.723-6.691-4.251-6.966-7.524-.262-3.126 1.393-6.586 3.99-10.112 5.226-7.097 14.915-15.301 24.269-23.138l1.066-.893c4.332-3.628 8.567-7.175 12.268-10.517 4.011-3.624 7.341-6.962 9.467-9.857 1.062-1.448 1.79-2.74 2.163-3.865.372-1.119.371-1.999.087-2.702-.283-.699-.911-1.387-2.129-1.99-1.227-.608-2.989-1.096-5.405-1.405-7.654-.982-17.526 1.326-28.586 5.864-11.031 4.527-23.118 11.218-35.153 18.856-24.068 15.274-47.828 34.271-62.347 47.102l-1.324-1.499c14.577-12.882 38.421-31.947 62.599-47.292 12.088-7.672 24.285-14.429 35.466-19.017 11.151-4.576 21.419-7.047 29.599-5.998 2.531.324 4.536.852 6.039 1.596 1.512.749 2.576 1.75 3.095 3.034.517 1.279.425 2.674-.043 4.081-.465 1.401-1.323 2.884-2.449 4.418-2.252 3.068-5.709 6.518-9.739 10.158-3.729 3.369-7.993 6.939-12.317 10.56l-1.072.899c-9.423 7.895-18.892 15.931-23.944 22.791-2.541 3.451-3.804 6.398-3.607 8.759.186 2.215 1.708 4.255 5.706 5.83 7.84 3.089 17.52-.586 28.447-8.568 10.857-7.93 22.598-19.854 34.399-32.543 3.471-3.733 6.948-7.532 10.407-11.311 8.27-9.037 16.435-17.959 24.165-25.578 5.487-5.407 10.782-10.185 15.77-13.903 4.978-3.71 9.71-6.411 14.073-7.601 2.131-.581 3.909-.908 5.366-.992 1.444-.082 2.66.069 3.602.532.993.487 1.611 1.288 1.855 2.302.23.959.111 2.044-.191 3.159-.603 2.229-2.056 4.975-3.899 7.945-1.856 2.991-4.164 6.297-6.542 9.658l-1.122 1.583c-4.435 6.256-8.893 12.545-11.174 17.45-.613 1.32-1.053 2.507-1.293 3.54-.242 1.04-.268 1.863-.118 2.486.141.591.445 1.035.967 1.366.552.351 1.411.613 2.707.672 5.11.232 10.164-3.14 15.517-8.777 4.333-4.564 8.698-10.428 13.301-16.612 1.052-1.415 2.118-2.846 3.198-4.283 5.773-7.676 11.952-15.464 18.816-21.331 6.87-5.873 14.516-9.898 23.218-9.898v2c-8.046 0-15.245 3.714-21.918 9.418-6.681 5.71-12.745 13.338-18.517 21.013a965.5 965.5 0 00-3.161 4.233c-4.606 6.19-9.062 12.178-13.487 16.837zm240.838-33.454c-1.156-1.81-3.273-2.943-7.115-2.823-7.618.238-14.977 6.405-22.28 15.99-7.258 9.525-14.23 22.11-21.156 34.626l-.106.192c-6.866 12.409-13.69 24.744-20.643 33.732-3.495 4.519-7.064 8.248-10.737 10.722-3.683 2.481-7.528 3.735-11.521 3.184-3.91-.539-6.563-2.192-8.094-4.788-1.498-2.541-1.821-5.82-1.472-9.43.698-7.209 4.155-16.356 7.63-25.2l.835-2.123c3.221-8.173 6.286-15.95 7.244-21.842.523-3.213.375-5.638-.51-7.227-.824-1.477-2.427-2.46-5.496-2.46-2.987 0-5.924 1.318-8.884 3.781-2.965 2.466-5.885 6.026-8.811 10.368-4.906 7.281-9.727 16.598-14.753 26.312-.975 1.886-1.959 3.787-2.952 5.691-6.087 11.666-12.536 23.426-19.779 32.271-7.228 8.827-15.414 14.957-25.006 14.957-4.707 0-7.904-1.226-9.645-3.705-1.71-2.435-1.787-5.774-1.041-9.452.751-3.711 2.39-8.003 4.42-12.551 1.72-3.855 3.742-7.941 5.781-12.06v-.001l.001-.001.485-.98.624-1.263c4.845-9.817 9.445-19.549 10.372-27.053.46-3.73-.012-6.733-1.64-8.909-1.618-2.163-4.538-3.723-9.457-4.215-15.897-1.59-32.065 5.366-45.898 14.851-13.816 9.474-25.161 21.375-31.366 29.424l-1.584-1.221c6.314-8.19 17.806-20.244 31.819-29.852 13.994-9.596 30.645-16.851 47.228-15.192 5.231.523 8.782 2.23 10.86 5.007 2.066 2.764 2.514 6.375 2.023 10.352-.977 7.911-5.766 17.972-10.563 27.693-.37.75-.74 1.497-1.11 2.243l-.004.01c-2.04 4.121-4.042 8.166-5.745 11.982-2.015 4.515-3.58 8.644-4.286 12.133-.714 3.523-.506 6.163.718 7.906 1.194 1.7 3.58 2.854 8.008 2.854 8.677 0 16.35-5.543 23.459-14.224 7.095-8.665 13.46-20.25 19.553-31.929.984-1.886 1.96-3.775 2.933-5.654 5.024-9.712 9.91-19.156 14.886-26.541 2.974-4.412 6.017-8.148 9.19-10.789 3.177-2.643 6.553-4.243 10.163-4.243 3.528 0 5.954 1.173 7.243 3.486 1.228 2.203 1.278 5.202.738 8.522-.994 6.118-4.142 14.1-7.331 22.19l-.86 2.185c-3.504 8.918-6.835 17.787-7.501 24.662-.332 3.431.018 6.21 1.204 8.221 1.153 1.955 3.195 3.347 6.644 3.823 3.366.464 6.72-.565 10.13-2.862 3.421-2.304 6.838-5.846 10.273-10.287 6.858-8.867 13.623-21.093 20.534-33.583l.047-.086c6.904-12.478 13.95-25.205 21.315-34.87 7.32-9.605 15.186-16.506 23.808-16.776 4.278-.133 7.204 1.145 8.864 3.747 1.596 2.503 1.858 6 1.456 9.931-.406 3.966-1.512 8.582-2.866 13.477a487.961 487.961 0 01-2.179 7.558l-.034.119c-.745 2.534-1.5 5.102-2.216 7.671-1.456 5.221-2.743 10.414-3.451 15.269-.71 4.863-.829 9.322.007 13.094.829 3.748 2.592 6.795 5.656 8.925 3.086 2.145 7.603 3.439 14.079 3.439v2c-6.718 0-11.685-1.339-15.22-3.797-3.558-2.473-5.553-6-6.468-10.135-.91-4.109-.759-8.841-.033-13.815.727-4.982 2.04-10.271 3.503-15.517.72-2.584 1.479-5.164 2.223-7.695l.036-.122a495.542 495.542 0 002.169-7.527c1.35-4.879 2.417-9.359 2.804-13.147.391-3.825.066-6.743-1.152-8.653zm196.815 58.82c-1.19-3.964-3.676-8.274-6.952-12.727-3.284-4.462-7.401-9.121-11.905-13.784-7.507-7.772-16.141-15.61-23.868-22.625-1.542-1.4-3.049-2.767-4.502-4.095-4.378-3.996-8.275-7.626-11.277-10.715-3.039-3.126-5.042-5.582-5.768-7.248-.369-.847-.283-1.203-.215-1.321.064-.112.335-.396 1.376-.499 2.057-.205 5.913.418 12.143 2.198l.55-1.923c-6.203-1.772-10.404-2.513-12.891-2.265-1.23.122-2.353.518-2.913 1.494-.556.969-.323 2.107.117 3.116.892 2.046 3.155 4.743 6.167 7.842 3.048 3.136 6.985 6.802 11.362 10.798 1.458 1.332 2.966 2.701 4.508 4.1l.013.012c7.727 7.015 16.303 14.8 23.759 22.52 4.472 4.63 8.522 9.217 11.733 13.581 3.218 4.373 5.553 8.468 6.647 12.116.562 1.872.884 3.359 1.003 4.512.121 1.173.019 1.894-.16 2.306-.147.336-.346.482-.676.541-.411.074-1.056.006-1.994-.314-1.864-.636-4.418-2.1-7.58-4.204-3.142-2.09-6.803-4.757-10.865-7.74L280.302 555c-7.786-5.723-16.89-12.415-26.391-18.241-10.12-6.205-20.768-11.479-30.835-13.544-4.955-1.016-8.474-1.454-10.751-1.331-1.123.06-2.096.262-2.79.725a2.303 2.303 0 00-.852.984 2.373 2.373 0 00-.17 1.263c.098.795.532 1.62 1.095 2.423.579.826 1.373 1.737 2.327 2.716 1.911 1.961 4.552 4.287 7.63 6.89 1.827 1.544 3.811 3.188 5.899 4.919l.007.006h.001c4.979 4.127 10.551 8.745 16.002 13.672 7.737 6.994 15.149 14.54 20.154 22.047 1.251 1.877 2.063 3.359 2.505 4.496.459 1.178.445 1.798.342 2.077-.059.157-.208.378-.887.465-.704.091-1.752-.007-3.17-.335-2.817-.653-6.731-2.124-11.499-4.162-4.755-2.033-10.299-4.603-16.36-7.427l-1.514-.706c-11.765-5.484-25.316-11.801-38.596-16.878-13.832-5.289-27.479-9.276-38.571-9.534-4.42-.103-7.77.334-10.151 1.281-2.418.961-3.917 2.488-4.402 4.539-.467 1.976.068 4.218 1.175 6.531 1.116 2.332 2.879 4.87 5.076 7.508 8.769 10.53 24.951 23.23 37.144 31.697l1.141-1.643c-12.168-8.449-28.161-21.023-36.748-31.334-2.143-2.573-3.793-4.968-4.809-7.092-1.026-2.143-1.346-3.881-1.032-5.208.296-1.253 1.21-2.351 3.194-3.14 2.019-.803 5.057-1.24 9.366-1.139 10.731.249 24.109 4.128 37.903 9.402 13.211 5.051 26.705 11.341 38.484 16.832l1.496.697c6.055 2.821 11.629 5.405 16.418 7.453 4.775 2.041 8.83 3.575 11.834 4.271 1.491.345 2.817.507 3.877.371 1.085-.14 2.09-.634 2.505-1.752.37-.996.15-2.21-.352-3.5-.518-1.331-1.419-2.95-2.705-4.879-5.145-7.717-12.704-15.396-20.477-22.422-5.484-4.957-11.115-9.623-16.106-13.76-2.081-1.725-4.051-3.357-5.853-4.881-3.075-2.599-5.651-4.872-7.488-6.757-.919-.943-1.63-1.767-2.122-2.469-.508-.724-.711-1.22-.748-1.519-.016-.131.004-.188.013-.207.007-.017.032-.064.133-.132.24-.16.771-.337 1.788-.392 2-.108 5.301.28 10.242 1.293 9.726 1.995 20.139 7.126 30.192 13.29 9.426 5.781 18.467 12.426 26.264 18.157l1.516 1.114c4.057 2.979 7.755 5.673 10.941 7.793 3.166 2.107 5.909 3.704 8.042 4.432 1.06.362 2.088.552 2.992.39.983-.176 1.74-.757 2.156-1.709.384-.877.452-2.006.318-3.312-.137-1.326-.497-2.947-1.077-4.882z" fill="url(#paint37_linear_2637:288)"/><path opacity=".1" d="M-235.803 531.957c-83.475 0-97.491 27.726-244.72 27.726v43.682h813.522v-93.38c-178.621 0-155.63 38.974-309.492 38.974-153.862 0-187.022-17.002-259.31-17.002z" fill="url(#paint38_linear_2637:288)"/></g><path d="M810 0H-475v802H710c55.229 0 100-44.771 100-100V0z" fill="url(#paint39_linear_2637:288)"/></g><path opacity=".56" d="M550.017 483.206c79.532-79.567 79.532-208.571 0-288.137-79.532-79.567-208.479-79.567-288.011 0-79.532 79.567-79.532 208.57 0 288.137 79.532 79.567 208.479 79.567 288.011 0z" fill="url(#paint40_linear_2637:288)"/><path fill-rule="evenodd" clip-rule="evenodd" d="M241.624 420.143c-.127 3.18-.495 5.998-.876 8.911l-.062.477c-.402 3.084-1.072 6.168-1.743 9.252v.002c-1.341 6.17-3.084 12.205-5.497 18.241l-.938 2.28-.268.536-.134.269c0 .055-.023.088-.05.126-.038.054-.084.119-.084.276a5.861 5.861 0 01-1.341 2.012c-.536.67-1.34 1.207-2.145 1.743-.804.403-1.743.671-2.547.805-1.609.134-2.949-.134-4.022-.402-2.145-.671-3.62-1.61-5.094-2.683-1.475-.938-2.681-2.011-3.887-3.084h-.001c-4.734-4.342-8.565-8.941-12.125-13.925-2.679-.952-4.902-3.243-4.902-3.243l3.034-9.503-3.034 9.369-6.837-4.158 2.011-8.181 7.91 2.816v.001l5.362 8.449-.031 1.076.166-.137a288.223 288.223 0 003.284 3.018h.001a297.718 297.718 0 013.284 3.017c2.279 2.012 4.558 3.755 6.836 5.499h.001c.35.233.688.466 1.021.696l.001.001c.818.563 1.607 1.107 2.464 1.583.939.587 1.98.969 2.765 1.235l.184-.43.805-2.012c1.876-5.365 3.351-10.998 4.424-16.765.288-1.513.537-3.065.789-4.634v-.001c.218-1.352.437-2.717.685-4.083.402-2.816.805-5.901.939-8.583l9.652.134zm-16.943 36.533c.23.032.291-.052.185-.052a.63.63 0 00-.185.052z" fill="url(#paint41_linear_2637:288)"/><path d="M236.72 407.764c-4.022 1.073-6.971 17.838-6.971 17.838l11.261 7.645s10.725-16.899 7.642-21.459c-3.352-4.695-6.033-5.633-11.932-4.024z" fill="#FFEDBA"/><path opacity=".3" d="M236.99 411.519l-3.084 16.9 6.301 4.292-3.217-21.192z" fill="#ED6B57"/><path d="M260.106 620.145h-13.248l-.716-22.465h13.069l.895 22.465z" fill="#FFC3BD"/><path d="M246.717 618.93h13.382c.483 0 .806.333.967.831l1.451 10.973c.161 1.163-.806 2.161-1.935 2.161-4.675 0-6.932-.333-12.737-.333-3.546 0-11.124.333-16.122.333-4.837 0-5.321-5.154-3.225-5.486 9.351-1.995 13.06-4.988 16.123-7.648.645-.498 1.451-.831 2.096-.831z" fill="#14365B"/><path d="M246.142 598.287l.351 8.5h13.006l-.527-8.5h-12.83z" fill="#F29994"/><path d="M244.927 603.31s-7.83-69.341-8.5-100.725c-.217-10.167 1.152-24.285 2.429-33.924h21.25l-1.399 33.924c-1.207 30.848 1.399 100.725 1.399 100.725h-15.179z" fill="url(#paint42_linear_2637:288)"/><path d="M239.478 407.475s-1.708 5.415-2.125 10.161c-.459 5.232-5.478 14.597-2.567 20.061 6.803 8.803 3.413 22.261 4.692 30.193h40.219c-.671-16.363-.671-26.422 7.105-60.086 0 0-8.446-1.878-17.026-2.28-6.703-.269-12.334-.537-18.232 0-7.91.67-12.066 1.951-12.066 1.951z" fill="#FFEDBA"/><path d="M267.902 384.869c-1.207 5.901-2.279 16.631 1.742 20.52 0 0-1.608 5.902-12.467 5.902-12.066 0-5.765-5.902-5.765-5.902 6.569-1.609 6.435-6.437 5.228-10.998l11.262-9.522z" fill="url(#paint43_linear_2637:288)"/><path d="M263.342 388.758l-6.569 5.633c.269 1.073.537 2.146.537 3.219 2.547-.402 5.898-3.084 6.167-5.767.134-1.207.134-2.414-.135-3.085z" fill="#F29994"/><path d="M247.46 380.034c-4.302-6.453-2.945-12.42 0-15.749h11.524c.384 5.122 1.152 15.903 1.152 18.054 0 2.151 11.012-1.537 9.987.768-2.56-.512-18.361 3.381-22.663-3.073z" fill="#0F264C"/><path d="M274.067 374.139c-2.279 9.523-3.083 13.681-8.848 17.704-8.714 6.17-19.841 1.207-20.511-8.852-.537-8.986 3.351-23.203 13.406-25.349 10.189-2.011 18.366 6.975 15.953 16.497z" fill="url(#paint44_linear_2637:288)"/><path d="M262.332 604.359h-18.979l-1.46-6.043 21.25-.636-.811 6.679z" fill="#4B2A2A"/><path d="M256.774 486.801c-4.457 8.917-2.852 22.985-2.13 34.986.886 14.713 1.685 27.236 3.604 34.622 1.743-20.252 4.827-45.064 7.106-63.17-1.341-10.328-4.022-15.558-8.58-6.438z" fill="#EE4D47" fill-opacity=".29" style="mix-blend-mode:multiply"/><path d="M297.448 601.93l-12.75-51.607v-50.697l-3.758-30.661h-22.768c-2.671 17 3.252 63.548 8.008 87.733l14.76 45.232h16.508z" fill="url(#paint45_linear_2637:288)"/><path d="M288.035 620.448l-3.642-14.572h12.75l2.125 14.572h-11.233z" fill="#FFC3BD"/><path d="M283.211 626.758l4.384-6.614h11.586c1.192.714 1.842 4.548 2.271 7.891.322 2.506-1.277 4.915-3.706 5.612l-7.959 2.283h-14.229a2.054 2.054 0 01-2.054-2.094c0-4.107 6.769-6.736 9.707-7.078z" fill="#14365B"/><path fill-rule="evenodd" clip-rule="evenodd" d="M297.453 608.001l-.31-2.125h-12.75l.531 2.125h12.529z" fill="#F29994"/><path d="M299.975 606.18h-18.979l-1.46-6.042 21.25-.636-.811 6.678z" fill="#4B2A2A"/><circle r="11.524" transform="matrix(1 0 0 -1 279.726 371.583)" fill="#0F264C"/><path d="M258.945 374.127c.142-.802-.156-1.526-.667-1.616-.51-.09-1.039.487-1.181 1.289-.142.802.157 1.526.667 1.616.51.091 1.039-.486 1.181-1.289zm-8.874-1.463c-.134.805-.67 1.341-1.206 1.207-.537-.134-.805-.805-.671-1.609.134-.805.671-1.342 1.207-1.207.536.134.804.804.67 1.609z" fill="#0F264C"/><path d="M249.67 371.189l-1.744-.939c-.134 0 .67 1.61 1.744.939z" fill="#0F264C"/><path d="M252.215 374.407s-1.877 3.085-3.754 4.561c.804 1.207 2.681 1.073 2.681 1.073l1.073-5.634z" fill="#ED847E"/><path d="M255.68 384.572c-.592 0-1.184 0-1.973-.193-.197 0-.395-.193-.198-.386 0-.192.198-.385.395-.192 5.129.963 8.088-2.121 8.088-2.121.198-.192.395-.192.395 0 .197.193.197.386 0 .386 0 0-2.367 2.506-6.707 2.506z" fill="#0F264C"/><path d="M279.304 365.618c4.468 10.65-4.709 16.097-9.857 17.489l4.929-9.658-.986-5.221c-4.49-2.785-12.288-8.458-7.557-8.875 5.914-.523 11.828 2.349 13.471 6.265z" fill="#D3D86C"/><path d="M258.65 356.972c-4.424 2.548 6.435 26.556 14.479 23.203 8.043-3.353 5.362-16.765 1.474-20.118-4.021-3.487-9.786-6.706-15.953-3.085z" fill="#0F264C"/><path d="M277.805 365.437c5.224 15.673-5.506 23.688-11.524 25.737l5.762-14.213-1.152-7.682c-5.25-4.098-14.366-12.446-8.835-13.061 6.914-.768 13.829 3.457 15.749 9.219z" fill="#0F264C"/><path d="M256.1 355.765s-5.362.804-8.848 7.376c-3.619 6.706 16.892-6.437 13.943-7.376-2.816-.939-5.095 0-5.095 0z" fill="#0F264C"/><path d="M274.469 381.382c-.804 1.878-2.279 3.219-3.887 3.889-2.279.939-3.754-1.073-3.352-3.487.402-2.146 2.011-5.096 4.558-5.096 2.413 0 3.62 2.414 2.681 4.694z" fill="url(#paint46_linear_2637:288)"/><path fill-rule="evenodd" clip-rule="evenodd" d="M291.088 418.265c2.279 5.365 4.022 10.73 5.631 16.229 1.609 5.499 2.949 11.132 3.62 17.033.134 1.475.268 2.951.402 4.56v1.207c0 .019.002.058.006.112.024.329.089 1.249-.14 2.168-.134.537-.403 1.207-.805 1.744a5.717 5.717 0 01-1.474 1.609 7.591 7.591 0 01-3.084 1.207c-.555.093-1.047.058-1.475.027a7.538 7.538 0 00-.536-.027 6.445 6.445 0 00-.74-.127c-.269-.036-.521-.07-.734-.141a25.053 25.053 0 01-2.414-.805c-1.474-.67-2.815-1.341-4.155-2.011-5.095-2.951-9.653-6.304-13.943-10.059l.068-.101c-1.822-.927-3.262-2.66-4.063-3.787l-6.193-6.842 4.021-7.511 6.838 4.694 3.272 9.954.683.343c4.25 2.133 8.578 4.305 12.802 6.066.843.375 1.685.684 2.482.928-.077-.498-.15-.992-.203-1.464-.402-2.548-1.072-5.096-1.742-7.643v-.001l-.001-.001a228.546 228.546 0 00-1.072-3.89 235.517 235.517 0 01-1.073-3.889c-1.608-5.097-3.485-10.328-5.362-15.29l9.384-4.292z" fill="#FFC3BD"/><path d="M261.464 369.043c-.134 0-.269 0-.403-.134-1.474-1.476-3.083-1.207-3.217-1.207-.268 0-.536-.135-.536-.403s.134-.536.402-.536c.134 0 2.279-.403 4.022 1.475.134.134.134.536 0 .671-.134.134-.134.134-.268.134zm-14.612-1.207c-.134 0-.268 0-.268-.135-.134-.134-.134-.536 0-.67 1.743-1.878 3.888-1.476 4.022-1.476.268 0 .402.269.402.537s-.268.402-.536.402c-.134 0-1.743-.268-3.218 1.207-.134.135-.268.135-.402.135z" fill="#0F264C"/><path d="M286.804 407.67c4.021 1.207 8.848 15.155 8.848 15.155l-15.686 11.132s-5.764-11.534-4.022-16.765c1.877-5.365 6.301-10.864 10.86-9.522z" fill="#FFEDBA"/><path d="M240.204 620.145c-1.663 0-3.326-.243-4.276-1.214-.476-.485-.713-1.213-.713-2.184 0-.485.237-.971.713-1.213 2.138-1.214 9.028 2.426 9.978 2.912.238 0 .237.242.237.485s-.237.243-.237.243c-1.663.728-3.801.971-5.702.971zm-3.089-3.641c-.237 0-.475 0-.712.243-.238 0-.238.243-.238.485 0 .486 0 .971.475 1.456.951.971 4.039 1.214 7.84.486-2.613-1.456-5.701-2.67-7.365-2.67z" fill="#9FC6FF"/><path d="M245.667 619.537c-2.382-.883-6.43-4.415-6.192-6.181 0-.442.476-.884 1.667-1.104.953 0 1.667.22 2.382.662 2.143 1.766 2.62 6.182 2.62 6.182 0 .22 0 .22-.239.441h-.238zm-4.287-6.623h-.238c-.714 0-.715.442-.715.442-.238 1.103 2.62 3.973 4.764 5.077-.238-1.324-.715-3.974-2.144-5.077-.476-.221-.952-.442-1.667-.442zm43.523 8.999c-1.303-.957-2.467-2.105-2.653-3.413-.093-.654.14-1.362.699-2.123.28-.38.746-.623 1.258-.54 2.374.28 5.678 7.101 6.143 8.029.186.136.046.327-.093.517-.14.19-.326.053-.326.053-1.723-.387-3.539-1.428-5.028-2.523zm-.324-4.631c-.186-.137-.373-.274-.699-.22-.186-.137-.326.053-.465.243-.28.38-.559.761-.466 1.415.185 1.308 2.466 3.277 5.864 4.895-1.209-2.646-2.931-5.375-4.234-6.333z" fill="#9FC6FF"/><path d="M289.532 624.584c-1.358-2.064-2.496-7.164-1.293-8.411.255-.346.882-.418 1.943.095.746.549 1.179 1.133 1.485 1.891.662 2.618-1.507 6.353-1.507 6.353-.127.173-.127.173-.441.209l-.187-.137zm.455-7.66l-.187-.137c-.56-.411-.814-.065-.814-.065-.822.728-.236 4.623.809 6.722.576-1.175 1.728-3.526 1.244-5.214-.246-.447-.492-.894-1.052-1.306z" fill="#9FC6FF"/><path d="M280.234 465.476l1.073 3.621c.134.268-.134.536-.671.536h-41.425c-.402 0-.67-.134-.67-.402l-.402-3.621c0-.269.268-.403.67-.403h40.755c.402-.134.67 0 .67.269z" fill="#F18069"/><path d="M274.87 470.036h1.073c.268 0 .402-.134.402-.269l-.537-4.694c0-.134-.268-.268-.402-.268h-1.072c-.268 0-.402.134-.402.268l.536 4.694c0 .135.134.269.402.269zm-32.575 0h1.072c.269 0 .403-.134.403-.269l-.537-4.694c0-.134-.268-.268-.402-.268h-1.072c-.269 0-.403.134-.403.268l.537 4.694c0 .135.268.269.402.269zm16.22 0h1.072c.268 0 .402-.134.402-.269l-.536-4.694c0-.134-.268-.268-.402-.268h-1.073c-.268 0-.402.134-.402.268l.536 4.694c0 .135.269.269.403.269z" fill="#6A2828"/><path d="M258.517 372.665l-1.744-.94c0 .134.671 1.745 1.744.94z" fill="#0F264C"/><path d="M164.723 371.626h-10.119l-1.371-6.116s4.006 2.32 4.954.738c.949-1.582.738-.949 1.687-.738.949.211.949-1.054 2.108-.316 1.265.843 3.162 4.85 2.741 6.432z" fill="#6B1912"/><path d="M154.289 622.918l12.437-1.055-.632-15.396-12.543 1.16.738 15.291z" fill="#D88D6C"/><path d="M177.477 620.81s-8.222-3.796-9.592-6.538c0 0-2.424-8.858-6.114-4.218 0 0-3.794 3.058-9.17.633l-.632 16.766 37.208-.105c-.949-2.531-1.792-5.378-11.7-6.538z" fill="url(#paint47_linear_2637:288)"/><path d="M151.97 627.558l-.211 2.636 37.524-.105c0-1.055.316-1.582-.211-2.637l-37.102.106z" fill="#C73E39"/><path d="M99.794 620.809l12.438 2.109 3.267-14.974-12.332-2.109-3.373 14.974z" fill="#D88D6C"/><path d="M123.718 620.809s-8.221-3.796-9.592-6.538c0 0 1.898-6.96-2.529-3.48 0 0-7.59 2.847-10.752-.633l-2.53 17.4 37.209-.106c-1.16-2.636-2.003-5.483-11.806-6.643z" fill="url(#paint48_linear_2637:288)"/><path d="M98.21 627.558l-.21 2.636 37.524-.105c0-1.055.317-1.582-.21-2.637l-37.103.106z" fill="#C73E39"/><path d="M168.833 477.816s2.213 63.377.211 135.4c0 0-6.009 5.695-17.392 1.898 0 0 .105-80.143-2.952-111.989 0 0-14.335 60.529-32.465 112.938 0 0-12.121 2.32-16.443-4.534 0 0 24.454-84.889 28.038-133.713h41.003z" fill="url(#paint49_linear_2637:288)"/><path d="M168.832 477.816h-41.003c-.316 3.691-.632 7.593-1.159 11.6 24.454.105 37.419-6.116 42.268-8.964 0-1.792-.106-2.636-.106-2.636z" fill="#402B2B" fill-opacity=".45" style="mix-blend-mode:multiply"/><path d="M191.178 433.737c-11.278-19.93-20.132-26.679-20.132-26.679-4.849 2.742-1.16 21.512-1.16 21.512 3.057 6.011 5.165 11.389 9.698 16.662l11.594-11.495z" fill="#D1402C"/><path d="M171.046 407.058s-.527 12.127-2.108 70.442c0 0-14.335 7.276-42.9 2.214 0 0-.106-17.505-4.006-33.006 0 0-7.273-29.21-3.584-37.752 0 0 23.295-14.447 52.598-1.898z" fill="url(#paint50_linear_2637:288)"/><path d="M148.908 395.499l.211 7.551s-1.792 2.636-6.113 2.952c-4.322.211-6.43-2.214-6.43-2.214l-.422-11.241c5.376 2.32 10.646 3.269 12.754 2.952z" fill="url(#paint51_linear_2637:288)"/><path d="M148.489 392.4l.421 8.331c-2.108.316-7.378-.633-12.648-2.953l-.317-5.378h12.544z" fill="url(#paint52_linear_2637:288)" style="mix-blend-mode:multiply"/><path d="M119.925 425.407s6.219 14.025 8.432 20.352c2.214 6.222 2.214 31.003 13.808 35.748 0 0-12.332-.738-16.232-1.793 0 0-.211-18.665-4.006-33.006 0 0-2.635-15.08-3.689-21.934l1.687.633z" fill="#EE4D47" fill-opacity=".29" style="mix-blend-mode:multiply"/><path d="M128.146 374.052c.211.105.422 3.48.422 3.48l.843 7.065 3.9 3.058 2.214.949s3.268-1.371 2.846-2.636c-.422-1.16-2.53-17.822-2.951-17.822-.422 0-3.795 2.426-3.795 2.426l-3.479 3.48zm30.883-6.327c.949 0-.527 11.599-.527 11.599l-1.686-4.64-1.16-5.589 3.373-1.37z" fill="#402B2B"/><path d="M157.449 370.044l1.792 14.869s.632 12.549-9.698 13.287c-10.329.633-17.392-9.596-17.392-9.596s-1.264 1.476-2.635-1.055c-1.265-2.53-.421-5.905 1.371-6.221 1.897-.211 2.74.843 2.951 2.425.211 1.582.422 2.742.422 2.742l1.581-.211-1.16-12.232s2.424-4.746 5.165-5.695c2.741-.949 5.165 2.847 5.165 2.847s2.53.528 4.954 0c2.424-.527 4.005-1.16 4.005-1.16s1.476.422 3.479 0z" fill="url(#paint53_linear_2637:288)"/><path d="M149.963 392.506c-3.478.211-4.005-3.797-4.005-3.797s8.011-.949 8.222-1.054c0 0 .632 4.534-4.217 4.851z" fill="#893D43"/><path d="M146.276 389.975c-.316-.738-.422-1.266-.422-1.266s8.011-.949 8.222-1.054c0 0 .105.527 0 1.371l-7.8.949z" fill="#FFFEFF"/><path d="M146.592 366.248v-10.756c-6.429.316-13.07 1.582-16.337 5.589-3.901 4.745-1.687 15.712-1.687 15.712s4.743-.527 5.587-2.109c.843-1.582 8.854-3.796 14.967-3.48 6.114.317 9.065-.316 12.122-2.952.632-.528 1.159-1.266 1.581-2.109h-16.233v.105z" fill="#402B2B"/><path d="M127.829 372.786s4.533-1.476 12.122-2.109c12.754-5.378 18.235-4.429 18.235-4.429s-.105-4.112-1.265-6.96c-1.159-2.847-8.959-6.854-15.494-6.221-6.536.632-13.282 5.483-14.336 10.123-.843 3.585.738 9.596.738 9.596z" fill="url(#paint54_linear_2637:288)"/><path d="M135.523 371.204c1.371-6.538 11.173-9.807 18.13-9.701 6.852.105 11.7 5.8 12.438 9.701.316 1.582-.949 1.793-1.37.422-.316-.949-.949-5.483-7.273-4.956-6.325.527-6.008 6.222-9.17 6.749-2.952.527-6.325-1.582-12.755-2.215z" fill="url(#paint55_linear_2637:288)"/><path d="M156.71 372.681v-.738c-.316 0-2.74-.317-5.691.316l.105 1.16c2.424-.738 5.586-.738 5.586-.738zm-17.812 2.636c1.897-1.054 5.481-1.581 5.481-1.687l-.421-1.054c-.106 0-3.373.632-5.481 2.003l.421.738z" fill="#402B2B"/><path d="M149.438 378.902s.316 2.215 1.159 2.848c.843.632 2.319 1.16 2.53 1.687.211.422-.211 1.265-1.16 1.582-.948.316-1.054.632-1.054.632s1.898.211 2.846-.949c.949-1.16-.105-2.109-1.054-2.636-.949-.527-1.37-.738-1.792-1.054-.527-.317-1.475-2.11-1.475-2.11z" fill="#D87C60"/><path d="M144.905 380.062c0 1.055-.738 2.004-1.686 2.004-.949 0-1.687-.844-1.687-2.004 0-1.054.738-2.003 1.687-2.003.948 0 1.686.843 1.686 2.003zm11.595-1.371c0 1.055-.738 2.004-1.687 2.004-.948 0-1.686-.844-1.686-2.004 0-1.054.738-2.003 1.686-2.003.949.105 1.687.949 1.687 2.003z" fill="#402B2B"/><path d="M208.149 406.953h-65.14v50.3h65.14v-50.3z" fill="#8C5E5E"/><path d="M208.252 406.953h-23.716v50.3h23.716v-50.3z" fill="#694646"/><path d="M200.137 406.953h-6.114v6.959h6.114v-6.959zm-34.994 0h-6.114v6.959h6.114v-6.959z" fill="#A3774A"/><path d="M208.255 443.966s-3.373 2.215-4.321 3.164c-.949.949-2.635 10.018-.949 10.967 1.687.949 4.954 0 6.008.211 1.16.21 4.533-1.899 4.533-3.586 0-1.687-2.108-12.865-2.636-13.076-.527-.211-2.635-1.582-2.635-1.582v3.902z" fill="#F4A984"/><path d="M165.881 443.228h-20.343v9.912h20.343v-9.912z" fill="#fff"/><path fill-rule="evenodd" clip-rule="evenodd" d="M125.511 456.094c-7.694-11.178-8.748-45.028-8.748-45.028 10.54 1.371 17.602 15.502 17.602 15.607l1.582 20.247 26.899 4.31 1.454-1.358s6.219-3.164 11.279-2.637c0 0 2.319.422 1.792 1.793-.211.738.211 1.213.632 1.687.422.475.843.949.633 1.688-.178.622-.018 1.095.139 1.56.215.637.426 1.26-.245 2.236 0 0 .843 1.265-.105 2.425l-.136.167c-1.001 1.226-2.954 3.62-3.659 3.418-.265-.075-.882-.178-1.575-.293-1.238-.207-2.717-.453-2.852-.656-.211-.316-.421-.949.633-1.581 0 0-1.16.316-2.636.105-1.475-.105-3.583-1.265-3.583-1.265l-.391-.326c-29.566 2.426-38.715-2.099-38.715-2.099z" fill="url(#paint56_linear_2637:288)"/><path d="M137.317 442.068l-2.951-15.501s-5.376-16.24-15.916-17.611c0 0-7.59 4.745 1.791 37.014l17.076-3.902z" fill="url(#paint57_linear_2637:288)"/></g><defs><linearGradient id="paint0_linear_2637:288" x1="175.164" y1="881.497" x2="-783.885" y2="104.251" gradientUnits="userSpaceOnUse"><stop stop-color="#FFEDBA"/><stop offset="1" stop-color="#EE4D47"/></linearGradient><linearGradient id="paint1_linear_2637:288" x1="-131.946" y1="314.376" x2="-131.848" y2="538.398" gradientUnits="userSpaceOnUse"><stop stop-color="#fff"/><stop offset="1" stop-color="#fff" stop-opacity="0"/></linearGradient><linearGradient id="paint2_linear_2637:288" x1="75.99" y1="729.362" x2="-558.681" y2="176.335" gradientUnits="userSpaceOnUse"><stop stop-color="#FFEDBA"/><stop offset="1" stop-color="#EE4D47"/></linearGradient><linearGradient id="paint3_linear_2637:288" x1="130.011" y1="-52.348" x2="130.011" y2="611.149" gradientUnits="userSpaceOnUse"><stop stop-color="#F4A984"/><stop offset="1" stop-color="#F4A984" stop-opacity="0"/></linearGradient><linearGradient id="paint4_linear_2637:288" x1="263.372" y1="335.013" x2="263.372" y2="519.695" gradientUnits="userSpaceOnUse"><stop offset=".241" stop-color="#2CA77F"/><stop offset="1" stop-color="#1B8877"/></linearGradient><linearGradient id="paint5_linear_2637:288" x1="263.372" y1="335.013" x2="263.372" y2="519.695" gradientUnits="userSpaceOnUse"><stop offset=".241" stop-color="#2CA77F"/><stop offset="1" stop-color="#1B8877"/></linearGradient><linearGradient id="paint6_linear_2637:288" x1="263.372" y1="335.013" x2="263.372" y2="519.695" gradientUnits="userSpaceOnUse"><stop offset=".241" stop-color="#2CA77F"/><stop offset="1" stop-color="#1B8877"/></linearGradient><linearGradient id="paint7_linear_2637:288" x1="267.927" y1="342.383" x2="267.927" y2="510.157" gradientUnits="userSpaceOnUse"><stop stop-color="#fff"/><stop offset="1" stop-color="#fff" stop-opacity="0"/></linearGradient><linearGradient id="paint8_linear_2637:288" x1="341.191" y1="387.903" x2="341.191" y2="515.793" gradientUnits="userSpaceOnUse"><stop offset=".422" stop-color="#2CA77F"/><stop offset="1" stop-color="#1B8877"/></linearGradient><linearGradient id="paint9_linear_2637:288" x1="341.191" y1="387.903" x2="341.191" y2="515.793" gradientUnits="userSpaceOnUse"><stop offset=".422" stop-color="#2CA77F"/><stop offset="1" stop-color="#1B8877"/></linearGradient><linearGradient id="paint10_linear_2637:288" x1="340.542" y1="407.412" x2="340.542" y2="511.891" gradientUnits="userSpaceOnUse"><stop stop-color="#fff"/><stop offset="1" stop-color="#fff" stop-opacity="0"/></linearGradient><linearGradient id="paint11_linear_2637:288" x1="138.95" y1="354.088" x2="138.95" y2="547.084" gradientUnits="userSpaceOnUse"><stop offset=".422" stop-color="#2CA77F"/><stop offset="1" stop-color="#1B8877"/></linearGradient><linearGradient id="paint12_linear_2637:288" x1="138.95" y1="354.088" x2="138.95" y2="547.084" gradientUnits="userSpaceOnUse"><stop offset=".422" stop-color="#2CA77F"/><stop offset="1" stop-color="#1B8877"/></linearGradient><linearGradient id="paint13_linear_2637:288" x1="133.53" y1="392.668" x2="133.53" y2="529.558" gradientUnits="userSpaceOnUse"><stop stop-color="#fff"/><stop offset="1" stop-color="#fff" stop-opacity="0"/></linearGradient><linearGradient id="paint14_linear_2637:288" x1="253.607" y1="390.103" x2="253.607" y2="429.065" gradientUnits="userSpaceOnUse"><stop stop-color="#D3D86C"/><stop offset="1" stop-color="#82A637"/></linearGradient><linearGradient id="paint15_linear_2637:288" x1="191.839" y1="306.173" x2="191.839" y2="377.498" gradientUnits="userSpaceOnUse"><stop stop-color="#D3D86C"/><stop offset="1" stop-color="#82A637"/></linearGradient><linearGradient id="paint16_linear_2637:288" x1="73.796" y1="414.781" x2="73.796" y2="512.587" gradientUnits="userSpaceOnUse"><stop stop-color="#D3D86C"/><stop offset="1" stop-color="#82A637"/></linearGradient><linearGradient id="paint17_linear_2637:288" x1="73.836" y1="438.797" x2="73.836" y2="512.587" gradientUnits="userSpaceOnUse"><stop stop-color="#084F15" stop-opacity="0"/><stop offset="1" stop-color="#084F15"/></linearGradient><linearGradient id="paint18_linear_2637:288" x1="57.238" y1="443.013" x2="57.238" y2="512.662" gradientUnits="userSpaceOnUse"><stop stop-color="#084F15" stop-opacity="0"/><stop offset="1" stop-color="#084F15"/></linearGradient><linearGradient id="paint19_linear_2637:288" x1="42.11" y1="455.738" x2="42.11" y2="512.587" gradientUnits="userSpaceOnUse"><stop stop-color="#084F15" stop-opacity="0"/><stop offset="1" stop-color="#084F15"/></linearGradient><linearGradient id="paint20_linear_2637:288" x1="28.715" y1="474.713" x2="28.715" y2="512.662" gradientUnits="userSpaceOnUse"><stop stop-color="#084F15" stop-opacity="0"/><stop offset="1" stop-color="#084F15"/></linearGradient><linearGradient id="paint21_linear_2637:288" x1="15.168" y1="496.699" x2="15.168" y2="512.587" gradientUnits="userSpaceOnUse"><stop stop-color="#084F15" stop-opacity="0"/><stop offset="1" stop-color="#084F15"/></linearGradient><linearGradient id="paint22_linear_2637:288" x1="90.357" y1="443.013" x2="90.357" y2="512.662" gradientUnits="userSpaceOnUse"><stop stop-color="#084F15" stop-opacity="0"/><stop offset="1" stop-color="#084F15"/></linearGradient><linearGradient id="paint23_linear_2637:288" x1="105.521" y1="455.813" x2="105.521" y2="512.662" gradientUnits="userSpaceOnUse"><stop stop-color="#084F15" stop-opacity="0"/><stop offset="1" stop-color="#084F15"/></linearGradient><linearGradient id="paint24_linear_2637:288" x1="118.882" y1="474.713" x2="118.882" y2="512.662" gradientUnits="userSpaceOnUse"><stop stop-color="#084F15" stop-opacity="0"/><stop offset="1" stop-color="#084F15"/></linearGradient><linearGradient id="paint25_linear_2637:288" x1="155.269" y1="450.422" x2="155.269" y2="512.662" gradientUnits="userSpaceOnUse"><stop stop-color="#D3D86C"/><stop offset="1" stop-color="#82A637"/></linearGradient><linearGradient id="paint26_linear_2637:288" x1="155.346" y1="465.753" x2="155.346" y2="512.662" gradientUnits="userSpaceOnUse"><stop stop-color="#084F15" stop-opacity="0"/><stop offset="1" stop-color="#084F15"/></linearGradient><linearGradient id="paint27_linear_2637:288" x1="144.882" y1="468.313" x2="144.882" y2="512.587" gradientUnits="userSpaceOnUse"><stop stop-color="#084F15" stop-opacity="0"/><stop offset="1" stop-color="#084F15"/></linearGradient><linearGradient id="paint28_linear_2637:288" x1="135.248" y1="476.52" x2="135.248" y2="512.662" gradientUnits="userSpaceOnUse"><stop stop-color="#084F15" stop-opacity="0"/><stop offset="1" stop-color="#084F15"/></linearGradient><linearGradient id="paint29_linear_2637:288" x1="126.709" y1="488.492" x2="126.709" y2="512.587" gradientUnits="userSpaceOnUse"><stop stop-color="#084F15" stop-opacity="0"/><stop offset="1" stop-color="#084F15"/></linearGradient><linearGradient id="paint30_linear_2637:288" x1="118.128" y1="502.573" x2="118.128" y2="512.662" gradientUnits="userSpaceOnUse"><stop stop-color="#084F15" stop-opacity="0"/><stop offset="1" stop-color="#084F15"/></linearGradient><linearGradient id="paint31_linear_2637:288" x1="165.881" y1="468.463" x2="165.881" y2="512.662" gradientUnits="userSpaceOnUse"><stop stop-color="#084F15" stop-opacity="0"/><stop offset="1" stop-color="#084F15"/></linearGradient><linearGradient id="paint32_linear_2637:288" x1="175.517" y1="476.52" x2="175.517" y2="512.662" gradientUnits="userSpaceOnUse"><stop stop-color="#084F15" stop-opacity="0"/><stop offset="1" stop-color="#084F15"/></linearGradient><linearGradient id="paint33_linear_2637:288" x1="184.058" y1="488.567" x2="184.058" y2="512.662" gradientUnits="userSpaceOnUse"><stop stop-color="#084F15" stop-opacity="0"/><stop offset="1" stop-color="#084F15"/></linearGradient><linearGradient id="paint34_linear_2637:288" x1="192.64" y1="502.572" x2="192.64" y2="512.662" gradientUnits="userSpaceOnUse"><stop stop-color="#084F15" stop-opacity="0"/><stop offset="1" stop-color="#084F15"/></linearGradient><linearGradient id="paint35_linear_2637:288" x1="-274.829" y1="335.434" x2="-274.829" y2="629.24" gradientUnits="userSpaceOnUse"><stop offset=".278" stop-color="#EEEF99"/><stop offset=".77" stop-color="#B9D079"/></linearGradient><linearGradient id="paint36_linear_2637:288" x1="-274.829" y1="335.434" x2="-274.829" y2="629.24" gradientUnits="userSpaceOnUse"><stop offset=".278" stop-color="#EEEF99"/><stop offset=".77" stop-color="#B9D079"/></linearGradient><linearGradient id="paint37_linear_2637:288" x1="-26.098" y1="513.771" x2="-26.098" y2="647.531" gradientUnits="userSpaceOnUse"><stop stop-color="#fff"/><stop offset="1" stop-color="#fff" stop-opacity="0"/></linearGradient><linearGradient id="paint38_linear_2637:288" x1="-73.762" y1="474.519" x2="-73.762" y2="606.23" gradientUnits="userSpaceOnUse"><stop offset=".164" stop-color="#82A637"/><stop offset=".891" stop-color="#1B8877"/></linearGradient><linearGradient id="paint39_linear_2637:288" x1="417.272" y1="465.16" x2="417.272" y2="-228.57" gradientUnits="userSpaceOnUse"><stop stop-color="#FFEDBA" stop-opacity="0"/><stop offset="1" stop-color="#EB2A24"/></linearGradient><linearGradient id="paint40_linear_2637:288" x1="262.006" y1="126.712" x2="262.114" y2="374.765" gradientUnits="userSpaceOnUse"><stop stop-color="#fff"/><stop offset="1" stop-color="#fff" stop-opacity="0"/></linearGradient><linearGradient id="paint41_linear_2637:288" x1="243.991" y1="459.643" x2="241.01" y2="428.923" gradientUnits="userSpaceOnUse"><stop stop-color="#FFB3B6"/><stop offset="1" stop-color="#FFC8C1"/></linearGradient><linearGradient id="paint42_linear_2637:288" x1="247.068" y1="439.363" x2="247.068" y2="606.955" gradientUnits="userSpaceOnUse"><stop stop-color="#F4A984"/><stop offset="1" stop-color="#EE4D47"/></linearGradient><linearGradient id="paint43_linear_2637:288" x1="261.323" y1="407.947" x2="261.447" y2="372.41" gradientUnits="userSpaceOnUse"><stop stop-color="#FFB3B6"/><stop offset="1" stop-color="#FFC8C1"/></linearGradient><linearGradient id="paint44_linear_2637:288" x1="275.837" y1="390.045" x2="272.302" y2="364.969" gradientUnits="userSpaceOnUse"><stop stop-color="#FFB3B6"/><stop offset="1" stop-color="#FFC8C1"/></linearGradient><linearGradient id="paint45_linear_2637:288" x1="278.114" y1="440.363" x2="278.114" y2="603.971" gradientUnits="userSpaceOnUse"><stop stop-color="#F4A984"/><stop offset="1" stop-color="#EE4D47"/></linearGradient><linearGradient id="paint46_linear_2637:288" x1="275.131" y1="384.438" x2="274.351" y2="378.476" gradientUnits="userSpaceOnUse"><stop stop-color="#FFB3B6"/><stop offset="1" stop-color="#FFC8C1"/></linearGradient><linearGradient id="paint47_linear_2637:288" x1="170.573" y1="611.949" x2="170.573" y2="627.967" gradientUnits="userSpaceOnUse"><stop stop-color="#F4A984"/><stop offset="1" stop-color="#EE4D47"/></linearGradient><linearGradient id="paint48_linear_2637:288" x1="116.919" y1="606.18" x2="116.919" y2="628.044" gradientUnits="userSpaceOnUse"><stop stop-color="#F4A984"/><stop offset="1" stop-color="#EE4D47"/></linearGradient><linearGradient id="paint49_linear_2637:288" x1="134.837" y1="438.608" x2="134.837" y2="616.441" gradientUnits="userSpaceOnUse"><stop stop-color="#822626"/><stop offset=".943" stop-color="#402B2B"/></linearGradient><linearGradient id="paint50_linear_2637:288" x1="144.225" y1="383.515" x2="144.225" y2="483.684" gradientUnits="userSpaceOnUse"><stop stop-color="#F4A984"/><stop offset="1" stop-color="#EE4D47"/></linearGradient><linearGradient id="paint51_linear_2637:288" x1="138.317" y1="402.506" x2="148.984" y2="407.106" gradientUnits="userSpaceOnUse"><stop stop-color="#FFB3B6"/><stop offset="1" stop-color="#FFC8C1"/></linearGradient><linearGradient id="paint52_linear_2637:288" x1="138.108" y1="397.216" x2="148.835" y2="401.759" gradientUnits="userSpaceOnUse"><stop stop-color="#FFB3B6" stop-opacity=".31"/><stop offset="1" stop-color="#FFC8C1"/></linearGradient><linearGradient id="paint53_linear_2637:288" x1="160.614" y1="394.59" x2="158.333" y2="374.202" gradientUnits="userSpaceOnUse"><stop stop-color="#FFB3B6"/><stop offset="1" stop-color="#FFC8C1"/></linearGradient><linearGradient id="paint54_linear_2637:288" x1="142.515" y1="342.375" x2="142.515" y2="373.036" gradientUnits="userSpaceOnUse"><stop stop-color="#F4A984"/><stop offset="1" stop-color="#EE4D47"/></linearGradient><linearGradient id="paint55_linear_2637:288" x1="141.714" y1="358.464" x2="141.714" y2="390.34" gradientUnits="userSpaceOnUse"><stop stop-color="#F4A984"/><stop offset="1" stop-color="#EE4D47"/></linearGradient><linearGradient id="paint56_linear_2637:288" x1="127.143" y1="440.43" x2="181.786" y2="458.644" gradientUnits="userSpaceOnUse"><stop stop-color="#FFB3B6"/><stop offset="1" stop-color="#FFC8C1"/></linearGradient><linearGradient id="paint57_linear_2637:288" x1="126.434" y1="398.232" x2="126.434" y2="436.179" gradientUnits="userSpaceOnUse"><stop stop-color="#F4A984"/><stop offset="1" stop-color="#EE4D47"/></linearGradient><clipPath id="clip0_2637:288"><path fill="#fff" d="M0 0h320v636H0z"/></clipPath></defs></svg>