<svg width="320" height="706" fill="none" xmlns="http://www.w3.org/2000/svg"><g clip-path="url(#clip0_2596:282)"><path d="M399.808-5.61h-961.157v598.386h861.157c55.228 0 100-44.771 100-100V-5.609z" fill="url(#paint0_linear_2596:282)"/><mask id="a" style="mask-type:alpha" maskUnits="userSpaceOnUse" x="-562" y="-6" width="962" height="599"><path d="M399.808-5.61h-961.157v598.386h861.157c55.228 0 100-44.771 100-100V-5.609z" fill="url(#paint1_linear_2596:282)"/></mask><g mask="url(#a)"><path d="M430.155 252.089h-8.101a3.038 3.038 0 00-3.038 3.038v182.715a4.177 4.177 0 11-8.354 0V323.626c0-5.522-4.477-10-10-10h-2.784c-5.523 0-10 4.478-10 10v2.286c0 5.522-4.478 10-10 10h-46.832a5.698 5.698 0 00-5.698 5.697v3.167a2.53 2.53 0 01-2.531 2.531 2.532 2.532 0 00-2.532 2.532v40.648a6.202 6.202 0 01-6.202 6.202 6.203 6.203 0 00-6.203 6.203v26.721a7.848 7.848 0 01-7.848 7.848 7.848 7.848 0 00-7.848 7.848v39.256a2.783 2.783 0 11-5.569 0V254.874a2.279 2.279 0 00-2.278-2.279 2.278 2.278 0 01-2.279-2.278v-20.135a3.924 3.924 0 00-3.924-3.924 3.923 3.923 0 01-3.924-3.923v-19.502a2.658 2.658 0 00-2.658-2.658 2.658 2.658 0 01-2.658-2.658v-13.426c0-5.523-4.477-10-10-10h-13.923c-5.523 0-10 4.477-10 10v13.426a2.658 2.658 0 01-2.658 2.658 2.658 2.658 0 00-2.658 2.658v19.502a3.923 3.923 0 01-3.924 3.923 3.924 3.924 0 00-3.924 3.924v20.262c0 1.048-.85 1.898-1.899 1.898-1.048 0-1.898.85-1.898 1.899v156.505a4.431 4.431 0 01-4.431 4.43 4.43 4.43 0 00-4.43 4.43v62.3a5.442 5.442 0 01-5.443 5.443h-4.936a.506.506 0 01-.507-.506.506.506 0 00-.506-.507h-1.645a.886.886 0 110-1.772h.885a1.266 1.266 0 100-2.533h-.759a1.013 1.013 0 110-2.026h.759a1.265 1.265 0 100-2.532h-.885a.887.887 0 110-1.773h.885a1.266 1.266 0 100-2.532h-.885a.887.887 0 110-1.773h.885a1.266 1.266 0 100-2.532h-.885a.887.887 0 110-1.773h.885a1.266 1.266 0 100-2.532h-.885a.887.887 0 110-1.773h.885a1.266 1.266 0 100-2.532h-.885a.887.887 0 110-1.773h.885a1.266 1.266 0 100-2.532h-.885a.887.887 0 110-1.773h.885a1.266 1.266 0 100-2.533h-.885a.886.886 0 110-1.772h.885a1.266 1.266 0 100-2.533h-.885a.886.886 0 110-1.772h.885a1.266 1.266 0 100-2.533h-.253a1.52 1.52 0 01-1.519-1.519v-.507a1.52 1.52 0 011.519-1.519h.253a1.266 1.266 0 100-2.532h-.885a.887.887 0 110-1.773h.885a1.266 1.266 0 100-2.533h-.885a.886.886 0 110-1.772h.885a1.266 1.266 0 100-2.533h-.885a.886.886 0 110-1.772h.885a1.266 1.266 0 100-2.533h-.885a.887.887 0 110-1.772h.885a1.266 1.266 0 100-2.533h-.885a.887.887 0 110-1.772h.885a1.266 1.266 0 100-2.533h-.885a.887.887 0 110-1.773h.885a1.265 1.265 0 100-2.532h-.885a.887.887 0 110-1.773h.885a1.266 1.266 0 100-2.532h-.885a.887.887 0 110-1.773h.885a1.266 1.266 0 100-2.532h-.885a.887.887 0 110-1.773h.885a1.266 1.266 0 100-2.532h-.885a.887.887 0 110-1.773h.885a1.266 1.266 0 100-2.532h-.885a.887.887 0 110-1.773h.885a1.266 1.266 0 100-2.532h-.885a.887.887 0 110-1.773h.885a1.266 1.266 0 100-2.533h-.253a1.52 1.52 0 01-1.519-1.518v-1.014a1.52 1.52 0 011.519-1.519h.253a1.266 1.266 0 100-2.533h-.885a.887.887 0 110-1.772h.885a1.266 1.266 0 100-2.533h-.885a.887.887 0 110-1.773h.885a1.265 1.265 0 100-2.532h-.885a.887.887 0 110-1.773h.885a1.266 1.266 0 100-2.532h-.253a1.52 1.52 0 01-1.519-1.519v-1.647a1.14 1.14 0 00-1.139-1.139 1.14 1.14 0 01-1.139-1.139v-1.647a2.785 2.785 0 00-2.786-2.785h-.252a3.038 3.038 0 01-3.038-3.038v-8.106a2.278 2.278 0 00-2.278-2.278 2.278 2.278 0 01-2.278-2.279v-7.12a9.399 9.399 0 00-7.395-9.182l-6.529-1.425a4.245 4.245 0 01-3.291-4.137V294.76a.886.886 0 10-1.772 0v23.861a2.28 2.28 0 01-2.785 2.223 2.28 2.28 0 00-2.785 2.222v17.531c0 1.049-.85 1.899-1.898 1.899-1.049 0-1.899.85-1.899 1.898v8.486a3.038 3.038 0 01-3.038 3.038h-.632a2.406 2.406 0 00-2.406 2.405v1.267a1.14 1.14 0 01-1.139 1.139 1.14 1.14 0 00-1.139 1.139v1.014a2.152 2.152 0 01-2.153 2.152h-19.745c-5.523 0-10 4.477-10 10v8.11c0 5.523-4.477 10-10 10H88.247a9.997 9.997 0 00-3.63.682l-22.299 8.688a2.014 2.014 0 00-1.265 1.87v8.767c0 1.118.906 2.025 2.025 2.025h.505a1.52 1.52 0 110 3.039h-1.011a1.52 1.52 0 100 3.039h1.011a1.52 1.52 0 110 3.039h-1.011a1.52 1.52 0 100 3.038h1.011a1.52 1.52 0 010 3.039h-1.011a1.52 1.52 0 000 3.039h1.011a1.52 1.52 0 110 3.039h-1.011a1.52 1.52 0 100 3.039h1.391a1.14 1.14 0 110 2.279H42.14a9.201 9.201 0 01-8.628-6.004l-5.607-15.13c-1.047-2.827-5.047-2.822-6.088.007-1.269 3.45-6.599 2.46-6.591-1.215.005-2.514.005-5.027.005-7.54v-10.636c0-10.13 0-20.26-.253-30.389 0-4.305-.253-8.864-.253-13.169-.253-9.37-.507-18.74-1.013-28.363-.253-4.558-.253-9.116-.506-13.675-.506-8.863-.76-17.473-1.266-26.337 0-1.013-.253-2.026-.253-3.039-.506-7.85-1.013-15.447-1.519-23.298-1.013-14.181-2.278-28.363-3.544-42.544a98.506 98.506 0 00-.13-1.62c-.46-5.226-4.948-9.269-10.194-9.269h-45.09c-3.632 0-6.863 2.7-6.863 6.331l-.76 9.116c-.253 2.533-.506 5.318-.759 7.851-.506 4.811-.76 9.623-1.266 14.434-.253 2.28-.253 4.306-.506 6.585-.253 4.052-.506 8.103-1.012 12.155-.254 1.773-.254 3.546-.254 5.065-.253 5.318-.76 10.636-1.012 15.701 0 1.773-.253 3.545-.253 5.318-.254 5.571-.507 10.889-.76 16.461 0 1.266-.253 2.279-.253 3.545-.253 5.065-.506 10.383-.76 15.448v3.039c-.253 5.824-.506 11.649-.506 17.473v3.546c-.253 6.077-.253 12.155-.506 17.98v.759c0 6.078-.253 12.156-.253 17.98v28.492a5.443 5.443 0 01-5.443 5.443 5.442 5.442 0 00-5.443 5.443v60.781a6.456 6.456 0 01-6.456 6.456h-5.822a.634.634 0 010-1.267h.506c.63 0 1.14-.51 1.14-1.139v-.507a1.14 1.14 0 00-1.14-1.139 1.14 1.14 0 01-1.14-1.139v-1.014a1.14 1.14 0 011.14-1.139c.63 0 1.14-.51 1.14-1.14v-.507a1.14 1.14 0 00-1.14-1.139 1.14 1.14 0 01-1.14-1.139v-1.267a1.14 1.14 0 011.14-1.139c.63 0 1.14-.51 1.14-1.14v-.507a1.14 1.14 0 00-1.14-1.139 1.14 1.14 0 01-1.14-1.139v-1.267a1.14 1.14 0 011.14-1.139c.63 0 1.14-.51 1.14-1.14v-.507a1.14 1.14 0 00-1.14-1.139 1.14 1.14 0 01-1.14-1.139v-1.267a1.14 1.14 0 011.14-1.139c.63 0 1.14-.51 1.14-1.14v-.507a1.14 1.14 0 00-1.14-1.139 1.14 1.14 0 01-1.14-1.139v-1.267a1.14 1.14 0 011.14-1.139c.63 0 1.14-.51 1.14-1.14v-.507a1.14 1.14 0 00-1.14-1.139 1.14 1.14 0 01-1.14-1.139v-1.267a1.14 1.14 0 011.14-1.139c.63 0 1.14-.51 1.14-1.14v-.507a1.14 1.14 0 00-1.14-1.139 1.14 1.14 0 01-1.14-1.139v-1.267a1.14 1.14 0 011.14-1.139c.63 0 1.14-.51 1.14-1.14v-.507a1.14 1.14 0 00-1.14-1.139 1.14 1.14 0 01-1.14-1.139v-1.267a1.14 1.14 0 011.14-1.139c.63 0 1.14-.511 1.14-1.14v-.507a1.14 1.14 0 00-1.14-1.139 1.14 1.14 0 01-1.14-1.139v-1.267a1.14 1.14 0 011.14-1.139c.63 0 1.14-.511 1.14-1.14v-.507a1.14 1.14 0 00-1.14-1.139 1.14 1.14 0 01-1.14-1.139v-1.267a1.14 1.14 0 011.14-1.139c.63 0 1.14-.511 1.14-1.14v-1.52a1.14 1.14 0 00-1.14-1.139 1.14 1.14 0 01-1.14-1.139v-1.267a1.14 1.14 0 011.14-1.139c.63 0 1.14-.51 1.14-1.14v-.507a1.14 1.14 0 00-1.14-1.139 1.14 1.14 0 01-1.14-1.139v-1.52c0-.63.511-1.14 1.14-1.14.63 0 1.14-.51 1.14-1.139v-.507a1.14 1.14 0 00-1.14-1.139 1.14 1.14 0 01-1.14-1.14v-1.266c0-.63.511-1.14 1.14-1.14.63 0 1.14-.51 1.14-1.139v-.507a1.14 1.14 0 00-1.14-1.139 1.14 1.14 0 01-1.14-1.14v-1.267a1.14 1.14 0 011.14-1.139c.63 0 1.14-.51 1.14-1.139v-.507a1.14 1.14 0 00-1.14-1.139 1.14 1.14 0 01-1.14-1.14v-1.267a1.14 1.14 0 011.14-1.139c.63 0 1.14-.51 1.14-1.139v-.507a1.14 1.14 0 00-1.14-1.139 1.14 1.14 0 01-1.14-1.14v-1.267a1.14 1.14 0 011.14-1.139c.63 0 1.14-.51 1.14-1.139v-.507a1.14 1.14 0 00-1.14-1.139 1.14 1.14 0 01-1.14-1.14v-1.267a1.14 1.14 0 011.14-1.139c.63 0 1.14-.51 1.14-1.139v-.507a1.14 1.14 0 00-1.14-1.139 1.14 1.14 0 01-1.14-1.14v-1.267a1.14 1.14 0 011.14-1.139c.63 0 1.14-.51 1.14-1.139v-.507a1.14 1.14 0 00-1.14-1.139 1.14 1.14 0 01-1.14-1.14v-1.267a1.14 1.14 0 011.14-1.139c.63 0 1.14-.51 1.14-1.139v-1.52a1.14 1.14 0 00-1.14-1.139 1.14 1.14 0 01-1.14-1.14v-1.267a1.14 1.14 0 011.14-1.139c.63 0 1.14-.51 1.14-1.139v-.507a1.14 1.14 0 00-1.14-1.139 1.14 1.14 0 01-1.14-1.14v-1.267a1.14 1.14 0 011.14-1.139c.63 0 1.14-.51 1.14-1.139v-.507a1.14 1.14 0 00-1.14-1.139 1.14 1.14 0 01-1.14-1.14v-1.267a1.14 1.14 0 011.14-1.139c.63 0 1.14-.51 1.14-1.139v-.507a1.14 1.14 0 00-1.14-1.139 1.14 1.14 0 01-1.14-1.14v-4.052a1.14 1.14 0 011.14-1.139c.63 0 1.14-.51 1.14-1.14v-.76c0-1.049-.85-1.899-1.9-1.899h-3.67a1.773 1.773 0 01-1.772-1.773v-.417c0-.748.607-1.355 1.356-1.355 1.114 0 1.752-1.27 1.088-2.164l-9.081-12.237a5.727 5.727 0 00-4.598-2.313h-.155a5.572 5.572 0 01-5.572-5.572c0-.559-.506-1.213-.506-1.772v-14.562a.886.886 0 00-1.772 0v14.601c0 .538-.506 1.196-.506 1.733a5.572 5.572 0 01-5.572 5.572h-.155a5.727 5.727 0 00-4.598 2.313l-9.583 12.913a.932.932 0 00.748 1.488c.515 0 .932.417.932.932v.84c0 .979-.793 1.773-1.772 1.773h-3.67c-1.049 0-1.899.85-1.899 1.899v.507c0 .769.623 1.393 1.392 1.393.769 0 1.393.623 1.393 1.392v3.546c0 .769-.624 1.393-1.393 1.393a1.392 1.392 0 100 2.785c.769 0 1.393.624 1.393 1.393v.76c0 .769-.624 1.393-1.393 1.393a1.392 1.392 0 100 2.785c.769 0 1.393.624 1.393 1.393v.76c0 .769-.624 1.393-1.393 1.393a1.392 1.392 0 100 2.785c.769 0 1.393.624 1.393 1.393v.76c0 .769-.624 1.393-1.393 1.393a1.392 1.392 0 100 2.785c.769 0 1.393.624 1.393 1.393v.76c0 .769-.624 1.393-1.393 1.393a1.392 1.392 0 100 2.785c.769 0 1.393.624 1.393 1.393v.76c0 .769-.624 1.393-1.393 1.393a1.392 1.392 0 100 2.785c.769 0 1.393.624 1.393 1.393v.76c0 .769-.624 1.393-1.393 1.393a1.392 1.392 0 100 2.785c.769 0 1.393.624 1.393 1.393v.76c0 .769-.624 1.393-1.393 1.393a1.392 1.392 0 100 2.785c.769 0 1.393.624 1.393 1.393v.76c0 .769-.624 1.393-1.393 1.393a1.392 1.392 0 100 2.785c.769 0 1.393.624 1.393 1.393v.76c0 .769-.624 1.393-1.393 1.393a1.392 1.392 0 000 2.785c.769 0 1.393.624 1.393 1.393v.76c0 .769-.624 1.393-1.393 1.393a1.393 1.393 0 000 2.785c.769 0 1.393.624 1.393 1.393v.76c0 .769-.624 1.393-1.393 1.393a1.393 1.393 0 000 2.785c.769 0 1.393.624 1.393 1.393v.76c0 .769-.624 1.393-1.393 1.393a1.393 1.393 0 000 2.785c.769 0 1.393.624 1.393 1.393v.76c0 .769-.624 1.393-1.393 1.393a1.393 1.393 0 000 2.785h1.013a.38.38 0 110 .76h-13.29a3.292 3.292 0 01-3.292-3.292V255.381l-.108-4.533a8.807 8.807 0 00-5.911-8.109l-6.669-2.321c-2.462-.856-5.033.972-5.033 3.578v1.157a2.631 2.631 0 11-5.262-.054l.291-14.417a10 10 0 00-7.572-9.903l-11.151-2.789c-6.009-1.502-11.925 2.764-12.397 8.94l-2.136 27.945-.253 3.545-.253 2.786-.253 3.545-.253 2.786-.253 3.545-.254 2.786-.253 3.545-.253 2.786-.253 3.545-.253 2.786-.253 3.545-.253 2.786-.254 3.545-.253 2.786-.253 3.545-.253 2.786-.253 3.545-.253 2.786-.254 3.545-.253 2.786-.253 3.545-.253 2.786a7.92 7.92 0 01-3.07 5.713l-1.148.883a7.412 7.412 0 00-2.87 5.306l-.254 2.786-.253 3.545-.253 2.786-.253 3.545-.253 2.786-.253 3.545-.253 2.786-.254 3.292c0 .699-.567 1.266-1.266 1.266h-18.353c-5.523 0-10 4.477-10 10v26.341a3.924 3.924 0 01-3.924 3.924 3.924 3.924 0 00-3.924 3.924v77.875a5.316 5.316 0 11-10.632 0V173.584a2.025 2.025 0 00-2.026-2.025 2.026 2.026 0 01-2.025-2.026v-25.201c0-5.523-4.477-10-10-10h-37.973c-5.523 0-10 4.477-10 10v25.455a2.025 2.025 0 01-2.025 2.025 2.025 2.025 0 00-2.025 2.025v134.852a3.67 3.67 0 01-3.671 3.671h-2.911a.76.76 0 00-.76.76v.253c0 .28-.227.507-.506.507a.505.505 0 00-.506.506v2.786c0 .28.226.506.506.506.279 0 .506.227.506.507v.253c0 .28-.227.506-.506.506a.506.506 0 00-.506.507v2.786c0 .279.226.506.506.506.279 0 .506.227.506.506v.254c0 .28-.227.506-.506.506a.506.506 0 00-.506.507v2.786c0 .279.226.506.506.506.279 0 .506.227.506.506v.254a.507.507 0 01-.506.506.506.506 0 00-.506.506v2.786c0 .28.226.507.506.507.279 0 .506.226.506.506v.254a.507.507 0 01-.506.506.506.506 0 00-.506.506v2.786c0 .28.226.507.506.507.279 0 .506.226.506.506v.253c0 .28-.227.507-.506.507a.505.505 0 00-.506.506v2.786c0 .28.226.506.506.506.279 0 .506.227.506.507v.253c0 .28-.227.507-.506.507a.505.505 0 00-.506.506v2.786c0 .279.226.506.506.506.279 0 .506.227.506.506v.254c0 .28-.227.506-.506.506a.506.506 0 00-.506.507v2.786c0 .279.226.506.506.506.279 0 .506.227.506.506v.254a.507.507 0 01-.506.506.506.506 0 00-.506.506v2.786c0 .28.226.507.506.507.279 0 .506.226.506.506v.254a.507.507 0 01-.506.506.506.506 0 00-.506.506v2.786c0 .28.226.507.506.507.279 0 .506.226.506.506v.253c0 .28-.227.507-.506.507a.505.505 0 00-.506.506v2.786c0 .28.226.506.506.506.279 0 .506.227.506.507v.253c0 .28-.227.507-.506.507a.505.505 0 00-.506.506v2.786c0 .279.226.506.506.506.279 0 .506.227.506.506v.254c0 .28-.227.506-.506.506a.506.506 0 00-.506.507v2.786c0 .279.226.506.506.506.279 0 .506.227.506.506v.254c0 .28-.227.506-.506.506a.506.506 0 00-.506.506v2.786c0 .28.226.507.506.507.279 0 .506.226.506.506v.254a.507.507 0 01-.506.506.506.506 0 00-.506.506v2.786c0 .28.226.507.506.507.279 0 .506.226.506.506v5.318c0 .28-.227.507-.506.507a.505.505 0 00-.506.506v2.786c0 .28.226.506.506.506.279 0 .506.227.506.507v.253c0 .28-.227.506-.506.506a.506.506 0 00-.506.507v.633a1.14 1.14 0 01-1.14 1.14h-7.341a8.48 8.48 0 01-8.481-8.481v-64.836c0-5.522-4.477-10-10-10h-24.556c-5.522 0-10 4.478-10 10v37.232a6.455 6.455 0 01-6.455 6.455h-4.936a1.52 1.52 0 01-1.52-1.519c0-.839-.68-1.519-1.519-1.519h-1.139a2.659 2.659 0 01-2.658-2.659v-202.72a2.025 2.025 0 00-2.025-2.025 2.025 2.025 0 01-2.025-2.026v-52.551c0-5.523-4.478-10-10-10h-50.125c-5.523 0-10 4.477-10 10v52.551a2.026 2.026 0 01-2.025 2.026 2.024 2.024 0 00-2.025 2.025v267.931a4.81 4.81 0 01-9.62 0v-95.097a8.48 8.48 0 00-8.481-8.48 8.48 8.48 0 01-8.481-8.481v-36.85a2.785 2.785 0 00-2.784-2.785 2.785 2.785 0 01-2.785-2.785v-8.994c0-5.523-4.477-10-10-10h-58.985c-5.523 0-10 4.477-10 10v8.994a2.785 2.785 0 01-2.785 2.785 2.784 2.784 0 00-2.784 2.785v163.09a9.114 9.114 0 01-18.228 0v-94.084c0-5.523-4.477-10-10-10h-47.086c-5.523 0-10 4.477-10 10v54.072a7.341 7.341 0 01-7.342 7.341 7.342 7.342 0 00-7.341 7.342v57.743a4.304 4.304 0 01-8.608 0V279.692c0-.979-.793-1.772-1.772-1.772h-1.012a.76.76 0 010-1.52h1.012c.979 0 1.772-.793 1.772-1.772v-1.521c0-.978-.793-1.772-1.772-1.772h-1.012a.76.76 0 110-1.519h1.012c.979 0 1.772-.794 1.772-1.772v-1.521c0-.979-.793-1.772-1.772-1.772h-1.012a.76.76 0 110-1.519h1.012c.979 0 1.772-.794 1.772-1.773v-1.52c0-.979-.793-1.772-1.772-1.772h-1.266a.507.507 0 010-1.013h1.393c1.048 0 1.898-.85 1.898-1.899v-1.267c0-1.049-.85-1.899-1.898-1.899h-1.139a.76.76 0 110-1.519h1.139a1.9 1.9 0 001.898-1.899v-1.268c0-1.048-.85-1.898-1.898-1.898h-1.139a.76.76 0 110-1.52h1.139c1.048 0 1.898-.85 1.898-1.898v-1.268c0-1.048-.85-1.898-1.898-1.898h-1.139a.76.76 0 010-1.52h1.139c1.048 0 1.898-.85 1.898-1.899v-12.097c0-3.287-1.656-6.321-4.056-8.568-7.487-7.008-17.25-20.893-17.462-39.733v-1.14a2.151 2.151 0 00-2.152-2.152h-.759c-.769 0-1.393.623-1.393 1.393 0 .769-.623 1.392-1.392 1.392h-1.645a3.038 3.038 0 01-3.038-3.037v-39.887a1.14 1.14 0 00-2.279 0v42.545a.633.633 0 01-1.266 0v-.76c0-.769-.623-1.393-1.392-1.393h-1.772c-.769 0-1.392.624-1.392 1.393s-.624 1.393-1.393 1.393h-5.316a1.393 1.393 0 01-1.392-1.393c0-.769-.624-1.393-1.393-1.393h-.886a2.278 2.278 0 00-2.278 2.278v.508c0 19.296-5.148 33.443-11.281 40.508-2.024 2.333-3.655 5.157-3.655 8.246v9.111c0 .07.056.127.126.127s.127.056.127.126v2.66a2.279 2.279 0 002.278 2.279h1.519a.76.76 0 010 1.519h-1.519a2.278 2.278 0 00-2.278 2.278v.508a2.278 2.278 0 002.278 2.279h1.519a.76.76 0 010 1.519h-1.645a2.405 2.405 0 00-2.405 2.405v.255a2.405 2.405 0 002.405 2.405h1.898a.507.507 0 010 1.013h-1.898a2.405 2.405 0 00-2.405 2.405v.255a2.405 2.405 0 002.405 2.405h1.645a.76.76 0 010 1.519h-1.645a2.405 2.405 0 00-2.405 2.405v.255a2.405 2.405 0 002.405 2.405h1.645a.76.76 0 010 1.52h-1.645a2.404 2.404 0 00-2.405 2.405v.254a2.404 2.404 0 002.405 2.405h1.645a.76.76 0 010 1.52h-1.645a2.405 2.405 0 00-2.405 2.405v.255a2.405 2.405 0 002.405 2.405h1.645a.76.76 0 010 1.519h-1.772a2.532 2.532 0 00-2.532 2.532v99.78a7.088 7.088 0 01-7.088 7.088 7.087 7.087 0 00-7.088 7.088v42.928a3.924 3.924 0 01-3.924 3.924 3.924 3.924 0 00-3.924 3.924v39.521c0 1.61-1.817 2.454-3.426 2.394a2.331 2.331 0 01-.264-.023 92.55 92.55 0 00-.276-.039 5.952 5.952 0 01-5.148-5.895v-91.125a8.014 8.014 0 00-4.786-7.336l-1.311-.577a1.209 1.209 0 00-.485-.102h-.379a1.899 1.899 0 01-1.899-1.899v-1.014a.886.886 0 10-1.772.001.886.886 0 01-.886.886h-.108a.78.78 0 00-.779.779.777.777 0 01-.739.777l-2.89.145a1.366 1.366 0 01-1.434-1.364c0-.517-.292-.99-.754-1.221l-.684-.342a2.597 2.597 0 00-1.242-.274l-14.81.442a1.542 1.542 0 00-1.496 1.542c0 .851-.691 1.542-1.543 1.542h-.229c-.979 0-1.773.793-1.773 1.772v14.312c0 5.522-4.477 10-10 10h-8.1c-5.523 0-10-4.478-10-10V282.73a3.29 3.29 0 00-3.291-3.291 3.29 3.29 0 01-3.291-3.291v-19.377c0-5.523-4.477-10-10-10h-8.732a4.304 4.304 0 01-4.305-4.305 4.305 4.305 0 00-4.305-4.305h-2.908a6.964 6.964 0 01-6.964-6.964 6.964 6.964 0 00-6.964-6.964h-40.503c-5.523 0-10 4.477-10 10v2.538c0 5.523-4.474 10-10.004 10h-8.86c-5.52 0-10 4.477-10 10v215.387c0 4.334-3.51 7.847-7.84 7.847a7.846 7.846 0 00-7.85 7.848v6.843a7.343 7.343 0 01-7.34 7.341 7.337 7.337 0 01-7.34-7.341V441.89c0-5.523-4.48-10-10-10h-2.79c-5.52 0-10-4.477-10-10v-12.762c0-.174-.1-.332-.25-.41a.445.445 0 01-.25-.409v-2.652c0-1.053-.35-2.075-1-2.907l-2.99-3.864a10.038 10.038 0 01-2.09-6.121v-3.612c0-.687-.27-1.347-.76-1.834a2.578 2.578 0 01-.76-1.834v-10.954a.38.38 0 10-.76 0v11.133c0 .574-.23 1.123-.63 1.529-.41.405-.63.955-.63 1.528v4.817c0 2.051-.64 4.053-1.81 5.733l-2.7 3.862a4.437 4.437 0 00-.81 2.561v1.478c0 .571-.29 1.103-.76 1.42-.47.316-.76.849-.76 1.419v.65c0 .916-.48 1.764-1.27 2.236l-.31.187c-.59.355-.95.995-.95 1.685 0 .719-.39 1.381-1.03 1.725l-.36.201a2.677 2.677 0 00-1.4 2.346v23.209a4.85 4.85 0 01-5.31 4.834c-2.52 0-4.56-2.04-4.56-4.557v-43.688c0-5.523-4.48-10-10-10h-11.14c-5.52 0-10 4.477-10 10v15.834c0 5.452-4.42 9.873-9.87 9.873-5.45 0-9.87 4.42-9.87 9.873v12.793a2.408 2.408 0 01-2.41 2.405 2.4 2.4 0 00-2.4 2.405v28.364a1.9 1.9 0 01-3.8 0v-12.031a2.529 2.529 0 00-2.53-2.531c-1.4 0-2.53-1.133-2.53-2.532V337.301c0-5.522-4.48-10-10-10h-33.29c-31.65 0-57.22 22.286-57.22 53.941v15.324c0 5.523-4.47 10-10 10h-.38c-9.11 0-16.45 15.701-16.45 24.311v27.226c0 5.523-4.48 10-10 10h-6.84c-5.52 0-10-4.477-10-10v-24.064c0-4.963-4.02-8.987-8.98-8.987a8.986 8.986 0 00-8.99 8.987v63.568a3.925 3.925 0 01-7.85 0v-36.469a2.15 2.15 0 00-2.15-2.152c-1.19 0-2.15-.963-2.15-2.151v-23.808a7.976 7.976 0 00-7.98-7.975c-4.4 0-7.97-3.57-7.97-7.974v-23.557c0-5.523-4.48-10-10-10h-14.68c-5.53 0-10 4.477-10 10v145.872c0 5.523 4.47 10 10 10H441.42c5.523 0 10-4.477 10-10V262.089c0-5.523-4.477-10-10-10h-11.265zM145.607 395.55a.886.886 0 01-.886.886h-1.646a.253.253 0 01-.253-.253v-.633c0-.49.397-.887.886-.887h1.013c.489 0 .886.397.886.887zm0-4.305a.887.887 0 01-.887.886h-1.012a.886.886 0 010-1.773h1.012c.49 0 .887.397.887.887zm0-4.559c0 .49-.397.887-.887.887h-1.012a.887.887 0 010-1.773h1.012c.49 0 .887.397.887.886zm0-4.558a.886.886 0 01-.886.886h-1.013a.886.886 0 010-1.772h1.013c.489 0 .886.396.886.886zm0-4.558a.887.887 0 01-.887.886h-1.012a.886.886 0 010-1.773h1.012c.49 0 .887.397.887.887zm0-4.559c0 .49-.397.887-.886.887h-1.013a.887.887 0 010-1.773h1.013c.489 0 .886.397.886.886zm0-4.305c0 .49-.397.887-.887.887h-1.012a.887.887 0 010-1.773h1.012c.49 0 .887.397.887.886z" fill="url(#paint2_linear_2596:282)"/><path d="M260.597 365.017c-43.962 0-79.527 75.466-79.527 168.479h159.147c0-93.107-35.659-168.479-79.62-168.479z" fill="url(#paint3_linear_2596:282)"/><path d="M260.597 365.017c-43.962 0-79.527 75.466-79.527 168.479h159.147c0-93.107-35.659-168.479-79.62-168.479z" fill="url(#paint4_linear_2596:282)"/><mask id="b" style="mask-type:alpha" maskUnits="userSpaceOnUse" x="181" y="365" width="160" height="169"><path d="M260.597 365.017c-43.962 0-79.527 75.466-79.527 168.479h159.147c0-93.107-35.659-168.479-79.62-168.479z" fill="url(#paint5_linear_2596:282)"/></mask><g mask="url(#b)"><path opacity=".2" d="M193.551 380.274c25.198-11.479 76.088-30.255 78.054-13.529 2.459 20.908-143.202 110.687-93.42 91.625 49.783-19.063 92.806-71.332 103.869-52.884 11.062 18.448-97.108 94.699-60.846 91.009 36.261-3.69 81.127-88.55 95.263-75.021 14.136 13.528-92.805 107.612-68.835 115.606 23.969 7.994 89.732-125.445 116.16-128.52" stroke="url(#paint6_linear_2596:282)" stroke-width="2"/></g><path opacity=".3" d="M329.904 533.496h10.315c0-93.107-35.66-168.479-79.621-168.479-1.732 0-3.451.117-5.156.348 41.559 5.623 74.462 78.695 74.462 168.131z" fill="#C9D983"/><path d="M348.813 410.698c-32.169 0-58.207 55.225-58.207 123.289h116.413c-.094-68.064-26.131-123.289-58.206-123.289z" fill="url(#paint7_linear_2596:282)"/><mask id="c" style="mask-type:alpha" maskUnits="userSpaceOnUse" x="290" y="410" width="118" height="124"><path d="M348.813 410.698c-32.169 0-58.207 55.225-58.207 123.289h116.413c-.094-68.064-26.131-123.289-58.206-123.289z" fill="url(#paint8_linear_2596:282)"/></mask><g mask="url(#c)"><path opacity=".2" d="M330.52 382.7c-22.836 37.197-59.421 103.962-23.076 73.435 45.431-38.157 88.698-25.918 70.67 0-18.028 25.919-70.67 12.24-65.622 39.598 4.038 21.887 62.737-10.559 91.582-29.518" stroke="url(#paint9_linear_2596:282)" stroke-width="2"/></g><path d="M119.67 350.772c-50.988 0-92.345 81.373-92.345 181.742h184.689c-.094-100.369-41.357-181.742-92.344-181.742z" fill="url(#paint10_linear_2596:282)"/><mask id="d" style="mask-type:alpha" maskUnits="userSpaceOnUse" x="27" y="350" width="186" height="183"><path d="M119.67 350.772c-50.988 0-92.345 81.373-92.345 181.742h184.689c-.094-100.369-41.357-181.742-92.344-181.742z" fill="url(#paint11_linear_2596:282)"/></mask><g mask="url(#d)"><path opacity=".2" d="M35.184 387.444c9.732-11.486 31.596-31.951 41.19-21.927 11.991 12.529-13.557 55.862 3.128 61.083 16.684 5.22 40.147-76.746 60.481-68.915 20.334 7.832-87.594 134.696-50.053 139.395 37.54 4.699 54.745-108.592 70.909-100.761 16.163 7.831-36.498 68.914-18.249 86.665 18.249 17.751 27.634-65.782 42.232-56.384 14.599 9.397 4.172 56.384-9.906 88.231" stroke="url(#paint12_linear_2596:282)" stroke-width="2"/></g><path opacity=".2" d="M191.382 532.514h20.63c-.094-100.369-41.356-181.742-92.344-181.742-3.487 0-6.929.381-10.315 1.122 46.124 10.097 81.941 87.115 82.029 180.62z" fill="#C9D983"/><path d="M251.258 421.134h-1.705v110.48h1.705v-110.48z" fill="#0C5E59"/><path d="M262.858 414.138c-3.667 0-7.078 2.645-9.466 5.034 1.621-2.304 3.838-5.119 5.543-5.631 2.985-.938 5.373-.512 5.373-.512s-2.729-3.839-6.823-2.047c-1.79.768-3.325 3.327-4.434 5.801.597-2.303 1.109-5.033.682-7.507-1.023-6.314-8.015-6.825-8.015-6.825s3.922 5.46 4.604 11.858c.086.853.171 1.706.256 2.474-.597-3.668-2.046-8.105-5.628-10.493-8.869-5.887-14.411 4.436-14.411 4.436s5.031-3.157 11.682.171c5.287 2.644 7.504 8.275 8.187 10.578-.853-1.706-4.52-8.19-10.319-9.128-8.783-1.45-11 9.64-11 9.64s5.031-4.009 11.256-3.754c4.861.256 8.272 2.219 9.977 3.754-.938-.256-2.899-.682-5.287-.768-7.76-.085-9.38 10.323-9.38 10.323l14.753-9.043c-.683 1.194-1.962 3.754-2.644 5.46-1.023 2.389-.341 7.764-.341 7.764s2.388-4.095 3.07-6.74c.682-2.56.512-5.204.426-6.484l9.978 10.835s2.472-6.569-5.117-9.726a80.522 80.522 0 00-2.558-1.024c1.791.256 4.008 1.024 6.31 2.474 4.349 2.816 7.163 6.74 7.163 6.74s2.729-7.934-3.922-11.176c-2.218-1.024-4.691-.938-6.822-.426 1.62-.939 3.752-1.621 6.225-1.28 6.054.768 7.76 5.033 7.76 5.033s1.705-9.811-7.078-9.811z" fill="url(#paint13_linear_2596:282)"/><path d="M186.197 353.23h-2.729v180.437h2.729V353.23z" fill="#0C5E59"/><path d="M203.831 337.678c-6.661 0-12.941 4.773-17.318 9.164 2.95-4.2 7.041-9.26 10.182-10.31 5.328-1.718 9.801-.859 9.801-.859s-5.044-7.065-12.466-3.723c-3.33 1.432-6.09 6.109-8.088 10.596 1.142-4.2 1.903-9.164 1.237-13.747-1.808-11.456-14.654-12.411-14.654-12.411s7.137 9.929 8.469 21.671c.19 1.528.285 3.055.381 4.487-1.142-6.778-3.807-14.892-10.277-19.189-16.082-10.692-26.168 8.211-26.168 8.211s9.23-5.728 21.315.382c9.515 4.773 13.607 15.179 14.939 19.284-1.617-3.151-8.183-14.893-18.841-16.707-15.986-2.673-20.077 17.662-20.077 17.662s9.135-7.351 20.458-6.874c8.754.382 15.13 4.01 18.27 6.874-1.618-.478-5.329-1.337-9.611-1.337-14.178-.191-17.128 18.807-17.128 18.807l26.929-16.516c-1.142 2.196-3.521 6.778-4.853 10.024-1.808 4.392-.666 14.129-.666 14.129s4.377-7.446 5.614-12.315c1.237-4.678.952-9.547.762-11.838l18.27 19.762s4.472-12.029-9.231-17.852a174.048 174.048 0 00-4.662-1.91c3.33.478 7.327 1.814 11.418 4.487 7.994 5.155 13.037 12.22 13.037 12.22s4.948-14.607-7.232-20.335c-3.997-1.909-8.564-1.622-12.465-.763 2.949-1.719 6.756-2.96 11.418-2.387 11.038 1.337 14.083 9.26 14.083 9.26s3.14-18.043-12.846-17.947z" fill="url(#paint14_linear_2596:282)"/><path d="M127.585 512.438a81.912 81.912 0 00-8.272-22.096 51.265 51.265 0 00-1.705-2.901c-4.349-7.251-9.721-13.735-15.947-19.366-.767-.767-1.62-1.45-2.472-2.132a82.516 82.516 0 00-22.428-13.309c-1.023-.427-2.047-.768-3.07-1.109-8.186-2.901-17.055-4.522-26.18-4.692h-3.24c-9.21.17-17.993 1.791-26.18 4.692-1.023.341-2.046.768-3.07 1.109a82.516 82.516 0 00-22.427 13.309c-.852.682-1.705 1.45-2.473 2.132-6.225 5.631-11.682 12.115-15.946 19.366-.597.939-1.109 1.963-1.706 2.901a81.954 81.954 0 00-8.271 22.096c-.256 1.109-.427 2.218-.682 3.327a82.86 82.86 0 00-1.28 14.589h167.225c0-4.949-.426-9.897-1.279-14.589-.17-1.109-.341-2.218-.597-3.327z" fill="url(#paint15_linear_2596:282)"/><path opacity=".3" d="M44.273 446.749v83.606h3.24v-83.606h-3.24z" fill="url(#paint16_linear_2596:282)"/><path opacity=".3" d="M15.021 452.635L35.83 530.44h3.325l-21.148-78.914c-.938.341-1.961.683-2.985 1.109z" fill="url(#paint17_linear_2596:282)"/><path opacity=".3" d="M-9.879 468.077l35.986 62.278h3.667l-37.18-64.411c-.853.682-1.705 1.45-2.473 2.133z" fill="url(#paint18_linear_2596:282)"/><path opacity=".3" d="M-27.53 490.343l40.08 40.097h4.52l-42.979-42.998c-.512.939-1.109 1.963-1.62 2.901z" fill="url(#paint19_linear_2596:282)"/><path opacity=".3" d="M52.546 530.44h3.326l20.807-77.805c-1.023-.426-2.047-.768-3.07-1.109L52.546 530.44z" fill="url(#paint20_linear_2596:282)"/><path opacity=".3" d="M61.925 530.44h3.752l35.986-62.278c-.768-.768-1.62-1.45-2.473-2.133L61.925 530.44z" fill="url(#paint21_linear_2596:282)"/><path d="M74.633 530.44h4.52l40.079-40.097a51.895 51.895 0 00-1.706-2.901L74.633 530.44z" fill="url(#paint22_linear_2596:282)" opacity=".3"/><path d="M96.458 530.44h6.481l25.327-14.588c-.171-1.109-.427-2.218-.682-3.327L96.458 530.44z" fill="#084F15"/><path d="M190.179 519.008c-1.109-4.948-2.9-9.725-5.287-14.076a36.628 36.628 0 01-1.024-1.877c-2.729-4.607-6.14-8.702-10.148-12.285-.511-.427-1.023-.939-1.62-1.365-4.264-3.498-9.039-6.399-14.241-8.446a13.296 13.296 0 00-1.961-.683c-5.202-1.876-10.83-2.9-16.629-2.986h-2.046c-5.799.086-11.427 1.195-16.629 2.986-.682.256-1.279.427-1.961.683-5.202 2.047-9.978 4.948-14.241 8.446-.512.426-1.024.938-1.621 1.365-4.008 3.583-7.418 7.678-10.147 12.285a36.99 36.99 0 00-1.024 1.877 52.7 52.7 0 00-5.287 14.076c-.17.683-.255 1.451-.426 2.133-.512 2.986-.853 6.143-.853 9.299h106.253c0-3.156-.256-6.313-.853-9.299.086-.768-.085-1.45-.255-2.133z" fill="url(#paint23_linear_2596:282)"/><path opacity=".3" d="M137.223 477.29v53.15h2.046v-53.15h-2.046z" fill="url(#paint24_linear_2596:282)"/><path opacity=".3" d="M118.716 480.959l13.217 49.396h2.132l-13.388-50.164c-.682.341-1.364.512-1.961.768z" fill="url(#paint25_linear_2596:282)"/><path opacity=".3" d="M102.856 490.855l22.854 39.585h2.388l-23.621-40.95c-.597.427-1.109.853-1.621 1.365z" fill="url(#paint26_linear_2596:282)"/><path opacity=".3" d="M91.603 504.932l25.497 25.423h2.899l-27.288-27.3c-.341.682-.767 1.279-1.108 1.877z" fill="url(#paint27_linear_2596:282)"/><path opacity=".3" d="M85.972 521.141l16.117 9.299h4.093l-19.784-11.432c-.17.683-.341 1.365-.426 2.133z" fill="url(#paint28_linear_2596:282)"/><path opacity=".3" d="M142.508 530.44h2.132l13.217-49.396a13.18 13.18 0 00-1.961-.682l-13.388 50.078z" fill="url(#paint29_linear_2596:282)"/><path opacity=".3" d="M148.479 530.44h2.388l22.854-39.585c-.512-.426-1.023-.938-1.62-1.365l-23.622 40.95z" fill="url(#paint30_linear_2596:282)"/><path opacity=".3" d="M156.58 530.44h2.899l25.498-25.423a37.786 37.786 0 01-1.024-1.877l-27.373 27.3z" fill="url(#paint31_linear_2596:282)"/><path opacity=".3" d="M170.396 530.44h4.094l16.117-9.299c-.085-.682-.256-1.45-.427-2.133l-19.784 11.432z" fill="url(#paint32_linear_2596:282)"/><path d="M403.547 524.71h-969.384v71.492h969.384V524.71z" fill="url(#paint33_linear_2596:282)"/><mask id="e" style="mask-type:alpha" maskUnits="userSpaceOnUse" x="-566" y="524" width="970" height="73"><path d="M403.547 524.71h-969.384v71.492h969.384V524.71z" fill="url(#paint34_linear_2596:282)"/></mask><g mask="url(#e)"><path opacity=".7" fill-rule="evenodd" clip-rule="evenodd" d="M-153.673 553.325c-6.442 6.784-13.078 11.484-20.215 11.159-1.766-.08-3.212-.444-4.309-1.141-1.127-.715-1.816-1.739-2.111-2.971-.288-1.199-.195-2.553.137-3.977.333-1.432.922-2.998 1.691-4.653 2.813-6.05 8.254-13.723 13.503-21.126l1.375-1.94c2.841-4.015 5.56-7.911 7.736-11.418 2.189-3.527 3.771-6.574 4.403-8.903.315-1.164.364-2.049.211-2.685-.14-.582-.455-1-1.048-1.291-.643-.316-1.663-.502-3.208-.414-1.531.088-3.493.439-5.954 1.11-4.824 1.316-10.216 4.356-16.067 8.717-5.841 4.354-12.08 9.979-18.597 16.401-9.186 9.053-18.871 19.636-28.726 30.405l-.001.001v.001c-4.138 4.521-8.306 9.075-12.479 13.563-14.085 15.145-28.229 29.524-41.379 39.129-13.08 9.554-25.529 14.647-36.059 10.498-5.187-2.043-7.875-5.013-8.194-8.817-.307-3.658 1.631-7.739 4.726-11.942 6.221-8.449 17.767-18.227 28.941-27.589l1.274-1.067c5.171-4.33 10.23-8.567 14.65-12.56 4.79-4.327 8.778-8.323 11.328-11.796 1.275-1.737 2.156-3.298 2.611-4.667.452-1.364.46-2.465.098-3.36-.36-.891-1.152-1.743-2.634-2.477-1.492-.739-3.619-1.325-6.515-1.696-9.188-1.178-21.012 1.593-34.224 7.014-13.184 5.41-27.625 13.404-41.997 22.526-28.744 18.242-57.117 40.927-74.456 56.25l-1.324-1.498c17.397-15.374 45.854-38.129 74.708-56.441 14.426-9.155 28.976-17.216 42.309-22.687 13.304-5.459 25.524-8.393 35.238-7.148 3.011.386 5.381 1.012 7.148 1.888 1.777.88 3.006 2.044 3.602 3.52.594 1.471.493 3.087-.055 4.739-.547 1.645-1.559 3.397-2.897 5.22-2.676 3.646-6.791 7.754-11.6 12.098-4.449 4.019-9.537 8.28-14.7 12.603l-1.279 1.072c-11.243 9.42-22.568 19.029-28.616 27.242-3.039 4.127-4.585 7.696-4.343 10.589.23 2.746 2.124 5.229 6.934 7.124 9.463 3.728 21.098-.722 34.146-10.253 12.978-9.479 27.006-23.728 41.094-38.876 4.146-4.458 8.298-8.995 12.427-13.507l.001-.001c9.872-10.787 19.614-21.433 28.839-30.524 6.548-6.453 12.861-12.149 18.806-16.581 5.935-4.423 11.562-7.631 16.735-9.042 2.537-.692 4.646-1.079 6.367-1.178 1.708-.097 3.122.084 4.204.615 1.132.557 1.833 1.465 2.111 2.62.264 1.1.131 2.359-.226 3.675-.713 2.632-2.434 5.89-4.633 9.434-2.212 3.565-4.965 7.507-7.804 11.519-.446.631-.893 1.263-1.342 1.895-5.29 7.463-10.623 14.985-13.354 20.859-.736 1.582-1.266 3.012-1.557 4.263-.293 1.258-.329 2.273-.141 3.058.181.751.572 1.325 1.239 1.749.698.443 1.761.76 3.327.831 6.192.282 12.279-3.803 18.674-10.538 5.182-5.457 10.401-12.47 15.897-19.853l.006-.008.005-.008c1.253-1.683 2.52-3.385 3.804-5.092 6.892-9.164 14.257-18.446 22.434-25.435 8.182-6.995 17.266-11.771 27.591-11.771v2c-9.668 0-18.306 4.464-26.292 11.291-7.993 6.832-15.244 15.953-22.135 25.117a1138.345 1138.345 0 00-3.773 5.053l-.004.004c-5.499 7.389-10.809 14.526-16.082 20.079zm287.821-39.908c-1.428-2.239-4.034-3.605-8.664-3.46-9.191.287-18.026 7.721-26.746 19.165-8.675 11.384-17.007 26.422-25.272 41.36l-.12.219c-8.202 14.823-16.344 29.538-24.634 40.256-4.167 5.388-8.413 9.822-12.773 12.758-4.37 2.944-8.913 4.42-13.62 3.771-4.622-.638-7.73-2.586-9.521-5.623-1.759-2.982-2.148-6.849-1.732-11.141.83-8.573 4.945-19.466 9.096-30.032.324-.826.649-1.649.972-2.469l.028-.072c3.842-9.748 7.51-19.053 8.657-26.109.625-3.846.458-6.797-.632-8.752-1.029-1.845-3.022-3.037-6.731-3.037-3.626 0-7.175 1.6-10.73 4.558-3.559 2.962-7.057 7.228-10.555 12.419-5.864 8.702-11.625 19.836-17.624 31.433v.002c-1.165 2.25-2.339 4.519-3.524 6.79-7.267 13.928-14.958 27.95-23.59 38.492-8.618 10.524-18.34 17.785-29.704 17.785-5.592 0-9.33-1.456-11.355-4.34-1.994-2.84-2.099-6.759-1.212-11.135.893-4.408 2.843-9.517 5.264-14.943 2.052-4.599 4.465-9.474 6.9-14.392l1.324-2.679c5.78-11.711 11.29-23.36 12.4-32.358.553-4.478-.009-8.121-1.995-10.776-1.976-2.642-5.523-4.519-11.425-5.109-19.045-1.904-38.393 6.428-54.923 17.763-16.513 11.323-30.071 25.545-37.489 35.169l-1.584-1.221c7.527-9.764 21.232-24.139 37.942-35.597 16.691-11.445 36.522-20.077 56.253-18.104 6.215.622 10.392 2.645 12.828 5.901 2.425 3.242 2.962 7.495 2.378 12.219-1.16 9.405-6.86 21.384-12.591 32.999l-1.312 2.652-.018.036v.002c-2.436 4.919-4.828 9.751-6.862 14.31-2.406 5.393-4.281 10.339-5.13 14.526-.855 4.22-.62 7.439.89 9.588 1.477 2.105 4.404 3.489 9.717 3.489 10.448 0 19.659-6.674 28.157-17.052 8.484-10.361 16.09-24.209 23.364-38.15 1.176-2.254 2.343-4.51 3.504-6.754v-.001c5.998-11.594 11.823-22.856 17.759-31.663 3.545-5.26 7.166-9.703 10.934-12.838 3.772-3.138 7.759-5.021 12.009-5.021 4.167 0 6.983 1.382 8.477 4.063 1.433 2.569 1.502 6.094.86 10.047-1.185 7.282-4.934 16.792-8.744 26.457l-1.026 2.603c-4.18 10.639-8.168 21.254-8.966 29.494-.399 4.114.017 7.48 1.463 9.932 1.414 2.396 3.91 4.083 8.073 4.658 4.078.562 8.131-.689 12.229-3.448 4.108-2.767 8.202-7.014 12.308-12.324 8.196-10.596 16.278-25.203 24.523-40.105l.063-.114c8.245-14.901 16.65-30.08 25.431-41.605 8.737-11.465 18.078-19.633 28.275-19.951 5.064-.158 8.479 1.353 10.412 4.383 1.869 2.931 2.187 7.05 1.709 11.732-.483 4.718-1.799 10.215-3.416 16.057a587.008 587.008 0 01-2.6 9.02l-.04.139a665.569 665.569 0 00-2.647 9.163c-1.739 6.236-3.278 12.445-4.125 18.253-.849 5.816-.994 11.166.01 15.702.999 4.512 3.126 8.196 6.832 10.772 3.728 2.591 9.164 4.14 16.919 4.14v2c-7.998 0-13.884-1.594-18.061-4.498-4.199-2.919-6.558-7.083-7.642-11.981-1.079-4.874-.902-10.496-.037-16.423.866-5.935 2.432-12.241 4.177-18.502.86-3.083 1.765-6.164 2.654-9.187l.042-.142a606.864 606.864 0 002.591-8.989c1.612-5.826 2.889-11.187 3.353-15.727.468-4.576.086-8.116-1.405-10.453zm234.613 70.38c-1.411-4.702-4.364-9.827-8.27-15.135-3.913-5.317-8.821-10.872-14.196-16.436-8.956-9.273-19.259-18.626-28.483-27-1.842-1.671-3.64-3.304-5.377-4.89-5.226-4.771-9.882-9.108-13.471-12.8-3.625-3.729-6.041-6.685-6.924-8.71-.447-1.027-.375-1.528-.247-1.752.124-.216.53-.566 1.791-.692 2.498-.248 7.134.507 14.57 2.631l.549-1.923c-7.408-2.116-12.39-2.989-15.317-2.698-1.45.144-2.708.606-3.328 1.687-.616 1.075-.369 2.358.149 3.546 1.048 2.406 3.725 5.603 7.323 9.305 3.635 3.74 8.331 8.112 13.557 12.883 1.745 1.594 3.549 3.232 5.395 4.908 9.225 8.374 19.468 17.673 28.374 26.894 5.342 5.531 10.184 11.014 14.024 16.233 3.848 5.228 6.65 10.139 7.965 14.524.673 2.241 1.061 4.029 1.205 5.423.146 1.413.027 2.313-.207 2.849-.201.461-.492.678-.95.76-.539.096-1.346.004-2.478-.383-2.251-.768-5.318-2.528-9.093-5.04-3.755-2.499-8.129-5.685-12.979-9.246l-.901-.663-.922-.677c-9.296-6.833-20.158-14.817-31.493-21.768-12.075-7.404-24.765-13.686-36.749-16.144-5.914-1.213-10.094-1.731-12.786-1.586-1.33.072-2.449.31-3.234.833a2.568 2.568 0 00-.947 1.093 2.637 2.637 0 00-.188 1.405c.111.901.606 1.854 1.274 2.805.683.974 1.622 2.053 2.759 3.219 2.273 2.333 5.42 5.105 9.094 8.212 2.181 1.843 4.551 3.807 7.046 5.875 5.945 4.928 12.604 10.446 19.114 16.331 9.241 8.352 18.103 17.374 24.092 26.357 1.497 2.246 2.475 4.028 3.01 5.404.552 1.417.558 2.215.409 2.618-.104.28-.366.57-1.216.68-.874.112-2.152-.011-3.853-.404-3.38-.783-8.067-2.546-13.76-4.98-5.679-2.428-12.301-5.497-19.536-8.869l-1.806-.841v-.001c-14.047-6.547-30.219-14.086-46.066-20.144-16.51-6.313-32.775-11.062-45.982-11.369-5.266-.123-9.235.398-12.043 1.515-2.844 1.131-4.577 2.913-5.137 5.283-.543 2.296.074 4.924 1.388 7.669 1.323 2.764 3.417 5.781 6.034 8.923 10.451 12.55 29.752 27.699 44.305 37.806l1.141-1.643c-14.529-10.089-33.64-25.112-43.909-37.443-2.563-3.078-4.544-5.951-5.767-8.507-1.233-2.575-1.635-4.699-1.246-6.345.372-1.573 1.52-2.926 3.93-3.885 2.446-.972 6.103-1.494 11.258-1.374 12.845.299 28.842 4.94 45.314 11.238 15.779 6.032 31.893 13.544 45.954 20.098l1.787.833c7.23 3.369 13.881 6.453 19.595 8.895 5.7 2.437 10.527 4.263 14.095 5.089 1.774.411 3.329.598 4.56.439 1.256-.162 2.373-.725 2.834-1.967.416-1.119.176-2.511-.419-4.04-.611-1.57-1.678-3.489-3.21-5.787-6.128-9.193-15.139-18.347-24.415-26.732-6.544-5.915-13.26-11.481-19.217-16.418-2.485-2.06-4.839-4.011-6.993-5.831-3.671-3.104-6.753-5.823-8.953-8.081-1.1-1.129-1.958-2.121-2.554-2.971-.611-.872-.876-1.496-.926-1.901-.022-.184.004-.288.031-.349.026-.059.082-.143.228-.24.331-.221 1.008-.435 2.232-.501 2.415-.13 6.376.338 12.277 1.548 11.644 2.388 24.098 8.527 36.106 15.89 11.26 6.906 22.06 14.843 31.366 21.684l1.811 1.331c4.844 3.557 9.255 6.771 13.055 9.299 3.779 2.515 7.035 4.408 9.555 5.268 1.254.428 2.445.643 3.475.459 1.111-.199 1.961-.85 2.432-1.928.438-1.002.523-2.31.363-3.856-.161-1.566-.587-3.488-1.278-5.792z" fill="url(#paint35_linear_2596:282)"/><path opacity=".1" d="M-275.504 549.729c-99.654 0-116.386 33.1-292.152 33.1v52.148h971.202V523.498c-213.243 0-185.796 46.528-369.48 46.528-183.683 0-223.27-20.297-309.57-20.297z" fill="url(#paint36_linear_2596:282)"/></g><path d="M723.651-5.61h-1285v800.001h1185c55.229 0 100-44.772 100-100v-700z" fill="url(#paint37_linear_2596:282)"/></g><path opacity=".56" d="M473.301 412.752c84.417-84.454 84.417-221.381 0-305.835-84.417-84.454-221.284-84.454-305.701 0-84.417 84.454-84.417 221.381 0 305.835 84.417 84.454 221.284 84.454 305.701 0z" fill="url(#paint38_linear_2596:282)"/><path opacity=".2" d="M213.08 556.539c61.738-61.766 61.738-161.907 0-223.673-61.739-61.766-161.837-61.766-223.576 0-61.738 61.766-61.738 161.907 0 223.673 61.739 61.766 161.837 61.766 223.576 0z" fill="url(#paint39_linear_2596:282)"/><path d="M21.558 625.134a88.129 88.129 0 00-8.88-23.746 55.243 55.243 0 00-1.83-3.118C6.179 590.477.412 583.509-6.271 577.458c-.824-.825-1.74-1.558-2.655-2.292A88.586 88.586 0 00-33 560.864c-1.099-.459-2.197-.825-3.296-1.192-8.788-3.117-18.308-4.859-28.103-5.043h-3.48c-9.886.184-19.315 1.926-28.103 5.043-1.098.367-2.197.825-3.295 1.192a88.585 88.585 0 00-24.076 14.302c-.916.734-1.831 1.559-2.655 2.292-6.682 6.051-12.541 13.019-17.118 20.812-.641 1.009-1.19 2.109-1.831 3.118a88.133 88.133 0 00-8.88 23.746c-.274 1.191-.458 2.383-.732 3.575a89.094 89.094 0 00-1.373 15.678H23.572c0-5.318-.457-10.635-1.373-15.678-.183-1.192-.366-2.384-.64-3.575z" fill="#fff"/><path fill-rule="evenodd" clip-rule="evenodd" d="M223.262 416.935c-.171 4.255-.663 8.027-1.173 11.926l-.083.638c-.538 4.128-1.435 8.255-2.332 12.382l-.001.003c-1.794 8.257-4.126 16.334-7.356 24.411l-1.256 3.052-.358.718-.18.358c0 .075-.031.118-.067.169-.051.073-.112.16-.112.37-.359.897-.897 1.795-1.794 2.692-.718.898-1.794 1.616-2.871 2.333v.001c-1.076.538-2.332.897-3.409 1.077-2.153.179-3.947-.18-5.382-.539-2.871-.897-4.845-2.154-6.818-3.59-1.973-1.256-3.588-2.691-5.202-4.127l-.001-.001c-6.335-5.81-11.462-11.965-16.228-18.635-3.584-1.275-6.558-4.34-6.558-4.34l4.103-12.848-4.102 12.668-9.15-5.564 2.691-10.949 10.585 3.769v.001l7.177 11.308-.042 1.439.221-.183c1.435 1.346 2.915 2.692 4.396 4.039 1.48 1.346 2.96 2.692 4.395 4.038 3.05 2.692 6.1 5.025 9.149 7.359h.001c.468.312.921.624 1.367.932h.001c1.094.754 2.15 1.482 3.297 2.12 1.257.785 2.651 1.296 3.701 1.652l.246-.575 1.077-2.693c2.511-7.179 4.485-14.718 5.92-22.436.386-2.025.72-4.102 1.057-6.203.291-1.809.585-3.637.917-5.464.538-3.77 1.076-7.898 1.256-11.488l12.918.18zm-22.675 48.892c.307.042.39-.07.248-.07-.05 0-.14.027-.248.07z" fill="url(#paint40_linear_2596:282)"/><path d="M216.701 400.368c-5.383 1.436-9.33 23.873-9.33 23.873l15.071 10.231s14.353-22.616 10.227-28.719c-4.486-6.282-8.074-7.538-15.968-5.385z" fill="#FFEDBA"/><path opacity=".3" d="M217.06 405.394l-4.126 22.616 8.432 5.744-4.306-28.36z" fill="#ED6B57"/><path d="M247.998 684.596h-17.73l-.958-30.064h17.49l1.198 30.064z" fill="#FFC3BD"/><path d="M230.078 682.97h17.909c.647 0 1.079.445 1.295 1.113l1.942 14.684c.215 1.557-1.079 2.892-2.589 2.892-6.258 0-9.279-.445-17.046-.445-4.747 0-14.888.445-21.577.445-6.473 0-7.12-6.897-4.315-7.342 12.514-2.67 17.477-6.674 21.576-10.234.864-.668 1.942-1.113 2.805-1.113z" fill="#14365B"/><path d="M229.31 655.344l.47 11.376h17.405l-.705-11.376h-17.17z" fill="#F29994"/><path d="M227.683 662.065s-10.478-92.797-11.375-134.799c-.291-13.605 1.542-32.5 3.25-45.399h28.439l-1.872 45.399c-1.615 41.284 1.872 134.799 1.872 134.799h-20.314z" fill="url(#paint41_linear_2596:282)"/><path d="M220.391 399.981s-2.286 7.248-2.843 13.599c-.615 7.002-7.332 19.534-3.436 26.847 9.104 11.782 4.568 29.792 6.279 40.407h53.825c-.897-21.898-.897-35.36 9.509-80.413 0 0-11.303-2.513-22.786-3.051-8.971-.359-16.506-.718-24.4 0-10.586.897-16.148 2.611-16.148 2.611z" fill="#FFEDBA"/><path d="M258.429 369.728c-1.615 7.898-3.05 22.257 2.332 27.462 0 0-2.153 7.898-16.685 7.898-16.148 0-7.715-7.898-7.715-7.898 8.791-2.153 8.612-8.615 6.997-14.718l15.071-12.744z" fill="url(#paint42_linear_2596:282)"/><path d="M252.327 374.933l-8.791 7.539c.359 1.436.718 2.872.718 4.308 3.409-.539 7.894-4.128 8.253-7.718.179-1.616.179-3.231-.18-4.129z" fill="#F29994"/><path d="M231.071 363.258c-5.758-8.637-3.941-16.622 0-21.077h15.422c.514 6.854 1.542 21.282 1.542 24.161 0 2.879 14.737-2.056 13.366 1.028-3.427-.685-24.573 4.524-30.33-4.112z" fill="#0F264C"/><path d="M266.681 355.369c-3.05 12.744-4.127 18.308-11.842 23.693-11.662 8.256-26.553 1.615-27.45-11.847-.718-12.026 4.485-31.052 17.941-33.924 13.636-2.692 24.58 9.334 21.351 22.078z" fill="url(#paint43_linear_2596:282)"/><path d="M250.975 663.47h-25.399l-1.954-8.087 28.439-.851-1.086 8.938z" fill="#4B2A2A"/><path d="M243.537 506.143c-5.964 11.934-3.817 30.76-2.85 46.821 1.185 19.691 2.254 36.45 4.823 46.335 2.333-27.103 6.459-60.309 9.509-84.541-1.794-13.821-5.382-20.821-11.482-8.615z" fill="#EE4D47" fill-opacity=".29" style="mix-blend-mode:multiply"/><path d="M297.97 660.219l-17.063-69.066v-67.847l-5.029-41.033h-30.47c-3.575 22.751 4.351 85.046 10.716 117.412l19.754 60.534h22.092z" fill="url(#paint44_linear_2596:282)"/><path d="M285.374 685.002l-4.875-19.501h17.063l2.844 19.501h-15.032z" fill="#FFC3BD"/><path d="M278.919 693.446l5.867-8.851h15.506c1.774 1.063 2.652 7.301 3.223 12.047.302 2.509-1.277 4.913-3.705 5.61l-12.091 3.469h-19.042a2.749 2.749 0 01-2.749-2.802c0-5.497 9.059-9.015 12.991-9.473z" fill="#14365B"/><path fill-rule="evenodd" clip-rule="evenodd" d="M297.977 668.345l-.415-2.844h-17.063l.711 2.844h16.767z" fill="#F29994"/><path d="M301.352 665.907h-25.399l-1.954-8.087 28.439-.851-1.086 8.938z" fill="#4B2A2A"/><circle r="15.422" transform="matrix(1 0 0 -1 274.253 351.948)" fill="#0F264C"/><path d="M246.443 355.353c.191-1.074-.209-2.042-.892-2.163-.683-.122-1.391.651-1.581 1.725-.19 1.073.21 2.042.893 2.163s1.39-.651 1.58-1.725zm-11.876-1.959c-.179 1.077-.897 1.795-1.614 1.616-.718-.18-1.077-1.077-.898-2.154.18-1.077.898-1.795 1.615-1.616.718.18 1.077 1.077.897 2.154z" fill="#0F264C"/><path d="M234.028 351.42l-2.333-1.257c-.179 0 .897 2.154 2.333 1.257z" fill="#0F264C"/><path d="M237.437 355.728s-2.512 4.128-5.024 6.102c1.077 1.616 3.588 1.436 3.588 1.436l1.436-7.538z" fill="#ED847E"/><path d="M242.073 369.33c-.792 0-1.584 0-2.64-.258-.264 0-.528-.258-.264-.516 0-.258.264-.516.528-.258 6.864 1.29 10.825-2.837 10.825-2.837.264-.258.528-.258.528 0 .264.258.264.516 0 .516 0 0-3.168 3.353-8.977 3.353z" fill="#0F264C"/><path d="M273.689 343.964c5.98 14.253-6.302 21.543-13.191 23.406l6.596-12.926-1.32-6.986c-6.009-3.727-16.444-11.319-10.113-11.878 7.915-.699 15.829 3.144 18.028 8.384z" fill="#D3D86C"/><path d="M246.048 332.394c-5.921 3.41 8.612 35.539 19.377 31.052 10.765-4.487 7.176-22.437 1.973-26.924-5.382-4.667-13.097-8.975-21.35-4.128z" fill="#0F264C"/><path d="M271.683 343.723c6.991 20.974-7.368 31.701-15.422 34.443l7.711-19.021-1.542-10.281c-7.026-5.484-19.227-16.656-11.824-17.479 9.253-1.028 18.507 4.627 21.077 12.338z" fill="#0F264C"/><path d="M242.637 330.778s-7.176 1.077-11.841 9.872c-4.844 8.975 22.606-8.615 18.659-9.872-3.768-1.256-6.818 0-6.818 0z" fill="#0F264C"/><path d="M267.218 365.061c-1.076 2.513-3.05 4.308-5.203 5.206-3.05 1.256-5.023-1.436-4.485-4.667.538-2.872 2.691-6.821 6.1-6.821 3.229 0 4.844 3.231 3.588 6.282z" fill="url(#paint45_linear_2596:282)"/><path fill-rule="evenodd" clip-rule="evenodd" d="M289.462 414.422c3.05 7.18 5.383 14.359 7.536 21.718 2.152 7.36 3.947 14.898 4.844 22.796.179 1.974.358 3.949.538 6.103v1.615c0 .026.004.077.009.15.031.44.119 1.671-.189 2.902-.179.718-.538 1.615-1.076 2.333-.538.898-1.256 1.615-1.974 2.154-1.614 1.077-3.05 1.436-4.126 1.615-.744.124-1.401.077-1.974.036-.256-.018-.495-.036-.717-.036a8.838 8.838 0 00-.991-.171c-.36-.048-.697-.092-.983-.188a33.83 33.83 0 01-3.229-1.077c-1.974-.897-3.768-1.794-5.562-2.692-6.818-3.949-12.918-8.436-18.659-13.462l.091-.134c-2.441-1.241-4.37-3.564-5.441-5.073l-8.286-9.152 5.383-10.052 9.15 6.282v.001l4.379 13.32.915.459c5.688 2.855 11.479 5.762 17.133 8.118 1.127.502 2.255.916 3.322 1.242a44.785 44.785 0 01-.272-1.96c-.538-3.409-1.435-6.819-2.332-10.228l-.001-.003c-.448-1.705-.942-3.455-1.435-5.205-.493-1.75-.987-3.5-1.435-5.205-2.153-6.821-4.665-13.821-7.177-20.462l12.559-5.744z" fill="#FFC3BD"/><path d="M249.814 348.548c-.18 0-.359 0-.538-.179-1.974-1.975-4.127-1.616-4.306-1.616-.359 0-.718-.179-.718-.538 0-.359.179-.718.538-.718.18 0 3.05-.539 5.383 1.974.179.18.179.718 0 .898-.18.179-.18.179-.359.179zm-19.555-1.616c-.179 0-.359 0-.359-.179-.179-.18-.179-.718 0-.897 2.333-2.513 5.203-1.975 5.383-1.975.358 0 .538.359.538.718s-.359.539-.718.539c-.179 0-2.332-.359-4.306 1.615-.179.179-.359.179-.538.179z" fill="#0F264C"/><path d="M283.724 400.242c5.382 1.615 11.841 20.283 11.841 20.283l-20.991 14.898s-7.715-15.437-5.383-22.437c2.512-7.18 8.433-14.539 14.533-12.744z" fill="#FFEDBA"/><path d="M221.361 684.596c-2.226 0-4.452-.325-5.724-1.624-.635-.65-.953-1.624-.953-2.923 0-.65.318-1.3.953-1.624 2.862-1.624 12.083 3.247 13.354 3.897.318 0 .318.325.318.65 0 .324-.318.324-.318.324-2.225.975-5.087 1.3-7.63 1.3zm-4.134-4.872c-.318 0-.636 0-.954.325-.318 0-.318.324-.318.649 0 .65 0 1.299.636 1.949 1.272 1.299 5.405 1.624 10.493.649-3.498-1.948-7.631-3.572-9.857-3.572z" fill="#9FC6FF"/><path d="M228.673 683.783c-3.188-1.182-8.606-5.909-8.287-8.273 0-.591.637-1.182 2.231-1.477 1.275 0 2.231.295 3.187.886 2.869 2.364 3.506 8.273 3.506 8.273 0 .295 0 .295-.319.591h-.318zm-5.738-8.864h-.318c-.956 0-.957.591-.957.591-.318 1.477 3.506 5.318 6.375 6.795-.319-1.772-.956-5.318-2.868-6.795-.638-.296-1.275-.591-2.232-.591zm58.247 12.044c-1.745-1.282-3.302-2.818-3.55-4.569-.125-.875.187-1.822.935-2.84.375-.509.998-.835 1.683-.723 3.178.375 7.599 9.503 8.221 10.744.25.184.062.438-.125.693-.187.254-.436.071-.436.071-2.305-.518-4.735-1.912-6.728-3.376zm-.434-6.199c-.249-.183-.498-.366-.935-.294-.249-.184-.436.071-.623.326-.374.509-.748 1.018-.624 1.893.249 1.75 3.301 4.385 7.849 6.551-1.619-3.541-3.923-7.194-5.667-8.476z" fill="#9FC6FF"/><path d="M287.378 690.536c-1.817-2.761-3.341-9.587-1.73-11.256.34-.463 1.18-.559 2.599.127 1 .735 1.579 1.517 1.988 2.531.887 3.504-2.017 8.502-2.017 8.502-.17.232-.17.232-.59.28l-.25-.184zm.609-10.25l-.25-.184c-.749-.551-1.09-.087-1.09-.087-1.1.974-.315 6.187 1.082 8.996.772-1.573 2.314-4.718 1.666-6.977-.329-.599-.659-1.198-1.408-1.748z" fill="#9FC6FF"/><path d="M274.934 477.603l1.435 4.847c.179.359-.179.718-.897.718h-55.439c-.538 0-.897-.18-.897-.539l-.538-4.846c0-.359.358-.539.897-.539h54.542c.538-.179.897 0 .897.359z" fill="#F18069"/><path d="M267.756 483.706h1.435c.359 0 .538-.179.538-.359l-.717-6.282c0-.18-.359-.359-.538-.359h-1.436c-.359 0-.538.179-.538.359l.718 6.282c0 .18.179.359.538.359zm-43.596 0h1.436c.358 0 .538-.179.538-.359l-.718-6.282c0-.18-.359-.359-.538-.359h-1.435c-.359 0-.539.179-.539.359l.718 6.282c0 .18.359.359.538.359zm21.707 0h1.436c.358 0 .538-.179.538-.359l-.718-6.282c0-.18-.359-.359-.538-.359h-1.435c-.359 0-.539.179-.539.359l.718 6.282c0 .18.359.359.538.359z" fill="#6A2828"/><path d="M245.869 353.394l-2.333-1.256c0 .179.897 2.333 2.333 1.256z" fill="#0F264C"/><path d="M120.346 352.005h-13.542l-1.834-8.185s5.36 3.105 6.63.988c1.269-2.117.987-1.27 2.257-.988 1.269.282 1.269-1.411 2.821-.423 1.693 1.129 4.232 6.492 3.668 8.608z" fill="#6B1912"/><path d="M106.38 688.307l16.645-1.411-.846-20.604-16.786 1.552.987 20.463z" fill="#D88D6C"/><path d="M137.415 685.484s-11.003-5.08-12.837-8.749c0 0-3.245-11.855-8.182-5.645 0 0-5.078 4.092-12.272.846l-.847 22.439 49.796-.141c-1.27-3.387-2.398-7.197-15.658-8.75z" fill="url(#paint46_linear_2596:282)"/><path d="M103.276 694.517l-.282 3.528 50.219-.141c0-1.412.423-2.117-.282-3.528l-49.655.141z" fill="#C73E39"/><path d="M33.452 685.485l16.646 2.822 4.373-20.04-16.505-2.822-4.514 20.04z" fill="#D88D6C"/><path d="M65.473 685.485s-11.003-5.081-12.837-8.75c0 0 2.54-9.315-3.385-4.657 0 0-10.157 3.81-14.389-.847l-3.385 23.286 49.795-.141c-1.552-3.529-2.68-7.339-15.8-8.891z" fill="url(#paint47_linear_2596:282)"/><path d="M31.335 694.517l-.282 3.528 50.218-.141c0-1.412.424-2.117-.282-3.528l-49.654.141z" fill="#C73E39"/><path d="M125.847 494.119s2.962 84.816.282 181.204c0 0-8.041 7.621-23.275 2.541 0 0 .141-107.256-3.95-149.875 0 0-19.185 81.005-43.448 151.145 0 0-16.222 3.104-22.006-6.069 0 0 32.727-113.605 37.523-178.946h54.874z" fill="url(#paint48_linear_2596:282)"/><path d="M125.847 494.119H70.974c-.424 4.939-.847 10.161-1.552 15.523 32.727.141 50.077-8.185 56.566-11.995 0-2.399-.141-3.528-.141-3.528z" fill="#402B2B" fill-opacity=".45" style="mix-blend-mode:multiply"/><path d="M155.754 435.128c-15.094-26.672-26.943-35.705-26.943-35.705-6.489 3.67-1.552 28.79-1.552 28.79 4.091 8.044 6.912 15.242 12.978 22.298l15.517-15.383z" fill="#D1402C"/><path d="M128.81 399.424s-.706 16.229-2.822 94.271c0 0-19.184 9.738-57.413 2.964 0 0-.14-23.427-5.36-44.172 0 0-9.734-39.092-4.796-50.523 0 0 31.175-19.334 70.391-2.54z" fill="url(#paint49_linear_2596:282)"/><path d="M99.183 383.954l.282 10.105s-2.398 3.528-8.182 3.952c-5.783.282-8.605-2.964-8.605-2.964l-.564-15.044c7.194 3.105 14.248 4.375 17.069 3.951z" fill="url(#paint50_linear_2596:282)"/><path d="M98.621 379.807l.565 11.149c-2.822.423-9.875-.847-16.928-3.951l-.423-7.198h16.787z" fill="url(#paint51_linear_2596:282)" style="mix-blend-mode:multiply"/><path d="M60.394 423.979s8.322 18.77 11.285 27.238c2.962 8.326 2.962 41.491 18.48 47.841 0 0-16.505-.988-21.725-2.399 0 0-.282-24.979-5.36-44.172 0 0-3.527-20.181-4.937-29.354l2.257.846z" fill="#EE4D47" fill-opacity=".29" style="mix-blend-mode:multiply"/><path d="M71.397 355.251c.282.142.564 4.657.564 4.657l1.128 9.456 5.22 4.093 2.962 1.27s4.373-1.835 3.809-3.529c-.564-1.552-3.386-23.85-3.95-23.85-.564 0-5.078 3.246-5.078 3.246l-4.656 4.657zm41.33-8.467c1.269 0-.705 15.524-.705 15.524l-2.257-6.21-1.552-7.48 4.514-1.834z" fill="#402B2B"/><path d="M110.613 349.888l2.398 19.899s.846 16.794-12.978 17.782c-13.824.847-23.276-12.842-23.276-12.842s-1.692 1.975-3.526-1.412c-1.693-3.387-.564-7.903 1.834-8.326 2.539-.282 3.667 1.129 3.95 3.246a87.08 87.08 0 00.564 3.669l2.116-.282-1.552-16.371s3.244-6.35 6.912-7.621c3.668-1.27 6.912 3.811 6.912 3.811s3.386.705 6.63 0c3.245-.706 5.36-1.553 5.36-1.553s1.975.565 4.656 0z" fill="url(#paint52_linear_2596:282)"/><path d="M100.596 379.948c-4.655.283-5.36-5.08-5.36-5.08s10.72-1.27 11.002-1.411c0 0 .847 6.068-5.642 6.491z" fill="#893D43"/><path d="M95.66 376.561c-.423-.988-.564-1.693-.564-1.693s10.72-1.27 11.003-1.411c0 0 .141.705 0 1.834l-10.44 1.27z" fill="#FFFEFF"/><path d="M96.082 344.808v-14.395c-8.605.424-17.492 2.117-21.865 7.48-5.219 6.35-2.257 21.027-2.257 21.027s6.348-.705 7.477-2.822c1.128-2.117 11.85-5.081 20.03-4.657 8.182.423 12.132-.424 16.223-3.952.846-.705 1.552-1.693 2.116-2.822H96.082v.141z" fill="#402B2B"/><path d="M70.971 353.558s6.066-1.976 16.222-2.823c17.069-7.197 24.404-5.927 24.404-5.927s-.141-5.504-1.692-9.314c-1.552-3.811-11.99-9.173-20.737-8.327-8.746.847-17.774 7.339-19.184 13.548-1.129 4.799.987 12.843.987 12.843z" fill="url(#paint53_linear_2596:282)"/><path d="M81.269 351.441c1.833-8.75 14.952-13.125 24.263-12.984 9.169.142 15.658 7.762 16.645 12.984.423 2.117-1.27 2.399-1.834.564-.423-1.27-1.269-7.338-9.733-6.632-8.464.705-8.041 8.326-12.273 9.032-3.95.705-8.464-2.117-17.068-2.964z" fill="url(#paint54_linear_2596:282)"/><path d="M109.624 353.417v-.988c-.423 0-3.667-.424-7.617.423l.141 1.553c3.244-.988 7.476-.988 7.476-.988zm-23.839 3.528c2.54-1.411 7.335-2.117 7.335-2.258l-.564-1.412c-.141 0-4.514.847-7.335 2.682l.564.988z" fill="#402B2B"/><path d="M99.89 361.743s.424 2.964 1.552 3.811c1.129.846 3.104 1.552 3.386 2.258.282.564-.282 1.693-1.552 2.116-1.269.424-1.41.847-1.41.847s2.539.283 3.808-1.27c1.27-1.552-.141-2.822-1.41-3.528-1.27-.706-1.834-.988-2.398-1.411-.706-.424-1.975-2.823-1.975-2.823z" fill="#D87C60"/><path d="M93.826 363.295c0 1.412-.988 2.682-2.257 2.682-1.27 0-2.258-1.129-2.258-2.682 0-1.411.988-2.681 2.257-2.681 1.27 0 2.258 1.129 2.258 2.681zm15.516-1.834c0 1.411-.987 2.681-2.257 2.681-1.269 0-2.257-1.129-2.257-2.681 0-1.411.988-2.682 2.257-2.682 1.27.142 2.257 1.271 2.257 2.682z" fill="#402B2B"/><path d="M178.463 399.282H91.286v67.317h87.177v-67.317z" fill="#8C5E5E"/><path d="M178.603 399.282h-31.74v67.317h31.74v-67.317z" fill="#694646"/><path d="M167.74 399.282h-8.181v9.315h8.181v-9.315zm-46.833 0h-8.181v9.315h8.181v-9.315z" fill="#A3774A"/><path d="M178.606 448.817s-4.514 2.964-5.784 4.234c-1.27 1.27-3.527 13.407-1.27 14.677 2.257 1.27 6.63 0 8.041.282 1.552.283 6.066-2.54 6.066-4.798s-2.822-17.217-3.527-17.499c-.705-.283-3.526-2.117-3.526-2.117v5.221z" fill="#F4A984"/><path d="M121.896 447.83H94.671v13.265h27.225V447.83z" fill="#fff"/><path fill-rule="evenodd" clip-rule="evenodd" d="M67.87 465.047c-10.298-14.959-11.709-60.261-11.709-60.261 14.106 1.835 23.558 20.746 23.558 20.887l2.116 27.096 36.001 5.768 1.946-1.816s8.323-4.234 15.094-3.528c0 0 3.103.564 2.398 2.399-.282.988.282 1.623.846 2.258.564.635 1.129 1.27.846 2.258-.238.833-.024 1.466.187 2.088.288.853.57 1.687-.328 2.992 0 0 1.129 1.694-.141 3.246l-.182.223c-1.339 1.642-3.953 4.845-4.896 4.575-.354-.101-1.181-.239-2.108-.393-1.657-.276-3.636-.605-3.817-.877-.282-.423-.564-1.27.847-2.117 0 0-1.552.424-3.527.141-1.975-.141-4.796-1.693-4.796-1.693l-.525-.437c-39.567 3.247-51.81-2.809-51.81-2.809z" fill="url(#paint55_linear_2596:282)"/><path d="M83.67 446.277l-3.949-20.745s-7.194-21.734-21.3-23.568c0 0-10.157 6.35 2.398 49.535l22.852-5.222z" fill="url(#paint56_linear_2596:282)"/></g><defs><linearGradient id="paint0_linear_2596:282" x1="106.054" y1="831.439" x2="-631.277" y2="223.47" gradientUnits="userSpaceOnUse"><stop stop-color="#FFEDBA"/><stop offset="1" stop-color="#EE4D47"/></linearGradient><linearGradient id="paint1_linear_2596:282" x1="31.801" y1="734.893" x2="-608.865" y2="187.995" gradientUnits="userSpaceOnUse"><stop stop-color="#FFEDBA"/><stop offset="1" stop-color="#EE4D47"/></linearGradient><linearGradient id="paint2_linear_2596:282" x1="85.657" y1="-164.181" x2="85.657" y2="661.591" gradientUnits="userSpaceOnUse"><stop stop-color="#F4A984"/><stop offset="1" stop-color="#F4A984" stop-opacity="0"/></linearGradient><linearGradient id="paint3_linear_2596:282" x1="260.644" y1="329.159" x2="260.644" y2="538.408" gradientUnits="userSpaceOnUse"><stop offset=".241" stop-color="#2CA77F"/><stop offset="1" stop-color="#1B8877"/></linearGradient><linearGradient id="paint4_linear_2596:282" x1="260.644" y1="329.159" x2="260.644" y2="538.408" gradientUnits="userSpaceOnUse"><stop offset=".241" stop-color="#2CA77F"/><stop offset="1" stop-color="#1B8877"/></linearGradient><linearGradient id="paint5_linear_2596:282" x1="260.644" y1="329.159" x2="260.644" y2="538.408" gradientUnits="userSpaceOnUse"><stop offset=".241" stop-color="#2CA77F"/><stop offset="1" stop-color="#1B8877"/></linearGradient><linearGradient id="paint6_linear_2596:282" x1="265.803" y1="337.51" x2="265.803" y2="527.602" gradientUnits="userSpaceOnUse"><stop stop-color="#fff"/><stop offset="1" stop-color="#fff" stop-opacity="0"/></linearGradient><linearGradient id="paint7_linear_2596:282" x1="348.813" y1="389.085" x2="348.813" y2="533.987" gradientUnits="userSpaceOnUse"><stop offset=".422" stop-color="#2CA77F"/><stop offset="1" stop-color="#1B8877"/></linearGradient><linearGradient id="paint8_linear_2596:282" x1="348.813" y1="389.085" x2="348.813" y2="533.987" gradientUnits="userSpaceOnUse"><stop offset=".422" stop-color="#2CA77F"/><stop offset="1" stop-color="#1B8877"/></linearGradient><linearGradient id="paint9_linear_2596:282" x1="348.078" y1="411.189" x2="348.078" y2="529.566" gradientUnits="userSpaceOnUse"><stop stop-color="#fff"/><stop offset="1" stop-color="#fff" stop-opacity="0"/></linearGradient><linearGradient id="paint10_linear_2596:282" x1="119.67" y1="350.772" x2="119.67" y2="569.441" gradientUnits="userSpaceOnUse"><stop offset=".422" stop-color="#2CA77F"/><stop offset="1" stop-color="#1B8877"/></linearGradient><linearGradient id="paint11_linear_2596:282" x1="119.67" y1="350.772" x2="119.67" y2="569.441" gradientUnits="userSpaceOnUse"><stop offset=".422" stop-color="#2CA77F"/><stop offset="1" stop-color="#1B8877"/></linearGradient><linearGradient id="paint12_linear_2596:282" x1="113.529" y1="394.484" x2="113.529" y2="549.583" gradientUnits="userSpaceOnUse"><stop stop-color="#fff"/><stop offset="1" stop-color="#fff" stop-opacity="0"/></linearGradient><linearGradient id="paint13_linear_2596:282" x1="249.579" y1="391.577" x2="249.579" y2="435.723" gradientUnits="userSpaceOnUse"><stop stop-color="#D3D86C"/><stop offset="1" stop-color="#82A637"/></linearGradient><linearGradient id="paint14_linear_2596:282" x1="179.596" y1="296.483" x2="179.596" y2="377.296" gradientUnits="userSpaceOnUse"><stop stop-color="#D3D86C"/><stop offset="1" stop-color="#82A637"/></linearGradient><linearGradient id="paint15_linear_2596:282" x1="45.849" y1="419.538" x2="45.849" y2="530.354" gradientUnits="userSpaceOnUse"><stop stop-color="#D3D86C"/><stop offset="1" stop-color="#82A637"/></linearGradient><linearGradient id="paint16_linear_2596:282" x1="45.894" y1="446.749" x2="45.894" y2="530.355" gradientUnits="userSpaceOnUse"><stop stop-color="#084F15" stop-opacity="0"/><stop offset="1" stop-color="#084F15"/></linearGradient><linearGradient id="paint17_linear_2596:282" x1="27.088" y1="451.526" x2="27.088" y2="530.44" gradientUnits="userSpaceOnUse"><stop stop-color="#084F15" stop-opacity="0"/><stop offset="1" stop-color="#084F15"/></linearGradient><linearGradient id="paint18_linear_2596:282" x1="9.948" y1="465.944" x2="9.948" y2="530.355" gradientUnits="userSpaceOnUse"><stop stop-color="#084F15" stop-opacity="0"/><stop offset="1" stop-color="#084F15"/></linearGradient><linearGradient id="paint19_linear_2596:282" x1="-5.23" y1="487.442" x2="-5.23" y2="530.44" gradientUnits="userSpaceOnUse"><stop stop-color="#084F15" stop-opacity="0"/><stop offset="1" stop-color="#084F15"/></linearGradient><linearGradient id="paint20_linear_2596:282" x1="64.612" y1="451.526" x2="64.612" y2="530.44" gradientUnits="userSpaceOnUse"><stop stop-color="#084F15" stop-opacity="0"/><stop offset="1" stop-color="#084F15"/></linearGradient><linearGradient id="paint21_linear_2596:282" x1="81.794" y1="466.029" x2="81.794" y2="530.44" gradientUnits="userSpaceOnUse"><stop stop-color="#084F15" stop-opacity="0"/><stop offset="1" stop-color="#084F15"/></linearGradient><linearGradient id="paint22_linear_2596:282" x1="96.932" y1="487.442" x2="96.932" y2="530.44" gradientUnits="userSpaceOnUse"><stop stop-color="#084F15" stop-opacity="0"/><stop offset="1" stop-color="#084F15"/></linearGradient><linearGradient id="paint23_linear_2596:282" x1="138.161" y1="459.921" x2="138.161" y2="530.44" gradientUnits="userSpaceOnUse"><stop stop-color="#D3D86C"/><stop offset="1" stop-color="#82A637"/></linearGradient><linearGradient id="paint24_linear_2596:282" x1="138.246" y1="477.29" x2="138.246" y2="530.44" gradientUnits="userSpaceOnUse"><stop stop-color="#084F15" stop-opacity="0"/><stop offset="1" stop-color="#084F15"/></linearGradient><linearGradient id="paint25_linear_2596:282" x1="126.391" y1="480.191" x2="126.391" y2="530.355" gradientUnits="userSpaceOnUse"><stop stop-color="#084F15" stop-opacity="0"/><stop offset="1" stop-color="#084F15"/></linearGradient><linearGradient id="paint26_linear_2596:282" x1="115.477" y1="489.49" x2="115.477" y2="530.44" gradientUnits="userSpaceOnUse"><stop stop-color="#084F15" stop-opacity="0"/><stop offset="1" stop-color="#084F15"/></linearGradient><linearGradient id="paint27_linear_2596:282" x1="105.801" y1="503.055" x2="105.801" y2="530.355" gradientUnits="userSpaceOnUse"><stop stop-color="#084F15" stop-opacity="0"/><stop offset="1" stop-color="#084F15"/></linearGradient><linearGradient id="paint28_linear_2596:282" x1="96.077" y1="519.008" x2="96.077" y2="530.44" gradientUnits="userSpaceOnUse"><stop stop-color="#084F15" stop-opacity="0"/><stop offset="1" stop-color="#084F15"/></linearGradient><linearGradient id="paint29_linear_2596:282" x1="150.183" y1="480.362" x2="150.183" y2="530.44" gradientUnits="userSpaceOnUse"><stop stop-color="#084F15" stop-opacity="0"/><stop offset="1" stop-color="#084F15"/></linearGradient><linearGradient id="paint30_linear_2596:282" x1="161.1" y1="489.49" x2="161.1" y2="530.44" gradientUnits="userSpaceOnUse"><stop stop-color="#084F15" stop-opacity="0"/><stop offset="1" stop-color="#084F15"/></linearGradient><linearGradient id="paint31_linear_2596:282" x1="170.778" y1="503.14" x2="170.778" y2="530.44" gradientUnits="userSpaceOnUse"><stop stop-color="#084F15" stop-opacity="0"/><stop offset="1" stop-color="#084F15"/></linearGradient><linearGradient id="paint32_linear_2596:282" x1="180.502" y1="519.008" x2="180.502" y2="530.44" gradientUnits="userSpaceOnUse"><stop stop-color="#084F15" stop-opacity="0"/><stop offset="1" stop-color="#084F15"/></linearGradient><linearGradient id="paint33_linear_2596:282" x1="-322.093" y1="315.115" x2="-322.093" y2="665.867" gradientUnits="userSpaceOnUse"><stop offset=".278" stop-color="#EEEF99"/><stop offset=".77" stop-color="#B9D079"/></linearGradient><linearGradient id="paint34_linear_2596:282" x1="-322.093" y1="315.115" x2="-322.093" y2="665.867" gradientUnits="userSpaceOnUse"><stop offset=".278" stop-color="#EEEF99"/><stop offset=".77" stop-color="#B9D079"/></linearGradient><linearGradient id="paint35_linear_2596:282" x1="-25.186" y1="528.12" x2="-25.186" y2="687.425" gradientUnits="userSpaceOnUse"><stop stop-color="#fff"/><stop offset="1" stop-color="#fff" stop-opacity="0"/></linearGradient><linearGradient id="paint36_linear_2596:282" x1="-82.055" y1="481.158" x2="-82.055" y2="638.397" gradientUnits="userSpaceOnUse"><stop offset=".164" stop-color="#82A637"/><stop offset=".891" stop-color="#1B8877"/></linearGradient><linearGradient id="paint37_linear_2596:282" x1="330.924" y1="458.391" x2="330.924" y2="-233.609" gradientUnits="userSpaceOnUse"><stop stop-color="#FFEDBA" stop-opacity="0"/><stop offset="1" stop-color="#EB2A24"/></linearGradient><linearGradient id="paint38_linear_2596:282" x1="167.6" y1="34.362" x2="167.715" y2="297.651" gradientUnits="userSpaceOnUse"><stop stop-color="#fff"/><stop offset="1" stop-color="#fff" stop-opacity="0"/></linearGradient><linearGradient id="paint39_linear_2596:282" x1="-10.496" y1="279.802" x2="-10.412" y2="472.36" gradientUnits="userSpaceOnUse"><stop stop-color="#fff"/><stop offset="1" stop-color="#fff" stop-opacity="0"/></linearGradient><linearGradient id="paint40_linear_2596:282" x1="226.428" y1="469.797" x2="222.439" y2="428.685" gradientUnits="userSpaceOnUse"><stop stop-color="#FFB3B6"/><stop offset="1" stop-color="#FFC8C1"/></linearGradient><linearGradient id="paint41_linear_2596:282" x1="230.549" y1="442.657" x2="230.549" y2="666.944" gradientUnits="userSpaceOnUse"><stop stop-color="#F4A984"/><stop offset="1" stop-color="#EE4D47"/></linearGradient><linearGradient id="paint42_linear_2596:282" x1="249.625" y1="400.613" x2="249.79" y2="353.054" gradientUnits="userSpaceOnUse"><stop stop-color="#FFB3B6"/><stop offset="1" stop-color="#FFC8C1"/></linearGradient><linearGradient id="paint43_linear_2596:282" x1="269.049" y1="376.656" x2="264.318" y2="343.097" gradientUnits="userSpaceOnUse"><stop stop-color="#FFB3B6"/><stop offset="1" stop-color="#FFC8C1"/></linearGradient><linearGradient id="paint44_linear_2596:282" x1="272.095" y1="443.995" x2="272.095" y2="662.95" gradientUnits="userSpaceOnUse"><stop stop-color="#F4A984"/><stop offset="1" stop-color="#EE4D47"/></linearGradient><linearGradient id="paint45_linear_2596:282" x1="268.104" y1="369.151" x2="267.06" y2="361.173" gradientUnits="userSpaceOnUse"><stop stop-color="#FFB3B6"/><stop offset="1" stop-color="#FFC8C1"/></linearGradient><linearGradient id="paint46_linear_2596:282" x1="128.175" y1="673.626" x2="128.175" y2="695.062" gradientUnits="userSpaceOnUse"><stop stop-color="#F4A984"/><stop offset="1" stop-color="#EE4D47"/></linearGradient><linearGradient id="paint47_linear_2596:282" x1="56.374" y1="665.907" x2="56.374" y2="695.167" gradientUnits="userSpaceOnUse"><stop stop-color="#F4A984"/><stop offset="1" stop-color="#EE4D47"/></linearGradient><linearGradient id="paint48_linear_2596:282" x1="80.351" y1="441.646" x2="80.351" y2="679.64" gradientUnits="userSpaceOnUse"><stop stop-color="#822626"/><stop offset=".943" stop-color="#402B2B"/></linearGradient><linearGradient id="paint49_linear_2596:282" x1="92.915" y1="367.916" x2="92.915" y2="501.971" gradientUnits="userSpaceOnUse"><stop stop-color="#F4A984"/><stop offset="1" stop-color="#EE4D47"/></linearGradient><linearGradient id="paint50_linear_2596:282" x1="85.009" y1="393.331" x2="99.284" y2="399.488" gradientUnits="userSpaceOnUse"><stop stop-color="#FFB3B6"/><stop offset="1" stop-color="#FFC8C1"/></linearGradient><linearGradient id="paint51_linear_2596:282" x1="84.73" y1="386.252" x2="99.085" y2="392.332" gradientUnits="userSpaceOnUse"><stop stop-color="#FFB3B6" stop-opacity=".31"/><stop offset="1" stop-color="#FFC8C1"/></linearGradient><linearGradient id="paint52_linear_2596:282" x1="114.849" y1="382.737" x2="111.796" y2="355.452" gradientUnits="userSpaceOnUse"><stop stop-color="#FFB3B6"/><stop offset="1" stop-color="#FFC8C1"/></linearGradient><linearGradient id="paint53_linear_2596:282" x1="90.625" y1="312.859" x2="90.625" y2="353.892" gradientUnits="userSpaceOnUse"><stop stop-color="#F4A984"/><stop offset="1" stop-color="#EE4D47"/></linearGradient><linearGradient id="paint54_linear_2596:282" x1="89.553" y1="334.391" x2="89.553" y2="377.049" gradientUnits="userSpaceOnUse"><stop stop-color="#F4A984"/><stop offset="1" stop-color="#EE4D47"/></linearGradient><linearGradient id="paint55_linear_2596:282" x1="70.054" y1="444.084" x2="143.183" y2="468.461" gradientUnits="userSpaceOnUse"><stop stop-color="#FFB3B6"/><stop offset="1" stop-color="#FFC8C1"/></linearGradient><linearGradient id="paint56_linear_2596:282" x1="69.106" y1="387.612" x2="69.106" y2="438.396" gradientUnits="userSpaceOnUse"><stop stop-color="#F4A984"/><stop offset="1" stop-color="#EE4D47"/></linearGradient><clipPath id="clip0_2596:282"><path fill="#fff" d="M0 0h320v706H0z"/></clipPath></defs></svg>