<svg fill="none" viewBox="0 0 320 636" xmlns="http://www.w3.org/2000/svg"><g clip-path="url(#bo)"><path d="M517-189H-681v759H417c55.2 0 100-44.8 100-100v-659z" fill="url(#bb)"/><mask id="a" x="-522" y="0" width="969" height="589" style="mask-type:alpha" maskUnits="userSpaceOnUse"><path d="M447 0h-969v589h869c55.2 0 100-44.8 100-100V0z" fill="url(#ba)"/></mask><g mask="url(#a)"><path d="M406.9 282.1h-6.5a2.4 2.4 0 00-2.4 2.4v146.8a3.4 3.4 0 11-6.7 0v-90.6c0-5-4.1-9.2-9.2-9.2h-.2c-5 0-9 4-9 9s-4 9-9 9h-36.7a4.6 4.6 0 00-4.6 4.6v2.5c0 1.1-1 2-2 2-1.1 0-2 1-2 2v32.7a5 5 0 01-5 5 5 5 0 00-5 5v21.5a6.3 6.3 0 01-6.3 6.3 6.3 6.3 0 00-6.3 6.3V469a2.2 2.2 0 11-4.5 0V284.4c0-1-.8-1.8-1.8-1.8a1.8 1.8 0 01-1.8-1.8v-16.2a3.1 3.1 0 00-3.1-3.1 3.1 3.1 0 01-3.2-3.2v-15.7c0-1.2-1-2.1-2.1-2.1a2.1 2.1 0 01-2.1-2.1v-8.8a10 10 0 00-10-10h-7.3a10 10 0 00-10 10v8.8c0 1.2-1 2.1-2.1 2.1s-2.1 1-2.1 2.1v15.7a3.1 3.1 0 01-3.1 3.2 3.1 3.1 0 00-3.2 3.1v16.3c0 .8-.7 1.5-1.5 1.5s-1.5.7-1.5 1.5v125.7c0 2-1.6 3.6-3.6 3.6a3.6 3.6 0 00-3.6 3.6v50a4.4 4.4 0 01-4.4 4.4h-4a.4.4 0 01-.4-.4.4.4 0 00-.4-.4h-1.3a.7.7 0 110-1.4h.7a1 1 0 100-2h-.6a.8.8 0 010-1.6h.6a1 1 0 100-2h-.7a.7.7 0 110-1.4h.7c.6 0 1-.5 1-1s-.5-1-1-1h-.7a.7.7 0 110-1.4h.7a1 1 0 100-2h-.7a.7.7 0 110-1.4h.7c.6 0 1-.5 1-1 0-.6-.5-1-1-1h-.7a.7.7 0 110-1.4h.7a1 1 0 100-2h-.7a.7.7 0 110-1.4h.7c.6 0 1-.5 1-1 0-.6-.5-1-1-1h-.7a.7.7 0 110-1.4h.7c.6 0 1-.5 1-1 0-.6-.5-1-1-1h-.7a.7.7 0 110-1.4h.7c.6 0 1-.5 1-1s-.5-1-1-1h-.7a.7.7 0 110-1.4h.7a1 1 0 100-2h-.2c-.7 0-1.2-.6-1.2-1.2v-.4c0-.7.5-1.2 1.2-1.2h.2a1 1 0 100-2h-.7a.7.7 0 110-1.4h.7a1 1 0 100-2h-.7a.7.7 0 110-1.4h.7c.6 0 1-.5 1-1 0-.6-.5-1-1-1h-.7a.7.7 0 110-1.4h.7a1 1 0 100-2h-.7a.7.7 0 110-1.4h.7c.6 0 1-.5 1-1s-.5-1-1-1h-.7a.7.7 0 110-1.4h.7c.6 0 1-.5 1-1s-.5-1-1-1h-.7a.7.7 0 110-1.4h.7c.6 0 1-.5 1-1s-.5-1-1-1h-.7a.7.7 0 110-1.4h.7a1 1 0 100-2h-.7a.7.7 0 110-1.4h.7a1 1 0 100-2h-.7a.7.7 0 110-1.4h.7a1 1 0 100-2h-.7a.7.7 0 110-1.4h.7a1 1 0 100-2h-.7a.7.7 0 110-1.4h.7a1 1 0 100-2h-.7a.7.7 0 110-1.4h.7a1 1 0 100-2h-.2c-.7 0-1.2-.6-1.2-1.2v-.8c0-.7.5-1.2 1.2-1.2h.2c.6 0 1-.5 1-1 0-.6-.5-1-1-1h-.7a.7.7 0 110-1.4h.7c.6 0 1-.5 1-1 0-.6-.5-1-1-1h-.7a.7.7 0 110-1.4h.7c.6 0 1-.5 1-1s-.5-1-1-1h-.7a.7.7 0 110-1.4h.7a1 1 0 100-2h-.2c-.7 0-1.2-.6-1.2-1.2v-1.3c0-.5-.4-1-1-1a1 1 0 01-1-1v-1.3c0-1.2-1-2.2-2.2-2.2h-.2a2.4 2.4 0 01-2.5-2.5v-6.5c0-1-.8-1.8-1.8-1.8a1.8 1.8 0 01-1.8-1.8v-5.7a7.5 7.5 0 00-6-7.4l-5.3-1.1a3.4 3.4 0 01-2.6-3.3v-19c0-.4-.3-.7-.7-.7-.4 0-.7.3-.7.7v19.2c0 1.2-1.1 2-2.2 1.8a1.8 1.8 0 00-2.2 1.8v14c0 .8-.7 1.5-1.5 1.5s-1.5.7-1.5 1.5v6.8c0 1.4-1.1 2.4-2.4 2.4h-.5c-1 0-2 .9-2 2v1c0 .5-.4 1-1 1-.5 0-1 .4-1 1v.8c0 1-.8 1.7-1.7 1.7h-14a10 10 0 00-10 10v2.6a10 10 0 01-10 10h-10.1a10 10 0 00-3.6.7l-17.6 6.8c-.6.3-1 .8-1 1.5v7c0 .9.7 1.6 1.6 1.6h.4a1.2 1.2 0 110 2.4h-.8a1.2 1.2 0 100 2.4h.8a1.2 1.2 0 110 2.4h-.8a1.2 1.2 0 100 2.4h.8c.7 0 1.2.6 1.2 1.2 0 .7-.6 1.2-1.2 1.2h-.8a1.2 1.2 0 100 2.4h.8a1.2 1.2 0 110 2.4h-.8a1.2 1.2 0 100 2.4h1.1a1 1 0 110 1.8H95a7.4 7.4 0 01-7-4.8l-4.5-12.2a2.6 2.6 0 00-4.9 0c-1 2.8-5.3 2-5.3-1V402c0-8.1 0-16.3-.2-24.4l-.2-10.6c-.2-7.5-.4-15-.8-22.8l-.4-11-1-21.2-.2-2.4-1.2-18.7c-.8-11.4-1.8-22.8-2.8-34.2a9.6 9.6 0 00-9.6-8.8H22c-3 0-5.5 2.2-5.5 5l-.6 7.3-.6 6.3-1 11.6-.4 5.3c-.2 3.3-.4 6.5-.8 9.8-.2 1.4-.2 2.9-.2 4l-.8 12.6-.2 4.3-.6 13.2-.2 2.8-.6 12.4v2.4c-.2 4.7-.4 9.4-.4 14v2.9l-.4 14.4v.6l-.2 14.4v22.9a4.4 4.4 0 01-4.4 4.4 4.4 4.4 0 00-4.4 4.4v48.8a5.2 5.2 0 01-5.2 5.2h-4.7a.5.5 0 010-1h.4c.5 0 1-.4 1-1v-.4c0-.5-.4-1-1-1a1 1 0 01-1-1v-.8c0-.5.4-1 1-1 .5 0 1-.4 1-1v-.4c0-.5-.4-1-1-1a1 1 0 01-1-1v-1c0-.5.4-1 1-1 .5 0 1-.4 1-1v-.4c0-.5-.4-1-1-1a1 1 0 01-1-1v-1c0-.5.4-1 1-1 .5 0 1-.4 1-1v-.4c0-.5-.4-1-1-1a1 1 0 01-1-1v-1c0-.5.4-1 1-1 .5 0 1-.4 1-1v-.4c0-.5-.4-1-1-1a1 1 0 01-1-1v-1c0-.5.4-1 1-1 .5 0 1-.4 1-1v-.4c0-.5-.4-1-1-1a1 1 0 01-1-1v-1c0-.5.4-1 1-1 .5 0 1-.4 1-1v-.4c0-.5-.4-1-1-1a1 1 0 01-1-1v-1c0-.5.4-1 1-1 .5 0 1-.4 1-1v-.4c0-.5-.4-1-1-1-.5 0-1-.4-1-1v-1c0-.5.4-1 1-1 .5 0 1-.4 1-1v-.4c0-.5-.4-1-1-1a1 1 0 01-1-1v-1c0-.5.4-1 1-1 .5 0 1-.4 1-1v-.4c0-.5-.4-1-1-1a1 1 0 01-1-1v-1c0-.5.4-1 1-1 .5 0 1-.4 1-1v-1.2c0-.5-.4-1-1-1a1 1 0 01-1-1v-1c0-.5.4-1 1-1 .5 0 1-.4 1-1v-.4c0-.5-.4-1-1-1a1 1 0 01-1-1v-1.2c0-.5.4-1 1-1 .5 0 1-.4 1-1v-.4c0-.5-.4-1-1-1a1 1 0 01-1-1v-1c0-.5.4-1 1-1 .5 0 1-.4 1-1v-.4c0-.5-.4-1-1-1a1 1 0 01-1-1v-1c0-.5.4-1 1-1 .5 0 1-.4 1-1v-.4c0-.5-.4-1-1-1a1 1 0 01-1-1v-1c0-.5.4-1 1-1 .5 0 1-.4 1-1v-.4c0-.5-.4-1-1-1a1 1 0 01-1-1v-1c0-.5.4-1 1-1 .5 0 1-.4 1-1v-.4c0-.5-.4-1-1-1a1 1 0 01-1-1v-1c0-.5.4-1 1-1 .5 0 1-.4 1-1v-.4c0-.5-.4-1-1-1a1 1 0 01-1-1v-1c0-.5.4-1 1-1 .5 0 1-.4 1-1v-.4c0-.5-.4-1-1-1a1 1 0 01-1-1v-1c0-.5.4-1 1-1 .5 0 1-.4 1-1v-1.2c0-.5-.4-1-1-1a1 1 0 01-1-1v-1c0-.5.4-1 1-1 .5 0 1-.4 1-1v-.4c0-.5-.4-1-1-1a1 1 0 01-1-1v-1c0-.5.4-1 1-1 .5 0 1-.4 1-1v-.4c0-.5-.4-1-1-1a1 1 0 01-1-1v-1c0-.5.4-1 1-1 .5 0 1-.4 1-1v-.4c0-.5-.4-1-1-1a1 1 0 01-1-1v-3.3c0-.5.4-1 1-1 .5 0 1-.4 1-1v-.6c0-.8-.7-1.5-1.5-1.5h-3c-.8 0-1.4-.6-1.4-1.4v-.3c0-.6.5-1 1.1-1 .9 0 1.4-1 .9-1.7l-7.3-9.8a4.6 4.6 0 00-3.7-1.9h-.1c-2.5 0-4.5-2-4.5-4.5 0-.4-.4-1-.4-1.4V311c0-.4-.3-.7-.7-.7-.4 0-.7.3-.7.7v11.7c0 .4-.4 1-.4 1.4 0 2.5-2 4.5-4.5 4.5h-.1a4.6 4.6 0 00-3.7 1.9l-7.7 10.4a.8.8 0 00.6 1.2c.4 0 .8.3.8.8v.7c0 .8-.6 1.4-1.4 1.4h-3c-.8 0-1.5.7-1.5 1.5v.4c0 .6.5 1.1 1.1 1.1.6 0 1.1.5 1.1 1.1v2.9c0 .6-.5 1.1-1.1 1.1a1.1 1.1 0 100 2.2c.6 0 1.1.5 1.1 1.1v.6c0 .6-.5 1.1-1.1 1.1-.6 0-1.1.5-1.1 1.1 0 .6.5 1.1 1.1 1.1.6 0 1.1.5 1.1 1.1v.6c0 .6-.5 1.1-1.1 1.1a1.1 1.1 0 100 2.2c.6 0 1.1.5 1.1 1.1v.6c0 .6-.5 1.1-1.1 1.1a1.1 1.1 0 100 2.2c.6 0 1.1.5 1.1 1.1v.6c0 .6-.5 1.1-1.1 1.1a1.1 1.1 0 100 2.2c.6 0 1.1.5 1.1 1.1v.6c0 .6-.5 1.1-1.1 1.1a1.1 1.1 0 100 2.2c.6 0 1.1.5 1.1 1.1v.6c0 .6-.5 1.1-1.1 1.1a1.1 1.1 0 000 2.2c.6 0 1.1.5 1.1 1.1v.6c0 .6-.5 1.1-1.1 1.1a1.1 1.1 0 100 2.2c.6 0 1.1.5 1.1 1.1v.6c0 .6-.5 1.1-1.1 1.1a1.1 1.1 0 100 2.2c.6 0 1.1.5 1.1 1.1v.6c0 .6-.5 1.1-1.1 1.1a1.1 1.1 0 100 2.2c.6 0 1.1.5 1.1 1.1v.6c0 .6-.5 1.1-1.1 1.1a1.1 1.1 0 100 2.2c.6 0 1.1.5 1.1 1.1v.6c0 .6-.5 1.1-1.1 1.1a1.1 1.1 0 100 2.2c.6 0 1.1.5 1.1 1.1v.6c0 .6-.5 1.1-1.1 1.1a1.1 1.1 0 100 2.2c.6 0 1.1.5 1.1 1.1v.6c0 .6-.5 1.1-1.1 1.1a1.1 1.1 0 100 2.2h.8c.2 0 .3.1.3.3a.3.3 0 01-.3.3h-10.7a2.6 2.6 0 01-2.6-2.6V281.2a7 7 0 00-4.8-6.5l-5.4-1.9a3 3 0 00-4 2.9v1a2.1 2.1 0 11-4.2 0l.2-10a10 10 0 00-7.6-9.9l-5.2-1.3a10 10 0 00-12.4 9l-1.5 20.1-.2 2.9-.2 2.2-.2 2.8-.2 2.2-.2 2.9-.2 2.2-.2 2.9-.2 2.2-.2 2.8-.2 2.2-.2 2.9-.2 2.2-.2 2.9-.2 2.2-.2 2.8-.2 2.2-.2 2.9-.2 2.2-.2 2.9-.2 2.2-.2 2.9-.2 2.2a6.4 6.4 0 01-2.5 4.6l-1 .7a6 6 0 00-2.3 4.3l-.2 2.2-.2 2.8-.2 2.2-.2 2.9-.2 2.2-.2 2.9-.2 2.2-.2 2.6c0 .6-.5 1-1 1h-12.8a10 10 0 00-10 10v19.2a3.1 3.1 0 01-3.1 3.1 3.1 3.1 0 00-3.1 3.2v62.6a4.3 4.3 0 11-8.6 0V219c0-.9-.7-1.6-1.6-1.6-.9 0-1.6-.7-1.6-1.6v-18.3a10 10 0 00-10-10H-197a10 10 0 00-10 10V216c0 .9-.7 1.6-1.6 1.6-.9 0-1.6.7-1.6 1.6v108.4a3 3 0 01-3 3h-2.3a.6.6 0 00-.6.6v.2a.4.4 0 01-.4.4.4.4 0 00-.4.4v2.2c0 .2.2.4.4.4s.4.2.4.4v.2a.4.4 0 01-.4.4.4.4 0 00-.4.4v2.2c0 .2.2.4.4.4s.4.2.4.4v.2a.4.4 0 01-.4.4.4.4 0 00-.4.4v2.2c0 .2.2.4.4.4s.4.2.4.4v.2a.4.4 0 01-.4.4.4.4 0 00-.4.4v2.2c0 .2.2.4.4.4s.4.2.4.4v.2a.4.4 0 01-.4.4.4.4 0 00-.4.4v2.2c0 .2.2.4.4.4s.4.2.4.4v.2a.4.4 0 01-.4.4.4.4 0 00-.4.4v2.2c0 .2.2.4.4.4s.4.2.4.4v.2a.4.4 0 01-.4.4.4.4 0 00-.4.4v2.2c0 .2.2.4.4.4s.4.2.4.4v.2a.4.4 0 01-.4.4.4.4 0 00-.4.4v2.2c0 .2.2.4.4.4s.4.2.4.4v.2a.4.4 0 01-.4.4.4.4 0 00-.4.4v2.2c0 .2.2.4.4.4s.4.2.4.4v.2a.4.4 0 01-.4.4.4.4 0 00-.4.4v2.2c0 .2.2.4.4.4s.4.2.4.4v.2a.4.4 0 01-.4.4.4.4 0 00-.4.4v2.2c0 .2.2.4.4.4s.4.2.4.4v.2a.4.4 0 01-.4.4.4.4 0 00-.4.4v2.3c0 .2.2.4.4.4s.4.2.4.4v.2a.4.4 0 01-.4.4.4.4 0 00-.4.4v2.3c0 .2.2.4.4.4s.4.2.4.4v.2a.4.4 0 01-.4.4.4.4 0 00-.4.4v2.3c0 .2.2.4.4.4s.4.2.4.4v.2a.4.4 0 01-.4.4.4.4 0 00-.4.4v2.3c0 .2.2.4.4.4s.4.2.4.4v4.3a.4.4 0 01-.4.4.4.4 0 00-.4.4v2.3c0 .2.2.4.4.4s.4.2.4.4v.2a.4.4 0 01-.4.4.4.4 0 00-.4.4v.5c0 .5-.4 1-1 1h-5.9a6.8 6.8 0 01-6.8-6.8v-50.1a10 10 0 00-10-10h-15.8a10 10 0 00-10 10v28a5.2 5.2 0 01-5.2 5.2h-4c-.7 0-1.2-.5-1.2-1.2s-.6-1.2-1.2-1.2h-1a2.1 2.1 0 01-2.1-2.1V211.5c0-.9-.7-1.6-1.6-1.6-.9 0-1.6-.7-1.6-1.6V168a10 10 0 00-10-10h-36.4a10 10 0 00-10 10v40.3c0 .9-.7 1.6-1.6 1.6-.9 0-1.6.7-1.6 1.6v215.3a3.9 3.9 0 01-7.7 0v-76.4a6.8 6.8 0 00-6.8-6.8 6.8 6.8 0 01-6.8-6.8v-29.6c0-1.2-1-2.2-2.2-2.2-1.2 0-2.2-1-2.2-2.2v-6.5a8.8 8.8 0 00-8.8-8.8h-46a8.8 8.8 0 00-8.8 8.8v6.5c0 1.2-1 2.2-2.2 2.2-1.2 0-2.2 1-2.2 2.2v131a7.3 7.3 0 11-14.7 0v-73.6a10 10 0 00-10-10h-34a10 10 0 00-10 10v41.5a5.9 5.9 0 01-5.9 5.9 5.9 5.9 0 00-5.9 5.9v46.4a3.5 3.5 0 11-7 0v-160c0-.8-.6-1.4-1.4-1.4h-.8a.6.6 0 110-1.2h.8c.8 0 1.4-.6 1.4-1.4V299c0-.8-.6-1.4-1.4-1.4h-.8a.6.6 0 010-1.2h.8c.8 0 1.4-.6 1.4-1.4v-1.2c0-.8-.6-1.4-1.4-1.4h-.8a.6.6 0 110-1.2h.8c.8 0 1.4-.6 1.4-1.4v-1.2c0-.8-.6-1.4-1.4-1.4h-1a.4.4 0 010-.8h1.1c.8 0 1.5-.7 1.5-1.5v-1c0-.8-.7-1.5-1.5-1.5h-1a.6.6 0 010-1.2h1c.8 0 1.5-.7 1.5-1.5v-1c0-.8-.7-1.5-1.5-1.5h-1a.6.6 0 110-1.2h1c.8 0 1.5-.7 1.5-1.5v-1c0-.8-.7-1.5-1.5-1.5h-1a.6.6 0 010-1.2h1c.8 0 1.5-.7 1.5-1.5v-8.7c0-3.3-1.7-6.3-4-8.6-5.9-5.8-13.1-16.7-13.3-31.2v-1.5c0-1-.8-1.7-1.7-1.7h-.6c-.6 0-1.1.5-1.1 1.1 0 .6-.5 1.1-1.1 1.1h-1.3a2.4 2.4 0 01-2.4-2.5v-32c0-.5-.4-1-1-1-.5 0-1 .4-1 1v34.2a.5.5 0 01-1 0v-.6c0-.6-.5-1.1-1.1-1.1h-1.4c-.6 0-1.1.5-1.1 1.1 0 .6-.5 1.1-1.1 1.1h-4.3c-.6 0-1.1-.5-1.1-1.1 0-.6-.5-1.1-1.1-1.1h-.7c-1 0-1.8.8-1.8 1.8v.4c0 15.5-4.1 26.9-9 32.5-1.6 1.9-3 4.1-3 6.6v7.3l.1.1.1.1v2.1c0 1 .8 1.8 1.8 1.8h1.2c.3 0 .6.3.6.6s-.3.6-.6.6h-1.2c-1 0-1.8.8-1.8 1.8v.4c0 1 .8 1.8 1.8 1.8h1.2c.3 0 .6.3.6.6s-.3.6-.6.6h-1.3c-1 0-2 .9-2 2v.2c0 1 .9 2 2 2h1.5c.2 0 .4.2.4.4a.4.4 0 01-.4.4h-1.5c-1 0-2 .9-2 2v.2c0 1 .9 2 2 2h1.3a.6.6 0 110 1.2h-1.3c-1 0-2 .9-2 2v.2c0 1 .9 2 2 2h1.3a.6.6 0 010 1.2h-1.3c-1 0-2 .9-2 2v.2c0 1 .9 2 2 2h1.3a.6.6 0 110 1.2h-1.3c-1 0-2 .9-2 2v.2c0 1 .9 2 2 2h1.3a.6.6 0 110 1.2h-1.4c-1.1 0-2 1-2 2v80.2a5.7 5.7 0 01-5.7 5.7 5.7 5.7 0 00-5.7 5.7v34.5a3.1 3.1 0 01-3.1 3.1 3.1 3.1 0 00-3.1 3.2v31.8c0 1.3-1.5 2-2.8 2h-.4a4.8 4.8 0 01-4.1-4.7v-73.2a6.4 6.4 0 00-3.8-5.9l-1-.5a1 1 0 00-.4 0h-.3c-.8 0-1.5-.7-1.5-1.5v-.8a.7.7 0 00-1.4 0c0 .4-.3.7-.7.7a.6.6 0 00-.6.6c0 .3-.3.6-.6.6l-2.3.1a1.1 1.1 0 01-1.2-1.1c0-.4-.2-.8-.6-1l-.6-.3c-.3-.2-.7-.2-1-.2l-11.9.3c-.7 0-1.2.6-1.2 1.2 0 .7-.6 1.2-1.3 1.2h-.2c-.8 0-1.4.6-1.4 1.4v9.5a10 10 0 01-10 10h-2.6a10 10 0 01-10-10V307a2.6 2.6 0 00-2.6-2.6 2.6 2.6 0 01-2.6-2.6v-14.3a9.3 9.3 0 00-9.3-9.3h-5.8a3.5 3.5 0 01-3.5-3.5 3.5 3.5 0 00-3.5-3.5h-2.3a5.6 5.6 0 01-5.6-5.6 5.6 5.6 0 00-5.6-5.6h-31.5c-5 0-9 4-9 9s-4 9-9 9h-4.1a10 10 0 00-10 10v171a6.3 6.3 0 01-6.3 6.3 6.3 6.3 0 00-6.3 6.3v5.5a5.9 5.9 0 11-11.8 0v-41.3c0-5-4.1-9.2-9.2-9.2a9.2 9.2 0 01-9.2-9.2v-9.1a.4.4 0 00-.2-.3.4.4 0 01-.2-.3v-2.1c0-.8-.3-1.7-.8-2.3l-2.3-3a8.6 8.6 0 01-1.8-5.3v-2.7c0-.6-.2-1-.6-1.5-.4-.4-.6-1-.6-1.5v-8.8a.3.3 0 10-.6 0v9c0 .5-.2.9-.5 1.2-.3.3-.5.8-.5 1.2v3.3c0 2-.6 4-1.8 5.6l-1.9 2.6a3.6 3.6 0 00-.6 2v1.2c0 .5-.2.9-.6 1.1-.4.3-.6.7-.6 1.1v.5a2.1 2.1 0 01-1 1.8l-.3.1c-.5.3-.8.8-.8 1.4 0 .6-.3 1.1-.8 1.4l-.3.2a2.1 2.1 0 00-1.1 1.9v18.6a3.9 3.9 0 01-4.3 3.9 3.7 3.7 0 01-3.7-3.7V402a10 10 0 00-10-10h-5a10 10 0 00-10 10v10.8a8 8 0 01-8 8 8 8 0 00-8 8v10.3c0 1-.9 2-2 2-1 0-2 .9-2 2v22.8a1.5 1.5 0 01-3 0v-9.7c0-1.1-1-2-2-2a2 2 0 01-2-2v-99.3a10 10 0 00-10-10h-24.8c-25.4 0-46 17.9-46 43.3v12c0 4.6-3.7 8.3-8.3 8.3-7.3 0-13.2 12.6-13.2 19.5v20a10 10 0 01-10 10h-1.6a10 10 0 01-10-10v-17.4a7.2 7.2 0 00-14.4 0v51a3.1 3.1 0 11-6.3 0v-29.3c0-1-.8-1.7-1.7-1.7-1 0-1.7-.8-1.7-1.7v-19.4a6.4 6.4 0 00-6.4-6.4 6.4 6.4 0 01-6.4-6.4v-17a10 10 0 00-10-10h-7.9a10 10 0 00-10 10V511a10 10 0 0010 10H414a10 10 0 0010-10V292.1a10 10 0 00-10-10h-7.1zM178.2 397.4c0 .4-.3.7-.7.7h-1.3a.2.2 0 01-.2-.2v-.5c0-.4.3-.7.7-.7h.8c.4 0 .7.3.7.7zm0-3.5c0 .4-.3.7-.7.7h-.8a.7.7 0 110-1.4h.8c.4 0 .7.3.7.7zm0-3.7c0 .4-.3.7-.7.7h-.8a.7.7 0 010-1.4h.8c.4 0 .7.3.7.7zm0-3.7c0 .4-.3.7-.7.7h-.8a.7.7 0 010-1.4h.8c.4 0 .7.3.7.7zm0-3.7c0 .4-.3.7-.7.7h-.8a.7.7 0 010-1.4h.8c.4 0 .7.3.7.7zm0-3.7c0 .4-.3.7-.7.7h-.8a.7.7 0 010-1.4h.8c.4 0 .7.3.7.7zm0-3.5c0 .4-.3.7-.7.7h-.8a.7.7 0 010-1.4h.8c.4 0 .7.3.7.7z" fill="url(#ay)"/><path d="M263.3 366.7c-38.8 0-70.2 66.6-70.2 148.7h140.5c0-82.2-31.5-148.7-70.3-148.7z" fill="url(#g)"/><path d="M263.3 366.7c-38.8 0-70.2 66.6-70.2 148.7h140.5c0-82.2-31.5-148.7-70.3-148.7z" fill="url(#g)"/><mask id="b" x="193" y="366" width="141" height="150" style="mask-type:alpha" maskUnits="userSpaceOnUse"><path d="M263.3 366.7c-38.8 0-70.2 66.6-70.2 148.7h140.5c0-82.2-31.5-148.7-70.3-148.7z" fill="url(#g)"/></mask><g mask="url(#b)"><path d="M204.2 380.1c22.2-10 67.2-26.7 68.9-12 2.2 18.4-126.4 97.7-82.5 81 44-16.9 81.9-63 91.7-46.8 9.8 16.3-85.7 83.6-53.7 80.3s71.6-78.2 84-66.2c12.5 12-82 95-60.8 102S331 407.7 354.3 405" opacity=".2" stroke="url(#aw)" stroke-width="2"/></g><path d="M324.5 515.4h9.1c0-82.2-31.5-148.7-70.3-148.7-1.5 0-3 0-4.5.3 36.7 5 65.7 69.5 65.7 148.4z" fill="#C9D983" opacity=".3"/><path d="M341.2 407c-28.4 0-51.4 48.7-51.4 108.8h102.7c0-60-23-108.8-51.4-108.8z" fill="url(#l)"/><mask id="c" x="289" y="406" width="104" height="110" style="mask-type:alpha" maskUnits="userSpaceOnUse"><path d="M341.2 407c-28.4 0-51.4 48.7-51.4 108.8h102.7c0-60-23-108.8-51.4-108.8z" fill="url(#l)"/></mask><g mask="url(#c)"><path d="M325 382.3C305 415 272.7 474 304.8 447c40-33.7 78.3-23 62.4 0-16 22.9-62.5 10.8-58 35 3.5 19.3 55.3-9.3 80.7-26" opacity=".2" stroke="url(#au)" stroke-width="2"/></g><path d="M139 354c-45 0-81.6 71.9-81.6 160.5h163C220.4 425.9 184 354 139 354z" fill="url(#h)"/><mask id="d" x="57" y="354" width="164" height="161" style="mask-type:alpha" maskUnits="userSpaceOnUse"><path d="M139 354c-45 0-81.6 71.9-81.6 160.5h163C220.4 425.9 184 354 139 354z" fill="url(#h)"/></mask><g mask="url(#d)"><path d="M64.4 386.4c8.6-10 27.9-28.1 36.4-19.3 10.6 11-12 49.2 2.8 54 14.7 4.5 35.4-67.8 53.4-60.9 18 7-77.3 119-44.2 123 33 4.3 48.3-95.7 62.6-89 14.3 7-32.2 60.9-16.1 76.6 16 15.6 24.4-58 37.3-49.9 12.9 8.4 3.7 49.9-8.7 78" opacity=".2" stroke="url(#as)" stroke-width="2"/></g><path d="M202.2 514.5h18.2c0-88.6-36.5-160.4-81.5-160.4-3 0-6 .3-9 1 40.6 9 72.2 76.9 72.3 159.4z" fill="#C9D983" opacity=".2"/><path d="M255 416.2h-1.4v97.5h1.5v-97.5z" fill="#0C5E59"/><path d="M265.3 410c-3.2 0-6.3 2.3-8.4 4.5 1.4-2 3.4-4.5 5-5 2.5-.8 4.6-.5 4.6-.5s-2.4-3.4-6-1.8c-1.6.7-3 3-3.9 5.1.5-2 1-4.4.6-6.6-1-5.6-7-6-7-6s3.5 4.8 4 10.5l.2 2.2c-.5-3.2-1.8-7.2-5-9.3-7.8-5.2-12.7 4-12.7 4s4.4-2.8 10.3.1c4.7 2.3 6.6 7.3 7.2 9.3-.8-1.5-4-7.2-9-8-7.9-1.3-9.8 8.5-9.8 8.5s4.4-3.5 10-3.3c4.3.2 7.3 2 8.8 3.3-.8-.2-2.6-.6-4.7-.7-6.8 0-8.3 9.1-8.3 9.1l13-8a48.4 48.4 0 00-2.3 4.8c-.9 2.1-.3 7-.3 7s2.1-3.7 2.7-6c.6-2.4.5-4.7.4-5.8l8.8 9.6s2.2-5.8-4.5-8.6l-2.3-.9c1.6.2 3.5 1 5.6 2.2 3.8 2.5 6.3 6 6.3 6s2.4-7-3.5-9.9a9.2 9.2 0 00-6-.4 8.5 8.5 0 015.5-1c5.3.6 6.8 4.3 6.8 4.3s1.5-8.7-6.2-8.7z" fill="url(#ar)"/><path d="M197.7 356.3h-2.4v159.2h2.4V356.3z" fill="#0C5E59"/><path d="M213.2 342.5c-5.9 0-11.4 4.2-15.3 8 2.6-3.7 6.2-8.2 9-9 4.7-1.6 8.7-.9 8.7-.9s-4.5-6.2-11-3.3c-3 1.3-5.4 5.4-7 9.3 1-3.7 1.6-8 1-12-1.6-10.2-13-11-13-11s6.3 8.7 7.5 19l.3 4c-1-6-3.4-13.2-9-17-14.2-9.4-23 7.3-23 7.3s8.1-5 18.7.3c8.4 4.2 12 13.4 13.2 17-1.4-2.8-7.2-13.2-16.6-14.8C162.7 337 159 355 159 355s8-6.5 18-6c7.7.3 13.3 3.5 16.1 6a31.9 31.9 0 00-8.5-1.2c-12.5-.2-15 16.6-15 16.6l23.7-14.6-4.3 8.8c-1.6 4-.6 12.5-.6 12.5s4-6.6 5-10.9c1.1-4 .8-8.4.7-10.4l16.1 17.4s4-10.6-8.2-15.8l-4-1.7c3 .4 6.4 1.6 10 4a47 47 0 0111.4 10.8s4.4-12.9-6.4-18c-3.5-1.7-7.6-1.4-11-.7a15.8 15.8 0 0110-2c9.7 1.1 12.4 8.1 12.4 8.1s2.8-16-11.3-15.8z" fill="url(#aq)"/><path d="M146 496.8a72.3 72.3 0 00-8.9-22 75.1 75.1 0 00-16.3-19A72.8 72.8 0 00101 444l-2.7-1a73.4 73.4 0 00-23-4.1h-2.9a73 73 0 00-23.1 4c-.9.4-1.8.8-2.7 1a72.8 72.8 0 00-19.8 11.9l-2.2 1.9a73.2 73.2 0 00-14 17l-1.5 2.6a72.3 72.3 0 00-7.3 19.5l-.6 3A73.1 73.1 0 000 512.6h147.6c0-4.4-.4-8.7-1.1-12.9l-.5-3z" fill="url(#ap)"/><path d="M72.4 438.8v73.8h2.9v-73.8h-2.9z" fill="url(#ao)" opacity=".3"/><path d="M46.6 444L65 512.7h3L49.3 443l-2.6 1z" fill="url(#an)" opacity=".3"/><path d="M24.6 457.6l31.8 55h3.2l-32.8-56.9-2.2 2z" fill="url(#am)" opacity=".3"/><path d="M9 477.3l35.4 35.4h4l-37.9-38-1.4 2.6z" fill="url(#z)" opacity=".3"/><path d="M1.1 499.7l22.4 13h5.7l-27.5-16-.6 3z" fill="url(#p)" opacity=".3"/><path d="M79.7 512.7h3L101 444l-2.7-1-18.6 69.7z" fill="url(#cm)" opacity=".3"/><path d="M88 512.7h3.3l31.8-55-2.2-2-33 57z" fill="url(#cl)" opacity=".3"/><path d="M99.2 512.7h4l35.4-35.4-1.5-2.6-37.9 38z" fill="url(#ck)" opacity=".3"/><path d="M118.5 512.7h5.7l22.4-13-.6-3-27.5 15.9z" fill="#084F15"/><path d="M201.2 502.6a47.5 47.5 0 00-4.7-12.4l-1-1.7a45.9 45.9 0 00-9-10.8l-1.3-1.2a47 47 0 00-12.6-7.5c-.5-.2-1.1-.5-1.7-.6a45.2 45.2 0 00-14.7-2.6h-1.8a47.3 47.3 0 00-14.7 2.6l-1.7.6c-4.6 1.8-8.8 4.4-12.6 7.5l-1.4 1.2a45.9 45.9 0 00-9 10.8l-1 1.7a46.5 46.5 0 00-4.6 12.4l-.4 1.9a48.9 48.9 0 00-.8 8.2H202c0-2.8-.2-5.6-.8-8.2 0-.7 0-1.3-.2-2z" fill="url(#cj)"/><path d="M154.4 465.8v47h1.8v-47h-1.8z" fill="url(#ci)" opacity=".3"/><path d="M138.1 469l11.7 43.6h1.9l-11.8-44.3-1.7.7z" fill="url(#ch)" opacity=".3"/><path d="M124.1 477.7l20.2 35h2.1l-20.8-36-1.4 1.1z" fill="url(#cg)" opacity=".3"/><path d="M114.2 490.1l22.5 22.4h2.6l-24-24-1 1.6z" fill="url(#cf)" opacity=".3"/><path d="M109.2 504.4l14.2 8.3h3.6l-17.5-10-.4 1.8z" fill="url(#ce)" opacity=".3"/><path d="M159.1 512.7h1.9l11.7-43.6c-.5-.2-1.1-.5-1.7-.6l-11.8 44.2z" fill="url(#cd)" opacity=".3"/><path d="M164.4 512.7h2l20.3-35-1.4-1.2-21 36z" fill="url(#cc)" opacity=".3"/><path d="M171.5 512.7h2.6l22.5-22.4-.9-1.6-24.2 24z" fill="url(#cb)" opacity=".3"/><path d="M183.7 512.7h3.6l14.2-8.2c0-.6-.2-1.3-.4-2l-17.5 10.2z" fill="url(#ca)" opacity=".3"/><path d="M333 511h-812v59.9h812V511z" fill="url(#o)"/><mask id="e" x="-479" y="511" width="812" height="60" style="mask-type:alpha" maskUnits="userSpaceOnUse"><path d="M333 511h-812v59.9h812V511z" fill="url(#o)"/></mask><g mask="url(#e)"><path d="M-133.6 535c-5.4 5.8-11 9.8-17 9.5a7.5 7.5 0 01-3.7-1 4.1 4.1 0 01-1.8-2.6 7.5 7.5 0 010-3.4 20.6 20.6 0 011.5-4c2.4-5 7-11.5 11.3-17.7l1-1.6c2.5-3.4 4.8-6.6 6.6-9.6 1.8-3 3-5.5 3.7-7.4.3-1 .3-1.7.2-2.2-.1-.4-.3-.8-.8-1-.5-.3-1.3-.4-2.6-.3-1.3 0-3 .4-5 1-4 1-8.5 3.6-13.4 7.3-5 3.6-10.1 8.3-15.6 13.7-7.7 7.6-15.8 16.4-24 25.5l-10.5 11.4c-11.8 12.7-23.7 24.7-34.7 32.8-11 8-21.5 12.3-30.4 8.8-4.4-1.7-6.7-4.3-7-7.5-.3-3.1 1.4-6.6 4-10.1 5.2-7.1 15-15.3 24.3-23.1l1-1a449.3 449.3 0 0012.3-10.4c4-3.6 7.3-7 9.5-10a14.7 14.7 0 002.2-3.8c.4-1.1.4-2 0-2.7-.3-.7-1-1.4-2.1-2-1.2-.6-3-1-5.4-1.4-7.7-1-17.5 1.3-28.6 5.9-11 4.5-23.1 11.2-35.1 18.9-24 15.3-47.8 34.3-62.4 47l-1.3-1.4c14.6-13 38.4-32 62.6-47.3 12-7.7 24.3-14.4 35.5-19s21.4-7 29.6-6c2.5.3 4.5.8 6 1.6a6 6 0 013 3 5.8 5.8 0 010 4 16.6 16.6 0 01-2.4 4.4c-2.3 3-5.7 6.5-9.7 10.2-3.7 3.4-8 7-12.3 10.6l-1 .9c-9.4 7.9-19 16-24 22.8-2.5 3.5-3.8 6.4-3.6 8.8.2 2.2 1.7 4.3 5.7 5.8 7.8 3 17.5-.6 28.4-8.6 10.8-8 22.6-20 34.4-32.5l10.4-11.3c8.3-9 16.4-18 24.2-25.6 5.5-5.4 10.8-10.2 15.8-14 5-3.6 9.7-6.3 14-7.5 2-.6 3.9-1 5.4-1a7.3 7.3 0 013.6.5c1 .5 1.6 1.3 1.9 2.3.2 1 0 2-.2 3.2-.6 2.2-2 5-4 8-1.8 3-4.1 6.3-6.4 9.7l-1.1 1.6c-4.4 6.3-9 12.5-11.2 17.4a18.7 18.7 0 00-1.3 3.5 5.5 5.5 0 00-.1 2.5c0 .6.5 1 1 1.4.6.3 1.4.6 2.7.7 5 .2 10.2-3.1 15.5-8.8 4.3-4.6 8.7-10.4 13.3-16.6l3.2-4.3c5.8-7.7 12-15.4 18.8-21.3 6.9-6 14.5-10 23.2-10v2c-8 0-15.3 3.8-22 9.5-6.7 5.7-12.8 13.3-18.5 21a965.5 965.5 0 00-3.2 4.2c-4.6 6.2-9 12.2-13.5 16.8zm240.8-33.4c-1.1-1.8-3.3-3-7.1-2.8-7.6.2-15 6.4-22.3 16-7.3 9.5-14.2 22-21.2 34.6l-.1.2c-7 12.4-13.7 24.7-20.6 33.7-3.5 4.5-7 8.3-10.7 10.7-3.7 2.5-7.5 3.7-11.5 3.2s-6.6-2.2-8-4.8c-1.5-2.5-1.8-5.8-1.5-9.4.7-7.2 4.2-16.4 7.6-25.2l.8-2.1c3.2-8.2 6.3-16 7.3-21.8.5-3.2.4-5.6-.5-7.2-.8-1.5-2.4-2.5-5.5-2.5-3 0-6 1.3-9 3.8C2 530.4-1 534-4 538.3c-4.9 7.3-9.7 16.6-14.8 26.3l-3 5.7c-5.9 11.7-12.3 23.5-19.6 32.3-7.2 8.8-15.4 15-25 15-4.7 0-7.9-1.2-9.7-3.7-1.7-2.4-1.8-5.8-1-9.5s2.4-8 4.4-12.6c1.7-3.9 3.7-8 5.8-12l.5-1 .6-1.3c4.8-9.8 9.4-19.6 10.4-27 .5-3.7 0-6.7-1.6-8.9s-4.5-3.7-9.4-4.2c-15.9-1.6-32 5.4-45.9 14.8-13.8 9.5-25.2 21.4-31.4 29.4l-1.6-1.2c6.3-8.2 17.8-20.2 31.8-29.9 14-9.6 30.6-16.9 47.2-15.2 5.2.5 8.8 2.2 10.9 5 2 2.8 2.5 6.4 2 10.4-1 8-5.8 18-10.6 27.7l-1.1 2.2a341.3 341.3 0 00-5.8 12c-2 4.5-3.6 8.6-4.3 12.1-.7 3.5-.5 6.2.7 7.9 1.2 1.7 3.6 2.9 8 2.9 8.7 0 16.4-5.5 23.5-14.2 7-8.7 13.5-20.3 19.6-32l3-5.7c5-9.7 10-19.1 14.9-26.5 3-4.4 6-8.2 9.2-10.8 3.2-2.6 6.5-4.2 10.2-4.2 3.5 0 6 1.2 7.2 3.5 1.2 2.2 1.3 5.2.7 8.5-1 6.1-4.1 14.1-7.3 22.2l-.9 2.2c-3.5 9-6.8 17.8-7.5 24.7-.3 3.4 0 6.2 1.2 8.2 1.2 2 3.2 3.3 6.7 3.8 3.4.5 6.7-.6 10.1-2.9 3.4-2.3 6.8-5.8 10.3-10.3 6.9-8.9 13.6-21.1 20.5-33.6s14-25.2 21.3-34.9c7.3-9.6 15.2-16.5 23.8-16.8 4.3-.1 7.2 1.1 8.9 3.8 1.6 2.5 1.9 6 1.4 10-.4 4-1.5 8.6-2.9 13.5l-2.2 7.6v.1l-2.2 7.7a126 126 0 00-3.5 15.3c-.7 4.9-.8 9.3 0 13.1.8 3.7 2.6 6.8 5.7 9 3 2.1 7.6 3.4 14 3.4v2c-6.7 0-11.7-1.3-15.2-3.8-3.6-2.5-5.5-6-6.5-10.1-.9-4.1-.8-8.8 0-13.8.7-5 2-10.3 3.5-15.5l2.2-7.7v-.1l2.2-7.5c1.4-4.9 2.4-9.4 2.8-13.2.4-3.8 0-6.7-1.1-8.7zM304 560.4c-1.2-4-3.7-8.3-7-12.7-3.3-4.5-7.4-9.1-12-13.8-7.4-7.8-16-15.6-23.8-22.6l-4.5-4.1c-4.4-4-8.3-7.6-11.3-10.7-3-3.1-5-5.6-5.8-7.3-.4-.8-.3-1.2-.2-1.3 0-.1.3-.4 1.4-.5 2-.2 6 .4 12 2.2l.7-2c-6.2-1.8-10.4-2.5-13-2.3-1.1 0-2.2.5-2.8 1.5-.6 1-.3 2 0 3 1 2 3.3 4.9 6.3 7.9s7 6.8 11.4 10.8l4.5 4c7.7 7 16.3 14.9 23.8 22.6 4.5 4.6 8.5 9.2 11.7 13.6 3.2 4.4 5.6 8.5 6.7 12 .6 2 .9 3.5 1 4.6 0 1.2 0 1.9-.2 2.3-.1.3-.3.5-.7.5-.4 0-1 0-2-.3-2-.6-4.4-2.1-7.6-4.2a305 305 0 01-12.4-9c-7.8-5.6-17-12.3-26.4-18.1C243.7 530.3 233 525 223 523c-5-1-8.5-1.5-10.8-1.3-1.1 0-2.1.3-2.8.7a2.3 2.3 0 00-1 1l-.1 1.3c0 .8.5 1.6 1 2.4l2.4 2.7a114.3 114.3 0 007.6 6.9l5.9 5c5 4 10.6 8.8 16 13.7 7.7 7 15.2 14.5 20.2 22a25 25 0 012.5 4.5c.5 1.2.5 1.8.3 2 0 .2-.2.4-1 .5-.6 0-1.6 0-3.1-.3-2.8-.7-6.7-2.1-11.5-4.2-4.8-2-10.3-4.6-16.4-7.4l-1.5-.7c-11.8-5.5-25.3-11.8-38.6-17-13.8-5.2-27.5-9.2-38.6-9.4-4.4-.1-7.8.3-10.2 1.3-2.4 1-4 2.5-4.4 4.5-.5 2 0 4.2 1.2 6.5a37.8 37.8 0 005 7.5c8.8 10.5 25 23.2 37 31.7l1.2-1.6c-12.2-8.4-28.2-21-36.8-31.3a35.8 35.8 0 01-4.8-7c-1-2.1-1.4-4-1-5.2.3-1.3 1.2-2.4 3.2-3.1 2-.8 5-1.2 9.4-1.1 10.7.2 24 4 37.9 9.4 13.2 5 26.7 11.3 38.5 16.8l1.5.7 16.4 7.5c4.8 2 8.8 3.6 11.8 4.3 1.5.3 2.8.5 3.9.4 1-.1 2-.6 2.5-1.8.4-1 .2-2.2-.3-3.5a26.9 26.9 0 00-2.7-5c-5.2-7.6-12.7-15.3-20.5-22.3-5.5-5-11.1-9.6-16.1-13.8l-5.8-5c-3-2.5-5.7-4.8-7.5-6.7a21 21 0 01-2.1-2.5 3.8 3.8 0 01-.8-1.5v-.3c.3-.2.9-.3 1.9-.4 2-.1 5.3.3 10.2 1.3 9.7 2 20 7 30.2 13.3 9.4 5.8 18.5 12.4 26.3 18.2l1.5 1a308.1 308.1 0 0011 7.9c3.2 2 5.9 3.7 8 4.4 1 .4 2 .6 3 .4a2.8 2.8 0 002-1.7c.5-1 .6-2 .4-3.3a27.4 27.4 0 00-1-5z" clip-rule="evenodd" fill="url(#by)" fill-rule="evenodd" opacity=".7"/><path d="M-235.8 532c-83.5 0-97.5 27.7-244.7 27.7v43.7H333V510c-178.6 0-155.6 39-309.5 39-153.8 0-187-17-259.3-17z" fill="url(#bx)" opacity=".1"/></g><path d="M810 1.8H-475v800H710c55.2 0 100-44.8 100-100V1.8z" fill="url(#bw)"/></g><path d="M128.2 636.3c71.8-71.9 71.8-188.4 0-260.2-71.8-71.9-188.3-71.9-260.1 0-71.8 72-71.8 188.4 0 260.2 71.8 72 188.3 72 260 0z" fill="url(#bv)" opacity=".2"/><path d="M550 483.2c79.5-79.6 79.5-208.6 0-288.1s-208.5-79.6-288 0-79.5 208.6 0 288.1c79.5 79.6 208.5 79.6 288 0z" fill="url(#bu)" opacity=".56"/><path d="M241.6 420.1c0 3.2-.5 6-.9 9v.5c-.4 3-1 6.2-1.8 9.3a113.8 113.8 0 01-5.5 18.3l-1 2.3-.3.5v.7a5.9 5.9 0 01-1.4 2 9.3 9.3 0 01-2 1.8c-.9.4-1.9.7-2.6.8a12 12 0 01-4-.4 16.6 16.6 0 01-5-2.7c-1.6-1-2.8-2-4-3a87.2 87.2 0 01-12-14c-2.8-1-5-3.2-5-3.2l3-9.5-3 9.4-6.8-4.2 2-8.2 8 2.8 5.4 8.4v1h.2l3.3 3 3.3 3c2.3 2 4.6 3.7 6.8 5.4l1 .7 2.5 1.6c1 .6 2 1 2.8 1.2l.2-.4.8-2c2-5.4 3.4-11 4.4-16.8l.8-4.6.7-4c.4-2.8.8-5.9 1-8.6l9.7.1zm-17 36.5z" clip-rule="evenodd" fill="url(#bt)" fill-rule="evenodd"/><path d="M236.7 407.8c-4 1-7 17.8-7 17.8l11.3 7.7s10.7-17 7.6-21.5c-3.4-4.7-6-5.6-12-4z" fill="#FFEDBA"/><path d="M237 411.5l-3 17 6.3 4.2-3.2-21.2z" fill="#ED6B57" opacity=".3"/><path d="M260.1 620.1h-13.2l-.7-22.5h13l.9 22.5z" fill="#FFC3BD"/><path d="M246.7 619h13.4c.5 0 .8.2 1 .7l1.4 11a2 2 0 01-2 2.2c-4.7 0-7-.3-12.7-.3l-16 .3c-4.9 0-5.4-5.2-3.3-5.5 9.3-2 13-5 16.1-7.6.7-.5 1.4-.8 2.1-.8z" fill="#14365B"/><path d="M246.1 598.3l.3 8.5h13l-.5-8.5h-12.8z" fill="#F29994"/><path d="M245 603.3s-7.9-69.3-8.6-100.7c-.2-10.2 1.1-24.3 2.4-34h21.3l-1.4 34c-1.2 31 1.4 100.7 1.4 100.7H245z" fill="url(#bs)"/><path d="M239.5 407.5s-1.7 5.4-2.1 10.2c-.5 5.2-5.5 14.6-2.6 20 6.8 8.8 3.4 22.3 4.7 30.2h40.2c-.7-16.4-.7-26.4 7-60 0 0-8.3-2-17-2.3-6.6-.3-12.2-.5-18.1 0-8 .7-12 2-12 2z" fill="#FFEDBA"/><path d="M267.9 384.9c-1.2 5.9-2.3 16.6 1.7 20.5 0 0-1.6 5.9-12.5 5.9-12 0-5.8-6-5.8-6 6.6-1.5 6.4-6.3 5.2-11l11.3-9.4z" fill="url(#br)"/><path d="M263.3 388.8l-6.6 5.6c.3 1 .5 2 .5 3.2 2.5-.4 6-3 6.2-5.8v-3z" fill="#F29994"/><path d="M247.5 380c-4.3-6.5-3-12.4 0-15.7H259c.4 5.1 1.2 16 1.2 18 0 2.1 11-1.5 10 .8-2.6-.5-18.4 3.4-22.7-3z" fill="#0F264C"/><path d="M274 374.1c-2.2 9.5-3 13.7-8.7 17.7-8.7 6.2-19.8 1.2-20.5-8.8-.5-9 3.4-23.2 13.4-25.4a13.5 13.5 0 0116 16.5z" fill="url(#bq)"/><path d="M262.3 604.4h-19l-1.5-6 21.3-.6-.8 6.7z" fill="#4B2A2A"/><path d="M256.8 486.8c-4.5 9-3 23-2.1 35 .9 14.7 1.7 27.2 3.6 34.6 1.8-20.3 4.8-45 7-63.2-1.2-10.3-4-15.6-8.5-6.4z" fill="#EE4D47" fill-opacity=".29" style="mix-blend-mode:multiply"/><path d="M297.4 602l-12.7-51.7v-50.7l-3.9-30.7H258c-2.7 17 3.3 63.5 8 87.7l14.8 45.2h16.5z" fill="url(#bp)"/><path d="M288 620.5l-3.6-14.6h12.8l2.1 14.6h-11.2z" fill="#FFC3BD"/><path d="M283.2 626.8l4.4-6.6h11.6c1.2.7 1.8 4.5 2.3 7.9a5.2 5.2 0 01-3.7 5.6l-8 2.3h-14.2a2 2 0 01-2-2.1c0-4.1 6.8-6.7 9.7-7z" fill="#14365B"/><path d="M297.4 608l-.2-2.1h-12.9l.5 2.1h12.5z" clip-rule="evenodd" fill="#F29994" fill-rule="evenodd"/><path d="M300 606.2h-19l-1.5-6 21.3-.6-.8 6.7z" fill="#4B2A2A"/><circle transform="matrix(1 0 0 -1 279.73 371.58)" r="11.52" fill="#0F264C"/><path d="M259 374.1c0-.8-.2-1.5-.8-1.6-.5 0-1 .5-1.2 1.3 0 .8.1 1.5.7 1.6.5 0 1-.5 1.2-1.3zm-9-1.4c-.1.8-.7 1.3-1.2 1.2-.5-.1-.8-.8-.7-1.6.1-.8.7-1.4 1.2-1.2.5.1.8.8.7 1.6z" fill="#0F264C"/><path d="M249.7 371.2l-1.7-1c-.1 0 .7 1.6 1.7 1z" fill="#0F264C"/><path d="M252.2 374.4s-1.9 3.1-3.8 4.6c.8 1.2 2.7 1 2.7 1l1-5.6z" fill="#ED847E"/><path d="M255.7 384.6c-.6 0-1.2 0-2-.2-.2 0-.4-.2-.2-.4 0-.2.2-.4.4-.2 5 1 8-2.1 8-2.1.2-.2.4-.2.4 0 .2.2.2.4 0 .4 0 0-2.4 2.5-6.7 2.5z" fill="#0F264C"/><path d="M279.3 365.6c4.5 10.7-4.7 16.1-9.8 17.5l5-9.7-1-5.2c-4.5-2.8-12.3-8.5-7.6-8.9 6-.5 11.8 2.4 13.5 6.3z" fill="#D3D86C"/><path d="M258.6 357c-4.4 2.5 6.4 26.6 14.5 23.2 8-3.4 5.4-16.8 1.5-20.1-4-3.5-9.8-6.7-16-3z" fill="#0F264C"/><path d="M277.8 365.4c5.2 15.7-5.5 23.7-11.5 25.7l5.8-14.2-1.1-7.7c-5.3-4-14.4-12.4-8.8-13 7-.8 13.8 3.5 15.8 9.2z" fill="#0F264C"/><path d="M256.1 355.8s-5.4.8-8.8 7.4c-3.6 6.7 16.9-6.4 14-7.4-2.8-1-5 0-5 0z" fill="#0F264C"/><path d="M274.5 381.4a7.3 7.3 0 01-4 3.9c-2.2 1-3.7-1-3.3-3.5.4-2.1 2-5.1 4.6-5.1 2.4 0 3.6 2.4 2.7 4.7z" fill="url(#bn)"/><path d="M291 418.3a145.4 145.4 0 015.7 16.2c1.6 5.5 3 11 3.6 17 0 1.5.3 3 .4 4.6v1.3l-.1 2.2c-.1.5-.4 1.2-.8 1.8-.4.7-1 1.2-1.5 1.6a7.6 7.6 0 01-3 1.2h-2l-.7-.1a4.1 4.1 0 01-.7-.1l-2.4-.8-4.2-2a88 88 0 01-14-10v-.1a12.3 12.3 0 01-4-3.8l-6.2-6.8 4-7.5 6.8 4.7 3.3 10 .7.3c4.3 2.1 8.6 4.3 12.8 6l2.5 1-.2-1.5c-.4-2.5-1-5.1-1.8-7.6l-1-3.9-1-3.9a293.2 293.2 0 00-5.4-15.3l9.4-4.3z" clip-rule="evenodd" fill="#FFC3BD" fill-rule="evenodd"/><path d="M261.5 369h-.4c-1.5-1.6-3-1.3-3.2-1.3-.3 0-.5 0-.5-.4 0-.3 0-.5.4-.5 0 0 2.3-.4 4 1.5v.7l-.3.1zm-14.7-1.2l-.3-.1v-.7c1.8-1.9 3.9-1.5 4-1.5.3 0 .4.3.4.5s-.3.4-.5.4c-.1 0-1.7-.3-3.2 1.2l-.4.1z" fill="#0F264C"/><path d="M286.8 407.7c4 1.2 8.8 15.2 8.8 15.2l-15.7 11s-5.8-11.4-4-16.7c1.9-5.4 6.3-11 10.9-9.5z" fill="#FFEDBA"/><path d="M240.2 620.1c-1.7 0-3.3-.2-4.3-1.2-.5-.5-.7-1.2-.7-2.2 0-.5.2-1 .7-1.2 2.1-1.2 9 2.4 10 3 .2 0 .2.2.2.4s-.2.2-.2.2c-1.7.7-3.8 1-5.7 1zm-3-3.6c-.2 0-.5 0-.7.3-.2 0-.2.2-.2.5 0 .5 0 1 .5 1.5 1 1 4 1.2 7.8.5-2.6-1.4-5.7-2.7-7.4-2.7z" fill="#9FC6FF"/><path d="M245.7 619.5c-2.4-.9-6.4-4.4-6.2-6.2 0-.5.5-.9 1.7-1 1 0 1.7.1 2.4.6 2 1.8 2.6 6.2 2.6 6.2l-.2.4h-.2zm-4.3-6.6h-.2c-.7 0-.7.5-.7.5-.2 1.1 2.6 4 4.8 5-.2-1.3-.7-4-2.1-5-.5-.2-1-.5-1.7-.5zm43.5 9.1c-1.3-1-2.5-2.1-2.6-3.4-.1-.7.1-1.4.7-2.1a1.3 1.3 0 011.3-.5c2.4.3 5.7 7.1 6.1 8 .2.1 0 .3-.1.5s-.3 0-.3 0a14.4 14.4 0 01-5-2.5zm-.3-4.6c-.2-.1-.4-.3-.7-.2-.2-.1-.3 0-.5.3-.3.4-.6.8-.5 1.4.2 1.3 2.5 3.3 5.9 4.9-1.2-2.6-3-5.4-4.2-6.3z" fill="#9FC6FF"/><path d="M289.5 624.6c-1.4-2-2.5-7.2-1.3-8.4.3-.3 1-.4 2 0a4.1 4.1 0 011.5 1.9c.7 2.6-1.5 6.3-1.5 6.3 0 .2 0 .2-.4.2l-.2-.1zm.5-7.7l-.2-.1c-.6-.4-.8 0-.8 0-.8.7-.2 4.6.8 6.7.6-1.2 1.7-3.5 1.3-5.2-.3-.5-.5-1-1-1.3z" fill="#9FC6FF"/><path d="M280.2 465.5l1 3.6c.1.3 0 .5-.7.5h-41.3c-.4 0-.7-.1-.7-.4l-.4-3.6c0-.3.3-.4.7-.4h40.8c.4-.1.7 0 .7.3z" fill="#F18069"/><path d="M274.9 470h1c.3 0 .4 0 .4-.3l-.5-4.7-.4-.3h-1c-.3 0-.4.1-.4.3l.5 4.7c0 .1 0 .3.4.3zm-32.6 0h1c.3 0 .4-.1.4-.3l-.5-4.7-.4-.3h-1c-.3 0-.4.1-.4.3l.5 4.7.4.3zm16.2 0h1c.3 0 .4-.1.4-.3l-.5-4.7-.4-.3h-1c-.3 0-.4.1-.4.3l.5 4.7.4.3z" fill="#6A2828"/><path d="M258.5 372.7l-1.8-1s.7 1.7 1.8 1z" fill="#0F264C"/><path d="M164.7 371.6h-10.1l-1.4-6s4 2.2 5 .6.7-1 1.7-.7c1 .2 1-1 2.1-.3 1.3.8 3.2 4.8 2.7 6.4z" fill="#6B1912"/><path d="M154.3 623l12.4-1-.6-15.5-12.5 1.2.7 15.3z" fill="#D88D6C"/><path d="M177.5 620.8s-8.2-3.8-9.6-6.5c0 0-2.4-8.9-6.1-4.2 0 0-3.8 3-9.2.6l-.6 16.8h37.2c-1-2.6-1.8-5.5-11.7-6.6z" fill="url(#bm)"/><path d="M152 627.6l-.2 2.6 37.5-.1c0-1 .3-1.6-.2-2.6H152z" fill="#C73E39"/><path d="M99.8 620.8l12.4 2.1 3.3-15-12.3-2.1-3.4 15z" fill="#D88D6C"/><path d="M123.7 620.8s-8.2-3.8-9.6-6.5c0 0 2-7-2.5-3.5 0 0-7.6 2.9-10.8-.6l-2.5 17.4 37.2-.1c-1.2-2.6-2-5.5-11.8-6.7z" fill="url(#bl)"/><path d="M98.2 627.6l-.2 2.6 37.5-.1c0-1 .3-1.6-.2-2.6h-37z" fill="#C73E39"/><path d="M168.8 477.8s2.2 63.4.2 135.4c0 0-6 5.7-17.4 2 0 0 .1-80.3-3-112 0 0-14.3 60.4-32.5 113 0 0-12 2.2-16.4-4.6 0 0 24.5-84.9 28-133.7h41z" fill="url(#bk)"/><path d="M168.8 477.8h-41c-.3 3.7-.6 7.6-1.2 11.6 24.4.1 37.4-6 42.3-9v-2.6z" fill="#402B2B" fill-opacity=".45" style="mix-blend-mode:multiply"/><path d="M191.2 433.7C179.9 413.7 171 407 171 407c-4.8 2.7-1.2 21.5-1.2 21.5 3 6 5.2 11.4 9.7 16.7l11.6-11.5z" fill="#D1402C"/><path d="M171 407s-.4 12.2-2 70.5c0 0-14.3 7.3-43 2.2 0 0 0-17.5-4-33 0 0-7.2-29.2-3.5-37.8 0 0 23.3-14.4 52.6-2z" fill="url(#bj)"/><path d="M148.9 395.5l.2 7.5s-1.8 2.6-6.1 3c-4.3.2-6.4-2.2-6.4-2.2l-.4-11.2c5.4 2.3 10.7 3.3 12.8 3z" fill="url(#bi)"/><path d="M148.5 392.4l.4 8.3c-2.1.3-7.4-.6-12.7-3l-.3-5.4h12.5z" fill="url(#bh)" style="mix-blend-mode:multiply"/><path d="M120 425.4s6.1 14 8.3 20.4c2.2 6.2 2.2 31 13.8 35.8 0 0-12.3-.7-16.2-1.8 0 0-.2-18.7-4-33l-3.7-22 1.7.6z" fill="#EE4D47" fill-opacity=".29" style="mix-blend-mode:multiply"/><path d="M128.2 374c.2.2.4 3.6.4 3.6l.8 7 3.9 3 2.2 1s3.3-1.5 2.8-2.7c-.4-1.1-2.5-17.7-3-17.7-.4 0-3.8 2.3-3.8 2.3L128 374zm30.8-6.3c1 0-.5 11.6-.5 11.6l-1.7-4.7-1.2-5.6 3.4-1.4z" fill="#402B2B"/><path d="M157.4 370l1.8 15s.7 12.5-9.6 13.2c-10.3.6-17.4-9.6-17.4-9.6s-1.3 1.5-2.6-1-.4-5.9 1.4-6.2c1.9-.2 2.7.8 3 2.4l.4 2.8 1.6-.2-1.2-12.2s2.4-4.7 5.2-5.7c2.7-1 5.2 3 5.2 3s2.5.4 5 0c2.4-.6 4-1.3 4-1.3s1.5.4 3.5 0z" fill="url(#bg)"/><path d="M150 392.5c-3.5.2-4-3.8-4-3.8l8.2-1s.6 4.5-4.2 4.9z" fill="#893D43"/><path d="M146.3 390l-.4-1.3 8.2-1v1.4l-7.8 1z" fill="#FFFEFF"/><path d="M146.6 366.3v-10.9c-6.4.4-13 1.7-16.3 5.7-3.9 4.6-1.7 15.6-1.7 15.6s4.8-.4 5.6-2c.8-1.7 8.8-3.9 15-3.6 6.1.3 9-.3 12.1-3a6.5 6.5 0 001.6-2h-16.3z" fill="#402B2B"/><path d="M127.8 372.8s4.5-1.5 12.1-2.1c12.8-5.4 18.2-4.4 18.2-4.4s0-4.1-1.3-7c-1.2-3-9-7-15.5-6.2-6.5.6-13.3 5.5-14.3 10-.8 3.7.7 9.7.7 9.7z" fill="url(#bf)"/><path d="M135.5 371.2c1.4-6.5 11.2-9.8 18.1-9.7 6.8.1 11.7 5.8 12.4 9.7.3 1.6-1 1.8-1.4.4-.3-1-1-5.5-7.3-5s-6 6.2-9.2 6.8c-3 .5-6.3-1.6-12.8-2.2z" fill="url(#be)"/><path d="M156.7 372.7v-.7c-.3 0-2.7-.3-5.7.3l.1 1.2c2.4-.7 5.6-.7 5.6-.7zm-17.8 2.6c1.9-1 5.5-1.6 5.5-1.7l-.4-1c-.1 0-3.4.6-5.5 2l.4.7z" fill="#402B2B"/><path d="M149.4 378.9s.3 2.2 1.2 2.9c.8.6 2.3 1.2 2.5 1.7.2.4-.2 1.3-1.2 1.6-1 .3-1 .6-1 .6s2 .2 3-1-.2-2.1-1-2.6l-1.9-1c-.5-.3-1.5-2.1-1.5-2.1z" fill="#D87C60"/><path d="M144.9 380c0 1-.7 2-1.7 2s-1.7-.7-1.7-2c0-1 .7-2 1.7-2s1.7.9 1.7 2zm11.6-1.3c0 1-.7 2-1.7 2s-1.7-.8-1.7-2c0-1 .7-2 1.7-2 1 .1 1.7 1 1.7 2z" fill="#402B2B"/><path d="M208.2 407H143v50.2h65.1V407z" fill="#8C5E5E"/><path d="M208.3 407h-23.8v50.2h23.8V407z" fill="#694646"/><path d="M200.1 407h-6v7h6v-7zm-35 0H159v7h6.1v-7z" fill="#A3774A"/><path d="M208.3 444s-3.5 2.2-4.4 3.2c-1 1-2.6 10-1 11 1.7 1 5 0 6 .2 1.2.2 4.5-2 4.5-3.6 0-1.7-2-13-2.6-13l-2.6-1.6v3.9z" fill="#F4A984"/><path d="M165.9 443.2h-20.3v10h20.3v-10z" fill="#fff"/><path d="M125.5 456.1c-7.7-11.2-8.8-45-8.8-45 10.5 1.4 17.6 15.5 17.6 15.6L136 447l27 4.3 1.3-1.4s6.2-3.2 11.3-2.6c0 0 2.3.4 1.8 1.8-.2.7.2 1.2.6 1.7.4.5.8 1 .6 1.7-.2.6 0 1.1.1 1.6.2.6.4 1.3-.3 2.2 0 0 .8 1.3 0 2.4l-.2.2c-1 1.2-3 3.6-3.7 3.4l-1.6-.3c-1.2-.2-2.7-.5-2.9-.7-.2-.3-.4-1 .6-1.6 0 0-1.2.3-2.6.1-1.5-.1-3.6-1.3-3.6-1.3l-.4-.3c-29.6 2.4-38.7-2.1-38.7-2.1z" clip-rule="evenodd" fill="url(#bd)" fill-rule="evenodd"/><path d="M137.3 442l-3-15.4s-5.4-16.2-16-17.6c0 0-7.6 4.7 1.8 37l17-4z" fill="url(#bc)"/></g><defs><linearGradient id="bb" x1="150.86" x2="-781.13" y1="872.72" y2="117.57" gradientUnits="userSpaceOnUse"><stop stop-color="#FFEDBA" offset="0"/><stop stop-color="#EE4D47" offset="1"/></linearGradient><linearGradient id="ba" x1="75.99" x2="-556.82" y1="728.89" y2="175.61" gradientUnits="userSpaceOnUse"><stop stop-color="#FFEDBA" offset="0"/><stop stop-color="#EE4D47" offset="1"/></linearGradient><linearGradient id="ay" x1="130.01" x2="130.01" y1="-52.35" y2="611.15" gradientUnits="userSpaceOnUse"><stop stop-color="#F4A984" offset="0"/><stop stop-color="#F4A984" stop-opacity="0" offset="1"/></linearGradient><linearGradient id="g" x1="263.37" x2="263.37" y1="335.01" y2="519.7" gradientUnits="userSpaceOnUse"><stop stop-color="#2CA77F" offset=".24"/><stop stop-color="#1B8877" offset="1"/></linearGradient><linearGradient id="aw" x1="267.93" x2="267.93" y1="342.38" y2="510.16" gradientUnits="userSpaceOnUse"><stop stop-color="#fff" offset="0"/><stop stop-color="#fff" stop-opacity="0" offset="1"/></linearGradient><linearGradient id="l" x1="341.19" x2="341.19" y1="387.9" y2="515.79" gradientUnits="userSpaceOnUse"><stop stop-color="#2CA77F" offset=".42"/><stop stop-color="#1B8877" offset="1"/></linearGradient><linearGradient id="au" x1="340.54" x2="340.54" y1="407.41" y2="511.89" gradientUnits="userSpaceOnUse"><stop stop-color="#fff" offset="0"/><stop stop-color="#fff" stop-opacity="0" offset="1"/></linearGradient><linearGradient id="h" x1="138.95" x2="138.95" y1="354.09" y2="547.08" gradientUnits="userSpaceOnUse"><stop stop-color="#2CA77F" offset=".42"/><stop stop-color="#1B8877" offset="1"/></linearGradient><linearGradient id="as" x1="133.53" x2="133.53" y1="392.67" y2="529.56" gradientUnits="userSpaceOnUse"><stop stop-color="#fff" offset="0"/><stop stop-color="#fff" stop-opacity="0" offset="1"/></linearGradient><linearGradient id="ar" x1="253.61" x2="253.61" y1="390.1" y2="429.06" gradientUnits="userSpaceOnUse"><stop stop-color="#D3D86C" offset="0"/><stop stop-color="#82A637" offset="1"/></linearGradient><linearGradient id="aq" x1="191.84" x2="191.84" y1="306.17" y2="377.5" gradientUnits="userSpaceOnUse"><stop stop-color="#D3D86C" offset="0"/><stop stop-color="#82A637" offset="1"/></linearGradient><linearGradient id="ap" x1="73.8" x2="73.8" y1="414.78" y2="512.59" gradientUnits="userSpaceOnUse"><stop stop-color="#D3D86C" offset="0"/><stop stop-color="#82A637" offset="1"/></linearGradient><linearGradient id="ao" x1="73.84" x2="73.84" y1="438.8" y2="512.59" gradientUnits="userSpaceOnUse"><stop stop-color="#084F15" stop-opacity="0" offset="0"/><stop stop-color="#084F15" offset="1"/></linearGradient><linearGradient id="an" x1="57.24" x2="57.24" y1="443.01" y2="512.66" gradientUnits="userSpaceOnUse"><stop stop-color="#084F15" stop-opacity="0" offset="0"/><stop stop-color="#084F15" offset="1"/></linearGradient><linearGradient id="am" x1="42.11" x2="42.11" y1="455.74" y2="512.59" gradientUnits="userSpaceOnUse"><stop stop-color="#084F15" stop-opacity="0" offset="0"/><stop stop-color="#084F15" offset="1"/></linearGradient><linearGradient id="z" x1="28.71" x2="28.71" y1="474.71" y2="512.66" gradientUnits="userSpaceOnUse"><stop stop-color="#084F15" stop-opacity="0" offset="0"/><stop stop-color="#084F15" offset="1"/></linearGradient><linearGradient id="p" x1="15.17" x2="15.17" y1="496.7" y2="512.59" gradientUnits="userSpaceOnUse"><stop stop-color="#084F15" stop-opacity="0" offset="0"/><stop stop-color="#084F15" offset="1"/></linearGradient><linearGradient id="cm" x1="90.36" x2="90.36" y1="443.01" y2="512.66" gradientUnits="userSpaceOnUse"><stop stop-color="#084F15" stop-opacity="0" offset="0"/><stop stop-color="#084F15" offset="1"/></linearGradient><linearGradient id="cl" x1="105.52" x2="105.52" y1="455.81" y2="512.66" gradientUnits="userSpaceOnUse"><stop stop-color="#084F15" stop-opacity="0" offset="0"/><stop stop-color="#084F15" offset="1"/></linearGradient><linearGradient id="ck" x1="118.88" x2="118.88" y1="474.71" y2="512.66" gradientUnits="userSpaceOnUse"><stop stop-color="#084F15" stop-opacity="0" offset="0"/><stop stop-color="#084F15" offset="1"/></linearGradient><linearGradient id="cj" x1="155.27" x2="155.27" y1="450.42" y2="512.66" gradientUnits="userSpaceOnUse"><stop stop-color="#D3D86C" offset="0"/><stop stop-color="#82A637" offset="1"/></linearGradient><linearGradient id="ci" x1="155.35" x2="155.35" y1="465.75" y2="512.66" gradientUnits="userSpaceOnUse"><stop stop-color="#084F15" stop-opacity="0" offset="0"/><stop stop-color="#084F15" offset="1"/></linearGradient><linearGradient id="ch" x1="144.88" x2="144.88" y1="468.31" y2="512.59" gradientUnits="userSpaceOnUse"><stop stop-color="#084F15" stop-opacity="0" offset="0"/><stop stop-color="#084F15" offset="1"/></linearGradient><linearGradient id="cg" x1="135.25" x2="135.25" y1="476.52" y2="512.66" gradientUnits="userSpaceOnUse"><stop stop-color="#084F15" stop-opacity="0" offset="0"/><stop stop-color="#084F15" offset="1"/></linearGradient><linearGradient id="cf" x1="126.71" x2="126.71" y1="488.49" y2="512.59" gradientUnits="userSpaceOnUse"><stop stop-color="#084F15" stop-opacity="0" offset="0"/><stop stop-color="#084F15" offset="1"/></linearGradient><linearGradient id="ce" x1="118.13" x2="118.13" y1="502.57" y2="512.66" gradientUnits="userSpaceOnUse"><stop stop-color="#084F15" stop-opacity="0" offset="0"/><stop stop-color="#084F15" offset="1"/></linearGradient><linearGradient id="cd" x1="165.88" x2="165.88" y1="468.46" y2="512.66" gradientUnits="userSpaceOnUse"><stop stop-color="#084F15" stop-opacity="0" offset="0"/><stop stop-color="#084F15" offset="1"/></linearGradient><linearGradient id="cc" x1="175.52" x2="175.52" y1="476.52" y2="512.66" gradientUnits="userSpaceOnUse"><stop stop-color="#084F15" stop-opacity="0" offset="0"/><stop stop-color="#084F15" offset="1"/></linearGradient><linearGradient id="cb" x1="184.06" x2="184.06" y1="488.57" y2="512.66" gradientUnits="userSpaceOnUse"><stop stop-color="#084F15" stop-opacity="0" offset="0"/><stop stop-color="#084F15" offset="1"/></linearGradient><linearGradient id="ca" x1="192.64" x2="192.64" y1="502.57" y2="512.66" gradientUnits="userSpaceOnUse"><stop stop-color="#084F15" stop-opacity="0" offset="0"/><stop stop-color="#084F15" offset="1"/></linearGradient><linearGradient id="o" x1="-274.83" x2="-274.83" y1="335.43" y2="629.24" gradientUnits="userSpaceOnUse"><stop stop-color="#EEEF99" offset=".28"/><stop stop-color="#B9D079" offset=".77"/></linearGradient><linearGradient id="by" x1="-26.1" x2="-26.1" y1="513.77" y2="647.53" gradientUnits="userSpaceOnUse"><stop stop-color="#fff" offset="0"/><stop stop-color="#fff" stop-opacity="0" offset="1"/></linearGradient><linearGradient id="bx" x1="-73.76" x2="-73.76" y1="474.52" y2="606.23" gradientUnits="userSpaceOnUse"><stop stop-color="#82A637" offset=".16"/><stop stop-color="#1B8877" offset=".89"/></linearGradient><linearGradient id="bw" x1="417.25" x2="417.25" y1="465.79" y2="-226.21" gradientUnits="userSpaceOnUse"><stop stop-color="#FFEDBA" stop-opacity="0" offset="0"/><stop stop-color="#EB2A24" offset="1"/></linearGradient><linearGradient id="bv" x1="-131.95" x2="-131.85" y1="314.38" y2="538.4" gradientUnits="userSpaceOnUse"><stop stop-color="#fff" offset="0"/><stop stop-color="#fff" stop-opacity="0" offset="1"/></linearGradient><linearGradient id="bu" x1="262.01" x2="262.11" y1="126.71" y2="374.76" gradientUnits="userSpaceOnUse"><stop stop-color="#fff" offset="0"/><stop stop-color="#fff" stop-opacity="0" offset="1"/></linearGradient><linearGradient id="bt" x1="243.99" x2="241.01" y1="459.64" y2="428.92" gradientUnits="userSpaceOnUse"><stop stop-color="#FFB3B6" offset="0"/><stop stop-color="#FFC8C1" offset="1"/></linearGradient><linearGradient id="bs" x1="247.07" x2="247.07" y1="439.36" y2="606.96" gradientUnits="userSpaceOnUse"><stop stop-color="#F4A984" offset="0"/><stop stop-color="#EE4D47" offset="1"/></linearGradient><linearGradient id="br" x1="261.32" x2="261.45" y1="407.95" y2="372.41" gradientUnits="userSpaceOnUse"><stop stop-color="#FFB3B6" offset="0"/><stop stop-color="#FFC8C1" offset="1"/></linearGradient><linearGradient id="bq" x1="275.84" x2="272.3" y1="390.05" y2="364.97" gradientUnits="userSpaceOnUse"><stop stop-color="#FFB3B6" offset="0"/><stop stop-color="#FFC8C1" offset="1"/></linearGradient><linearGradient id="bp" x1="278.11" x2="278.11" y1="440.36" y2="603.97" gradientUnits="userSpaceOnUse"><stop stop-color="#F4A984" offset="0"/><stop stop-color="#EE4D47" offset="1"/></linearGradient><linearGradient id="bn" x1="275.13" x2="274.35" y1="384.44" y2="378.48" gradientUnits="userSpaceOnUse"><stop stop-color="#FFB3B6" offset="0"/><stop stop-color="#FFC8C1" offset="1"/></linearGradient><linearGradient id="bm" x1="170.57" x2="170.57" y1="611.95" y2="627.97" gradientUnits="userSpaceOnUse"><stop stop-color="#F4A984" offset="0"/><stop stop-color="#EE4D47" offset="1"/></linearGradient><linearGradient id="bl" x1="116.92" x2="116.92" y1="606.18" y2="628.04" gradientUnits="userSpaceOnUse"><stop stop-color="#F4A984" offset="0"/><stop stop-color="#EE4D47" offset="1"/></linearGradient><linearGradient id="bk" x1="134.84" x2="134.84" y1="438.61" y2="616.44" gradientUnits="userSpaceOnUse"><stop stop-color="#822626" offset="0"/><stop stop-color="#402B2B" offset=".94"/></linearGradient><linearGradient id="bj" x1="144.22" x2="144.22" y1="383.51" y2="483.68" gradientUnits="userSpaceOnUse"><stop stop-color="#F4A984" offset="0"/><stop stop-color="#EE4D47" offset="1"/></linearGradient><linearGradient id="bi" x1="138.32" x2="148.98" y1="402.51" y2="407.11" gradientUnits="userSpaceOnUse"><stop stop-color="#FFB3B6" offset="0"/><stop stop-color="#FFC8C1" offset="1"/></linearGradient><linearGradient id="bh" x1="138.11" x2="148.84" y1="397.22" y2="401.76" gradientUnits="userSpaceOnUse"><stop stop-color="#FFB3B6" stop-opacity=".31" offset="0"/><stop stop-color="#FFC8C1" offset="1"/></linearGradient><linearGradient id="bg" x1="160.61" x2="158.33" y1="394.59" y2="374.2" gradientUnits="userSpaceOnUse"><stop stop-color="#FFB3B6" offset="0"/><stop stop-color="#FFC8C1" offset="1"/></linearGradient><linearGradient id="bf" x1="142.51" x2="142.51" y1="342.38" y2="373.04" gradientUnits="userSpaceOnUse"><stop stop-color="#F4A984" offset="0"/><stop stop-color="#EE4D47" offset="1"/></linearGradient><linearGradient id="be" x1="141.71" x2="141.71" y1="358.46" y2="390.34" gradientUnits="userSpaceOnUse"><stop stop-color="#F4A984" offset="0"/><stop stop-color="#EE4D47" offset="1"/></linearGradient><linearGradient id="bd" x1="127.14" x2="181.79" y1="440.43" y2="458.64" gradientUnits="userSpaceOnUse"><stop stop-color="#FFB3B6" offset="0"/><stop stop-color="#FFC8C1" offset="1"/></linearGradient><linearGradient id="bc" x1="126.43" x2="126.43" y1="398.23" y2="436.18" gradientUnits="userSpaceOnUse"><stop stop-color="#F4A984" offset="0"/><stop stop-color="#EE4D47" offset="1"/></linearGradient><clipPath id="bo"><path d="M0 0h320v706H0z" fill="#fff"/></clipPath></defs></svg>