<svg width="29" height="29" viewBox="0 0 29 29" fill="none" xmlns="http://www.w3.org/2000/svg">
<path d="M17.1569 14.4099L28.4489 3.18763C29.1837 2.45767 29.1837 1.27743 28.4489 0.54747C27.7144 -0.18249 26.5267 -0.18249 25.7922 0.54747L14.4998 11.7697L3.20781 0.54747C2.47295 -0.18249 1.28567 -0.18249 0.55115 0.54747C-0.183717 1.27743 -0.183717 2.45767 0.55115 3.18763L11.8432 14.4099L0.55115 25.6321C-0.183717 26.362 -0.183717 27.5423 0.55115 28.2723C0.917206 28.6364 1.39852 28.8193 1.87948 28.8193C2.36045 28.8193 2.84141 28.6364 3.20781 28.2723L14.4998 17.05L25.7922 28.2723C26.1586 28.6364 26.6396 28.8193 27.1205 28.8193C27.6015 28.8193 28.0825 28.6364 28.4489 28.2723C29.1837 27.5423 29.1837 26.362 28.4489 25.6321L17.1569 14.4099Z" fill="white"/>
</svg>
